M48
;Layer_Color=9474304
;FILE_FORMAT=2:4
INCH
;TYPE=PLATED
T1F00S00C0.0150
T2F00S00C0.0394
T3F00S00C0.0512
T4F00S00C0.1250
%
T01
X013850Y015450
X015855Y014195
X016510Y014160
X016910Y015100
X020850
X022770Y014160
X025060Y015060
X024780Y015600
X025330Y015670
X025620Y016020
X025610Y017850
X025880Y019140
X024340Y018480
X024280Y017300
X024070Y016660
X022770Y016080
X022040Y019190
X021455Y019555
X020770Y018820
X019700Y017560
X018730Y018030
X016910Y017710
X016850Y019850
X019150
X019700Y020600
X020200Y021300
X019440Y022350
X019420Y022850
X018700Y023600
X018360Y024670
X018630Y024980
X018360Y026160
X018630Y026660
X019420Y027200
X019150Y028180
X019740Y028900
X020200Y029180
X020770Y028730
X020390Y027510
X022040Y027690
X022330Y026700
X022630Y026020
X020500Y025600
X019740Y026200
X016990Y027640
X016720Y028150
X018710Y029380
X022630Y030030
X022190Y030470
X023350Y029400
X023935Y028655
X024409Y029059
X024409Y027769
Y027039
X025950Y026840
X025574Y025536
X024865Y025535
X023910Y023230
X016510Y023350
X024826Y030015
X026200Y029420
X026130Y030800
X013780Y028630
Y025900
X013980Y024400
X013710Y024040
X014480Y023280
X014790Y022910
X015270Y022860
X015010Y022320
X014270Y022500
X014750Y021330
X014730Y020860
X014180
X013780Y019390
X013520Y019080
X014450Y018390
X014575Y017900
X014432Y017390
X014621Y016920
X014980Y016940
X015240Y017440
X013840Y016400
X013520Y015950
X015300Y025650
T02
X011900Y012900
Y013900
Y014900
X012900
Y013900
Y012900
Y015900
Y016900
Y017900
Y018900
Y019900
Y020900
Y021900
Y022900
Y023900
Y024900
Y025900
Y026900
Y027900
Y028900
Y029900
Y030900
X011900
Y029900
Y028900
Y027900
Y026900
Y025900
Y024900
Y023900
Y022900
Y021900
Y020900
Y019900
Y018900
Y017900
Y016900
Y015900
Y031900
X012900
T03
X019200Y011600
X020200
X021200
X022200
X023200
X024200
X028400Y014600
Y015600
Y016600
Y017600
Y018600
Y019600
Y021600
Y022600
Y023600
Y024600
Y025600
Y026600
Y028600
Y029600
Y030600
X025800Y033400
X024800
X023200
X022200
X021200
X020200
X019200
X018200
T04
X016000Y012000
X028000
Y033000
X016000
M30
