%FSAX24Y24*%
%MOIN*%
G70*
G01*
G75*
G04 Layer_Physical_Order=1*
G04 Layer_Color=255*
%ADD10R,0.0512X0.0591*%
%ADD11R,0.0866X0.0335*%
%ADD12O,0.0866X0.0236*%
%ADD13C,0.0100*%
%ADD14C,0.0150*%
%ADD15C,0.2500*%
%ADD16C,0.0787*%
%ADD17C,0.0650*%
%ADD18R,0.0650X0.0650*%
%ADD19C,0.0300*%
G36*
X028471Y034329D02*
X028415Y034246D01*
X028406Y034250D01*
X028206Y034298D01*
X028000Y034314D01*
X027794Y034298D01*
X027594Y034250D01*
X027403Y034171D01*
X027228Y034063D01*
X027071Y033929D01*
X026937Y033772D01*
X026829Y033597D01*
X026750Y033406D01*
X026702Y033206D01*
X026686Y033000D01*
X026702Y032794D01*
X026750Y032594D01*
X026829Y032403D01*
X026937Y032228D01*
X027071Y032071D01*
X027228Y031937D01*
X027403Y031829D01*
X027594Y031750D01*
X027794Y031702D01*
X028000Y031686D01*
X028206Y031702D01*
X028406Y031750D01*
X028597Y031829D01*
X028772Y031937D01*
X028929Y032071D01*
X029063Y032228D01*
X029171Y032403D01*
X029250Y032594D01*
X029298Y032794D01*
X029314Y033000D01*
X029298Y033206D01*
X029250Y033406D01*
X029246Y033415D01*
X029329Y033471D01*
X029800Y033000D01*
Y012000D01*
X029329Y011529D01*
X029246Y011585D01*
X029250Y011594D01*
X029298Y011794D01*
X029314Y012000D01*
X029298Y012206D01*
X029250Y012406D01*
X029171Y012597D01*
X029063Y012772D01*
X028929Y012929D01*
X028772Y013063D01*
X028597Y013171D01*
X028406Y013250D01*
X028206Y013298D01*
X028000Y013314D01*
X027794Y013298D01*
X027594Y013250D01*
X027403Y013171D01*
X027228Y013063D01*
X027071Y012929D01*
X026937Y012772D01*
X026829Y012597D01*
X026750Y012406D01*
X026702Y012206D01*
X026686Y012000D01*
X026702Y011794D01*
X026750Y011594D01*
X026829Y011403D01*
X026937Y011228D01*
X027071Y011071D01*
X027228Y010937D01*
X027403Y010829D01*
X027594Y010750D01*
X027794Y010702D01*
X028000Y010686D01*
X028206Y010702D01*
X028406Y010750D01*
X028415Y010754D01*
X028471Y010671D01*
X028000Y010200D01*
X012000D01*
X010200Y012000D01*
Y033000D01*
X012000Y034800D01*
X028000D01*
X028471Y034329D01*
D02*
G37*
%LPC*%
G36*
X021770Y022032D02*
X021140D01*
X021071Y022018D01*
X021012Y021978D01*
X020972Y021920D01*
X020959Y021850D01*
X020972Y021781D01*
X021012Y021722D01*
X021071Y021682D01*
X021140Y021668D01*
X021770D01*
X021840Y021682D01*
X021898Y021722D01*
X021938Y021781D01*
X021952Y021850D01*
X021938Y021920D01*
X021898Y021978D01*
X021840Y022018D01*
X021770Y022032D01*
D02*
G37*
G36*
X011900Y022288D02*
X011800Y022275D01*
X011706Y022236D01*
X011626Y022174D01*
X011564Y022094D01*
X011525Y022000D01*
X011512Y021900D01*
X011525Y021800D01*
X011564Y021706D01*
X011626Y021626D01*
X011706Y021564D01*
X011800Y021525D01*
X011900Y021512D01*
X012000Y021525D01*
X012094Y021564D01*
X012174Y021626D01*
X012236Y021706D01*
X012275Y021800D01*
X012288Y021900D01*
X012275Y022000D01*
X012236Y022094D01*
X012174Y022174D01*
X012094Y022236D01*
X012000Y022275D01*
X011900Y022288D01*
D02*
G37*
G36*
X021770Y021532D02*
X021140D01*
X021071Y021518D01*
X021012Y021478D01*
X021001Y021462D01*
X020335D01*
X020282Y021498D01*
X020200Y021514D01*
X020118Y021498D01*
X020049Y021451D01*
X020002Y021382D01*
X019986Y021300D01*
X020002Y021218D01*
X020049Y021149D01*
X020118Y021102D01*
X020200Y021086D01*
X020282Y021102D01*
X020351Y021149D01*
X020398Y021218D01*
X020402Y021238D01*
X021001D01*
X021012Y021222D01*
X021071Y021182D01*
X021140Y021168D01*
X021770D01*
X021840Y021182D01*
X021898Y021222D01*
X021938Y021281D01*
X021952Y021350D01*
X021938Y021419D01*
X021898Y021478D01*
X021840Y021518D01*
X021770Y021532D01*
D02*
G37*
G36*
X015805Y022032D02*
X015540D01*
X015471Y022018D01*
X015412Y021978D01*
X015372Y021920D01*
X015368Y021900D01*
X015805D01*
Y022032D01*
D02*
G37*
G36*
X018060D02*
X017430D01*
X017360Y022018D01*
X017302Y021978D01*
X017291Y021962D01*
X017070D01*
X017027Y021954D01*
X016991Y021929D01*
X016991Y021929D01*
X016774Y021712D01*
X016440D01*
X016358Y021767D01*
X016340Y021789D01*
X016342Y021800D01*
X015368D01*
X015371Y021789D01*
X015352Y021767D01*
X015270Y021712D01*
X014470D01*
X014470Y021712D01*
X014427Y021704D01*
X014391Y021679D01*
X014391Y021679D01*
X013299Y020587D01*
X013246Y020591D01*
X013195Y020599D01*
X013179Y020632D01*
X013236Y020706D01*
X013275Y020800D01*
X013288Y020900D01*
X013275Y021000D01*
X013236Y021094D01*
X013174Y021174D01*
X013094Y021236D01*
X013000Y021275D01*
X012900Y021288D01*
X012800Y021275D01*
X012706Y021236D01*
X012626Y021174D01*
X012564Y021094D01*
X012525Y021000D01*
X012512Y020900D01*
X012525Y020800D01*
X012564Y020706D01*
X012621Y020632D01*
X012603Y020597D01*
X012562Y020542D01*
X012430D01*
X012387Y020534D01*
X012351Y020509D01*
X012351Y020509D01*
X012082Y020241D01*
X012000Y020275D01*
X011900Y020288D01*
X011800Y020275D01*
X011706Y020236D01*
X011626Y020174D01*
X011564Y020094D01*
X011525Y020000D01*
X011512Y019900D01*
X011525Y019800D01*
X011564Y019706D01*
X011626Y019626D01*
X011706Y019564D01*
X011800Y019525D01*
X011900Y019512D01*
X012000Y019525D01*
X012094Y019564D01*
X012174Y019626D01*
X012236Y019706D01*
X012275Y019800D01*
X012288Y019900D01*
X012275Y020000D01*
X012241Y020082D01*
X012476Y020318D01*
X012657D01*
X012689Y020223D01*
X012626Y020174D01*
X012564Y020094D01*
X012525Y020000D01*
X012512Y019900D01*
X012525Y019800D01*
X012564Y019706D01*
X012626Y019626D01*
X012650Y019607D01*
X012618Y019512D01*
X012400D01*
X012400Y019512D01*
X012357Y019504D01*
X012321Y019479D01*
X012321Y019479D01*
X012082Y019241D01*
X012000Y019275D01*
X011900Y019288D01*
X011800Y019275D01*
X011706Y019236D01*
X011626Y019174D01*
X011564Y019094D01*
X011525Y019000D01*
X011512Y018900D01*
X011525Y018800D01*
X011564Y018706D01*
X011626Y018626D01*
X011706Y018564D01*
X011800Y018525D01*
X011900Y018512D01*
X012000Y018525D01*
X012094Y018564D01*
X012174Y018626D01*
X012236Y018706D01*
X012275Y018800D01*
X012288Y018900D01*
X012275Y019000D01*
X012241Y019082D01*
X012446Y019288D01*
X012618D01*
X012650Y019193D01*
X012626Y019174D01*
X012564Y019094D01*
X012525Y019000D01*
X012512Y018900D01*
X012525Y018800D01*
X012564Y018706D01*
X012626Y018626D01*
X012663Y018597D01*
X012631Y018502D01*
X012390D01*
X012390Y018502D01*
X012347Y018494D01*
X012311Y018469D01*
X012311Y018469D01*
X012082Y018241D01*
X012000Y018275D01*
X011900Y018288D01*
X011800Y018275D01*
X011706Y018236D01*
X011626Y018174D01*
X011564Y018094D01*
X011525Y018000D01*
X011512Y017900D01*
X011525Y017800D01*
X011564Y017706D01*
X011626Y017626D01*
X011706Y017564D01*
X011800Y017525D01*
X011900Y017512D01*
X012000Y017525D01*
X012094Y017564D01*
X012174Y017626D01*
X012236Y017706D01*
X012275Y017800D01*
X012288Y017900D01*
X012275Y018000D01*
X012241Y018082D01*
X012436Y018278D01*
X012605D01*
X012637Y018183D01*
X012626Y018174D01*
X012564Y018094D01*
X012525Y018000D01*
X012512Y017900D01*
X012525Y017800D01*
X012564Y017706D01*
X012626Y017626D01*
X012663Y017597D01*
X012631Y017502D01*
X012390D01*
X012390Y017502D01*
X012347Y017494D01*
X012311Y017469D01*
X012311Y017469D01*
X012082Y017241D01*
X012000Y017275D01*
X011900Y017288D01*
X011800Y017275D01*
X011706Y017236D01*
X011626Y017174D01*
X011564Y017094D01*
X011525Y017000D01*
X011512Y016900D01*
X011525Y016800D01*
X011564Y016706D01*
X011626Y016626D01*
X011706Y016564D01*
X011800Y016525D01*
X011900Y016512D01*
X012000Y016525D01*
X012094Y016564D01*
X012174Y016626D01*
X012236Y016706D01*
X012275Y016800D01*
X012288Y016900D01*
X012275Y017000D01*
X012241Y017082D01*
X012436Y017278D01*
X012605D01*
X012637Y017183D01*
X012626Y017174D01*
X012564Y017094D01*
X012525Y017000D01*
X012512Y016900D01*
X012525Y016800D01*
X012564Y016706D01*
X012626Y016626D01*
X012706Y016564D01*
X012800Y016525D01*
X012900Y016512D01*
X013000Y016525D01*
X013094Y016564D01*
X013174Y016626D01*
X013236Y016706D01*
X013275Y016800D01*
X013276Y016808D01*
X013478D01*
X013516Y016782D01*
X013515Y016783D01*
X013525Y016684D01*
X013082Y016241D01*
X013000Y016275D01*
X012900Y016288D01*
X012800Y016275D01*
X012706Y016236D01*
X012626Y016174D01*
X012564Y016094D01*
X012525Y016000D01*
X012512Y015900D01*
X012525Y015800D01*
X012564Y015706D01*
X012626Y015626D01*
X012676Y015587D01*
X012644Y015492D01*
X012380D01*
X012380Y015492D01*
X012337Y015484D01*
X012301Y015459D01*
X012301Y015459D01*
X012082Y015241D01*
X012000Y015275D01*
X011900Y015288D01*
X011800Y015275D01*
X011706Y015236D01*
X011626Y015174D01*
X011564Y015094D01*
X011525Y015000D01*
X011512Y014900D01*
X011525Y014800D01*
X011564Y014706D01*
X011626Y014626D01*
X011706Y014564D01*
X011800Y014525D01*
X011900Y014512D01*
X012000Y014525D01*
X012094Y014564D01*
X012174Y014626D01*
X012236Y014706D01*
X012275Y014800D01*
X012288Y014900D01*
X012275Y015000D01*
X012241Y015082D01*
X012426Y015268D01*
X012554D01*
X012626Y015174D01*
X012564Y015094D01*
X012525Y015000D01*
X012512Y014900D01*
X012525Y014800D01*
X012564Y014706D01*
X012626Y014626D01*
X012706Y014564D01*
X012800Y014525D01*
X012900Y014512D01*
X013000Y014525D01*
X013094Y014564D01*
X013174Y014626D01*
X013236Y014706D01*
X013270Y014788D01*
X014904D01*
X015071Y014621D01*
X015071Y014621D01*
X015107Y014596D01*
Y014596D01*
X015107Y014596D01*
D01*
D01*
D01*
X015107D01*
Y014596D01*
D01*
X015107Y014596D01*
X015107Y014596D01*
X015150Y014588D01*
X015150Y014588D01*
X015270D01*
X015352Y014533D01*
X015371Y014511D01*
X015359Y014450D01*
X015372Y014381D01*
X015412Y014322D01*
X015471Y014282D01*
X015540Y014268D01*
X015581D01*
X015641Y014195D01*
X015657Y014113D01*
X015704Y014043D01*
X015773Y013997D01*
X015855Y013981D01*
X015937Y013997D01*
X016007Y014043D01*
X016053Y014113D01*
X016069Y014195D01*
X016130Y014268D01*
X016170D01*
X016235Y014281D01*
X016250Y014267D01*
X016302Y014189D01*
X016296Y014160D01*
X016312Y014078D01*
X016359Y014009D01*
X016428Y013962D01*
X016510Y013946D01*
X016592Y013962D01*
X016661Y014009D01*
X016688Y014048D01*
X022592D01*
X022619Y014009D01*
X022688Y013962D01*
X022770Y013946D01*
X022852Y013962D01*
X022921Y014009D01*
X022968Y014078D01*
X022984Y014160D01*
X022968Y014242D01*
X022921Y014311D01*
X022852Y014358D01*
X022770Y014374D01*
X022688Y014358D01*
X022619Y014311D01*
X022592Y014272D01*
X019424D01*
X019395Y014368D01*
X019399Y014371D01*
X020516Y015488D01*
X021001D01*
X021012Y015472D01*
X021071Y015432D01*
X021140Y015418D01*
X021770D01*
X021840Y015432D01*
X021898Y015472D01*
X021938Y015531D01*
X021952Y015600D01*
X021938Y015669D01*
X021898Y015728D01*
X021901Y015738D01*
X022014D01*
X022731Y015021D01*
X022731Y015021D01*
X022767Y014996D01*
Y014996D01*
X022767Y014996D01*
D01*
D01*
D01*
X022767D01*
Y014996D01*
D01*
X022767Y014996D01*
X022767Y014996D01*
X022810Y014988D01*
X022891D01*
X022902Y014972D01*
X022960Y014932D01*
X023030Y014918D01*
X023660D01*
X023729Y014932D01*
X023788Y014972D01*
X023828Y015031D01*
X023841Y015100D01*
X023828Y015169D01*
X023859Y015228D01*
X024234D01*
X024481Y014981D01*
X024481Y014981D01*
X024517Y014956D01*
Y014956D01*
X024517Y014956D01*
D01*
D01*
D01*
X024517D01*
Y014956D01*
D01*
X024517Y014956D01*
X024517Y014956D01*
X024560Y014948D01*
X024560Y014948D01*
X024882D01*
X024909Y014909D01*
X024978Y014862D01*
X025060Y014846D01*
X025142Y014862D01*
X025211Y014909D01*
X025258Y014978D01*
X025274Y015060D01*
X025258Y015142D01*
X025211Y015211D01*
X025142Y015258D01*
X025060Y015274D01*
X024978Y015258D01*
X024909Y015211D01*
X024882Y015172D01*
X024606D01*
X024359Y015419D01*
X024323Y015444D01*
X024280Y015452D01*
X024316Y015488D01*
X024602D01*
X024629Y015449D01*
X024698Y015402D01*
X024780Y015386D01*
X024862Y015402D01*
X024931Y015449D01*
X024978Y015518D01*
X024994Y015600D01*
X024978Y015682D01*
X024931Y015751D01*
X024862Y015798D01*
X024780Y015814D01*
X024698Y015798D01*
X024629Y015751D01*
X024602Y015712D01*
X023799D01*
X023788Y015728D01*
X023729Y015768D01*
X023660Y015782D01*
X023030D01*
X022960Y015768D01*
X022902Y015728D01*
X022862Y015669D01*
X022851Y015613D01*
X022755Y015583D01*
X022159Y016179D01*
X022123Y016204D01*
X022080Y016212D01*
X022080Y016212D01*
X021909D01*
X021898Y016228D01*
X021840Y016268D01*
X021770Y016282D01*
X021140D01*
X021071Y016268D01*
X021012Y016228D01*
X020972Y016169D01*
X020959Y016100D01*
X020971Y016039D01*
X020952Y016017D01*
X020870Y015962D01*
X020396D01*
X018829Y017529D01*
X018793Y017554D01*
X018750Y017562D01*
X018786Y017598D01*
X018914D01*
X019991Y016521D01*
X020027Y016496D01*
X020070Y016488D01*
X020070Y016488D01*
X021001D01*
X021012Y016472D01*
X021071Y016432D01*
X021140Y016418D01*
X021770D01*
X021840Y016432D01*
X021898Y016472D01*
X021938Y016531D01*
X021952Y016600D01*
X021938Y016669D01*
X021898Y016728D01*
X021840Y016768D01*
X021770Y016782D01*
X021140D01*
X021071Y016768D01*
X021012Y016728D01*
X021001Y016712D01*
X020116D01*
X019522Y017307D01*
X019541Y017331D01*
X019541D01*
X019585Y017384D01*
X019618Y017362D01*
X019700Y017346D01*
X019746Y017355D01*
X019831Y017271D01*
X019831Y017271D01*
X019867Y017246D01*
X019910Y017238D01*
X019910Y017238D01*
X020870D01*
X020952Y017183D01*
X020971Y017161D01*
X020959Y017100D01*
X020972Y017031D01*
X021012Y016972D01*
X021071Y016932D01*
X021140Y016918D01*
X021770D01*
X021840Y016932D01*
X021898Y016972D01*
X021909Y016988D01*
X022154D01*
X022759Y016382D01*
X022730Y016286D01*
X022688Y016278D01*
X022619Y016231D01*
X022572Y016162D01*
X022556Y016080D01*
X022572Y015998D01*
X022619Y015929D01*
X022688Y015882D01*
X022770Y015866D01*
X022852Y015882D01*
X022921Y015929D01*
X022935Y015949D01*
X022960Y015932D01*
X023030Y015918D01*
X023660D01*
X023729Y015932D01*
X023788Y015972D01*
X023828Y016031D01*
X023841Y016100D01*
X023828Y016169D01*
X023788Y016228D01*
X023791Y016238D01*
X024604D01*
X025125Y015716D01*
X025116Y015670D01*
X025132Y015588D01*
X025179Y015519D01*
X025248Y015472D01*
X025330Y015456D01*
X025412Y015472D01*
X025481Y015519D01*
X025528Y015588D01*
X025544Y015670D01*
X025530Y015739D01*
X025575Y015783D01*
X025611Y015808D01*
X025620Y015806D01*
X025702Y015822D01*
X025771Y015869D01*
X025818Y015938D01*
X025834Y016020D01*
X025825Y016066D01*
X026019Y016261D01*
X026019Y016261D01*
X026044Y016297D01*
X026052Y016340D01*
Y018170D01*
X026052Y018170D01*
X026044Y018213D01*
X026044D01*
D01*
D01*
X026044Y018213D01*
D01*
D01*
D01*
D01*
X026044Y018213D01*
D01*
D01*
Y018213D01*
D01*
X026044D01*
D01*
D01*
X026044D01*
D01*
D01*
X026019Y018249D01*
X026019Y018249D01*
X025369Y018899D01*
X025333Y018924D01*
X025290Y018932D01*
X025290Y018932D01*
X022204D01*
X022175Y019028D01*
X022191Y019039D01*
X022218Y019078D01*
X025678D01*
X025682Y019058D01*
X025729Y018989D01*
X025798Y018942D01*
X025880Y018926D01*
X025962Y018942D01*
X026031Y018989D01*
X026078Y019058D01*
X026094Y019140D01*
X026078Y019222D01*
X026031Y019291D01*
X025962Y019338D01*
X025880Y019354D01*
X025798Y019338D01*
X025745Y019302D01*
X022218D01*
X022191Y019341D01*
X022122Y019388D01*
X022040Y019404D01*
X021958Y019388D01*
X021889Y019341D01*
X021842Y019272D01*
X021826Y019190D01*
X021842Y019108D01*
X021889Y019039D01*
X021905Y019028D01*
X021876Y018932D01*
X020948D01*
X020921Y018971D01*
X020852Y019018D01*
X020770Y019034D01*
X020688Y019018D01*
X020619Y018971D01*
X020572Y018902D01*
X020556Y018820D01*
X020572Y018738D01*
X020619Y018669D01*
X020688Y018622D01*
X020770Y018606D01*
X020852Y018622D01*
X020921Y018669D01*
X020948Y018708D01*
X024134D01*
X024181Y018620D01*
X024142Y018562D01*
X024136Y018530D01*
X024290D01*
Y018684D01*
X024340Y018694D01*
X024340Y018694D01*
X024354Y018708D01*
X025244D01*
X025828Y018124D01*
Y018063D01*
X025740Y018016D01*
X025692Y018048D01*
X025610Y018064D01*
X025528Y018048D01*
X025459Y018001D01*
X025432Y017962D01*
X024147D01*
X024109Y018055D01*
X024324Y018269D01*
X024290Y018276D01*
Y018430D01*
X024136D01*
X024129Y018464D01*
X023903Y018238D01*
X023774D01*
X023729Y018268D01*
X023660Y018282D01*
X023395D01*
Y018100D01*
X023345D01*
Y018050D01*
X022858D01*
X022860Y018039D01*
X022842Y018017D01*
X022760Y017962D01*
X022646D01*
X022429Y018179D01*
X022393Y018204D01*
X022350Y018212D01*
X022350Y018212D01*
X021909D01*
X021898Y018228D01*
X021840Y018268D01*
X021770Y018282D01*
X021140D01*
X021071Y018268D01*
X021012Y018228D01*
X020972Y018169D01*
X020959Y018100D01*
X020972Y018031D01*
X021012Y017972D01*
X021071Y017932D01*
X021140Y017918D01*
X021770D01*
X021840Y017932D01*
X021898Y017972D01*
X021909Y017988D01*
X022304D01*
X022521Y017771D01*
X022521Y017771D01*
X022557Y017746D01*
X022600Y017738D01*
X022760D01*
X022842Y017683D01*
X022860Y017661D01*
X022848Y017600D01*
X022862Y017531D01*
X022902Y017472D01*
X022960Y017432D01*
X023030Y017418D01*
X023660D01*
X023729Y017432D01*
X023788Y017472D01*
X023799Y017488D01*
X023934D01*
X024075Y017346D01*
X024066Y017300D01*
X024082Y017218D01*
X024129Y017149D01*
X024198Y017102D01*
X024280Y017086D01*
X024362Y017102D01*
X024431Y017149D01*
X024478Y017218D01*
X024494Y017300D01*
X024478Y017382D01*
X024431Y017451D01*
X024362Y017498D01*
X024280Y017514D01*
X024234Y017505D01*
X024059Y017679D01*
X024023Y017704D01*
X023980Y017712D01*
X024006Y017738D01*
X025432D01*
X025459Y017699D01*
X025528Y017652D01*
X025610Y017636D01*
X025692Y017652D01*
X025740Y017684D01*
X025828Y017637D01*
Y016386D01*
X025666Y016225D01*
X025620Y016234D01*
X025538Y016218D01*
X025469Y016171D01*
X025422Y016102D01*
X025406Y016020D01*
X025420Y015951D01*
X025375Y015907D01*
X025339Y015882D01*
X025330Y015884D01*
X025284Y015875D01*
X024729Y016429D01*
X024693Y016454D01*
X024650Y016462D01*
X024650Y016462D01*
X024296D01*
X024249Y016550D01*
X024268Y016578D01*
X024284Y016660D01*
X024268Y016742D01*
X024221Y016811D01*
X024152Y016858D01*
X024070Y016874D01*
X023988Y016858D01*
X023919Y016811D01*
X023872Y016742D01*
X023799Y016712D01*
X023788Y016728D01*
X023729Y016768D01*
X023660Y016782D01*
X023030D01*
X022960Y016768D01*
X022902Y016728D01*
X022877Y016691D01*
X022777Y016681D01*
X022553Y016906D01*
X022600Y016994D01*
X022630Y016988D01*
X022891D01*
X022902Y016972D01*
X022960Y016932D01*
X023030Y016918D01*
X023660D01*
X023729Y016932D01*
X023788Y016972D01*
X023828Y017031D01*
X023841Y017100D01*
X023828Y017169D01*
X023788Y017228D01*
X023729Y017268D01*
X023660Y017282D01*
X023030D01*
X022960Y017268D01*
X022902Y017228D01*
X022891Y017212D01*
X022676D01*
X022459Y017429D01*
X022423Y017454D01*
X022380Y017462D01*
X022380Y017462D01*
X022040D01*
X021958Y017517D01*
X021940Y017539D01*
X021952Y017600D01*
X021938Y017669D01*
X021898Y017728D01*
X021840Y017768D01*
X021770Y017782D01*
X021140D01*
X021071Y017768D01*
X021012Y017728D01*
X021001Y017712D01*
X020146D01*
X019489Y018369D01*
X019453Y018394D01*
X019410Y018402D01*
X019410Y018402D01*
X016195D01*
X016195Y018402D01*
X016152Y018394D01*
X016116Y018369D01*
X016116Y018369D01*
X015878Y018132D01*
X015540D01*
X015471Y018118D01*
X015412Y018078D01*
X015372Y018019D01*
X015359Y017950D01*
X015372Y017881D01*
X015412Y017822D01*
X015471Y017782D01*
X015540Y017768D01*
X016170D01*
X016240Y017782D01*
X016298Y017822D01*
X016338Y017881D01*
X016352Y017950D01*
X016338Y018019D01*
X016298Y018078D01*
X016240Y018118D01*
X016226Y018162D01*
X016242Y018178D01*
X017278D01*
X017307Y018082D01*
X017302Y018078D01*
X017262Y018019D01*
X017258Y018000D01*
X017745D01*
Y017900D01*
X017258D01*
X017258Y017899D01*
X017195Y017822D01*
X017088D01*
X017061Y017861D01*
X016992Y017908D01*
X016910Y017924D01*
X016828Y017908D01*
X016759Y017861D01*
X016712Y017792D01*
X016696Y017710D01*
X016712Y017628D01*
X016759Y017559D01*
X016828Y017512D01*
X016910Y017496D01*
X016992Y017512D01*
X017061Y017559D01*
X017088Y017598D01*
X017145D01*
X017262Y017519D01*
X017248Y017450D01*
X017262Y017381D01*
X017302Y017322D01*
X017360Y017282D01*
X017430Y017268D01*
X018060D01*
X018129Y017282D01*
X018188Y017322D01*
X018199Y017338D01*
X018704D01*
X020271Y015771D01*
X020271Y015771D01*
X020307Y015746D01*
Y015746D01*
X020307Y015746D01*
D01*
D01*
D01*
X020307D01*
Y015746D01*
D01*
X020307Y015746D01*
X020307Y015746D01*
X020329Y015742D01*
X020350Y015672D01*
Y015639D01*
X019274Y014562D01*
X018199D01*
X018188Y014578D01*
X018129Y014618D01*
X018060Y014632D01*
X017430D01*
X017360Y014618D01*
X017302Y014578D01*
X017262Y014519D01*
X017248Y014450D01*
X017262Y014381D01*
X017276Y014360D01*
X017228Y014272D01*
X016688D01*
X016661Y014311D01*
X016592Y014358D01*
X016510Y014374D01*
X016428Y014358D01*
X016427Y014357D01*
X016344Y014413D01*
X016352Y014450D01*
X016338Y014519D01*
X016298Y014578D01*
X016301Y014588D01*
X017010D01*
X017010Y014588D01*
X017053Y014596D01*
X017089Y014621D01*
X017291Y014823D01*
X017302Y014822D01*
X017360Y014782D01*
X017430Y014768D01*
X018060D01*
X018129Y014782D01*
X018188Y014822D01*
X018228Y014881D01*
X018241Y014950D01*
X018228Y015019D01*
X018188Y015078D01*
X018129Y015118D01*
X018060Y015132D01*
X017430D01*
X017360Y015118D01*
X017302Y015078D01*
X017291Y015062D01*
X017260D01*
X017217Y015054D01*
X017181Y015029D01*
X017181Y015029D01*
X017124Y015100D01*
X017108Y015182D01*
X017061Y015251D01*
X016992Y015298D01*
X016910Y015314D01*
X016934Y015338D01*
X017291D01*
X017302Y015322D01*
X017360Y015282D01*
X017430Y015268D01*
X018060D01*
X018129Y015282D01*
X018188Y015322D01*
X018228Y015381D01*
X018241Y015450D01*
X018228Y015519D01*
X018188Y015578D01*
X018129Y015618D01*
X018060Y015632D01*
X017430D01*
X017360Y015618D01*
X017302Y015578D01*
X017291Y015562D01*
X016800D01*
X016800Y015562D01*
X016757Y015554D01*
X016721Y015529D01*
X016721Y015529D01*
X016494Y015302D01*
X016455D01*
X016338Y015381D01*
X016352Y015450D01*
X016338Y015519D01*
X016298Y015578D01*
X016240Y015618D01*
X016170Y015632D01*
X015540D01*
X015471Y015618D01*
X015412Y015578D01*
X015401Y015562D01*
X014028D01*
X014001Y015601D01*
X013932Y015648D01*
X013850Y015664D01*
X013768Y015648D01*
X013699Y015601D01*
X013652Y015532D01*
X013636Y015450D01*
X013652Y015368D01*
X013671Y015340D01*
X013636Y015276D01*
X013537Y015261D01*
X013339Y015459D01*
X013303Y015484D01*
X013260Y015492D01*
X013260Y015492D01*
X013156D01*
X013124Y015587D01*
X013174Y015626D01*
X013236Y015706D01*
X013239Y015712D01*
X013369Y015799D01*
X013438Y015752D01*
X013520Y015736D01*
X013602Y015752D01*
X013671Y015799D01*
X013698Y015838D01*
X015401D01*
X015412Y015822D01*
X015471Y015782D01*
X015540Y015768D01*
X016170D01*
X016240Y015782D01*
X016298Y015822D01*
X016338Y015881D01*
X016352Y015950D01*
X016338Y016019D01*
X016369Y016078D01*
X016920D01*
X016920Y016078D01*
X016963Y016086D01*
X016999Y016111D01*
X017026Y016138D01*
X017302Y016322D01*
X017360Y016282D01*
X017430Y016268D01*
X018060D01*
X018129Y016282D01*
X018188Y016322D01*
X018228Y016381D01*
X018241Y016450D01*
X018228Y016519D01*
X018188Y016578D01*
X018129Y016618D01*
X018060Y016632D01*
X017430D01*
X017360Y016618D01*
X017302Y016578D01*
X017291Y016562D01*
X017180D01*
X017180Y016562D01*
X017137Y016554D01*
X017101Y016529D01*
X017101Y016529D01*
X016874Y016302D01*
X016455D01*
X016338Y016381D01*
X016342Y016400D01*
X015368D01*
X015372Y016381D01*
X015255Y016302D01*
X014113D01*
X014050Y016379D01*
X014054Y016400D01*
X014038Y016482D01*
X014073Y016548D01*
X015200D01*
X015200Y016548D01*
X015243Y016556D01*
X015279Y016581D01*
X015296Y016598D01*
X015406D01*
X015372Y016519D01*
X015372Y016519D01*
X015372D01*
Y016519D01*
Y016519D01*
X015372Y016519D01*
X015368Y016500D01*
X016342D01*
X016338Y016519D01*
X016298Y016578D01*
X016304Y016598D01*
X016850D01*
X016850Y016598D01*
X016893Y016606D01*
X016929Y016631D01*
X017136Y016838D01*
X017291D01*
X017302Y016822D01*
X017360Y016782D01*
X017430Y016768D01*
X018060D01*
X018129Y016782D01*
X018188Y016822D01*
X018228Y016881D01*
X018241Y016950D01*
X018228Y017019D01*
X018188Y017078D01*
X018129Y017118D01*
X018060Y017132D01*
X017430D01*
X017360Y017118D01*
X017302Y017078D01*
X017291Y017062D01*
X017090D01*
X017047Y017054D01*
X017011Y017029D01*
X017011Y017029D01*
X016804Y016822D01*
X016405D01*
X016342Y016899D01*
X016352Y016950D01*
X016338Y017019D01*
X016298Y017078D01*
X016240Y017118D01*
X016170Y017132D01*
X015540D01*
X015471Y017118D01*
X015412Y017078D01*
X015394Y017052D01*
X015158D01*
X015131Y017091D01*
X015062Y017138D01*
X014980Y017154D01*
X014898Y017138D01*
X014829Y017091D01*
Y017091D01*
X014772Y017071D01*
X014702Y017118D01*
X014621Y017134D01*
X014597Y017129D01*
X014559Y017222D01*
X014584Y017239D01*
X014630Y017308D01*
X014647Y017390D01*
X014630Y017472D01*
X014584Y017541D01*
X014514Y017588D01*
X014432Y017604D01*
X014350Y017588D01*
X014281Y017541D01*
X014255Y017502D01*
X013169D01*
X013137Y017597D01*
X013174Y017626D01*
X013236Y017706D01*
X013270Y017788D01*
X014397D01*
X014423Y017749D01*
X014493Y017702D01*
X014575Y017686D01*
X014657Y017702D01*
X014726Y017749D01*
X014773Y017818D01*
X014789Y017900D01*
X014773Y017982D01*
X014726Y018051D01*
X014657Y018098D01*
X014575Y018114D01*
X014556Y018208D01*
X014601Y018239D01*
X014648Y018308D01*
X014664Y018390D01*
X014648Y018472D01*
X014601Y018541D01*
X014532Y018588D01*
X014450Y018604D01*
X014368Y018588D01*
X014299Y018541D01*
X014272Y018502D01*
X013169D01*
X013137Y018597D01*
X013174Y018626D01*
X013236Y018706D01*
X013275Y018800D01*
X013286Y018882D01*
X013377Y018923D01*
X013438Y018882D01*
X013520Y018866D01*
X013602Y018882D01*
X013671Y018929D01*
X013698Y018968D01*
X019340D01*
X019340Y018968D01*
X019383Y018976D01*
X019419Y019001D01*
X020656Y020238D01*
X021001D01*
X021012Y020222D01*
X021071Y020182D01*
X021140Y020168D01*
X021770D01*
X021840Y020182D01*
X021898Y020222D01*
X021938Y020281D01*
X021952Y020350D01*
X021938Y020419D01*
X021898Y020478D01*
X021840Y020518D01*
X021770Y020532D01*
X021140D01*
X021071Y020518D01*
X021012Y020478D01*
X021001Y020462D01*
X020610D01*
X020567Y020454D01*
X020531Y020429D01*
X020531Y020429D01*
X019294Y019192D01*
X019174D01*
X019145Y019288D01*
X019179Y019311D01*
X020606Y020738D01*
X021001D01*
X021012Y020722D01*
X021071Y020682D01*
X021140Y020668D01*
X021770D01*
X021840Y020682D01*
X021898Y020722D01*
X021938Y020780D01*
X021952Y020850D01*
X021938Y020919D01*
X021898Y020978D01*
X021840Y021018D01*
X021770Y021032D01*
X021140D01*
X021071Y021018D01*
X021012Y020978D01*
X021001Y020962D01*
X020560D01*
X020560Y020962D01*
X020517Y020954D01*
X020481Y020929D01*
X020481Y020929D01*
X019445Y019894D01*
X019350Y019923D01*
X019348Y019932D01*
X019301Y020001D01*
X019232Y020048D01*
X019150Y020064D01*
X019068Y020048D01*
X018999Y020001D01*
X018972Y019962D01*
X018199D01*
X018188Y019978D01*
X018129Y020018D01*
X018060Y020032D01*
X017430D01*
X017360Y020018D01*
X017302Y019978D01*
X017262Y019919D01*
X017248Y019850D01*
X017262Y019781D01*
X017302Y019722D01*
X017360Y019682D01*
X017430Y019668D01*
X018060D01*
X018129Y019682D01*
X018188Y019722D01*
X018199Y019738D01*
X018972D01*
X018999Y019699D01*
X019068Y019652D01*
X019077Y019650D01*
X019098Y019582D01*
X019038Y019502D01*
X013958D01*
X013931Y019541D01*
X013862Y019588D01*
X013780Y019604D01*
X013774Y019615D01*
X014146Y019988D01*
X015270D01*
X015352Y019933D01*
X015371Y019911D01*
X015359Y019850D01*
X015372Y019781D01*
X015412Y019722D01*
X015471Y019682D01*
X015540Y019668D01*
X016170D01*
X016240Y019682D01*
X016285Y019712D01*
X016689D01*
X016699Y019699D01*
X016768Y019652D01*
X016850Y019636D01*
X016932Y019652D01*
X017001Y019699D01*
X017048Y019768D01*
X017064Y019850D01*
X017048Y019932D01*
X017001Y020001D01*
X016932Y020048D01*
X016850Y020064D01*
X016832Y020154D01*
X016916Y020238D01*
X017291D01*
X017302Y020222D01*
X017360Y020182D01*
X017430Y020168D01*
X018060D01*
X018129Y020182D01*
X018188Y020222D01*
X018228Y020281D01*
X018241Y020350D01*
X018228Y020419D01*
X018188Y020478D01*
X018191Y020488D01*
X019522D01*
X019549Y020449D01*
X019618Y020402D01*
X019700Y020386D01*
X019782Y020402D01*
X019851Y020449D01*
X019898Y020518D01*
X019914Y020600D01*
X019898Y020682D01*
X019851Y020751D01*
X019782Y020798D01*
X019700Y020814D01*
X019618Y020798D01*
X019549Y020751D01*
X019522Y020712D01*
X018330D01*
X018248Y020767D01*
X018229Y020789D01*
X018241Y020850D01*
X018228Y020919D01*
X018188Y020978D01*
X018129Y021018D01*
X018060Y021032D01*
X017430D01*
X017360Y021018D01*
X017302Y020978D01*
X017291Y020962D01*
X016600D01*
X016557Y020954D01*
X016521Y020929D01*
X016521Y020929D01*
X016442Y020850D01*
X016346Y020879D01*
X016338Y020919D01*
X016298Y020978D01*
X016240Y021018D01*
X016170Y021032D01*
X015540D01*
X015471Y021018D01*
X015412Y020978D01*
X015401Y020962D01*
X014914D01*
X014881Y021011D01*
X014812Y021058D01*
X014741Y021072D01*
D01*
Y021072D01*
X014750Y021116D01*
X014800Y021126D01*
X014800D01*
X014832Y021132D01*
X014901Y021179D01*
X014928Y021218D01*
X015417D01*
X015471Y021182D01*
X015540Y021168D01*
X016170D01*
X016240Y021182D01*
X016298Y021222D01*
X016338Y021281D01*
X016352Y021350D01*
X016338Y021419D01*
X016298Y021478D01*
X016301Y021488D01*
X016820D01*
X016820Y021488D01*
X016863Y021496D01*
X016899Y021521D01*
X017116Y021738D01*
X017291D01*
X017302Y021722D01*
X017360Y021682D01*
X017430Y021668D01*
X018060D01*
X018129Y021682D01*
X018188Y021722D01*
X018228Y021781D01*
X018241Y021850D01*
X018228Y021920D01*
X018188Y021978D01*
X018129Y022018D01*
X018060Y022032D01*
D02*
G37*
G36*
X023660D02*
X023030D01*
X022960Y022018D01*
X022902Y021978D01*
X022862Y021920D01*
X022848Y021850D01*
X022862Y021781D01*
X022902Y021722D01*
X022960Y021682D01*
X023030Y021668D01*
X023660D01*
X023729Y021682D01*
X023788Y021722D01*
X023828Y021781D01*
X023841Y021850D01*
X023828Y021920D01*
X023788Y021978D01*
X023729Y022018D01*
X023660Y022032D01*
D02*
G37*
G36*
X018232Y021300D02*
X017795D01*
Y021168D01*
X018060D01*
X018129Y021182D01*
X018188Y021222D01*
X018228Y021281D01*
X018232Y021300D01*
D02*
G37*
G36*
X017695D02*
X017258D01*
X017262Y021281D01*
X017302Y021222D01*
X017360Y021182D01*
X017430Y021168D01*
X017695D01*
Y021300D01*
D02*
G37*
G36*
X028851Y025550D02*
X027949D01*
X027958Y025482D01*
X028004Y025371D01*
X028076Y025276D01*
X028171Y025204D01*
X028282Y025158D01*
X028342Y025150D01*
Y025050D01*
X028282Y025042D01*
X028171Y024996D01*
X028076Y024924D01*
X028004Y024829D01*
X027958Y024718D01*
X027942Y024600D01*
X027958Y024482D01*
X028004Y024371D01*
X028076Y024276D01*
X028171Y024204D01*
X028282Y024158D01*
X028342Y024150D01*
Y024050D01*
X028282Y024042D01*
X028171Y023996D01*
X028076Y023924D01*
X028004Y023829D01*
X027958Y023718D01*
X027942Y023600D01*
X027958Y023482D01*
X028004Y023371D01*
X028076Y023276D01*
X028171Y023204D01*
X028282Y023158D01*
X028342Y023150D01*
Y023050D01*
X028282Y023042D01*
X028171Y022996D01*
X028076Y022924D01*
X028004Y022829D01*
X027958Y022718D01*
X027942Y022600D01*
X027958Y022482D01*
X028004Y022371D01*
X028076Y022276D01*
X028171Y022204D01*
X028282Y022158D01*
X028342Y022150D01*
Y022050D01*
X028282Y022042D01*
X028171Y021996D01*
X028076Y021924D01*
X028004Y021829D01*
X027958Y021718D01*
X027942Y021600D01*
X027958Y021482D01*
X028004Y021371D01*
X028076Y021276D01*
X028171Y021204D01*
X028282Y021158D01*
X028400Y021142D01*
X028518Y021158D01*
X028629Y021204D01*
X028724Y021276D01*
X028796Y021371D01*
X028842Y021482D01*
X028858Y021600D01*
X028842Y021718D01*
X028796Y021829D01*
X028724Y021924D01*
X028629Y021996D01*
X028518Y022042D01*
X028458Y022050D01*
Y022150D01*
X028518Y022158D01*
X028629Y022204D01*
X028724Y022276D01*
X028796Y022371D01*
X028842Y022482D01*
X028858Y022600D01*
X028842Y022718D01*
X028796Y022829D01*
X028724Y022924D01*
X028629Y022996D01*
X028518Y023042D01*
X028458Y023050D01*
Y023150D01*
X028518Y023158D01*
X028629Y023204D01*
X028724Y023276D01*
X028796Y023371D01*
X028842Y023482D01*
X028858Y023600D01*
X028842Y023718D01*
X028796Y023829D01*
X028724Y023924D01*
X028629Y023996D01*
X028518Y024042D01*
X028458Y024050D01*
Y024150D01*
X028518Y024158D01*
X028629Y024204D01*
X028724Y024276D01*
X028796Y024371D01*
X028842Y024482D01*
X028858Y024600D01*
X028842Y024718D01*
X028796Y024829D01*
X028724Y024924D01*
X028629Y024996D01*
X028518Y025042D01*
X028458Y025050D01*
Y025150D01*
X028518Y025158D01*
X028629Y025204D01*
X028724Y025276D01*
X028796Y025371D01*
X028842Y025482D01*
X028851Y025550D01*
D02*
G37*
G36*
X018060Y021532D02*
X017795D01*
Y021400D01*
X018232D01*
X018228Y021419D01*
X018188Y021478D01*
X018129Y021518D01*
X018060Y021532D01*
D02*
G37*
G36*
X017695D02*
X017430D01*
X017360Y021518D01*
X017302Y021478D01*
X017262Y021419D01*
X017258Y021400D01*
X017695D01*
Y021532D01*
D02*
G37*
G36*
X023660D02*
X023030D01*
X022960Y021518D01*
X022902Y021478D01*
X022862Y021419D01*
X022848Y021350D01*
X022862Y021281D01*
X022902Y021222D01*
X022960Y021182D01*
X023030Y021168D01*
X023660D01*
X023729Y021182D01*
X023788Y021222D01*
X023828Y021281D01*
X023841Y021350D01*
X023828Y021419D01*
X023788Y021478D01*
X023729Y021518D01*
X023660Y021532D01*
D02*
G37*
G36*
X016170Y022032D02*
X015905D01*
Y021900D01*
X016342D01*
X016338Y021920D01*
X016298Y021978D01*
X016240Y022018D01*
X016170Y022032D01*
D02*
G37*
G36*
X018904Y023550D02*
X018750D01*
Y023396D01*
X018782Y023402D01*
X018851Y023449D01*
X018898Y023518D01*
X018904Y023550D01*
D02*
G37*
G36*
X014480Y023494D02*
X014398Y023478D01*
X014329Y023431D01*
X014302Y023392D01*
X013820D01*
X013820Y023392D01*
X013777Y023384D01*
X013741Y023359D01*
X013741Y023359D01*
X013394Y023012D01*
X013270D01*
X013236Y023094D01*
X013174Y023174D01*
X013094Y023236D01*
X013000Y023275D01*
X012900Y023288D01*
X012800Y023275D01*
X012706Y023236D01*
X012626Y023174D01*
X012564Y023094D01*
X012525Y023000D01*
X012512Y022900D01*
X012525Y022800D01*
X012564Y022706D01*
X012626Y022626D01*
X012676Y022587D01*
X012644Y022492D01*
X012466D01*
X012241Y022718D01*
X012275Y022800D01*
X012288Y022900D01*
X012275Y023000D01*
X012236Y023094D01*
X012174Y023174D01*
X012094Y023236D01*
X012000Y023275D01*
X011900Y023288D01*
X011800Y023275D01*
X011706Y023236D01*
X011626Y023174D01*
X011564Y023094D01*
X011525Y023000D01*
X011512Y022900D01*
X011525Y022800D01*
X011564Y022706D01*
X011626Y022626D01*
X011706Y022564D01*
X011800Y022525D01*
X011900Y022512D01*
X012000Y022525D01*
X012082Y022559D01*
X012341Y022301D01*
X012377Y022276D01*
X012420Y022268D01*
X012420Y022268D01*
X012554D01*
X012626Y022174D01*
X012564Y022094D01*
X012525Y022000D01*
X012512Y021900D01*
X012525Y021800D01*
X012564Y021706D01*
X012626Y021626D01*
X012706Y021564D01*
X012800Y021525D01*
X012900Y021512D01*
X013000Y021525D01*
X013094Y021564D01*
X013174Y021626D01*
X013236Y021706D01*
X013275Y021800D01*
X013288Y021900D01*
X013275Y022000D01*
X013236Y022094D01*
X013174Y022174D01*
X013094Y022236D01*
X013100Y022268D01*
X013310D01*
X013310Y022268D01*
X013353Y022276D01*
X013389Y022301D01*
X013886Y022798D01*
X014181D01*
X014191Y022698D01*
X014188Y022698D01*
X014119Y022651D01*
X014072Y022582D01*
X014056Y022500D01*
X014072Y022418D01*
X014119Y022349D01*
X014188Y022302D01*
X014270Y022286D01*
X014352Y022302D01*
X014421Y022349D01*
X014468Y022418D01*
X014480Y022478D01*
X014699D01*
X014809Y022404D01*
X014812Y022401D01*
X014796Y022320D01*
X014812Y022238D01*
X014859Y022169D01*
X014928Y022122D01*
X015010Y022106D01*
X015092Y022122D01*
X015161Y022169D01*
X015188Y022208D01*
X015432D01*
X015471Y022182D01*
X015540Y022168D01*
X016170D01*
X016240Y022182D01*
X016298Y022222D01*
X016338Y022280D01*
X016352Y022350D01*
X016338Y022419D01*
X016369Y022478D01*
X016924D01*
X017131Y022271D01*
X017131Y022271D01*
X017167Y022246D01*
Y022246D01*
X017167D01*
Y022246D01*
D01*
D01*
D01*
X017167D01*
Y022246D01*
D01*
X017167Y022246D01*
X017167Y022246D01*
X017210Y022238D01*
X017291D01*
X017302Y022222D01*
X017360Y022182D01*
X017430Y022168D01*
X018060D01*
X018129Y022182D01*
X018188Y022222D01*
X018228Y022280D01*
X018241Y022350D01*
X018228Y022420D01*
X018188Y022478D01*
X018129Y022518D01*
X018060Y022532D01*
X017430D01*
X017360Y022518D01*
X017302Y022478D01*
X017117Y022602D01*
X017049Y022669D01*
X017013Y022694D01*
X016970Y022702D01*
X016970Y022702D01*
X016455D01*
X016338Y022781D01*
X016352Y022850D01*
X016338Y022919D01*
X016298Y022978D01*
X016240Y023018D01*
X016170Y023032D01*
X015540D01*
X015471Y023018D01*
X015434Y022993D01*
X015421Y023011D01*
X015352Y023058D01*
X015270Y023074D01*
X015188Y023058D01*
X015119Y023011D01*
X015087Y022965D01*
X014989Y022984D01*
X014988Y022992D01*
X014941Y023061D01*
X014872Y023108D01*
X014790Y023124D01*
X014732Y023113D01*
X014676Y023196D01*
X014678Y023198D01*
X014694Y023280D01*
X014678Y023362D01*
X014631Y023431D01*
X014562Y023478D01*
X014480Y023494D01*
D02*
G37*
G36*
X023960Y023434D02*
Y023280D01*
X024114D01*
X024108Y023312D01*
X024061Y023381D01*
X023992Y023428D01*
X023960Y023434D01*
D02*
G37*
G36*
X016510Y023564D02*
X016428Y023548D01*
X016359Y023501D01*
X016332Y023462D01*
X016298Y023478D01*
X016298Y023478D01*
Y023478D01*
X016240Y023518D01*
X016170Y023532D01*
X015540D01*
X015471Y023518D01*
X015412Y023478D01*
X015372Y023419D01*
X015359Y023350D01*
X015372Y023280D01*
X015412Y023222D01*
X015471Y023182D01*
X015540Y023168D01*
X016170D01*
X016240Y023182D01*
X016298Y023222D01*
X016298Y023222D01*
Y023222D01*
X016332Y023238D01*
X016359Y023199D01*
X016428Y023152D01*
X016510Y023136D01*
X016592Y023152D01*
X016661Y023199D01*
X016708Y023268D01*
X016724Y023350D01*
X016708Y023432D01*
X016661Y023501D01*
X016592Y023548D01*
X016510Y023564D01*
D02*
G37*
G36*
X023295Y023532D02*
X023030D01*
X022960Y023518D01*
X022902Y023478D01*
X022862Y023419D01*
X022858Y023400D01*
X023295D01*
Y023532D01*
D02*
G37*
G36*
X017695D02*
X017430D01*
X017360Y023518D01*
X017302Y023478D01*
X017262Y023419D01*
X017258Y023400D01*
X017695D01*
Y023532D01*
D02*
G37*
G36*
X024114Y023180D02*
X023960D01*
Y023026D01*
X023992Y023032D01*
X024061Y023079D01*
X024108Y023148D01*
X024114Y023180D01*
D02*
G37*
G36*
X019420Y023064D02*
X019338Y023048D01*
X019269Y023001D01*
X019242Y022962D01*
X018199D01*
X018188Y022978D01*
X018129Y023018D01*
X018060Y023032D01*
X017430D01*
X017360Y023018D01*
X017302Y022978D01*
X017262Y022919D01*
X017248Y022850D01*
X017262Y022780D01*
X017302Y022722D01*
X017360Y022682D01*
X017430Y022668D01*
X018060D01*
X018129Y022682D01*
X018188Y022722D01*
X018199Y022738D01*
X019242D01*
X019269Y022699D01*
X019338Y022652D01*
X019359Y022648D01*
Y022548D01*
X019358Y022548D01*
X019289Y022501D01*
X019242Y022432D01*
X019226Y022350D01*
X019242Y022268D01*
X019289Y022199D01*
X019358Y022152D01*
X019440Y022136D01*
X019522Y022152D01*
X019591Y022199D01*
X019618Y022238D01*
X021001D01*
X021012Y022222D01*
X021071Y022182D01*
X021140Y022168D01*
X021770D01*
X021840Y022182D01*
X021898Y022222D01*
X021938Y022280D01*
X021952Y022350D01*
X021938Y022420D01*
X021898Y022478D01*
X021840Y022518D01*
X021770Y022532D01*
X021140D01*
X021071Y022518D01*
X021012Y022478D01*
X021001Y022462D01*
X019618D01*
X019591Y022501D01*
X019522Y022548D01*
X019501Y022552D01*
Y022652D01*
X019502Y022652D01*
X019571Y022699D01*
X019618Y022768D01*
X019634Y022850D01*
X019618Y022932D01*
X019571Y023001D01*
X019502Y023048D01*
X019420Y023064D01*
D02*
G37*
G36*
X023660Y022532D02*
X023030D01*
X022960Y022518D01*
X022902Y022478D01*
X022862Y022420D01*
X022848Y022350D01*
X022862Y022280D01*
X022902Y022222D01*
X022960Y022182D01*
X023030Y022168D01*
X023660D01*
X023729Y022182D01*
X023788Y022222D01*
X023828Y022280D01*
X023841Y022350D01*
X023828Y022420D01*
X023788Y022478D01*
X023729Y022518D01*
X023660Y022532D01*
D02*
G37*
G36*
X023295Y023300D02*
X022858D01*
X022862Y023280D01*
X022902Y023222D01*
X022960Y023182D01*
X023030Y023168D01*
X023295D01*
Y023300D01*
D02*
G37*
G36*
X017695D02*
X017258D01*
X017262Y023280D01*
X017302Y023222D01*
X017360Y023182D01*
X017430Y023168D01*
X017695D01*
Y023300D01*
D02*
G37*
G36*
X023660Y023532D02*
X023395D01*
Y023350D01*
Y023168D01*
X023660D01*
X023666Y023170D01*
X023721Y023086D01*
X023682Y023027D01*
X023660Y023032D01*
X023030D01*
X022960Y023018D01*
X022902Y022978D01*
X022862Y022919D01*
X022848Y022850D01*
X022862Y022780D01*
X022902Y022722D01*
X022960Y022682D01*
X023030Y022668D01*
X023660D01*
X023729Y022682D01*
X023788Y022722D01*
X023828Y022780D01*
X023841Y022850D01*
X023828Y022919D01*
X023813Y022941D01*
X023869Y023024D01*
X023860Y023026D01*
Y023230D01*
Y023434D01*
X023894Y023441D01*
X023887Y023447D01*
X023843Y023477D01*
X023790Y023488D01*
X023774D01*
X023729Y023518D01*
X023660Y023532D01*
D02*
G37*
G36*
X028851Y018550D02*
X027949D01*
X027958Y018482D01*
X028004Y018371D01*
X028076Y018276D01*
X028171Y018204D01*
X028282Y018158D01*
X028342Y018150D01*
Y018050D01*
X028282Y018042D01*
X028171Y017996D01*
X028076Y017924D01*
X028004Y017829D01*
X027958Y017718D01*
X027942Y017600D01*
X027958Y017482D01*
X028004Y017371D01*
X028076Y017276D01*
X028171Y017204D01*
X028282Y017158D01*
X028342Y017150D01*
Y017050D01*
X028282Y017042D01*
X028171Y016996D01*
X028076Y016924D01*
X028004Y016829D01*
X027958Y016718D01*
X027942Y016600D01*
X027958Y016482D01*
X028004Y016371D01*
X028076Y016276D01*
X028171Y016204D01*
X028282Y016158D01*
X028342Y016150D01*
Y016050D01*
X028282Y016042D01*
X028171Y015996D01*
X028076Y015924D01*
X028004Y015829D01*
X027958Y015718D01*
X027942Y015600D01*
X027958Y015482D01*
X028004Y015371D01*
X028076Y015276D01*
X028171Y015204D01*
X028282Y015158D01*
X028342Y015150D01*
Y015050D01*
X028282Y015042D01*
X028171Y014996D01*
X028076Y014924D01*
X028004Y014829D01*
X027958Y014718D01*
X027942Y014600D01*
X027958Y014482D01*
X028004Y014371D01*
X028076Y014276D01*
X028171Y014204D01*
X028282Y014158D01*
X028400Y014142D01*
X028518Y014158D01*
X028629Y014204D01*
X028724Y014276D01*
X028796Y014371D01*
X028842Y014482D01*
X028858Y014600D01*
X028842Y014718D01*
X028796Y014829D01*
X028724Y014924D01*
X028629Y014996D01*
X028518Y015042D01*
X028458Y015050D01*
Y015150D01*
X028518Y015158D01*
X028629Y015204D01*
X028724Y015276D01*
X028796Y015371D01*
X028842Y015482D01*
X028858Y015600D01*
X028842Y015718D01*
X028796Y015829D01*
X028724Y015924D01*
X028629Y015996D01*
X028518Y016042D01*
X028458Y016050D01*
Y016150D01*
X028518Y016158D01*
X028629Y016204D01*
X028724Y016276D01*
X028796Y016371D01*
X028842Y016482D01*
X028858Y016600D01*
X028842Y016718D01*
X028796Y016829D01*
X028724Y016924D01*
X028629Y016996D01*
X028518Y017042D01*
X028458Y017050D01*
Y017150D01*
X028518Y017158D01*
X028629Y017204D01*
X028724Y017276D01*
X028796Y017371D01*
X028842Y017482D01*
X028858Y017600D01*
X028842Y017718D01*
X028796Y017829D01*
X028724Y017924D01*
X028629Y017996D01*
X028518Y018042D01*
X028458Y018050D01*
Y018150D01*
X028518Y018158D01*
X028629Y018204D01*
X028724Y018276D01*
X028796Y018371D01*
X028842Y018482D01*
X028851Y018550D01*
D02*
G37*
G36*
X012900Y014288D02*
X012800Y014275D01*
X012706Y014236D01*
X012626Y014174D01*
X012564Y014094D01*
X012525Y014000D01*
X012512Y013900D01*
X012525Y013800D01*
X012564Y013706D01*
X012626Y013626D01*
X012706Y013564D01*
X012800Y013525D01*
X012900Y013512D01*
X013000Y013525D01*
X013094Y013564D01*
X013174Y013626D01*
X013236Y013706D01*
X013275Y013800D01*
X013288Y013900D01*
X013275Y014000D01*
X013236Y014094D01*
X013174Y014174D01*
X013094Y014236D01*
X013000Y014275D01*
X012900Y014288D01*
D02*
G37*
G36*
X011900D02*
X011800Y014275D01*
X011706Y014236D01*
X011626Y014174D01*
X011564Y014094D01*
X011525Y014000D01*
X011512Y013900D01*
X011525Y013800D01*
X011564Y013706D01*
X011626Y013626D01*
X011706Y013564D01*
X011800Y013525D01*
X011900Y013512D01*
X012000Y013525D01*
X012094Y013564D01*
X012174Y013626D01*
X012236Y013706D01*
X012275Y013800D01*
X012288Y013900D01*
X012275Y014000D01*
X012236Y014094D01*
X012174Y014174D01*
X012094Y014236D01*
X012000Y014275D01*
X011900Y014288D01*
D02*
G37*
G36*
X017695Y015900D02*
X017258D01*
X017262Y015881D01*
X017302Y015822D01*
X017360Y015782D01*
X017430Y015768D01*
X017695D01*
Y015900D01*
D02*
G37*
G36*
X011900Y016288D02*
X011800Y016275D01*
X011706Y016236D01*
X011626Y016174D01*
X011564Y016094D01*
X011525Y016000D01*
X011512Y015900D01*
X011525Y015800D01*
X011564Y015706D01*
X011626Y015626D01*
X011706Y015564D01*
X011800Y015525D01*
X011900Y015512D01*
X012000Y015525D01*
X012094Y015564D01*
X012174Y015626D01*
X012236Y015706D01*
X012275Y015800D01*
X012288Y015900D01*
X012275Y016000D01*
X012236Y016094D01*
X012174Y016174D01*
X012094Y016236D01*
X012000Y016275D01*
X011900Y016288D01*
D02*
G37*
G36*
X020850Y015314D02*
X020768Y015298D01*
X020699Y015251D01*
X020652Y015182D01*
X020636Y015100D01*
X020652Y015018D01*
X020699Y014949D01*
X020768Y014902D01*
X020850Y014886D01*
X020932Y014902D01*
X021001Y014949D01*
X021011Y014962D01*
X021026D01*
X021071Y014932D01*
X021140Y014918D01*
X021770D01*
X021840Y014932D01*
X021898Y014972D01*
X021938Y015031D01*
X021952Y015100D01*
X021938Y015169D01*
X021898Y015228D01*
X021840Y015268D01*
X021770Y015282D01*
X021140D01*
X021071Y015268D01*
X021026Y015238D01*
X021011D01*
X021001Y015251D01*
X020932Y015298D01*
X020850Y015314D01*
D02*
G37*
G36*
X022200Y012058D02*
X022082Y012042D01*
X021971Y011996D01*
X021876Y011924D01*
X021804Y011829D01*
X021758Y011718D01*
X021750Y011658D01*
X021650D01*
X021642Y011718D01*
X021596Y011829D01*
X021524Y011924D01*
X021429Y011996D01*
X021318Y012042D01*
X021250Y012051D01*
Y011600D01*
Y011149D01*
X021318Y011158D01*
X021429Y011204D01*
X021524Y011276D01*
X021596Y011371D01*
X021642Y011482D01*
X021650Y011542D01*
X021750D01*
X021758Y011482D01*
X021804Y011371D01*
X021876Y011276D01*
X021971Y011204D01*
X022082Y011158D01*
X022200Y011142D01*
X022318Y011158D01*
X022429Y011204D01*
X022524Y011276D01*
X022596Y011371D01*
X022642Y011482D01*
X022650Y011542D01*
X022750D01*
X022758Y011482D01*
X022804Y011371D01*
X022876Y011276D01*
X022971Y011204D01*
X023082Y011158D01*
X023150Y011149D01*
Y011600D01*
Y012051D01*
X023082Y012042D01*
X022971Y011996D01*
X022876Y011924D01*
X022804Y011829D01*
X022758Y011718D01*
X022750Y011658D01*
X022650D01*
X022642Y011718D01*
X022596Y011829D01*
X022524Y011924D01*
X022429Y011996D01*
X022318Y012042D01*
X022200Y012058D01*
D02*
G37*
G36*
X020200D02*
X020082Y012042D01*
X019971Y011996D01*
X019876Y011924D01*
X019804Y011829D01*
X019758Y011718D01*
X019750Y011658D01*
X019650D01*
X019642Y011718D01*
X019596Y011829D01*
X019524Y011924D01*
X019429Y011996D01*
X019318Y012042D01*
X019200Y012058D01*
X019082Y012042D01*
X018971Y011996D01*
X018876Y011924D01*
X018804Y011829D01*
X018758Y011718D01*
X018742Y011600D01*
X018758Y011482D01*
X018804Y011371D01*
X018876Y011276D01*
X018971Y011204D01*
X019082Y011158D01*
X019200Y011142D01*
X019318Y011158D01*
X019429Y011204D01*
X019524Y011276D01*
X019596Y011371D01*
X019642Y011482D01*
X019650Y011542D01*
X019750D01*
X019758Y011482D01*
X019804Y011371D01*
X019876Y011276D01*
X019971Y011204D01*
X020082Y011158D01*
X020200Y011142D01*
X020318Y011158D01*
X020429Y011204D01*
X020524Y011276D01*
X020596Y011371D01*
X020642Y011482D01*
X020650Y011542D01*
X020750D01*
X020758Y011482D01*
X020804Y011371D01*
X020876Y011276D01*
X020971Y011204D01*
X021082Y011158D01*
X021150Y011149D01*
Y011600D01*
Y012051D01*
X021082Y012042D01*
X020971Y011996D01*
X020876Y011924D01*
X020804Y011829D01*
X020758Y011718D01*
X020750Y011658D01*
X020650D01*
X020642Y011718D01*
X020596Y011829D01*
X020524Y011924D01*
X020429Y011996D01*
X020318Y012042D01*
X020200Y012058D01*
D02*
G37*
G36*
X016000Y013314D02*
X015794Y013298D01*
X015594Y013250D01*
X015403Y013171D01*
X015228Y013063D01*
X015071Y012929D01*
X014937Y012772D01*
X014829Y012597D01*
X014750Y012406D01*
X014702Y012206D01*
X014686Y012000D01*
X014702Y011794D01*
X014750Y011594D01*
X014829Y011403D01*
X014937Y011228D01*
X015071Y011071D01*
X015228Y010937D01*
X015403Y010829D01*
X015594Y010750D01*
X015794Y010702D01*
X016000Y010686D01*
X016206Y010702D01*
X016406Y010750D01*
X016597Y010829D01*
X016772Y010937D01*
X016929Y011071D01*
X017063Y011228D01*
X017171Y011403D01*
X017250Y011594D01*
X017298Y011794D01*
X017314Y012000D01*
X017298Y012206D01*
X017250Y012406D01*
X017171Y012597D01*
X017063Y012772D01*
X016929Y012929D01*
X016772Y013063D01*
X016597Y013171D01*
X016406Y013250D01*
X016206Y013298D01*
X016000Y013314D01*
D02*
G37*
G36*
X013285Y013285D02*
X012515D01*
Y012515D01*
X013285D01*
Y013285D01*
D02*
G37*
G36*
X011900Y013288D02*
X011800Y013275D01*
X011706Y013236D01*
X011626Y013174D01*
X011564Y013094D01*
X011525Y013000D01*
X011512Y012900D01*
X011525Y012800D01*
X011564Y012706D01*
X011626Y012626D01*
X011706Y012564D01*
X011800Y012525D01*
X011900Y012512D01*
X012000Y012525D01*
X012094Y012564D01*
X012174Y012626D01*
X012236Y012706D01*
X012275Y012800D01*
X012288Y012900D01*
X012275Y013000D01*
X012236Y013094D01*
X012174Y013174D01*
X012094Y013236D01*
X012000Y013275D01*
X011900Y013288D01*
D02*
G37*
G36*
X024200Y012058D02*
X024082Y012042D01*
X023971Y011996D01*
X023876Y011924D01*
X023804Y011829D01*
X023758Y011718D01*
X023750Y011658D01*
X023650D01*
X023642Y011718D01*
X023596Y011829D01*
X023524Y011924D01*
X023429Y011996D01*
X023318Y012042D01*
X023250Y012051D01*
Y011600D01*
Y011149D01*
X023318Y011158D01*
X023429Y011204D01*
X023524Y011276D01*
X023596Y011371D01*
X023642Y011482D01*
X023650Y011542D01*
X023750D01*
X023758Y011482D01*
X023804Y011371D01*
X023876Y011276D01*
X023971Y011204D01*
X024082Y011158D01*
X024200Y011142D01*
X024318Y011158D01*
X024429Y011204D01*
X024524Y011276D01*
X024596Y011371D01*
X024642Y011482D01*
X024658Y011600D01*
X024642Y011718D01*
X024596Y011829D01*
X024524Y011924D01*
X024429Y011996D01*
X024318Y012042D01*
X024200Y012058D01*
D02*
G37*
G36*
X018232Y015900D02*
X017795D01*
Y015768D01*
X018060D01*
X018129Y015782D01*
X018188Y015822D01*
X018228Y015881D01*
X018232Y015900D01*
D02*
G37*
G36*
X023660Y020032D02*
X023030D01*
X022960Y020018D01*
X022902Y019978D01*
X022862Y019919D01*
X022848Y019850D01*
X022862Y019781D01*
X022902Y019722D01*
X022960Y019682D01*
X023030Y019668D01*
X023660D01*
X023729Y019682D01*
X023788Y019722D01*
X023828Y019781D01*
X023841Y019850D01*
X023828Y019919D01*
X023788Y019978D01*
X023729Y020018D01*
X023660Y020032D01*
D02*
G37*
G36*
X021770D02*
X021140D01*
X021071Y020018D01*
X021012Y019978D01*
X020972Y019919D01*
X020959Y019850D01*
X020972Y019781D01*
X021012Y019722D01*
X021071Y019682D01*
X021140Y019668D01*
X021185D01*
X021248Y019591D01*
X021241Y019555D01*
X021257Y019473D01*
X021304Y019404D01*
X021373Y019357D01*
X021455Y019341D01*
X021537Y019357D01*
X021607Y019404D01*
X021653Y019473D01*
X021669Y019555D01*
X021653Y019637D01*
X021670Y019668D01*
X021770D01*
X021840Y019682D01*
X021898Y019722D01*
X021938Y019781D01*
X021952Y019850D01*
X021938Y019919D01*
X021898Y019978D01*
X021840Y020018D01*
X021770Y020032D01*
D02*
G37*
G36*
X028400Y020058D02*
X028282Y020042D01*
X028171Y019996D01*
X028076Y019924D01*
X028004Y019829D01*
X027958Y019718D01*
X027942Y019600D01*
X027958Y019482D01*
X028004Y019371D01*
X028076Y019276D01*
X028171Y019204D01*
X028282Y019158D01*
X028342Y019150D01*
Y019050D01*
X028282Y019042D01*
X028171Y018996D01*
X028076Y018924D01*
X028004Y018829D01*
X027958Y018718D01*
X027949Y018650D01*
X028851D01*
X028842Y018718D01*
X028796Y018829D01*
X028724Y018924D01*
X028629Y018996D01*
X028518Y019042D01*
X028458Y019050D01*
Y019150D01*
X028518Y019158D01*
X028629Y019204D01*
X028724Y019276D01*
X028796Y019371D01*
X028842Y019482D01*
X028858Y019600D01*
X028842Y019718D01*
X028796Y019829D01*
X028724Y019924D01*
X028629Y019996D01*
X028518Y020042D01*
X028400Y020058D01*
D02*
G37*
G36*
X023660Y021032D02*
X023030D01*
X022960Y021018D01*
X022902Y020978D01*
X022862Y020919D01*
X022848Y020850D01*
X022862Y020780D01*
X022902Y020722D01*
X022960Y020682D01*
X023030Y020668D01*
X023660D01*
X023729Y020682D01*
X023788Y020722D01*
X023828Y020780D01*
X023841Y020850D01*
X023828Y020919D01*
X023788Y020978D01*
X023729Y021018D01*
X023660Y021032D01*
D02*
G37*
G36*
X011900Y021288D02*
X011800Y021275D01*
X011706Y021236D01*
X011626Y021174D01*
X011564Y021094D01*
X011525Y021000D01*
X011512Y020900D01*
X011525Y020800D01*
X011564Y020706D01*
X011626Y020626D01*
X011706Y020564D01*
X011800Y020525D01*
X011900Y020512D01*
X012000Y020525D01*
X012094Y020564D01*
X012174Y020626D01*
X012236Y020706D01*
X012275Y020800D01*
X012288Y020900D01*
X012275Y021000D01*
X012236Y021094D01*
X012174Y021174D01*
X012094Y021236D01*
X012000Y021275D01*
X011900Y021288D01*
D02*
G37*
G36*
X023660Y020532D02*
X023030D01*
X022960Y020518D01*
X022902Y020478D01*
X022862Y020419D01*
X022848Y020350D01*
X022862Y020281D01*
X022902Y020222D01*
X022960Y020182D01*
X023030Y020168D01*
X023660D01*
X023729Y020182D01*
X023788Y020222D01*
X023828Y020281D01*
X023841Y020350D01*
X023828Y020419D01*
X023788Y020478D01*
X023729Y020518D01*
X023660Y020532D01*
D02*
G37*
G36*
X015240Y017654D02*
X015158Y017638D01*
X015089Y017591D01*
X015042Y017522D01*
X015026Y017440D01*
X015042Y017358D01*
X015089Y017289D01*
X015158Y017242D01*
X015240Y017226D01*
X015322Y017242D01*
X015391Y017289D01*
X015413Y017321D01*
X015471Y017282D01*
X015540Y017268D01*
X016170D01*
X016240Y017282D01*
X016298Y017322D01*
X016338Y017381D01*
X016352Y017450D01*
X016338Y017519D01*
X016298Y017578D01*
X016240Y017618D01*
X016170Y017632D01*
X015540D01*
X015471Y017618D01*
X015412Y017578D01*
X015391Y017591D01*
X015391Y017591D01*
X015322Y017638D01*
X015240Y017654D01*
D02*
G37*
G36*
X018060Y016132D02*
X017795D01*
Y016000D01*
X018232D01*
X018228Y016019D01*
X018188Y016078D01*
X018129Y016118D01*
X018060Y016132D01*
D02*
G37*
G36*
X017695D02*
X017430D01*
X017360Y016118D01*
X017302Y016078D01*
X017262Y016019D01*
X017258Y016000D01*
X017695D01*
Y016132D01*
D02*
G37*
G36*
X024390Y018684D02*
Y018530D01*
X024544D01*
X024538Y018562D01*
X024491Y018631D01*
X024422Y018678D01*
X024390Y018684D01*
D02*
G37*
G36*
X024544Y018430D02*
X024390D01*
Y018276D01*
X024422Y018282D01*
X024491Y018329D01*
X024538Y018398D01*
X024544Y018430D01*
D02*
G37*
G36*
X023295Y018282D02*
X023030D01*
X022960Y018268D01*
X022902Y018228D01*
X022862Y018169D01*
X022858Y018150D01*
X023295D01*
Y018282D01*
D02*
G37*
G36*
X011850Y028850D02*
X011518D01*
X011525Y028800D01*
X011564Y028706D01*
X011626Y028626D01*
X011706Y028564D01*
X011800Y028525D01*
X011850Y028518D01*
Y028850D01*
D02*
G37*
G36*
X023295Y028650D02*
X022858D01*
X022862Y028630D01*
X022902Y028572D01*
X022960Y028532D01*
X023030Y028518D01*
X023295D01*
Y028650D01*
D02*
G37*
G36*
X013780Y028844D02*
X013698Y028828D01*
X013629Y028781D01*
X013582Y028712D01*
X013566Y028630D01*
X013582Y028548D01*
X013629Y028479D01*
X013698Y028432D01*
X013780Y028416D01*
X013862Y028432D01*
X013931Y028479D01*
X013971Y028538D01*
X015401D01*
X015412Y028522D01*
X015471Y028482D01*
X015540Y028468D01*
X016170D01*
X016240Y028482D01*
X016298Y028522D01*
X016338Y028581D01*
X016352Y028650D01*
X016338Y028719D01*
X016298Y028778D01*
X016240Y028818D01*
X016170Y028832D01*
X015540D01*
X015471Y028818D01*
X015412Y028778D01*
X015401Y028762D01*
X013944D01*
X013931Y028781D01*
X013862Y028828D01*
X013780Y028844D01*
D02*
G37*
G36*
X020200Y029394D02*
X020118Y029378D01*
X020049Y029331D01*
X020002Y029262D01*
X019986Y029180D01*
X020002Y029098D01*
X020049Y029029D01*
X020118Y028982D01*
X020200Y028966D01*
X020282Y028982D01*
X020351Y029029D01*
X020378Y029068D01*
X021714D01*
X021792Y028990D01*
X021770Y028882D01*
X021140D01*
X021071Y028868D01*
X021012Y028828D01*
X021012Y028828D01*
Y028828D01*
X020968Y028812D01*
X020921Y028881D01*
X020852Y028928D01*
X020770Y028944D01*
X020688Y028928D01*
X020619Y028881D01*
X020572Y028812D01*
X020556Y028730D01*
X020572Y028648D01*
X020577Y028640D01*
X020530Y028552D01*
X019516D01*
X019339Y028729D01*
X019303Y028754D01*
X019260Y028762D01*
X019286Y028788D01*
X019562D01*
X019589Y028749D01*
X019658Y028702D01*
X019740Y028686D01*
X019822Y028702D01*
X019891Y028749D01*
X019938Y028818D01*
X019954Y028900D01*
X019938Y028982D01*
X019891Y029051D01*
X019822Y029098D01*
X019740Y029114D01*
X019658Y029098D01*
X019589Y029051D01*
X019562Y029012D01*
X018667D01*
X018635Y029091D01*
X018698Y029168D01*
X018660Y029176D01*
Y029330D01*
X018506D01*
X018499Y029364D01*
X018423Y029288D01*
X018174D01*
X018129Y029318D01*
X018060Y029332D01*
X017795D01*
Y029150D01*
X017745D01*
Y029100D01*
X017258D01*
X017260Y029089D01*
X017242Y029067D01*
X017160Y029012D01*
X016836D01*
X016619Y029229D01*
X016583Y029254D01*
X016540Y029262D01*
X016540Y029262D01*
X016309D01*
X016298Y029278D01*
X016240Y029318D01*
X016170Y029332D01*
X015540D01*
X015471Y029318D01*
X015412Y029278D01*
X015372Y029220D01*
X015359Y029150D01*
X015372Y029081D01*
X015412Y029022D01*
X015471Y028982D01*
X015540Y028968D01*
X016170D01*
X016240Y028982D01*
X016298Y029022D01*
X016309Y029038D01*
X016494D01*
X016711Y028821D01*
X016711Y028821D01*
X016747Y028796D01*
Y028796D01*
X016747Y028796D01*
D01*
D01*
D01*
X016747D01*
Y028796D01*
D01*
X016747Y028796D01*
X016747Y028796D01*
X016790Y028788D01*
X017160D01*
X017242Y028733D01*
X017260Y028711D01*
X017248Y028650D01*
X017262Y028581D01*
X017302Y028522D01*
X017360Y028482D01*
X017430Y028468D01*
X018060D01*
X018129Y028482D01*
X018188Y028522D01*
X018199Y028538D01*
X019214D01*
X019298Y028453D01*
X019235Y028376D01*
X019232Y028378D01*
X019150Y028394D01*
X019068Y028378D01*
X018999Y028331D01*
X018952Y028262D01*
X018936Y028180D01*
X018952Y028098D01*
X018999Y028029D01*
X019068Y027982D01*
X019150Y027966D01*
X019232Y027982D01*
X019301Y028029D01*
X019341Y028088D01*
X021001D01*
X021012Y028072D01*
X021071Y028032D01*
X021140Y028018D01*
X021770D01*
X021840Y028032D01*
X021898Y028072D01*
X021938Y028131D01*
X021952Y028200D01*
X021941Y028255D01*
X022029Y028303D01*
X022711Y027621D01*
X022747Y027596D01*
X022790Y027588D01*
X022790Y027588D01*
X022891D01*
X022902Y027572D01*
X022960Y027532D01*
X023030Y027518D01*
X023660D01*
X023729Y027532D01*
X023788Y027572D01*
X023821Y027620D01*
X023823Y027619D01*
D01*
X023906Y027594D01*
D01*
X023906D01*
D01*
D01*
D01*
X023906Y027594D01*
X023916Y027591D01*
Y027309D01*
X023821Y027280D01*
X023788Y027328D01*
X023729Y027368D01*
X023660Y027382D01*
X023030D01*
X022960Y027368D01*
X022902Y027328D01*
X022891Y027312D01*
X022146D01*
X022020Y027439D01*
X022040Y027476D01*
X022122Y027492D01*
X022191Y027539D01*
X022238Y027608D01*
X022254Y027690D01*
X022238Y027772D01*
X022191Y027841D01*
X022122Y027888D01*
X022040Y027904D01*
X021958Y027888D01*
X021889Y027841D01*
X021886Y027837D01*
X021840Y027868D01*
X021770Y027882D01*
X021140D01*
X021071Y027868D01*
X021012Y027828D01*
X020972Y027769D01*
X020959Y027700D01*
X020971Y027639D01*
X020952Y027617D01*
X020870Y027562D01*
X020594D01*
X020588Y027592D01*
X020541Y027661D01*
X020472Y027708D01*
X020390Y027724D01*
X020308Y027708D01*
X020239Y027661D01*
X020192Y027592D01*
X020176Y027510D01*
X020192Y027428D01*
X020211Y027400D01*
X020164Y027312D01*
X019598D01*
X019571Y027351D01*
X019502Y027398D01*
X019420Y027414D01*
X019338Y027398D01*
X019269Y027351D01*
X019222Y027282D01*
X019206Y027200D01*
X019222Y027118D01*
X019269Y027049D01*
X019338Y027002D01*
X019420Y026986D01*
X019502Y027002D01*
X019571Y027049D01*
X019598Y027088D01*
X021001D01*
X021012Y027072D01*
X021071Y027032D01*
X021140Y027018D01*
X021770D01*
X021840Y027032D01*
X021898Y027072D01*
X021938Y027130D01*
D01*
Y027130D01*
X021938Y027130D01*
D01*
X021939Y027130D01*
X022021Y027121D01*
X022021Y027121D01*
Y027121D01*
X022057Y027096D01*
X022100Y027088D01*
X022891D01*
X022902Y027072D01*
X022960Y027032D01*
X023030Y027018D01*
X023660D01*
X023729Y027032D01*
X023788Y027072D01*
X023828Y027130D01*
X023836Y027173D01*
X023916D01*
Y027173D01*
X024143D01*
X024206Y027095D01*
X024195Y027039D01*
X024212Y026958D01*
X024258Y026888D01*
X024328Y026842D01*
X024409Y026825D01*
X024491Y026842D01*
X024561Y026888D01*
X024607Y026958D01*
X024624Y027039D01*
X024607Y027121D01*
X024635Y027173D01*
X024903D01*
Y027627D01*
X024674D01*
X024611Y027705D01*
X024624Y027769D01*
X024607Y027851D01*
X024561Y027921D01*
X024491Y027967D01*
X024409Y027984D01*
X024328Y027967D01*
X024258Y027921D01*
X024212Y027851D01*
X024195Y027769D01*
X024208Y027705D01*
X024145Y027627D01*
X023927D01*
Y027627D01*
X023916D01*
D01*
Y027627D01*
D01*
D01*
D01*
X023916D01*
D01*
D01*
D01*
D01*
D01*
X023916D01*
X023886Y027633D01*
X023841Y027700D01*
X023828Y027769D01*
X023788Y027828D01*
X023729Y027868D01*
X023660Y027882D01*
X023030D01*
X022960Y027868D01*
X022902Y027828D01*
X022656Y027992D01*
X022621Y028027D01*
X022685Y028105D01*
X022697Y028096D01*
X022740Y028088D01*
X022891D01*
X022902Y028072D01*
X022960Y028032D01*
X023030Y028018D01*
X023660D01*
X023729Y028032D01*
X023788Y028072D01*
X023828Y028131D01*
X023841Y028200D01*
X023828Y028270D01*
X023788Y028328D01*
X023729Y028368D01*
X023660Y028382D01*
X023030D01*
X022960Y028368D01*
X022902Y028328D01*
X022891Y028312D01*
X022786D01*
X021839Y029259D01*
X021803Y029284D01*
X021760Y029292D01*
X021760Y029292D01*
X020378D01*
X020351Y029331D01*
X020282Y029378D01*
X020200Y029394D01*
D02*
G37*
G36*
X023295Y028882D02*
X023030D01*
X022960Y028868D01*
X022902Y028828D01*
X022862Y028770D01*
X022858Y028750D01*
X023295D01*
Y028882D01*
D02*
G37*
G36*
X023985Y028860D02*
Y028705D01*
X024139D01*
X024132Y028737D01*
X024086Y028807D01*
X024017Y028853D01*
X023985Y028860D01*
D02*
G37*
G36*
X016720Y028364D02*
X016638Y028348D01*
X016569Y028301D01*
X016522Y028232D01*
X016506Y028150D01*
X016522Y028068D01*
X016569Y027999D01*
X016638Y027952D01*
X016720Y027936D01*
X016802Y027952D01*
X016871Y027999D01*
X016898Y028038D01*
X017291D01*
X017302Y028022D01*
X017360Y027982D01*
X017430Y027968D01*
X018060D01*
X018129Y027982D01*
X018188Y028022D01*
X018228Y028080D01*
X018241Y028150D01*
X018228Y028219D01*
X018188Y028278D01*
X018129Y028318D01*
X018060Y028332D01*
X017430D01*
X017360Y028318D01*
X017302Y028278D01*
X017291Y028262D01*
X016898D01*
X016871Y028301D01*
X016802Y028348D01*
X016720Y028364D01*
D02*
G37*
G36*
X016170Y028332D02*
X015540D01*
X015471Y028318D01*
X015412Y028278D01*
X015386Y028239D01*
X015371Y028229D01*
X015371Y028229D01*
X013664Y026522D01*
X013195D01*
X013163Y026617D01*
X013174Y026626D01*
X013236Y026706D01*
X013275Y026800D01*
X013288Y026900D01*
X013275Y027000D01*
X013236Y027094D01*
X013174Y027174D01*
X013094Y027236D01*
X013000Y027275D01*
X012900Y027288D01*
X012800Y027275D01*
X012706Y027236D01*
X012626Y027174D01*
X012564Y027094D01*
X012525Y027000D01*
X012512Y026900D01*
X012525Y026800D01*
X012564Y026706D01*
X012626Y026626D01*
X012637Y026617D01*
X012605Y026522D01*
X012410D01*
X012410Y026522D01*
X012367Y026514D01*
X012331Y026489D01*
X012082Y026241D01*
X012000Y026275D01*
X011900Y026288D01*
X011800Y026275D01*
X011706Y026236D01*
X011626Y026174D01*
X011564Y026094D01*
X011525Y026000D01*
X011512Y025900D01*
X011525Y025800D01*
X011564Y025706D01*
X011626Y025626D01*
X011706Y025564D01*
X011800Y025525D01*
X011900Y025512D01*
X012000Y025525D01*
X012094Y025564D01*
X012174Y025626D01*
X012236Y025706D01*
X012275Y025800D01*
X012288Y025900D01*
X012275Y026000D01*
X012241Y026082D01*
X012456Y026298D01*
X012631D01*
X012663Y026203D01*
X012626Y026174D01*
X012564Y026094D01*
X012525Y026000D01*
X012512Y025900D01*
X012525Y025800D01*
X012564Y025706D01*
X012598Y025662D01*
X012553Y025572D01*
X012460D01*
X012460Y025572D01*
X012417Y025564D01*
X012381Y025539D01*
X012381Y025539D01*
X012082Y025241D01*
X012000Y025275D01*
X011900Y025288D01*
X011800Y025275D01*
X011706Y025236D01*
X011626Y025174D01*
X011564Y025094D01*
X011525Y025000D01*
X011512Y024900D01*
X011525Y024800D01*
X011564Y024706D01*
X011626Y024626D01*
X011706Y024564D01*
X011800Y024525D01*
X011900Y024512D01*
X012000Y024525D01*
X012094Y024564D01*
X012174Y024626D01*
X012236Y024706D01*
X012275Y024800D01*
X012288Y024900D01*
X012275Y025000D01*
X012241Y025082D01*
X012506Y025348D01*
X012719D01*
X012739Y025250D01*
X012706Y025236D01*
X012626Y025174D01*
X012564Y025094D01*
X012525Y025000D01*
X012512Y024900D01*
X012525Y024800D01*
X012564Y024706D01*
X012626Y024626D01*
X012663Y024597D01*
X012631Y024502D01*
X012390D01*
X012390Y024502D01*
X012347Y024494D01*
X012311Y024469D01*
X012311Y024469D01*
X012082Y024241D01*
X012000Y024275D01*
X011900Y024288D01*
X011800Y024275D01*
X011706Y024236D01*
X011626Y024174D01*
X011564Y024094D01*
X011525Y024000D01*
X011512Y023900D01*
X011525Y023800D01*
X011564Y023706D01*
X011626Y023626D01*
X011706Y023564D01*
X011800Y023525D01*
X011900Y023512D01*
X012000Y023525D01*
X012094Y023564D01*
X012174Y023626D01*
X012236Y023706D01*
X012275Y023800D01*
X012288Y023900D01*
X012275Y024000D01*
X012241Y024082D01*
X012436Y024278D01*
X012605D01*
X012637Y024183D01*
X012626Y024174D01*
X012564Y024094D01*
X012525Y024000D01*
X012512Y023900D01*
X012525Y023800D01*
X012564Y023706D01*
X012626Y023626D01*
X012706Y023564D01*
X012800Y023525D01*
X012900Y023512D01*
X013000Y023525D01*
X013094Y023564D01*
X013174Y023626D01*
X013236Y023706D01*
X013275Y023800D01*
X013288Y023900D01*
X013275Y024000D01*
X013241Y024082D01*
X013707Y024548D01*
X013767Y024498D01*
X013782Y024481D01*
X013766Y024400D01*
X013781Y024325D01*
X013710Y024254D01*
X013710Y024254D01*
X013628Y024238D01*
X013559Y024191D01*
X013512Y024122D01*
X013496Y024040D01*
X013512Y023958D01*
X013559Y023889D01*
X013628Y023842D01*
X013710Y023826D01*
X013792Y023842D01*
X013861Y023889D01*
X013888Y023928D01*
X019054D01*
X020211Y022771D01*
X020211Y022771D01*
X020247Y022746D01*
Y022746D01*
X020247Y022746D01*
D01*
D01*
D01*
X020247D01*
Y022746D01*
D01*
X020247Y022746D01*
X020247Y022746D01*
X020290Y022738D01*
X020290Y022738D01*
X021001D01*
X021012Y022722D01*
X021071Y022682D01*
X021140Y022668D01*
X021770D01*
X021840Y022682D01*
X021898Y022722D01*
X021938Y022780D01*
X021952Y022850D01*
X021938Y022919D01*
X021898Y022978D01*
X021840Y023018D01*
X021770Y023032D01*
X021140D01*
X021071Y023018D01*
X021012Y022978D01*
X021001Y022962D01*
X020336D01*
X019179Y024119D01*
X019143Y024144D01*
X019100Y024152D01*
X019100Y024152D01*
X014159D01*
X014130Y024248D01*
X014131Y024249D01*
X014158Y024288D01*
X019304D01*
X020321Y023271D01*
X020321Y023271D01*
X020357Y023246D01*
X020400Y023238D01*
X021001D01*
X021012Y023222D01*
X021071Y023182D01*
X021140Y023168D01*
X021770D01*
X021840Y023182D01*
X021898Y023222D01*
X021938Y023280D01*
X021952Y023350D01*
X021938Y023419D01*
X021898Y023478D01*
X021840Y023518D01*
X021770Y023532D01*
X021140D01*
X021071Y023518D01*
X021012Y023478D01*
X021001Y023462D01*
X020446D01*
X019429Y024479D01*
X019393Y024504D01*
X019350Y024512D01*
X019350Y024512D01*
X018671D01*
X018561Y024586D01*
X018558Y024589D01*
X018574Y024670D01*
X018572Y024682D01*
X018627Y024765D01*
X018630Y024766D01*
X018630Y024766D01*
Y024766D01*
X018712Y024782D01*
X018781Y024829D01*
X018828Y024898D01*
X018844Y024980D01*
X018828Y025062D01*
X018781Y025131D01*
X018783Y025138D01*
X022080D01*
X022080Y025138D01*
X022123Y025146D01*
X022159Y025171D01*
X022576Y025588D01*
X022891D01*
X022902Y025572D01*
X022960Y025532D01*
X023030Y025518D01*
X023660D01*
X023729Y025532D01*
X023788Y025572D01*
X023828Y025631D01*
X023841Y025700D01*
X023828Y025770D01*
X023788Y025828D01*
X023729Y025868D01*
X023660Y025882D01*
X023030D01*
X022960Y025868D01*
X022919Y025840D01*
X022863Y025854D01*
X022807Y025891D01*
X022815Y025878D01*
X022803Y025900D01*
X022828Y025938D01*
X022842Y026011D01*
X022882Y026028D01*
X022948Y026041D01*
X022960Y026032D01*
X023030Y026018D01*
X023660D01*
X023729Y026032D01*
X023788Y026072D01*
X023828Y026130D01*
X023841Y026200D01*
X023828Y026270D01*
X023788Y026328D01*
X023729Y026368D01*
X023660Y026382D01*
X023030D01*
X022960Y026368D01*
X022902Y026328D01*
X022891Y026312D01*
X022810D01*
X022780Y026306D01*
X022733Y026394D01*
X022907Y026568D01*
X022960Y026532D01*
X023030Y026518D01*
X023660D01*
X023729Y026532D01*
X023788Y026572D01*
X023828Y026630D01*
X023841Y026700D01*
X023828Y026769D01*
X023788Y026828D01*
X023729Y026868D01*
X023660Y026882D01*
X023030D01*
X022960Y026868D01*
X022902Y026828D01*
X022891Y026812D01*
X022880D01*
X022837Y026804D01*
X022801Y026779D01*
X022801Y026779D01*
X022622Y026600D01*
X022534Y026648D01*
X022544Y026700D01*
X022528Y026782D01*
X022481Y026851D01*
X022412Y026898D01*
X022330Y026914D01*
X022248Y026898D01*
X022179Y026851D01*
X022152Y026812D01*
X021909D01*
X021898Y026828D01*
X021840Y026868D01*
X021770Y026882D01*
X021140D01*
X021071Y026868D01*
X021012Y026828D01*
X020972Y026769D01*
X020959Y026700D01*
X020972Y026630D01*
X021012Y026572D01*
X021071Y026532D01*
X021140Y026518D01*
X021770D01*
X021840Y026532D01*
X021898Y026572D01*
X021909Y026588D01*
X022152D01*
X022179Y026549D01*
X022248Y026502D01*
X022330Y026486D01*
X022382Y026496D01*
X022429Y026408D01*
X022074Y026052D01*
X022055D01*
X021938Y026131D01*
X021952Y026200D01*
X021938Y026270D01*
X021898Y026328D01*
X021840Y026368D01*
X021770Y026382D01*
X021140D01*
X021071Y026368D01*
X021012Y026328D01*
X021001Y026312D01*
X019918D01*
X019891Y026351D01*
X019822Y026398D01*
X019740Y026414D01*
X019658Y026398D01*
X019589Y026351D01*
X019542Y026282D01*
X019526Y026200D01*
X019542Y026118D01*
X019589Y026049D01*
X019658Y026002D01*
X019740Y025986D01*
X019822Y026002D01*
X019891Y026049D01*
X019918Y026088D01*
X020169D01*
X020207Y025995D01*
X019974Y025762D01*
X018199D01*
X018188Y025778D01*
X018129Y025818D01*
X018060Y025832D01*
X017430D01*
X017360Y025818D01*
X017302Y025778D01*
X017262Y025719D01*
X017257Y025696D01*
X017162Y025667D01*
X016599Y026229D01*
X016563Y026254D01*
X016520Y026262D01*
X016520Y026262D01*
X016309D01*
X016298Y026278D01*
X016240Y026318D01*
X016170Y026332D01*
X015540D01*
X015471Y026318D01*
X015412Y026278D01*
X015372Y026219D01*
X015359Y026150D01*
X015372Y026081D01*
X015412Y026022D01*
X015471Y025982D01*
X015540Y025968D01*
X016170D01*
X016240Y025982D01*
X016298Y026022D01*
X016309Y026038D01*
X016474D01*
X017341Y025171D01*
X017341Y025171D01*
X017377Y025146D01*
X017420Y025138D01*
X017853D01*
X017905Y025103D01*
X017915Y025004D01*
X017884Y024972D01*
X013959D01*
X013930Y025068D01*
X013949Y025081D01*
X015392Y026524D01*
X015412Y026522D01*
X015471Y026482D01*
X015540Y026468D01*
X016170D01*
X016240Y026482D01*
X016298Y026522D01*
X016338Y026581D01*
X016352Y026650D01*
X016338Y026720D01*
X016298Y026778D01*
X016240Y026818D01*
X016170Y026832D01*
X015540D01*
X015471Y026818D01*
X015438Y026796D01*
X015346Y026834D01*
X015339Y026870D01*
X015459Y026990D01*
X015471Y026982D01*
X015540Y026968D01*
X016170D01*
X016240Y026982D01*
X016298Y027022D01*
X016338Y027081D01*
X016352Y027150D01*
X016338Y027220D01*
X016298Y027278D01*
X016240Y027318D01*
X016170Y027332D01*
X015540D01*
X015471Y027318D01*
X015412Y027278D01*
X015375Y027224D01*
X014079Y025927D01*
X013983Y025956D01*
X013978Y025982D01*
X013931Y026051D01*
X013862Y026098D01*
X013780Y026114D01*
X013698Y026098D01*
X013629Y026051D01*
X013602Y026012D01*
X013270D01*
X013236Y026094D01*
X013174Y026174D01*
X013137Y026203D01*
X013169Y026298D01*
X013710D01*
X013710Y026298D01*
X013753Y026306D01*
X013789Y026331D01*
X015453Y027994D01*
X015471Y027982D01*
X015540Y027968D01*
X016170D01*
X016240Y027982D01*
X016298Y028022D01*
X016338Y028080D01*
X016352Y028150D01*
X016338Y028219D01*
X016298Y028278D01*
X016240Y028318D01*
X016170Y028332D01*
D02*
G37*
G36*
X011850Y028282D02*
X011800Y028275D01*
X011706Y028236D01*
X011626Y028174D01*
X011564Y028094D01*
X011525Y028000D01*
X011518Y027950D01*
X011850D01*
Y028282D01*
D02*
G37*
G36*
X024139Y028605D02*
X023985D01*
Y028451D01*
X024017Y028458D01*
X024086Y028504D01*
X024132Y028573D01*
X024139Y028605D01*
D02*
G37*
G36*
X023660Y028882D02*
X023395D01*
Y028700D01*
Y028518D01*
X023660D01*
X023729Y028532D01*
X023754Y028548D01*
X023783Y028504D01*
X023853Y028458D01*
X023885Y028451D01*
Y028655D01*
Y028860D01*
X023853Y028853D01*
X023829Y028838D01*
X023774D01*
X023729Y028868D01*
X023660Y028882D01*
D02*
G37*
G36*
X028851Y029550D02*
X027949D01*
X027958Y029482D01*
X028004Y029371D01*
X028076Y029276D01*
X028171Y029204D01*
X028282Y029158D01*
X028342Y029150D01*
Y029050D01*
X028282Y029042D01*
X028171Y028996D01*
X028076Y028924D01*
X028004Y028829D01*
X027958Y028718D01*
X027942Y028600D01*
X027958Y028482D01*
X028004Y028371D01*
X028076Y028276D01*
X028171Y028204D01*
X028282Y028158D01*
X028400Y028142D01*
X028518Y028158D01*
X028629Y028204D01*
X028724Y028276D01*
X028796Y028371D01*
X028842Y028482D01*
X028858Y028600D01*
X028842Y028718D01*
X028796Y028829D01*
X028724Y028924D01*
X028629Y028996D01*
X028518Y029042D01*
X028458Y029050D01*
Y029150D01*
X028518Y029158D01*
X028629Y029204D01*
X028724Y029276D01*
X028796Y029371D01*
X028842Y029482D01*
X028851Y029550D01*
D02*
G37*
G36*
X011850Y029282D02*
X011800Y029275D01*
X011706Y029236D01*
X011626Y029174D01*
X011564Y029094D01*
X011525Y029000D01*
X011518Y028950D01*
X011850D01*
Y029282D01*
D02*
G37*
G36*
X024800Y033858D02*
X024682Y033842D01*
X024571Y033796D01*
X024476Y033724D01*
X024404Y033629D01*
X024358Y033518D01*
X024342Y033400D01*
X024358Y033282D01*
X024404Y033171D01*
X024408Y033166D01*
X022864Y031622D01*
X021840D01*
X021797Y031614D01*
X021761Y031589D01*
X021761Y031589D01*
X020654Y030482D01*
X013143D01*
X013111Y030577D01*
X013174Y030626D01*
X013236Y030706D01*
X013275Y030800D01*
X013288Y030900D01*
X013275Y031000D01*
X013236Y031094D01*
X013174Y031174D01*
X013094Y031236D01*
X013000Y031275D01*
X012900Y031288D01*
X012800Y031275D01*
X012706Y031236D01*
X012626Y031174D01*
X012564Y031094D01*
X012525Y031000D01*
X012512Y030900D01*
X012525Y030800D01*
X012564Y030706D01*
X012626Y030626D01*
X012689Y030577D01*
X012657Y030482D01*
X012370D01*
X012327Y030474D01*
X012291Y030449D01*
X012291Y030449D01*
X012082Y030241D01*
X012000Y030275D01*
X011900Y030288D01*
X011800Y030275D01*
X011706Y030236D01*
X011626Y030174D01*
X011564Y030094D01*
X011525Y030000D01*
X011512Y029900D01*
X011525Y029800D01*
X011564Y029706D01*
X011626Y029626D01*
X011706Y029564D01*
X011800Y029525D01*
X011900Y029512D01*
X012000Y029525D01*
X012094Y029564D01*
X012174Y029626D01*
X012236Y029706D01*
X012275Y029800D01*
X012288Y029900D01*
X012275Y030000D01*
X012241Y030082D01*
X012416Y030258D01*
X012562D01*
X012603Y030203D01*
X012621Y030168D01*
X012564Y030094D01*
X012525Y030000D01*
X012512Y029900D01*
X012525Y029800D01*
X012564Y029706D01*
X012622Y029631D01*
X012587Y029537D01*
X012537Y029527D01*
X012519Y029515D01*
X012493Y029497D01*
X012493Y029497D01*
X012323Y029327D01*
X012293Y029283D01*
X012282Y029230D01*
Y029189D01*
X012188Y029157D01*
X012174Y029174D01*
X012094Y029236D01*
X012000Y029275D01*
X011950Y029282D01*
Y028900D01*
Y028518D01*
X012000Y028525D01*
X012094Y028564D01*
X012174Y028626D01*
X012188Y028643D01*
X012282Y028611D01*
Y028189D01*
X012188Y028157D01*
X012174Y028174D01*
X012094Y028236D01*
X012000Y028275D01*
X011950Y028282D01*
Y027900D01*
Y027518D01*
X012000Y027525D01*
X012094Y027564D01*
X012174Y027626D01*
X012188Y027643D01*
X012282Y027611D01*
Y027477D01*
X012057Y027252D01*
X012000Y027275D01*
X011900Y027288D01*
X011800Y027275D01*
X011706Y027236D01*
X011626Y027174D01*
X011564Y027094D01*
X011525Y027000D01*
X011512Y026900D01*
X011525Y026800D01*
X011564Y026706D01*
X011626Y026626D01*
X011706Y026564D01*
X011800Y026525D01*
X011900Y026512D01*
X012000Y026525D01*
X012094Y026564D01*
X012174Y026626D01*
X012236Y026706D01*
X012275Y026800D01*
X012288Y026900D01*
X012275Y027000D01*
X012252Y027057D01*
X012517Y027323D01*
X012547Y027367D01*
X012558Y027420D01*
Y027565D01*
X012647Y027609D01*
X012706Y027564D01*
X012800Y027525D01*
X012900Y027512D01*
X013000Y027525D01*
X013094Y027564D01*
X013174Y027626D01*
X013236Y027706D01*
X013275Y027800D01*
X013288Y027900D01*
X013275Y028000D01*
X013236Y028094D01*
X013174Y028174D01*
X013094Y028236D01*
X013000Y028275D01*
X012900Y028288D01*
X012800Y028275D01*
X012706Y028236D01*
X012647Y028191D01*
X012558Y028235D01*
Y028565D01*
X012647Y028609D01*
X012706Y028564D01*
X012800Y028525D01*
X012900Y028512D01*
X013000Y028525D01*
X013094Y028564D01*
X013174Y028626D01*
X013236Y028706D01*
X013275Y028800D01*
X013288Y028900D01*
X013275Y029000D01*
X013236Y029094D01*
X013174Y029174D01*
X013094Y029236D01*
X013099Y029262D01*
X013320D01*
X013373Y029273D01*
X013417Y029303D01*
X013707Y029592D01*
X018493D01*
X018540Y029504D01*
X018512Y029462D01*
X018506Y029430D01*
X018914D01*
X018908Y029462D01*
X018861Y029531D01*
X018792Y029578D01*
D01*
X018792D01*
Y029578D01*
D01*
D01*
Y029578D01*
X018792Y029578D01*
D01*
D01*
D01*
D01*
X018793Y029592D01*
X023120D01*
X023167Y029504D01*
X023152Y029482D01*
X023136Y029400D01*
X023152Y029318D01*
X023199Y029249D01*
X023268Y029202D01*
X023350Y029186D01*
X023432Y029202D01*
X023501Y029249D01*
X023511Y029262D01*
X023916D01*
Y029173D01*
X024139D01*
X024202Y029095D01*
X024195Y029059D01*
X024212Y028978D01*
X024258Y028908D01*
X024328Y028862D01*
X024409Y028845D01*
X024491Y028862D01*
X024561Y028908D01*
X024607Y028978D01*
X024624Y029059D01*
X024607Y029141D01*
X024624Y029173D01*
X024903D01*
Y029592D01*
X025097D01*
Y029173D01*
X026084D01*
Y029173D01*
X026118Y029222D01*
X026118Y029222D01*
Y029222D01*
D01*
D01*
X026200Y029206D01*
X026282Y029222D01*
X026351Y029269D01*
X026398Y029338D01*
X026414Y029420D01*
X026411Y029436D01*
X027437Y030462D01*
X027966D01*
X028004Y030371D01*
X028076Y030276D01*
X028171Y030204D01*
X028282Y030158D01*
X028342Y030150D01*
Y030050D01*
X028282Y030042D01*
X028171Y029996D01*
X028076Y029924D01*
X028004Y029829D01*
X027958Y029718D01*
X027949Y029650D01*
X028851D01*
X028842Y029718D01*
X028796Y029829D01*
X028724Y029924D01*
X028629Y029996D01*
X028518Y030042D01*
X028458Y030050D01*
Y030150D01*
X028518Y030158D01*
X028629Y030204D01*
X028724Y030276D01*
X028796Y030371D01*
X028842Y030482D01*
X028858Y030600D01*
X028842Y030718D01*
X028796Y030829D01*
X028724Y030924D01*
X028629Y030996D01*
X028518Y031042D01*
X028400Y031058D01*
X028282Y031042D01*
X028171Y030996D01*
X028076Y030924D01*
X028004Y030829D01*
X027966Y030738D01*
X027380D01*
X027327Y030727D01*
X027283Y030697D01*
X026216Y029631D01*
X026200Y029634D01*
X026118Y029618D01*
X026111Y029613D01*
X026084Y029627D01*
Y029627D01*
X026084Y029627D01*
X025723D01*
X025718Y029652D01*
X025688Y029697D01*
X025557Y029827D01*
X025513Y029857D01*
X025460Y029868D01*
X025090D01*
X025026Y029945D01*
X025040Y030015D01*
X025024Y030097D01*
X024977Y030166D01*
X024938Y030193D01*
Y030445D01*
X025142D01*
Y031155D01*
X024510D01*
Y030445D01*
X024714D01*
Y030193D01*
X024675Y030166D01*
X024628Y030097D01*
X024612Y030015D01*
X024626Y029945D01*
X024562Y029868D01*
X022948D01*
X022828Y029948D01*
X022844Y030030D01*
X022828Y030112D01*
X022781Y030181D01*
X022712Y030228D01*
X022630Y030244D01*
X022584Y030235D01*
X022395Y030424D01*
X022404Y030470D01*
X022388Y030552D01*
X022341Y030621D01*
X022272Y030668D01*
X022190Y030684D01*
X022108Y030668D01*
X022039Y030621D01*
X021992Y030552D01*
X021976Y030470D01*
X021992Y030388D01*
X022039Y030319D01*
X022108Y030272D01*
X022190Y030256D01*
X022236Y030265D01*
X022425Y030076D01*
X022416Y030030D01*
X022432Y029948D01*
X022312Y029868D01*
X013650D01*
X013597Y029857D01*
X013553Y029827D01*
X013553Y029827D01*
X013305Y029579D01*
X013205Y029586D01*
X013181Y029617D01*
X013176Y029627D01*
X013236Y029706D01*
X013275Y029800D01*
X013288Y029900D01*
X013275Y030000D01*
X013236Y030094D01*
X013174Y030174D01*
X013094Y030236D01*
X013098Y030258D01*
X020700D01*
X020700Y030258D01*
X020743Y030266D01*
X020779Y030291D01*
X021886Y031398D01*
X022910D01*
X022910Y031398D01*
X022953Y031406D01*
X022989Y031431D01*
X024566Y033008D01*
X024571Y033004D01*
X024682Y032958D01*
X024800Y032942D01*
X024918Y032958D01*
X025029Y033004D01*
X025124Y033076D01*
X025196Y033171D01*
X025242Y033282D01*
X025250Y033342D01*
X025350D01*
X025358Y033282D01*
X025404Y033171D01*
X025476Y033076D01*
X025571Y033004D01*
X025682Y032958D01*
X025750Y032949D01*
Y033400D01*
Y033851D01*
X025682Y033842D01*
X025571Y033796D01*
X025476Y033724D01*
X025404Y033629D01*
X025358Y033518D01*
X025350Y033458D01*
X025250D01*
X025242Y033518D01*
X025196Y033629D01*
X025124Y033724D01*
X025029Y033796D01*
X024918Y033842D01*
X024800Y033858D01*
D02*
G37*
G36*
X018200D02*
X018082Y033842D01*
X017971Y033796D01*
X017876Y033724D01*
X017804Y033629D01*
X017758Y033518D01*
X017742Y033400D01*
X017758Y033282D01*
X017804Y033171D01*
X017876Y033076D01*
X017971Y033004D01*
X018082Y032958D01*
X018200Y032942D01*
X018318Y032958D01*
X018429Y033004D01*
X018524Y033076D01*
X018596Y033171D01*
X018642Y033282D01*
X018650Y033342D01*
X018750D01*
X018758Y033282D01*
X018804Y033171D01*
X018876Y033076D01*
X018971Y033004D01*
X019082Y032958D01*
X019150Y032949D01*
Y033400D01*
Y033851D01*
X019082Y033842D01*
X018971Y033796D01*
X018876Y033724D01*
X018804Y033629D01*
X018758Y033518D01*
X018750Y033458D01*
X018650D01*
X018642Y033518D01*
X018596Y033629D01*
X018524Y033724D01*
X018429Y033796D01*
X018318Y033842D01*
X018200Y033858D01*
D02*
G37*
G36*
X016000Y034314D02*
X015794Y034298D01*
X015594Y034250D01*
X015403Y034171D01*
X015228Y034063D01*
X015071Y033929D01*
X014937Y033772D01*
X014829Y033597D01*
X014750Y033406D01*
X014702Y033206D01*
X014686Y033000D01*
X014702Y032794D01*
X014750Y032594D01*
X014829Y032403D01*
X014937Y032228D01*
X015071Y032071D01*
X015228Y031937D01*
X015403Y031829D01*
X015594Y031750D01*
X015794Y031702D01*
X016000Y031686D01*
X016206Y031702D01*
X016406Y031750D01*
X016597Y031829D01*
X016772Y031937D01*
X016929Y032071D01*
X017063Y032228D01*
X017171Y032403D01*
X017250Y032594D01*
X017298Y032794D01*
X017314Y033000D01*
X017298Y033206D01*
X017250Y033406D01*
X017171Y033597D01*
X017063Y033772D01*
X016929Y033929D01*
X016772Y034063D01*
X016597Y034171D01*
X016406Y034250D01*
X016206Y034298D01*
X016000Y034314D01*
D02*
G37*
G36*
X023200Y033858D02*
X023082Y033842D01*
X022971Y033796D01*
X022876Y033724D01*
X022804Y033629D01*
X022758Y033518D01*
X022750Y033458D01*
X022650D01*
X022642Y033518D01*
X022596Y033629D01*
X022524Y033724D01*
X022429Y033796D01*
X022318Y033842D01*
X022200Y033858D01*
X022082Y033842D01*
X021971Y033796D01*
X021876Y033724D01*
X021804Y033629D01*
X021758Y033518D01*
X021750Y033458D01*
X021650D01*
X021642Y033518D01*
X021596Y033629D01*
X021524Y033724D01*
X021429Y033796D01*
X021318Y033842D01*
X021200Y033858D01*
X021082Y033842D01*
X020971Y033796D01*
X020876Y033724D01*
X020804Y033629D01*
X020758Y033518D01*
X020750Y033458D01*
X020650D01*
X020642Y033518D01*
X020596Y033629D01*
X020524Y033724D01*
X020429Y033796D01*
X020318Y033842D01*
X020200Y033858D01*
X020082Y033842D01*
X019971Y033796D01*
X019876Y033724D01*
X019804Y033629D01*
X019758Y033518D01*
X019750Y033458D01*
X019650D01*
X019642Y033518D01*
X019596Y033629D01*
X019524Y033724D01*
X019429Y033796D01*
X019318Y033842D01*
X019250Y033851D01*
Y033400D01*
Y032949D01*
X019318Y032958D01*
X019429Y033004D01*
X019524Y033076D01*
X019596Y033171D01*
X019642Y033282D01*
X019650Y033342D01*
X019750D01*
X019758Y033282D01*
X019804Y033171D01*
X019876Y033076D01*
X019971Y033004D01*
X020082Y032958D01*
X020200Y032942D01*
X020318Y032958D01*
X020429Y033004D01*
X020524Y033076D01*
X020596Y033171D01*
X020642Y033282D01*
X020650Y033342D01*
X020750D01*
X020758Y033282D01*
X020804Y033171D01*
X020876Y033076D01*
X020971Y033004D01*
X021082Y032958D01*
X021200Y032942D01*
X021318Y032958D01*
X021429Y033004D01*
X021524Y033076D01*
X021596Y033171D01*
X021642Y033282D01*
X021650Y033342D01*
X021750D01*
X021758Y033282D01*
X021804Y033171D01*
X021876Y033076D01*
X021971Y033004D01*
X022082Y032958D01*
X022200Y032942D01*
X022318Y032958D01*
X022429Y033004D01*
X022524Y033076D01*
X022596Y033171D01*
X022642Y033282D01*
X022650Y033342D01*
X022750D01*
X022758Y033282D01*
X022804Y033171D01*
X022876Y033076D01*
X022971Y033004D01*
X023082Y032958D01*
X023200Y032942D01*
X023318Y032958D01*
X023429Y033004D01*
X023524Y033076D01*
X023596Y033171D01*
X023642Y033282D01*
X023658Y033400D01*
X023642Y033518D01*
X023596Y033629D01*
X023524Y033724D01*
X023429Y033796D01*
X023318Y033842D01*
X023200Y033858D01*
D02*
G37*
G36*
X025850Y033851D02*
Y033450D01*
X026251D01*
X026242Y033518D01*
X026196Y033629D01*
X026124Y033724D01*
X026029Y033796D01*
X025918Y033842D01*
X025850Y033851D01*
D02*
G37*
G36*
X026251Y033350D02*
X025850D01*
Y032949D01*
X025918Y032958D01*
X026029Y033004D01*
X026124Y033076D01*
X026196Y033171D01*
X026242Y033282D01*
X026251Y033350D01*
D02*
G37*
G36*
X011900Y031288D02*
X011800Y031275D01*
X011706Y031236D01*
X011626Y031174D01*
X011564Y031094D01*
X011525Y031000D01*
X011512Y030900D01*
X011525Y030800D01*
X011564Y030706D01*
X011626Y030626D01*
X011706Y030564D01*
X011800Y030525D01*
X011900Y030512D01*
X012000Y030525D01*
X012094Y030564D01*
X012174Y030626D01*
X012236Y030706D01*
X012275Y030800D01*
X012288Y030900D01*
X012275Y031000D01*
X012236Y031094D01*
X012174Y031174D01*
X012094Y031236D01*
X012000Y031275D01*
X011900Y031288D01*
D02*
G37*
G36*
X017695Y029332D02*
X017430D01*
X017360Y029318D01*
X017302Y029278D01*
X017262Y029220D01*
X017258Y029200D01*
X017695D01*
Y029332D01*
D02*
G37*
G36*
X018914Y029330D02*
X018760D01*
Y029176D01*
X018792Y029182D01*
X018861Y029229D01*
X018908Y029298D01*
X018914Y029330D01*
D02*
G37*
G36*
X012900Y032288D02*
X012800Y032275D01*
X012706Y032236D01*
X012626Y032174D01*
X012564Y032094D01*
X012525Y032000D01*
X012512Y031900D01*
X012525Y031800D01*
X012564Y031706D01*
X012626Y031626D01*
X012706Y031564D01*
X012800Y031525D01*
X012900Y031512D01*
X013000Y031525D01*
X013094Y031564D01*
X013174Y031626D01*
X013236Y031706D01*
X013275Y031800D01*
X013288Y031900D01*
X013275Y032000D01*
X013236Y032094D01*
X013174Y032174D01*
X013094Y032236D01*
X013000Y032275D01*
X012900Y032288D01*
D02*
G37*
G36*
X011900D02*
X011800Y032275D01*
X011706Y032236D01*
X011626Y032174D01*
X011564Y032094D01*
X011525Y032000D01*
X011512Y031900D01*
X011525Y031800D01*
X011564Y031706D01*
X011626Y031626D01*
X011706Y031564D01*
X011800Y031525D01*
X011900Y031512D01*
X012000Y031525D01*
X012094Y031564D01*
X012174Y031626D01*
X012236Y031706D01*
X012275Y031800D01*
X012288Y031900D01*
X012275Y032000D01*
X012236Y032094D01*
X012174Y032174D01*
X012094Y032236D01*
X012000Y032275D01*
X011900Y032288D01*
D02*
G37*
G36*
X025890Y031155D02*
X025258D01*
Y030445D01*
X025890D01*
Y030589D01*
X025979Y030649D01*
X026048Y030602D01*
X026130Y030586D01*
X026212Y030602D01*
X026281Y030649D01*
X026328Y030718D01*
X026344Y030800D01*
X026328Y030882D01*
X026281Y030951D01*
X026212Y030998D01*
X026130Y031014D01*
X026048Y030998D01*
X025979Y030951D01*
X025890Y031011D01*
Y031155D01*
D02*
G37*
G36*
X026154Y026790D02*
X026000D01*
Y026636D01*
X026032Y026642D01*
X026101Y026689D01*
X026148Y026758D01*
X026154Y026790D01*
D02*
G37*
G36*
X025900D02*
X025746D01*
X025752Y026758D01*
X025799Y026689D01*
X025868Y026642D01*
X025900Y026636D01*
Y026790D01*
D02*
G37*
G36*
X018360Y026374D02*
X018278Y026358D01*
X018209Y026311D01*
X018187Y026279D01*
X018129Y026318D01*
X018060Y026332D01*
X017430D01*
X017360Y026318D01*
X017302Y026278D01*
X017262Y026219D01*
X017248Y026150D01*
X017262Y026081D01*
X017302Y026022D01*
X017360Y025982D01*
X017430Y025968D01*
X018060D01*
X018129Y025982D01*
X018188Y026022D01*
X018209Y026009D01*
X018209Y026009D01*
X018278Y025962D01*
X018360Y025946D01*
X018442Y025962D01*
X018511Y026009D01*
X018558Y026078D01*
X018574Y026160D01*
X018558Y026242D01*
X018511Y026311D01*
X018442Y026358D01*
X018360Y026374D01*
D02*
G37*
G36*
X026000Y027044D02*
Y026890D01*
X026154D01*
X026148Y026922D01*
X026101Y026991D01*
X026032Y027038D01*
X026000Y027044D01*
D02*
G37*
G36*
X026084Y027350D02*
X025097D01*
Y027173D01*
X025458D01*
X025463Y027147D01*
X025493Y027102D01*
X025739Y026856D01*
X025746Y026890D01*
X025900D01*
Y027044D01*
X025950Y027054D01*
X025932Y027146D01*
X025943Y027173D01*
X026084D01*
Y027350D01*
D02*
G37*
G36*
X018630Y026874D02*
X018548Y026858D01*
X018479Y026811D01*
X018452Y026772D01*
X018192D01*
X018188Y026778D01*
X018129Y026818D01*
X018060Y026832D01*
X017430D01*
X017360Y026818D01*
X017302Y026778D01*
X017262Y026720D01*
X017248Y026650D01*
X017262Y026581D01*
X017302Y026522D01*
X017360Y026482D01*
X017430Y026468D01*
X018060D01*
X018129Y026482D01*
X018188Y026522D01*
X018206Y026548D01*
X018452D01*
X018479Y026509D01*
X018548Y026462D01*
X018630Y026446D01*
X018712Y026462D01*
X018781Y026509D01*
X018828Y026578D01*
X018844Y026660D01*
X018828Y026742D01*
X018781Y026811D01*
X018712Y026858D01*
X018630Y026874D01*
D02*
G37*
G36*
X028400Y027058D02*
X028282Y027042D01*
X028171Y026996D01*
X028076Y026924D01*
X028004Y026829D01*
X027958Y026718D01*
X027942Y026600D01*
X027958Y026482D01*
X028004Y026371D01*
X028076Y026276D01*
X028171Y026204D01*
X028282Y026158D01*
X028342Y026150D01*
Y026050D01*
X028282Y026042D01*
X028171Y025996D01*
X028076Y025924D01*
X028004Y025829D01*
X027958Y025718D01*
X027949Y025650D01*
X028851D01*
X028842Y025718D01*
X028796Y025829D01*
X028724Y025924D01*
X028629Y025996D01*
X028518Y026042D01*
X028458Y026050D01*
Y026150D01*
X028518Y026158D01*
X028629Y026204D01*
X028724Y026276D01*
X028796Y026371D01*
X028842Y026482D01*
X028858Y026600D01*
X028842Y026718D01*
X028796Y026829D01*
X028724Y026924D01*
X028629Y026996D01*
X028518Y027042D01*
X028400Y027058D01*
D02*
G37*
G36*
X018750Y023804D02*
Y023650D01*
X018904D01*
X018898Y023682D01*
X018851Y023751D01*
X018782Y023798D01*
X018750Y023804D01*
D02*
G37*
G36*
X018650D02*
X018618Y023798D01*
X018549Y023751D01*
X018502Y023682D01*
X018496Y023650D01*
X018650D01*
Y023804D01*
D02*
G37*
G36*
X018489Y023584D02*
X018393Y023488D01*
X018174D01*
X018129Y023518D01*
X018060Y023532D01*
X017795D01*
Y023350D01*
Y023168D01*
X018060D01*
X018129Y023182D01*
X018174Y023212D01*
X018450D01*
X018503Y023223D01*
X018547Y023253D01*
X018684Y023389D01*
X018650Y023396D01*
Y023550D01*
X018496D01*
X018489Y023584D01*
D02*
G37*
G36*
X015300Y025864D02*
X015218Y025848D01*
X015149Y025801D01*
X015102Y025732D01*
X015086Y025650D01*
X015102Y025568D01*
X015149Y025499D01*
X015218Y025452D01*
X015300Y025436D01*
X015382Y025452D01*
X015449Y025497D01*
X015471Y025482D01*
X015540Y025468D01*
X016170D01*
X016240Y025482D01*
X016298Y025522D01*
X016338Y025580D01*
X016352Y025650D01*
X016338Y025719D01*
X016298Y025778D01*
X016240Y025818D01*
X016170Y025832D01*
X015540D01*
X015471Y025818D01*
X015449Y025803D01*
X015382Y025848D01*
X015300Y025864D01*
D02*
G37*
G36*
X025890Y026355D02*
X025258D01*
Y025645D01*
X025303D01*
X025366Y025567D01*
X025360Y025536D01*
X025376Y025454D01*
X025423Y025385D01*
X025492Y025338D01*
X025574Y025322D01*
X025656Y025338D01*
X025725Y025385D01*
X025772Y025454D01*
X025788Y025536D01*
X025772Y025618D01*
X025786Y025645D01*
X025890D01*
Y026355D01*
D02*
G37*
G36*
X025142D02*
X024510D01*
Y025645D01*
X024594D01*
X024658Y025567D01*
X024651Y025535D01*
X024668Y025453D01*
X024714Y025384D01*
X024783Y025338D01*
X024865Y025321D01*
X024947Y025338D01*
X025017Y025384D01*
X025063Y025453D01*
X025079Y025535D01*
X025063Y025617D01*
X025078Y025645D01*
X025142D01*
Y026355D01*
D02*
G37*
G36*
X016990Y027854D02*
X016908Y027838D01*
X016839Y027791D01*
X016792Y027722D01*
X016776Y027640D01*
X016792Y027558D01*
X016839Y027489D01*
X016908Y027442D01*
X016990Y027426D01*
X017072Y027442D01*
X017141Y027489D01*
X017174Y027538D01*
X017291D01*
X017302Y027522D01*
X017360Y027482D01*
X017430Y027468D01*
X018060D01*
X018129Y027482D01*
X018188Y027522D01*
X018228Y027580D01*
X018241Y027650D01*
X018228Y027720D01*
X018188Y027778D01*
X018129Y027818D01*
X018060Y027832D01*
X017430D01*
X017360Y027818D01*
X017302Y027778D01*
X017291Y027762D01*
X017161D01*
X017141Y027791D01*
X017072Y027838D01*
X016990Y027854D01*
D02*
G37*
G36*
X016342Y027600D02*
X015905D01*
Y027468D01*
X016170D01*
X016240Y027482D01*
X016298Y027522D01*
X016338Y027580D01*
X016342Y027600D01*
D02*
G37*
G36*
X015805D02*
X015368D01*
X015372Y027580D01*
X015412Y027522D01*
X015471Y027482D01*
X015540Y027468D01*
X015805D01*
Y027600D01*
D02*
G37*
G36*
X016170Y027832D02*
X015905D01*
Y027700D01*
X016342D01*
X016338Y027720D01*
X016298Y027778D01*
X016240Y027818D01*
X016170Y027832D01*
D02*
G37*
G36*
X015805D02*
X015540D01*
X015471Y027818D01*
X015412Y027778D01*
X015372Y027720D01*
X015368Y027700D01*
X015805D01*
Y027832D01*
D02*
G37*
G36*
X011850Y027850D02*
X011518D01*
X011525Y027800D01*
X011564Y027706D01*
X011626Y027626D01*
X011706Y027564D01*
X011800Y027525D01*
X011850Y027518D01*
Y027850D01*
D02*
G37*
G36*
X026084Y027627D02*
X025641D01*
Y027450D01*
X026084D01*
Y027627D01*
D02*
G37*
G36*
X017695Y027332D02*
X017430D01*
X017360Y027318D01*
X017302Y027278D01*
X017262Y027220D01*
X017258Y027200D01*
X017695D01*
Y027332D01*
D02*
G37*
G36*
X018232Y027100D02*
X017795D01*
Y026968D01*
X018060D01*
X018129Y026982D01*
X018188Y027022D01*
X018228Y027081D01*
X018232Y027100D01*
D02*
G37*
G36*
X017695D02*
X017258D01*
X017262Y027081D01*
X017302Y027022D01*
X017360Y026982D01*
X017430Y026968D01*
X017695D01*
Y027100D01*
D02*
G37*
G36*
X025541Y027627D02*
X025097D01*
Y027450D01*
X025541D01*
Y027627D01*
D02*
G37*
G36*
X018060Y027332D02*
X017795D01*
Y027200D01*
X018232D01*
X018228Y027220D01*
X018188Y027278D01*
X018129Y027318D01*
X018060Y027332D01*
D02*
G37*
%LPD*%
G36*
X019681Y017860D02*
X019652Y017765D01*
X019618Y017758D01*
X019549Y017711D01*
X019502Y017642D01*
X019486Y017560D01*
X019502Y017478D01*
X019524Y017445D01*
X019471Y017401D01*
Y017401D01*
X019447Y017382D01*
X019039Y017789D01*
X019003Y017814D01*
X018960Y017822D01*
X018960Y017822D01*
X018950D01*
X018903Y017910D01*
X018928Y017948D01*
X018934Y017980D01*
X018730D01*
Y018080D01*
X018934D01*
X018928Y018112D01*
X018963Y018178D01*
X019364D01*
X019681Y017860D01*
D02*
G37*
D10*
X024826Y026000D02*
D03*
X025574D02*
D03*
Y030800D02*
D03*
X024826D02*
D03*
D11*
X025591Y027400D02*
D03*
X024409D02*
D03*
X025591Y029400D02*
D03*
X024409D02*
D03*
D12*
X023345Y015100D02*
D03*
Y015600D02*
D03*
Y016100D02*
D03*
Y016600D02*
D03*
Y017100D02*
D03*
Y017600D02*
D03*
Y018100D02*
D03*
X021455Y015100D02*
D03*
Y015600D02*
D03*
Y016100D02*
D03*
Y016600D02*
D03*
Y017100D02*
D03*
Y017600D02*
D03*
Y018100D02*
D03*
X017745Y014450D02*
D03*
Y014950D02*
D03*
Y015450D02*
D03*
Y015950D02*
D03*
Y016450D02*
D03*
Y016950D02*
D03*
Y017450D02*
D03*
Y017950D02*
D03*
X015855Y014450D02*
D03*
Y014950D02*
D03*
Y015450D02*
D03*
Y015950D02*
D03*
Y016450D02*
D03*
Y016950D02*
D03*
Y017450D02*
D03*
Y017950D02*
D03*
X017745Y019850D02*
D03*
Y020350D02*
D03*
Y020850D02*
D03*
Y021350D02*
D03*
Y021850D02*
D03*
Y022350D02*
D03*
Y022850D02*
D03*
Y023350D02*
D03*
X015855Y019850D02*
D03*
Y020350D02*
D03*
Y020850D02*
D03*
Y021350D02*
D03*
Y021850D02*
D03*
Y022350D02*
D03*
Y022850D02*
D03*
Y023350D02*
D03*
X023345Y019850D02*
D03*
Y020350D02*
D03*
Y020850D02*
D03*
Y021350D02*
D03*
Y021850D02*
D03*
Y022350D02*
D03*
Y022850D02*
D03*
Y023350D02*
D03*
X021455Y019850D02*
D03*
Y020350D02*
D03*
Y020850D02*
D03*
Y021350D02*
D03*
Y021850D02*
D03*
Y022350D02*
D03*
Y022850D02*
D03*
Y023350D02*
D03*
X017745Y025650D02*
D03*
Y026150D02*
D03*
Y026650D02*
D03*
Y027150D02*
D03*
Y027650D02*
D03*
Y028150D02*
D03*
Y028650D02*
D03*
Y029150D02*
D03*
X015855Y025650D02*
D03*
Y026150D02*
D03*
Y026650D02*
D03*
Y027150D02*
D03*
Y027650D02*
D03*
Y028150D02*
D03*
Y028650D02*
D03*
Y029150D02*
D03*
X023345Y025700D02*
D03*
Y026200D02*
D03*
Y026700D02*
D03*
Y027200D02*
D03*
Y027700D02*
D03*
Y028200D02*
D03*
Y028700D02*
D03*
X021455Y025700D02*
D03*
Y026200D02*
D03*
Y026700D02*
D03*
Y027200D02*
D03*
Y027700D02*
D03*
Y028200D02*
D03*
Y028700D02*
D03*
D13*
X022040Y019190D02*
X025830D01*
X025880Y019140D01*
X025620Y016020D02*
X025940Y016340D01*
Y018170D01*
X025290Y018820D02*
X025940Y018170D01*
X020770Y018820D02*
X025290D01*
X023980Y017600D02*
X024280Y017300D01*
X023345Y017600D02*
X023980D01*
Y016660D02*
X024070D01*
X023920Y016600D02*
X023980Y016660D01*
X023345Y016600D02*
X023920D01*
X024560Y015060D02*
X025060D01*
X024280Y015340D02*
X024560Y015060D01*
X022840Y015340D02*
X024280D01*
X022080Y025250D02*
X022530Y025700D01*
X016520Y026150D02*
X017420Y025250D01*
X022080D01*
X024826Y030015D02*
Y030800D01*
Y025575D02*
Y026000D01*
Y025575D02*
X024865Y025535D01*
X022910Y031510D02*
X024800Y033400D01*
X021840Y031510D02*
X022910D01*
X020700Y030370D02*
X021840Y031510D01*
X012370Y030370D02*
X020700D01*
X011900Y029900D02*
X012370Y030370D01*
X022740Y028200D02*
X023345D01*
X021760Y029180D02*
X022740Y028200D01*
X020200Y029180D02*
X021760D01*
X022100Y027200D02*
X023345D01*
X021850Y027450D02*
X022100Y027200D01*
X020450Y027450D02*
X021850D01*
X020390Y027510D02*
X020450Y027450D01*
X022810Y026200D02*
X023345D01*
X022630Y026020D02*
X022810Y026200D01*
X022190Y030470D02*
X022630Y030030D01*
X021455Y026700D02*
X022330D01*
X021455Y027700D02*
X022030D01*
X022040Y027690D01*
X020800Y028700D02*
X021455D01*
X020770Y028730D02*
X020800Y028700D01*
X022600Y017850D02*
X025610D01*
X022350Y018100D02*
X022600Y017850D01*
X021455Y018100D02*
X022350D01*
X022200Y017100D02*
X022950Y016350D01*
X024650D02*
X025330Y015670D01*
X022950Y016350D02*
X024650D01*
X021455Y017100D02*
X022200D01*
X022080Y016100D02*
X022840Y015340D01*
X021455Y016100D02*
X022080D01*
X023345Y015600D02*
X024780D01*
X020250Y021350D02*
X021455D01*
X020200Y021300D02*
X020250Y021350D01*
X019440Y022350D02*
X021455D01*
X022790Y027700D02*
X023345D01*
X022050Y028440D02*
X022790Y027700D01*
X019470Y028440D02*
X022050D01*
X019260Y028650D02*
X019470Y028440D01*
X017745Y028650D02*
X019260D01*
X019740Y026200D02*
X021455D01*
X016790Y028900D02*
X019740D01*
X016540Y029150D02*
X016790Y028900D01*
X015855Y029150D02*
X016540D01*
X022530Y025700D02*
X023345D01*
X015855Y026150D02*
X016520D01*
X022880Y026700D02*
X023345D01*
X022120Y025940D02*
X022880Y026700D01*
X020310Y025940D02*
X022120D01*
X020020Y025650D02*
X020310Y025940D01*
X017745Y025650D02*
X020020D01*
X017755Y026660D02*
X018630D01*
X018050Y024980D02*
X018630D01*
X017930Y024860D02*
X018050Y024980D01*
X013670Y024670D02*
X018360D01*
X017755Y026160D02*
X018360D01*
X017390Y026650D02*
X017745D01*
X013600Y024860D02*
X017930D01*
X019420Y027200D02*
X021455D01*
X017745Y022850D02*
X019420D01*
X022790Y016100D02*
X023345D01*
X022770Y016080D02*
X022790Y016100D01*
X016510Y014160D02*
X022770D01*
X015855Y023350D02*
X016510D01*
X019170Y028200D02*
X021455D01*
X019150Y028180D02*
X019170Y028200D01*
X017745Y019850D02*
X019150D01*
X022630Y017100D02*
X023345D01*
X022380Y017350D02*
X022630Y017100D01*
X019910Y017350D02*
X022380D01*
X019700Y017560D02*
X019910Y017350D01*
X016750Y020600D02*
X019700D01*
X016500Y020350D02*
X016750Y020600D01*
X015855Y020350D02*
X016500D01*
X020100Y017600D02*
X021455D01*
X019410Y018290D02*
X020100Y017600D01*
X016195Y018290D02*
X019410D01*
X015855Y017950D02*
X016195Y018290D01*
X020070Y016600D02*
X021455D01*
X018960Y017710D02*
X020070Y016600D01*
X016910Y017710D02*
X018960D01*
X016760Y014950D02*
X016910Y015100D01*
X015855Y014950D02*
X016760D01*
X015010Y015190D02*
X016540D01*
X016800Y015450D01*
X017745D01*
X022810Y015100D02*
X023345D01*
X022060Y015850D02*
X022810Y015100D01*
X020350Y015850D02*
X022060D01*
X018750Y017450D02*
X020350Y015850D01*
X017745Y017450D02*
X018750D01*
X020470Y015600D02*
X021455D01*
X019320Y014450D02*
X020470Y015600D01*
X017745Y014450D02*
X019320D01*
X015450Y028150D02*
X015855D01*
X013710Y026410D02*
X015450Y028150D01*
X012410Y026410D02*
X013710D01*
X011900Y025900D02*
X012410Y026410D01*
X013800Y028650D02*
X015855D01*
X013780Y028630D02*
X013800Y028650D01*
X012900Y025900D02*
X013780D01*
X015460Y027150D02*
X015855D01*
X013770Y025460D02*
X015460Y027150D01*
X012460Y025460D02*
X013770D01*
X011900Y024900D02*
X012460Y025460D01*
X015360Y026650D02*
X015855D01*
X013870Y025160D02*
X015360Y026650D01*
X013160Y025160D02*
X013870D01*
X012900Y024900D02*
X013160Y025160D01*
X013130Y024390D02*
X013600Y024860D01*
X012390Y024390D02*
X013130D01*
X011900Y023900D02*
X012390Y024390D01*
X012900Y023900D02*
X013670Y024670D01*
X016720Y028150D02*
X017745D01*
X013820Y023280D02*
X014480D01*
X013440Y022900D02*
X013820Y023280D01*
X012900Y022900D02*
X013440D01*
X017000Y027650D02*
X017745D01*
X016990Y027640D02*
X017000Y027650D01*
X013840Y022910D02*
X014790D01*
X013310Y022380D02*
X013840Y022910D01*
X012420Y022380D02*
X013310D01*
X011900Y022900D02*
X012420Y022380D01*
X020400Y023350D02*
X021455D01*
X019350Y024400D02*
X020400Y023350D01*
X013980Y024400D02*
X019350D01*
X020290Y022850D02*
X021455D01*
X019100Y024040D02*
X020290Y022850D01*
X013710Y024040D02*
X019100D01*
X020560Y020850D02*
X021455D01*
X019100Y019390D02*
X020560Y020850D01*
X013780Y019390D02*
X019100D01*
X020610Y020350D02*
X021455D01*
X019340Y019080D02*
X020610Y020350D01*
X013520Y019080D02*
X019340D01*
X012900Y019900D02*
X013220D01*
X014180Y020860D01*
X017070Y021850D02*
X017745D01*
X016820Y021600D02*
X017070Y021850D01*
X014470Y021600D02*
X016820D01*
X013300Y020430D02*
X014470Y021600D01*
X012430Y020430D02*
X013300D01*
X011900Y019900D02*
X012430Y020430D01*
X017210Y022350D02*
X017745D01*
X016970Y022590D02*
X017210Y022350D01*
X014360Y022590D02*
X016970D01*
X014270Y022500D02*
X014360Y022590D01*
X016600Y020850D02*
X017745D01*
X016350Y020600D02*
X016600Y020850D01*
X014300Y020600D02*
X016350D01*
X013100Y019400D02*
X014300Y020600D01*
X012400Y019400D02*
X013100D01*
X011900Y018900D02*
X012400Y019400D01*
X016870Y020350D02*
X017745D01*
X016620Y020100D02*
X016870Y020350D01*
X014100Y020100D02*
X016620D01*
X012900Y018900D02*
X014100Y020100D01*
X014750Y021330D02*
X015835D01*
X012390Y018390D02*
X014450D01*
X011900Y017900D02*
X012390Y018390D01*
X014740Y020850D02*
X015855D01*
X014730Y020860D02*
X014740Y020850D01*
X012900Y017900D02*
X014575D01*
X015825Y022320D02*
X015855Y022350D01*
X015010Y022320D02*
X015825D01*
X012390Y017390D02*
X014432D01*
X011900Y016900D02*
X012390Y017390D01*
X015280Y022850D02*
X015855D01*
X015270Y022860D02*
X015280Y022850D01*
X012920Y016920D02*
X014621D01*
X012900Y016900D02*
X012920Y016920D01*
X017180Y016450D02*
X017745D01*
X016920Y016190D02*
X017180Y016450D01*
X014050Y016190D02*
X016920D01*
X013840Y016400D02*
X014050Y016190D01*
X017090Y016950D02*
X017745D01*
X016850Y016710D02*
X017090Y016950D01*
X015250Y016710D02*
X016850D01*
X015200Y016660D02*
X015250Y016710D01*
X013660Y016660D02*
X015200D01*
X012900Y015900D02*
X013660Y016660D01*
X013520Y015950D02*
X015855D01*
X014960Y015140D02*
X015010Y015190D01*
X013500Y015140D02*
X014960D01*
X013260Y015380D02*
X013500Y015140D01*
X012380Y015380D02*
X013260D01*
X011900Y014900D02*
X012380Y015380D01*
X017260Y014950D02*
X017745D01*
X017010Y014700D02*
X017260Y014950D01*
X015150Y014700D02*
X017010D01*
X014950Y014900D02*
X015150Y014700D01*
X012900Y014900D02*
X014950D01*
X013850Y015450D02*
X015855D01*
X015845Y016940D02*
X015855Y016950D01*
X014980Y016940D02*
X015845D01*
X015250Y017450D02*
X015855D01*
X015240Y017440D02*
X015250Y017450D01*
D14*
X020850Y015100D02*
X021455D01*
X023350Y029400D02*
X024409D01*
Y029059D02*
Y029400D01*
X020500Y025600D02*
X020600Y025700D01*
X021455D01*
X015300Y025650D02*
X015855D01*
Y014195D02*
Y014450D01*
Y019850D02*
X016850D01*
X021455Y019555D02*
Y019850D01*
X018640Y017950D02*
X018730Y018040D01*
Y018030D02*
Y018040D01*
X017745Y017950D02*
X018640D01*
X018450Y023350D02*
X018700Y023600D01*
X017745Y023350D02*
X018450D01*
X018480Y029150D02*
X018710Y029380D01*
X017745Y029150D02*
X018480D01*
X024409Y027039D02*
Y027769D01*
X023960Y018100D02*
X024340Y018480D01*
X023345Y018100D02*
X023960D01*
X023790Y023350D02*
X023910Y023230D01*
X023345Y023350D02*
X023790D01*
X023345Y028700D02*
X023890D01*
X023935Y028655D01*
X025574Y025536D02*
Y026000D01*
X025591Y027199D02*
X025950Y026840D01*
X025591Y027199D02*
Y027400D01*
X025574Y030800D02*
X026130D01*
X026180Y029400D02*
X027380Y030600D01*
X013650Y029730D02*
X025460D01*
X025591Y029599D01*
Y029400D02*
Y029599D01*
X027380Y030600D02*
X028400D01*
X025591Y029400D02*
X026180D01*
X013320D02*
X013650Y029730D01*
X012590Y029400D02*
X013320D01*
X012420Y029230D02*
X012590Y029400D01*
X012420Y027420D02*
Y029230D01*
X011900Y026900D02*
X012420Y027420D01*
D15*
X016000Y033000D02*
D03*
Y012000D02*
D03*
X028000D02*
D03*
Y033000D02*
D03*
D16*
X028400Y019600D02*
D03*
Y018600D02*
D03*
Y017600D02*
D03*
Y016600D02*
D03*
Y015600D02*
D03*
Y014600D02*
D03*
X018200Y033400D02*
D03*
X019200D02*
D03*
X020200D02*
D03*
X021200D02*
D03*
X022200D02*
D03*
X023200D02*
D03*
X024200Y011600D02*
D03*
X023200D02*
D03*
X022200D02*
D03*
X021200D02*
D03*
X020200D02*
D03*
X019200D02*
D03*
X028400Y021600D02*
D03*
Y022600D02*
D03*
Y023600D02*
D03*
Y024600D02*
D03*
Y025600D02*
D03*
Y026600D02*
D03*
Y030600D02*
D03*
Y029600D02*
D03*
Y028600D02*
D03*
X024800Y033400D02*
D03*
X025800D02*
D03*
D17*
X011900Y031900D02*
D03*
X012900D02*
D03*
X011900Y030900D02*
D03*
X012900D02*
D03*
X011900Y029900D02*
D03*
X012900D02*
D03*
X011900Y028900D02*
D03*
X012900D02*
D03*
X011900Y027900D02*
D03*
X012900D02*
D03*
X011900Y026900D02*
D03*
X012900D02*
D03*
X011900Y025900D02*
D03*
X012900D02*
D03*
X011900Y024900D02*
D03*
X012900D02*
D03*
X011900Y023900D02*
D03*
X012900D02*
D03*
X011900Y022900D02*
D03*
X012900D02*
D03*
X011900Y021900D02*
D03*
X012900D02*
D03*
X011900Y020900D02*
D03*
X012900D02*
D03*
X011900Y019900D02*
D03*
X012900D02*
D03*
X011900Y018900D02*
D03*
X012900D02*
D03*
X011900Y017900D02*
D03*
X012900D02*
D03*
X011900Y016900D02*
D03*
X012900D02*
D03*
X011900Y015900D02*
D03*
X012900D02*
D03*
X011900Y014900D02*
D03*
X012900D02*
D03*
X011900Y013900D02*
D03*
X012900D02*
D03*
X011900Y012900D02*
D03*
D18*
X012900D02*
D03*
D19*
X025880Y019140D02*
D03*
X025620Y016020D02*
D03*
X020770Y018820D02*
D03*
X024280Y017300D02*
D03*
X024070Y016660D02*
D03*
X025060Y015060D02*
D03*
X020850Y015100D02*
D03*
X023350Y029400D02*
D03*
X024409Y029059D02*
D03*
X020500Y025600D02*
D03*
X015300Y025650D02*
D03*
X015855Y014195D02*
D03*
X016850Y019850D02*
D03*
X021455Y019555D02*
D03*
X018730Y018030D02*
D03*
X018700Y023600D02*
D03*
X018710Y029380D02*
D03*
X024409Y027039D02*
D03*
Y027769D02*
D03*
X024340Y018480D02*
D03*
X023910Y023230D02*
D03*
X023935Y028655D02*
D03*
X024826Y030015D02*
D03*
X024865Y025535D02*
D03*
X025574Y025536D02*
D03*
X025950Y026840D02*
D03*
X026130Y030800D02*
D03*
X026200Y029420D02*
D03*
X020200Y029180D02*
D03*
X020390Y027510D02*
D03*
X022630Y026020D02*
D03*
Y030030D02*
D03*
X022190Y030470D02*
D03*
X022330Y026700D02*
D03*
X022040Y027690D02*
D03*
Y019190D02*
D03*
X020770Y028730D02*
D03*
X025610Y017850D02*
D03*
X025330Y015670D02*
D03*
X024780Y015600D02*
D03*
X020200Y021300D02*
D03*
X019440Y022350D02*
D03*
X019740Y026200D02*
D03*
Y028900D02*
D03*
X018630Y026660D02*
D03*
Y024980D02*
D03*
X018360Y026160D02*
D03*
Y024670D02*
D03*
X019420Y027200D02*
D03*
Y022850D02*
D03*
X022770Y016080D02*
D03*
Y014160D02*
D03*
X016510D02*
D03*
Y023350D02*
D03*
X019150Y028180D02*
D03*
Y019850D02*
D03*
X019700Y017560D02*
D03*
Y020600D02*
D03*
X016910Y017710D02*
D03*
Y015100D02*
D03*
X013780Y028630D02*
D03*
Y025900D02*
D03*
X016720Y028150D02*
D03*
X014480Y023280D02*
D03*
X016990Y027640D02*
D03*
X014790Y022910D02*
D03*
X013980Y024400D02*
D03*
X013710Y024040D02*
D03*
X013780Y019390D02*
D03*
X013520Y019080D02*
D03*
X014180Y020860D02*
D03*
X014270Y022500D02*
D03*
X014750Y021330D02*
D03*
X014450Y018390D02*
D03*
X014730Y020860D02*
D03*
X014575Y017900D02*
D03*
X015010Y022320D02*
D03*
X014432Y017390D02*
D03*
X015270Y022860D02*
D03*
X014621Y016920D02*
D03*
X013840Y016400D02*
D03*
X013520Y015950D02*
D03*
X013850Y015450D02*
D03*
X014980Y016940D02*
D03*
X015240Y017440D02*
D03*
M02*
