M48
;Layer_Color=9474304
;FILE_FORMAT=2:4
INCH
;TYPE=PLATED
T1F00S00C0.0150
T2F00S00C0.0276
;TYPE=NON_PLATED
T3F00S00C0.0925
%
T01
X010640Y012610
X011440Y013190
X012190Y014070
X015000Y013780
Y014500
X015610Y013130
X016690Y013050
X016710Y012630
X017600Y013200
Y013800
Y014400
X016720Y017910
X016200
X016500Y018500
X017000
Y019000
X017500
X018000
X018070Y018390
X019570Y017910
X019310Y019810
X016200Y019200
X015800Y018800
X015680Y020210
X025500Y019500
X025220Y017520
X026000Y016500
X026500
Y016000
X027000
Y016500
X026000Y016000
X029500Y016500
Y017000
Y017500
Y019500
X015400Y018400
X014000Y019500
Y020000
X013000
Y019500
Y019000
X012000
Y019500
Y020000
X011000
Y019500
Y019000
Y018500
Y018000
X012000Y018500
X012190Y016170
X014230Y015970
X014800Y016000
T02
X021407Y017320
X022194
X022982
X023769
X024557
X024950Y018100
X024163Y018108
X023376
X022588
X021801
X021013
Y019092
X021801
X022588
X023376
X024163
X024950
X024557Y019880
X023769
X022982
X022194
X021407
X026131
X026919
X027706
X028494
X028100Y019092
X027313
X026525
Y018108
X027313
X028100
X028494Y017320
X027706
X026919
X026131
T03
X025600Y018600
X029202
M30
