M48
;Layer_Color=9474304
;FILE_FORMAT=2:4
INCH
;TYPE=PLATED
T1F00S00C0.0150
T2F00S00C0.0394
T3F00S00C0.0500
T4F00S00C0.0591
%
T01
X010600Y015200
X012400Y015588
X012200Y014600
X013600Y015600
X014400Y015200
X014800Y015600
X014200Y013200
X019800Y014800
X021800Y015200
X023600Y014600
X025000Y015600
X025600Y012200
X026800Y012800
X027300Y012900
X027200Y011000
X027900Y010700
X030150Y010450
X030700Y010700
X031000Y011200
X030200Y012400
X029150Y012350
X031000Y013400
X030700Y013900
X029400Y015000
X031400Y010600
X034000Y012200
X032900Y021600
X030800Y020600
X030000Y020800
X029600Y022000
X030600Y022400
X028800Y019800
X024200
X021450Y020450
X020600Y019800
X016600Y020000
X015991Y019609
X015800Y016800
X016600Y017200
X013000
X012800Y016800
X012009Y019609
X012025Y020175
X012063Y021137
X012800Y020400
X011200
X010600Y021600
X013800Y022600
X015600Y022200
X014400Y021000
X014800Y020400
T02
X032300Y012900
X033300
Y013900
X032300
Y014900
X033300
Y015900
X032300
Y016900
X033300
Y017900
X032300
Y018900
X033300
Y019900
X032300
T03
X017400Y011400
Y015400
X025400Y014400
Y016400
X017400Y019400
T04
X018000Y022000
X019969
X021937
X023906
X025874
X027843
M30
