%FSAX24Y24*%
%MOIN*%
G70*
G01*
G75*
G04 Layer_Physical_Order=1*
G04 Layer_Color=255*
%ADD10R,0.0433X0.0394*%
%ADD11R,0.0787X0.0630*%
%ADD12R,0.0787X0.0787*%
%ADD13C,0.0200*%
%ADD14C,0.0080*%
%ADD15C,0.0100*%
%ADD16O,0.1181X0.0866*%
%ADD17C,0.0650*%
%ADD18R,0.0650X0.0650*%
%ADD19C,0.1000*%
%ADD20C,0.0250*%
G36*
X031600Y020500D02*
X029900Y018800D01*
X019500D01*
X018000Y017300D01*
Y015515D01*
X017950Y015512D01*
X017946Y015546D01*
X017889Y015682D01*
X017799Y015799D01*
X017682Y015889D01*
X017546Y015946D01*
X017400Y015965D01*
X017254Y015946D01*
X017118Y015889D01*
X017001Y015799D01*
X016911Y015682D01*
X016854Y015546D01*
X016835Y015400D01*
X016854Y015254D01*
X016911Y015118D01*
X017001Y015001D01*
X017118Y014911D01*
X017254Y014854D01*
X017400Y014835D01*
X017546Y014854D01*
X017682Y014911D01*
X017799Y015001D01*
X017889Y015118D01*
X017946Y015254D01*
X017950Y015288D01*
X018000Y015285D01*
Y011515D01*
X017950Y011512D01*
X017946Y011546D01*
X017889Y011682D01*
X017799Y011799D01*
X017682Y011889D01*
X017546Y011946D01*
X017400Y011965D01*
X017254Y011946D01*
X017118Y011889D01*
X017001Y011799D01*
X016911Y011682D01*
X016854Y011546D01*
X016835Y011400D01*
X016854Y011254D01*
X016911Y011118D01*
X017001Y011001D01*
X017118Y010911D01*
X017254Y010854D01*
X017400Y010835D01*
X017546Y010854D01*
X017682Y010911D01*
X017799Y011001D01*
X017889Y011118D01*
X017946Y011254D01*
X017950Y011288D01*
X018000Y011285D01*
Y010200D01*
X010200D01*
Y022800D01*
X013680D01*
X013695Y022752D01*
X013667Y022733D01*
X013626Y022672D01*
X013611Y022600D01*
X013626Y022528D01*
X013667Y022467D01*
X013728Y022426D01*
X013800Y022411D01*
X013872Y022426D01*
X013933Y022467D01*
X013954Y022498D01*
X017628D01*
X017638Y022449D01*
X017594Y022431D01*
X017491Y022352D01*
X017412Y022249D01*
X017362Y022129D01*
X017345Y022000D01*
X017362Y021871D01*
X017412Y021751D01*
X017491Y021648D01*
X017594Y021569D01*
X017714Y021520D01*
X017843Y021503D01*
X018157D01*
X018286Y021520D01*
X018406Y021569D01*
X018509Y021648D01*
X018588Y021751D01*
X018638Y021871D01*
X018655Y022000D01*
X018638Y022129D01*
X018588Y022249D01*
X018509Y022352D01*
X018406Y022431D01*
X018362Y022449D01*
X018372Y022498D01*
X019597D01*
X019607Y022449D01*
X019562Y022431D01*
X019459Y022352D01*
X019380Y022249D01*
X019331Y022129D01*
X019314Y022000D01*
X019331Y021871D01*
X019380Y021751D01*
X019459Y021648D01*
X019562Y021569D01*
X019682Y021520D01*
X019811Y021503D01*
X020126D01*
X020255Y021520D01*
X020375Y021569D01*
X020478Y021648D01*
X020557Y021751D01*
X020606Y021871D01*
X020623Y022000D01*
X020606Y022129D01*
X020557Y022249D01*
X020478Y022352D01*
X020375Y022431D01*
X020330Y022449D01*
X020340Y022498D01*
X021565D01*
X021575Y022449D01*
X021531Y022431D01*
X021428Y022352D01*
X021349Y022249D01*
X021299Y022129D01*
X021282Y022000D01*
X021299Y021871D01*
X021349Y021751D01*
X021428Y021648D01*
X021531Y021569D01*
X021651Y021520D01*
X021780Y021503D01*
X022094D01*
X022223Y021520D01*
X022343Y021569D01*
X022446Y021648D01*
X022525Y021751D01*
X022575Y021871D01*
X022592Y022000D01*
X022575Y022129D01*
X022525Y022249D01*
X022446Y022352D01*
X022343Y022431D01*
X022299Y022449D01*
X022309Y022498D01*
X023534D01*
X023544Y022449D01*
X023499Y022431D01*
X023396Y022352D01*
X023317Y022249D01*
X023268Y022129D01*
X023251Y022000D01*
X023268Y021871D01*
X023317Y021751D01*
X023396Y021648D01*
X023499Y021569D01*
X023619Y021520D01*
X023748Y021503D01*
X024063D01*
X024159Y021515D01*
X024590Y021085D01*
D01*
X024590Y021085D01*
X024590Y021085D01*
D01*
D01*
D01*
X024590Y021085D01*
Y021085D01*
X024643Y021049D01*
X024706Y021037D01*
X029400D01*
X029462Y021049D01*
X029515Y021085D01*
X030653Y022222D01*
X030672Y022226D01*
X030733Y022267D01*
X030774Y022328D01*
X030789Y022400D01*
X030774Y022472D01*
X030733Y022533D01*
X030672Y022574D01*
X030600Y022589D01*
X030528Y022574D01*
X030467Y022533D01*
X030426Y022472D01*
X030422Y022453D01*
X029332Y021363D01*
X024773D01*
X024446Y021690D01*
X024494Y021751D01*
X024543Y021871D01*
X024560Y022000D01*
X024543Y022129D01*
X024494Y022249D01*
X024415Y022352D01*
X024312Y022431D01*
X024267Y022449D01*
X024277Y022498D01*
X024758D01*
X025223Y022032D01*
X025219Y022000D01*
X025236Y021871D01*
X025286Y021751D01*
X025365Y021648D01*
X025468Y021569D01*
X025588Y021520D01*
X025717Y021503D01*
X026031D01*
X026160Y021520D01*
X026280Y021569D01*
X026383Y021648D01*
X026462Y021751D01*
X026512Y021871D01*
X026529Y022000D01*
X026512Y022129D01*
X026462Y022249D01*
X026383Y022352D01*
X026280Y022431D01*
X026160Y022480D01*
X026031Y022497D01*
X025717D01*
X025588Y022480D01*
X025468Y022431D01*
X025365Y022352D01*
X025313Y022284D01*
X025263Y022281D01*
X024872Y022672D01*
X024839Y022694D01*
X024800Y022702D01*
X013954D01*
X013933Y022733D01*
X013905Y022752D01*
X013920Y022800D01*
X031600D01*
Y020500D01*
D02*
G37*
%LPC*%
G36*
X020779Y019750D02*
X020650D01*
Y019621D01*
X020672Y019626D01*
X020733Y019667D01*
X020774Y019728D01*
X020779Y019750D01*
D02*
G37*
G36*
X024150D02*
X024021D01*
X024026Y019728D01*
X024067Y019667D01*
X024128Y019626D01*
X024150Y019621D01*
Y019750D01*
D02*
G37*
G36*
X017450Y019958D02*
Y019450D01*
X017958D01*
X017946Y019546D01*
X017889Y019682D01*
X017799Y019799D01*
X017682Y019889D01*
X017546Y019946D01*
X017450Y019958D01*
D02*
G37*
G36*
X020550Y019750D02*
X020421D01*
X020426Y019728D01*
X020467Y019667D01*
X020528Y019626D01*
X020550Y019621D01*
Y019750D01*
D02*
G37*
G36*
X024379D02*
X024250D01*
Y019621D01*
X024272Y019626D01*
X024333Y019667D01*
X024374Y019728D01*
X024379Y019750D01*
D02*
G37*
G36*
X020550Y019979D02*
X020528Y019974D01*
X020467Y019933D01*
X020426Y019872D01*
X020421Y019850D01*
X020550D01*
Y019979D01*
D02*
G37*
G36*
X020650D02*
Y019850D01*
X020779D01*
X020774Y019872D01*
X020733Y019933D01*
X020672Y019974D01*
X020650Y019979D01*
D02*
G37*
G36*
X015991Y019798D02*
X015918Y019784D01*
X015857Y019743D01*
X015836Y019711D01*
X012164D01*
X012143Y019743D01*
X012082Y019784D01*
X012009Y019798D01*
X011937Y019784D01*
X011876Y019743D01*
X011835Y019682D01*
X011821Y019609D01*
X011835Y019537D01*
X011876Y019476D01*
X011937Y019435D01*
X012009Y019421D01*
X012082Y019435D01*
X012143Y019476D01*
X012164Y019507D01*
X015836D01*
X015857Y019476D01*
X015918Y019435D01*
X015991Y019421D01*
X016063Y019435D01*
X016124Y019476D01*
X016165Y019537D01*
X016179Y019609D01*
X016165Y019682D01*
X016124Y019743D01*
X016063Y019784D01*
X015991Y019798D01*
D02*
G37*
G36*
X028750Y019750D02*
X028621D01*
X028626Y019728D01*
X028667Y019667D01*
X028728Y019626D01*
X028750Y019621D01*
Y019750D01*
D02*
G37*
G36*
X028979D02*
X028850D01*
Y019621D01*
X028872Y019626D01*
X028933Y019667D01*
X028974Y019728D01*
X028979Y019750D01*
D02*
G37*
G36*
X017350Y019958D02*
X017254Y019946D01*
X017118Y019889D01*
X017001Y019799D01*
X016911Y019682D01*
X016854Y019546D01*
X016842Y019450D01*
X017350D01*
Y019958D01*
D02*
G37*
G36*
X012579Y015538D02*
X012450D01*
Y015409D01*
X012472Y015414D01*
X012533Y015454D01*
X012574Y015516D01*
X012579Y015538D01*
D02*
G37*
G36*
X012350Y015767D02*
X012328Y015762D01*
X012267Y015721D01*
X012226Y015660D01*
X012221Y015638D01*
X012350D01*
Y015767D01*
D02*
G37*
G36*
Y015538D02*
X012221D01*
X012226Y015516D01*
X012267Y015454D01*
X012328Y015414D01*
X012350Y015409D01*
Y015538D01*
D02*
G37*
G36*
X012200Y014789D02*
X012128Y014774D01*
X012067Y014733D01*
X012026Y014672D01*
X012011Y014600D01*
X012026Y014528D01*
X012067Y014467D01*
X012128Y014426D01*
X012200Y014411D01*
X012237Y014419D01*
X013528Y013128D01*
D01*
X013528Y013128D01*
X013528Y013128D01*
D01*
D01*
D01*
X013528Y013128D01*
Y013128D01*
X013561Y013106D01*
X013600Y013098D01*
X014046D01*
X014067Y013067D01*
X014128Y013026D01*
X014200Y013011D01*
X014272Y013026D01*
X014333Y013067D01*
X014374Y013128D01*
X014389Y013200D01*
X014374Y013272D01*
X014333Y013333D01*
X014272Y013374D01*
X014200Y013389D01*
X014128Y013374D01*
X014067Y013333D01*
X014046Y013302D01*
X013642D01*
X012381Y014563D01*
X012389Y014600D01*
X012374Y014672D01*
X012333Y014733D01*
X012272Y014774D01*
X012200Y014789D01*
D02*
G37*
G36*
X014400Y015389D02*
X014328Y015374D01*
X014267Y015333D01*
X014246Y015302D01*
X010754D01*
X010733Y015333D01*
X010672Y015374D01*
X010600Y015389D01*
X010528Y015374D01*
X010467Y015333D01*
X010426Y015272D01*
X010411Y015200D01*
X010426Y015128D01*
X010467Y015067D01*
X010528Y015026D01*
X010600Y015011D01*
X010672Y015026D01*
X010733Y015067D01*
X010754Y015098D01*
X014246D01*
X014267Y015067D01*
X014328Y015026D01*
X014400Y015011D01*
X014472Y015026D01*
X014533Y015067D01*
X014574Y015128D01*
X014589Y015200D01*
X014574Y015272D01*
X014533Y015333D01*
X014472Y015374D01*
X014400Y015389D01*
D02*
G37*
G36*
X012450Y015767D02*
Y015638D01*
X012579D01*
X012574Y015660D01*
X012533Y015721D01*
X012472Y015762D01*
X012450Y015767D01*
D02*
G37*
G36*
X017350Y019350D02*
X016842D01*
X016854Y019254D01*
X016911Y019118D01*
X017001Y019001D01*
X017118Y018911D01*
X017254Y018854D01*
X017350Y018842D01*
Y019350D01*
D02*
G37*
G36*
X017958D02*
X017450D01*
Y018842D01*
X017546Y018854D01*
X017682Y018911D01*
X017799Y019001D01*
X017889Y019118D01*
X017946Y019254D01*
X017958Y019350D01*
D02*
G37*
G36*
X016600Y017389D02*
X016528Y017374D01*
X016467Y017333D01*
X016452Y017312D01*
X013148D01*
X013133Y017333D01*
X013072Y017374D01*
X013000Y017389D01*
X012928Y017374D01*
X012867Y017333D01*
X012826Y017272D01*
X012811Y017200D01*
X012826Y017128D01*
X012867Y017067D01*
X012928Y017026D01*
X013000Y017011D01*
X013072Y017026D01*
X013133Y017067D01*
X013148Y017088D01*
X016452D01*
X016467Y017067D01*
X016528Y017026D01*
X016600Y017011D01*
X016672Y017026D01*
X016733Y017067D01*
X016774Y017128D01*
X016789Y017200D01*
X016774Y017272D01*
X016733Y017333D01*
X016672Y017374D01*
X016600Y017389D01*
D02*
G37*
G36*
X014800Y015789D02*
X014728Y015774D01*
X014667Y015733D01*
X014646Y015702D01*
X013754D01*
X013733Y015733D01*
X013672Y015774D01*
X013600Y015789D01*
X013528Y015774D01*
X013467Y015733D01*
X013426Y015672D01*
X013411Y015600D01*
X013426Y015528D01*
X013467Y015467D01*
X013528Y015426D01*
X013600Y015411D01*
X013672Y015426D01*
X013733Y015467D01*
X013754Y015498D01*
X014646D01*
X014667Y015467D01*
X014728Y015426D01*
X014800Y015411D01*
X014872Y015426D01*
X014933Y015467D01*
X014974Y015528D01*
X014989Y015600D01*
X014974Y015672D01*
X014933Y015733D01*
X014872Y015774D01*
X014800Y015789D01*
D02*
G37*
G36*
X015800Y016989D02*
X015728Y016974D01*
X015667Y016933D01*
X015646Y016902D01*
X012954D01*
X012933Y016933D01*
X012872Y016974D01*
X012800Y016989D01*
X012728Y016974D01*
X012667Y016933D01*
X012626Y016872D01*
X012611Y016800D01*
X012626Y016728D01*
X012667Y016667D01*
X012728Y016626D01*
X012800Y016611D01*
X012872Y016626D01*
X012933Y016667D01*
X012954Y016698D01*
X015646D01*
X015667Y016667D01*
X015728Y016626D01*
X015800Y016611D01*
X015872Y016626D01*
X015933Y016667D01*
X015974Y016728D01*
X015989Y016800D01*
X015974Y016872D01*
X015933Y016933D01*
X015872Y016974D01*
X015800Y016989D01*
D02*
G37*
G36*
X011666Y022054D02*
X010759D01*
Y021769D01*
X010715Y021746D01*
X010672Y021774D01*
X010600Y021789D01*
X010528Y021774D01*
X010467Y021733D01*
X010426Y021672D01*
X010411Y021600D01*
X010426Y021528D01*
X010467Y021467D01*
X010528Y021426D01*
X010600Y021411D01*
X010672Y021426D01*
X010715Y021454D01*
X010759Y021431D01*
Y021146D01*
X011666D01*
Y022054D01*
D02*
G37*
G36*
X028000Y022497D02*
X027685D01*
X027556Y022480D01*
X027436Y022431D01*
X027333Y022352D01*
X027254Y022249D01*
X027205Y022129D01*
X027188Y022000D01*
X027205Y021871D01*
X027254Y021751D01*
X027333Y021648D01*
X027436Y021569D01*
X027556Y021520D01*
X027685Y021503D01*
X028000D01*
X028129Y021520D01*
X028249Y021569D01*
X028352Y021648D01*
X028431Y021751D01*
X028466Y021837D01*
X029511D01*
X029528Y021826D01*
X029600Y021811D01*
X029672Y021826D01*
X029733Y021867D01*
X029774Y021928D01*
X029789Y022000D01*
X029774Y022072D01*
X029733Y022133D01*
X029672Y022174D01*
X029600Y022189D01*
X029528Y022174D01*
X029511Y022163D01*
X028466D01*
X028431Y022249D01*
X028352Y022352D01*
X028249Y022431D01*
X028129Y022480D01*
X028000Y022497D01*
D02*
G37*
G36*
X016841Y022013D02*
X016437D01*
Y021688D01*
X016841D01*
Y022013D01*
D02*
G37*
G36*
X013241D02*
X012837D01*
Y021688D01*
X013241D01*
Y022013D01*
D02*
G37*
G36*
X016337D02*
X015934D01*
Y021688D01*
X016337D01*
Y022013D01*
D02*
G37*
G36*
X015550Y022150D02*
X015421D01*
X015426Y022128D01*
X015467Y022067D01*
X015528Y022026D01*
X015550Y022021D01*
Y022150D01*
D02*
G37*
G36*
Y022379D02*
X015528Y022374D01*
X015467Y022333D01*
X015426Y022272D01*
X015421Y022250D01*
X015550D01*
Y022379D01*
D02*
G37*
G36*
X016337Y022438D02*
X015934D01*
Y022312D01*
X015748D01*
X015733Y022333D01*
X015672Y022374D01*
X015650Y022379D01*
Y022200D01*
Y022021D01*
X015672Y022026D01*
X015733Y022067D01*
X015748Y022088D01*
X015934D01*
Y022113D01*
X016337D01*
Y022438D01*
D02*
G37*
G36*
X016841D02*
X016437D01*
Y022113D01*
X016841D01*
Y022438D01*
D02*
G37*
G36*
X012737D02*
X012334D01*
Y022113D01*
X012737D01*
Y022438D01*
D02*
G37*
G36*
X013241D02*
X012837D01*
Y022113D01*
X013241D01*
Y022438D01*
D02*
G37*
G36*
X028850Y019979D02*
Y019850D01*
X028979D01*
X028974Y019872D01*
X028933Y019933D01*
X028872Y019974D01*
X028850Y019979D01*
D02*
G37*
G36*
X030750Y020550D02*
X030621D01*
X030626Y020528D01*
X030667Y020467D01*
X030728Y020426D01*
X030750Y020421D01*
Y020550D01*
D02*
G37*
G36*
X028750Y019979D02*
X028728Y019974D01*
X028667Y019933D01*
X028626Y019872D01*
X028621Y019850D01*
X028750D01*
Y019979D01*
D02*
G37*
G36*
X024150D02*
X024128Y019974D01*
X024067Y019933D01*
X024026Y019872D01*
X024021Y019850D01*
X024150D01*
Y019979D01*
D02*
G37*
G36*
X024250D02*
Y019850D01*
X024379D01*
X024374Y019872D01*
X024333Y019933D01*
X024272Y019974D01*
X024250Y019979D01*
D02*
G37*
G36*
X030979Y020550D02*
X030850D01*
Y020421D01*
X030872Y020426D01*
X030933Y020467D01*
X030974Y020528D01*
X030979Y020550D01*
D02*
G37*
G36*
X015266Y022054D02*
X014359D01*
Y021180D01*
X014328Y021174D01*
X014267Y021133D01*
X014226Y021072D01*
X014211Y021000D01*
X014226Y020928D01*
X014267Y020867D01*
X014328Y020826D01*
X014400Y020811D01*
X014472Y020826D01*
X014533Y020867D01*
X014574Y020928D01*
X014589Y021000D01*
X014581Y021037D01*
X014690Y021146D01*
X014935D01*
X014949Y021098D01*
X014921Y021079D01*
X014921Y021079D01*
X014554Y020712D01*
X014046D01*
X013542Y021217D01*
X013506Y021241D01*
X013463Y021250D01*
X013463Y021250D01*
X013241D01*
Y021512D01*
X012334D01*
Y021250D01*
X012210D01*
X012196Y021271D01*
X012135Y021312D01*
X012063Y021326D01*
X011990Y021312D01*
X011929Y021271D01*
X011888Y021210D01*
X011874Y021137D01*
X011888Y021065D01*
X011929Y021004D01*
X011990Y020963D01*
X012063Y020949D01*
X012135Y020963D01*
X012196Y021004D01*
X012210Y021025D01*
X012334D01*
Y020762D01*
X013241D01*
Y021025D01*
X013416D01*
X013921Y020521D01*
X013921Y020521D01*
X013957Y020496D01*
Y020496D01*
X013957Y020496D01*
D01*
D01*
D01*
X013957D01*
Y020496D01*
D01*
X013957Y020496D01*
X013957Y020496D01*
X014000Y020488D01*
X014589D01*
X014603Y020471D01*
X014614Y020415D01*
X014611Y020400D01*
X014626Y020328D01*
X014667Y020267D01*
X014728Y020226D01*
X014800Y020211D01*
X014872Y020226D01*
X014933Y020267D01*
X014954Y020298D01*
X021344D01*
X021378Y020276D01*
X021450Y020261D01*
X021522Y020276D01*
X021583Y020317D01*
X021624Y020378D01*
X021639Y020450D01*
X021624Y020522D01*
X021583Y020583D01*
X021522Y020624D01*
X021450Y020639D01*
X021378Y020624D01*
X021317Y020583D01*
X021276Y020522D01*
X021272Y020502D01*
X014954D01*
X014933Y020533D01*
X014872Y020574D01*
X014800Y020589D01*
X014782Y020623D01*
X015046Y020888D01*
X015934D01*
Y020762D01*
X016841D01*
Y020974D01*
X023995D01*
X024285Y020685D01*
X024338Y020649D01*
X024400Y020637D01*
X029911D01*
X029928Y020626D01*
X030000Y020611D01*
X030072Y020626D01*
X030133Y020667D01*
X030174Y020728D01*
X030189Y020800D01*
X030174Y020872D01*
X030133Y020933D01*
X030072Y020974D01*
X030000Y020989D01*
X029928Y020974D01*
X029911Y020963D01*
X024468D01*
X024178Y021253D01*
X024125Y021288D01*
X024063Y021301D01*
X016841D01*
Y021512D01*
X015934D01*
Y021112D01*
X015300D01*
X015266Y021146D01*
X015266Y021148D01*
X015266D01*
D01*
Y021148D01*
X015266D01*
D01*
Y022054D01*
D02*
G37*
G36*
X012737Y022013D02*
X012334D01*
Y021688D01*
X012737D01*
Y022013D01*
D02*
G37*
G36*
X030850Y020779D02*
Y020650D01*
X030979D01*
X030974Y020672D01*
X030933Y020733D01*
X030872Y020774D01*
X030850Y020779D01*
D02*
G37*
G36*
X012800Y020589D02*
X012728Y020574D01*
X012667Y020533D01*
X012646Y020502D01*
X011354D01*
X011333Y020533D01*
X011272Y020574D01*
X011200Y020589D01*
X011128Y020574D01*
X011067Y020533D01*
X011026Y020472D01*
X011011Y020400D01*
X011026Y020328D01*
X011067Y020267D01*
X011128Y020226D01*
X011200Y020211D01*
X011272Y020226D01*
X011333Y020267D01*
X011354Y020298D01*
X011832D01*
X011855Y020254D01*
X011851Y020247D01*
X011836Y020175D01*
X011851Y020103D01*
X011892Y020042D01*
X011953Y020001D01*
X012025Y019986D01*
X012062Y019994D01*
X012128Y019928D01*
X012161Y019906D01*
X012200Y019898D01*
X016446D01*
X016467Y019867D01*
X016528Y019826D01*
X016600Y019811D01*
X016672Y019826D01*
X016733Y019867D01*
X016774Y019928D01*
X016789Y020000D01*
X016774Y020072D01*
X016733Y020133D01*
X016672Y020174D01*
X016600Y020189D01*
X016528Y020174D01*
X016467Y020133D01*
X016446Y020102D01*
X012242D01*
X012206Y020138D01*
X012214Y020175D01*
X012199Y020247D01*
X012195Y020254D01*
X012218Y020298D01*
X012646D01*
X012667Y020267D01*
X012728Y020226D01*
X012800Y020211D01*
X012872Y020226D01*
X012933Y020267D01*
X012974Y020328D01*
X012989Y020400D01*
X012974Y020472D01*
X012933Y020533D01*
X012872Y020574D01*
X012800Y020589D01*
D02*
G37*
G36*
X030750Y020779D02*
X030728Y020774D01*
X030667Y020733D01*
X030626Y020672D01*
X030621Y020650D01*
X030750D01*
Y020779D01*
D02*
G37*
%LPD*%
D10*
X033335Y022400D02*
D03*
X032665D02*
D03*
D11*
X012787Y022063D02*
D03*
Y021137D02*
D03*
X016387Y022063D02*
D03*
Y021137D02*
D03*
D12*
X011213Y021600D02*
D03*
X014813D02*
D03*
D13*
X033335Y019935D02*
Y022400D01*
X024706Y021200D02*
X029400D01*
X016387Y021137D02*
X024063D01*
X024400Y020800D01*
X030000D01*
X029400Y021200D02*
X030600Y022400D01*
X023906Y022000D02*
X024706Y021200D01*
X027800Y022000D02*
X029600D01*
X032300Y018900D02*
Y019900D01*
X025400Y016400D02*
X027400Y018400D01*
X031800D01*
X032300Y018900D01*
D14*
X032900Y021600D02*
Y022126D01*
X032626Y022400D02*
X032900Y022126D01*
X030150Y010450D02*
X030200Y010400D01*
X031200D01*
X031400Y010600D01*
X012009Y019609D02*
X015991D01*
X012200Y020000D02*
X016600D01*
X012025Y020175D02*
X012200Y020000D01*
X011200Y020400D02*
X012800D01*
X010600Y021600D02*
X011213D01*
X014813Y021413D02*
Y021587D01*
X014400Y021000D02*
X014813Y021413D01*
X010600Y015200D02*
X014400D01*
X012800Y016800D02*
X015800D01*
X013600Y015600D02*
X014800D01*
X012200Y014600D02*
X013600Y013200D01*
X014800Y020400D02*
X021400D01*
X021450Y020450D01*
X013600Y013200D02*
X014200D01*
X013800Y022600D02*
X024800D01*
X025400Y022000D01*
X025874D01*
X019800Y014800D02*
X023000D01*
X025600Y012200D01*
X021800Y015200D02*
X026400D01*
X028800Y017600D01*
X031600D01*
X032300Y016900D01*
X025000Y015600D02*
X026400D01*
X028700Y017900D01*
X032300D01*
X023600Y014600D02*
X025800Y012400D01*
X029100D01*
X029150Y012350D01*
X030200Y012400D02*
X031400D01*
X031600Y012200D01*
X034000D01*
X027200Y011000D02*
X030800D01*
X031000Y011200D01*
Y013400D02*
X032800D01*
X033300Y013900D01*
X033300D01*
X027900Y010700D02*
X030700D01*
Y013900D02*
X032300D01*
X026800Y012800D02*
X027000Y012600D01*
X027600D01*
X027760Y012760D01*
X031440D01*
X031800Y012400D01*
X032800D01*
X033300Y012900D01*
X033300D01*
X027300D02*
X032300D01*
X029400Y015000D02*
X030300Y015900D01*
X032300D01*
D15*
X016250Y022200D02*
X016387Y022063D01*
X015600Y022200D02*
X016250D01*
X012063Y021137D02*
X013463D01*
X013000Y017200D02*
X016600D01*
X016250Y021000D02*
X016387Y021137D01*
X015000Y021000D02*
X016250D01*
X014600Y020600D02*
X015000Y021000D01*
X014000Y020600D02*
X014600D01*
X013463Y021137D02*
X014000Y020600D01*
D16*
X018000Y022000D02*
D03*
X019969D02*
D03*
X021937D02*
D03*
X023906D02*
D03*
X025874D02*
D03*
X027843D02*
D03*
D17*
X033300Y012900D02*
D03*
X032300D02*
D03*
X033300Y013900D02*
D03*
X032300D02*
D03*
X033300Y014900D02*
D03*
X032300D02*
D03*
X033300Y015900D02*
D03*
X032300D02*
D03*
X033300Y016900D02*
D03*
X032300D02*
D03*
X033300Y017900D02*
D03*
X032300D02*
D03*
X033300Y018900D02*
D03*
X032300D02*
D03*
X033300Y019900D02*
D03*
D18*
X032300D02*
D03*
D19*
X025400Y014400D02*
D03*
Y016400D02*
D03*
X017400Y011400D02*
D03*
Y015400D02*
D03*
Y019400D02*
D03*
D20*
X032900Y021600D02*
D03*
X030150Y010450D02*
D03*
X031400Y010600D02*
D03*
X015600Y022200D02*
D03*
X012009Y019609D02*
D03*
X015991D02*
D03*
X030800Y020600D02*
D03*
X030000Y020800D02*
D03*
X030600Y022400D02*
D03*
X029600Y022000D02*
D03*
X020600Y019800D02*
D03*
X024200D02*
D03*
X028800D02*
D03*
X012400Y015588D02*
D03*
X016600Y017200D02*
D03*
X013000D02*
D03*
X012063Y021137D02*
D03*
X012025Y020175D02*
D03*
X011200Y020400D02*
D03*
X012800D02*
D03*
X010600Y021600D02*
D03*
X014400Y021000D02*
D03*
X010600Y015200D02*
D03*
X014400D02*
D03*
X015800Y016800D02*
D03*
X012800D02*
D03*
X013600Y015600D02*
D03*
X014800D02*
D03*
X012200Y014600D02*
D03*
X016600Y020000D02*
D03*
X014800Y020400D02*
D03*
X021450Y020450D02*
D03*
X014200Y013200D02*
D03*
X013800Y022600D02*
D03*
X019800Y014800D02*
D03*
X025600Y012200D02*
D03*
X021800Y015200D02*
D03*
X025000Y015600D02*
D03*
X023600Y014600D02*
D03*
X029150Y012350D02*
D03*
X030200Y012400D02*
D03*
X034000Y012200D02*
D03*
X027200Y011000D02*
D03*
X031000Y011200D02*
D03*
Y013400D02*
D03*
X027900Y010700D02*
D03*
X030700D02*
D03*
Y013900D02*
D03*
X026800Y012800D02*
D03*
X027300Y012900D02*
D03*
X029400Y015000D02*
D03*
M02*
