%FSAX24Y24*%
%MOIN*%
G70*
G01*
G75*
%ADD10R,0.0433X0.0394*%
%ADD11R,0.0787X0.0630*%
%ADD12R,0.0787X0.0787*%
%ADD13C,0.0200*%
%ADD14C,0.0080*%
%ADD15C,0.0100*%
%ADD16O,0.1181X0.0866*%
%ADD17C,0.0650*%
%ADD18R,0.0650X0.0650*%
%ADD19C,0.1000*%
%ADD20C,0.0250*%
%ADD21R,0.0394X0.0433*%
%ADD22R,0.0335X0.0866*%
%ADD23R,0.0700X0.0600*%
G04:AMPARAMS|DCode=24|XSize=60mil|YSize=70mil|CornerRadius=15mil|HoleSize=0mil|Usage=FLASHONLY|Rotation=90.000|XOffset=0mil|YOffset=0mil|HoleType=Round|Shape=RoundedRectangle|*
%AMROUNDEDRECTD24*
21,1,0.0600,0.0400,0,0,90.0*
21,1,0.0300,0.0700,0,0,90.0*
1,1,0.0300,0.0200,0.0150*
1,1,0.0300,0.0200,-0.0150*
1,1,0.0300,-0.0200,-0.0150*
1,1,0.0300,-0.0200,0.0150*
%
%ADD24ROUNDEDRECTD24*%
%ADD25O,0.0236X0.0866*%
%ADD26O,0.0236X0.0748*%
%ADD27O,0.0236X0.0591*%
%ADD28C,0.0098*%
%ADD29C,0.0079*%
%ADD30C,0.0059*%
%ADD31R,0.0748X0.1614*%
%ADD32C,0.0236*%
%ADD33R,0.3400X0.0800*%
%ADD34R,0.0513X0.0474*%
%ADD35R,0.0867X0.0710*%
%ADD36R,0.0867X0.0867*%
%ADD37O,0.1261X0.0946*%
%ADD38C,0.0730*%
%ADD39R,0.0730X0.0730*%
%ADD40C,0.1080*%
%ADD41C,0.0330*%
%ADD42R,0.0474X0.0513*%
%ADD43R,0.0415X0.0946*%
%ADD44R,0.0780X0.0680*%
G04:AMPARAMS|DCode=45|XSize=68mil|YSize=78mil|CornerRadius=19mil|HoleSize=0mil|Usage=FLASHONLY|Rotation=90.000|XOffset=0mil|YOffset=0mil|HoleType=Round|Shape=RoundedRectangle|*
%AMROUNDEDRECTD45*
21,1,0.0680,0.0400,0,0,90.0*
21,1,0.0300,0.0780,0,0,90.0*
1,1,0.0380,0.0200,0.0150*
1,1,0.0380,0.0200,-0.0150*
1,1,0.0380,-0.0200,-0.0150*
1,1,0.0380,-0.0200,0.0150*
%
%ADD45ROUNDEDRECTD45*%
%ADD46O,0.0316X0.0946*%
%ADD47O,0.0316X0.0828*%
%ADD48O,0.0316X0.0671*%
%ADD49C,0.0067*%
D30*
X017705Y022000D02*
X018295D01*
X018000Y021705D02*
Y022295D01*
X019673Y022000D02*
X020264D01*
X019969Y021705D02*
Y022295D01*
X021642Y022000D02*
X022232D01*
X021937Y021705D02*
Y022295D01*
X023610Y022000D02*
X024201D01*
X023906Y021705D02*
Y022295D01*
X025579Y022000D02*
X026169D01*
X025874Y021705D02*
Y022295D01*
X027547Y022000D02*
X028138D01*
X027843Y021705D02*
Y022295D01*
X033103Y012900D02*
X033497D01*
X033300Y012703D02*
Y013097D01*
X032103Y012900D02*
X032497D01*
X032300Y012703D02*
Y013097D01*
X033103Y013900D02*
X033497D01*
X033300Y013703D02*
Y014097D01*
X032103Y013900D02*
X032497D01*
X032300Y013703D02*
Y014097D01*
X033103Y014900D02*
X033497D01*
X033300Y014703D02*
Y015097D01*
X032103Y014900D02*
X032497D01*
X032300Y014703D02*
Y015097D01*
X033103Y015900D02*
X033497D01*
X033300Y015703D02*
Y016097D01*
X032103Y015900D02*
X032497D01*
X032300Y015703D02*
Y016097D01*
X033103Y016900D02*
X033497D01*
X033300Y016703D02*
Y017097D01*
X032103Y016900D02*
X032497D01*
X032300Y016703D02*
Y017097D01*
X033103Y017900D02*
X033497D01*
X033300Y017703D02*
Y018097D01*
X032103Y017900D02*
X032497D01*
X032300Y017703D02*
Y018097D01*
X033103Y018900D02*
X033497D01*
X033300Y018703D02*
Y019097D01*
X032103Y018900D02*
X032497D01*
X032300Y018703D02*
Y019097D01*
X033103Y019900D02*
X033497D01*
X033300Y019703D02*
Y020097D01*
X032103Y019900D02*
X032497D01*
X032300Y019703D02*
Y020097D01*
X025150Y014400D02*
X025650D01*
X025400Y014150D02*
Y014650D01*
X025150Y016400D02*
X025650D01*
X025400Y016150D02*
Y016650D01*
X017150Y011400D02*
X017650D01*
X017400Y011150D02*
Y011650D01*
X017150Y015400D02*
X017650D01*
X017400Y015150D02*
Y015650D01*
X017150Y019400D02*
X017650D01*
X017400Y019150D02*
Y019650D01*
X032825Y021600D02*
X032975D01*
X032900Y021525D02*
Y021675D01*
X030075Y010450D02*
X030225D01*
X030150Y010375D02*
Y010525D01*
X031325Y010600D02*
X031475D01*
X031400Y010525D02*
Y010675D01*
X015525Y022200D02*
X015675D01*
X015600Y022125D02*
Y022275D01*
X011934Y019609D02*
X012084D01*
X012009Y019534D02*
Y019684D01*
X015916Y019609D02*
X016066D01*
X015991Y019534D02*
Y019684D01*
X030725Y020600D02*
X030875D01*
X030800Y020525D02*
Y020675D01*
X029925Y020800D02*
X030075D01*
X030000Y020725D02*
Y020875D01*
X030525Y022400D02*
X030675D01*
X030600Y022325D02*
Y022475D01*
X029525Y022000D02*
X029675D01*
X029600Y021925D02*
Y022075D01*
X020525Y019800D02*
X020675D01*
X020600Y019725D02*
Y019875D01*
X024125Y019800D02*
X024275D01*
X024200Y019725D02*
Y019875D01*
X028725Y019800D02*
X028875D01*
X028800Y019725D02*
Y019875D01*
X012325Y015588D02*
X012475D01*
X012400Y015513D02*
Y015663D01*
X016525Y017200D02*
X016675D01*
X016600Y017125D02*
Y017275D01*
X012925Y017200D02*
X013075D01*
X013000Y017125D02*
Y017275D01*
X011988Y021137D02*
X012138D01*
X012063Y021062D02*
Y021212D01*
X011950Y020175D02*
X012100D01*
X012025Y020100D02*
Y020250D01*
X011125Y020400D02*
X011275D01*
X011200Y020325D02*
Y020475D01*
X012725Y020400D02*
X012875D01*
X012800Y020325D02*
Y020475D01*
X010525Y021600D02*
X010675D01*
X010600Y021525D02*
Y021675D01*
X014325Y021000D02*
X014475D01*
X014400Y020925D02*
Y021075D01*
X010525Y015200D02*
X010675D01*
X010600Y015125D02*
Y015275D01*
X014325Y015200D02*
X014475D01*
X014400Y015125D02*
Y015275D01*
X015725Y016800D02*
X015875D01*
X015800Y016725D02*
Y016875D01*
X012725Y016800D02*
X012875D01*
X012800Y016725D02*
Y016875D01*
X013525Y015600D02*
X013675D01*
X013600Y015525D02*
Y015675D01*
X014725Y015600D02*
X014875D01*
X014800Y015525D02*
Y015675D01*
X012125Y014600D02*
X012275D01*
X012200Y014525D02*
Y014675D01*
X016525Y020000D02*
X016675D01*
X016600Y019925D02*
Y020075D01*
X014725Y020400D02*
X014875D01*
X014800Y020325D02*
Y020475D01*
X021375Y020450D02*
X021525D01*
X021450Y020375D02*
Y020525D01*
X014125Y013200D02*
X014275D01*
X014200Y013125D02*
Y013275D01*
X013725Y022600D02*
X013875D01*
X013800Y022525D02*
Y022675D01*
X019725Y014800D02*
X019875D01*
X019800Y014725D02*
Y014875D01*
X025525Y012200D02*
X025675D01*
X025600Y012125D02*
Y012275D01*
X021725Y015200D02*
X021875D01*
X021800Y015125D02*
Y015275D01*
X024925Y015600D02*
X025075D01*
X025000Y015525D02*
Y015675D01*
X023525Y014600D02*
X023675D01*
X023600Y014525D02*
Y014675D01*
X029075Y012350D02*
X029225D01*
X029150Y012275D02*
Y012425D01*
X030125Y012400D02*
X030275D01*
X030200Y012325D02*
Y012475D01*
X033925Y012200D02*
X034075D01*
X034000Y012125D02*
Y012275D01*
X027125Y011000D02*
X027275D01*
X027200Y010925D02*
Y011075D01*
X030925Y011200D02*
X031075D01*
X031000Y011125D02*
Y011275D01*
X030925Y013400D02*
X031075D01*
X031000Y013325D02*
Y013475D01*
X027825Y010700D02*
X027975D01*
X027900Y010625D02*
Y010775D01*
X030625Y010700D02*
X030775D01*
X030700Y010625D02*
Y010775D01*
X030625Y013900D02*
X030775D01*
X030700Y013825D02*
Y013975D01*
X026725Y012800D02*
X026875D01*
X026800Y012725D02*
Y012875D01*
X027225Y012900D02*
X027375D01*
X027300Y012825D02*
Y012975D01*
X029325Y015000D02*
X029475D01*
X029400Y014925D02*
Y015075D01*
M02*
