%FSAX24Y24*%
%MOIN*%
G70*
G01*
G75*
G04 Layer_Color=2752767*
%ADD10R,0.0433X0.0394*%
%ADD11R,0.0787X0.0630*%
%ADD12R,0.0787X0.0787*%
%ADD13C,0.0200*%
%ADD14C,0.0080*%
%ADD15C,0.0100*%
%ADD16O,0.1181X0.0866*%
%ADD17C,0.0650*%
%ADD18R,0.0650X0.0650*%
%ADD19C,0.1000*%
%ADD20C,0.0250*%
%ADD21R,0.0394X0.0433*%
%ADD22R,0.0335X0.0866*%
%ADD23R,0.0700X0.0600*%
G04:AMPARAMS|DCode=24|XSize=60mil|YSize=70mil|CornerRadius=15mil|HoleSize=0mil|Usage=FLASHONLY|Rotation=90.000|XOffset=0mil|YOffset=0mil|HoleType=Round|Shape=RoundedRectangle|*
%AMROUNDEDRECTD24*
21,1,0.0600,0.0400,0,0,90.0*
21,1,0.0300,0.0700,0,0,90.0*
1,1,0.0300,0.0200,0.0150*
1,1,0.0300,0.0200,-0.0150*
1,1,0.0300,-0.0200,-0.0150*
1,1,0.0300,-0.0200,0.0150*
%
%ADD24ROUNDEDRECTD24*%
%ADD25O,0.0236X0.0866*%
%ADD26O,0.0236X0.0748*%
%ADD27O,0.0236X0.0591*%
%ADD28C,0.0098*%
%ADD29C,0.0079*%
%ADD30C,0.0059*%
%ADD31R,0.0748X0.1614*%
%ADD32C,0.0236*%
%ADD33R,0.3400X0.0800*%
%ADD34R,0.0513X0.0474*%
%ADD35R,0.0867X0.0710*%
%ADD36R,0.0867X0.0867*%
%ADD37O,0.1261X0.0946*%
%ADD38C,0.0730*%
%ADD39R,0.0730X0.0730*%
%ADD40C,0.1080*%
%ADD41C,0.0330*%
%ADD42R,0.0474X0.0513*%
%ADD43R,0.0415X0.0946*%
%ADD44R,0.0780X0.0680*%
G04:AMPARAMS|DCode=45|XSize=68mil|YSize=78mil|CornerRadius=19mil|HoleSize=0mil|Usage=FLASHONLY|Rotation=90.000|XOffset=0mil|YOffset=0mil|HoleType=Round|Shape=RoundedRectangle|*
%AMROUNDEDRECTD45*
21,1,0.0680,0.0400,0,0,90.0*
21,1,0.0300,0.0780,0,0,90.0*
1,1,0.0380,0.0200,0.0150*
1,1,0.0380,0.0200,-0.0150*
1,1,0.0380,-0.0200,-0.0150*
1,1,0.0380,-0.0200,0.0150*
%
%ADD45ROUNDEDRECTD45*%
%ADD46O,0.0316X0.0946*%
%ADD47O,0.0316X0.0828*%
%ADD48O,0.0316X0.0671*%
%ADD49C,0.0067*%
D30*
X017800Y021800D02*
Y022200D01*
X018200D01*
Y021800D01*
X017800D01*
X019769D02*
Y022200D01*
X020168D01*
Y021800D01*
X019769D01*
X021737D02*
Y022200D01*
X022137D01*
Y021800D01*
X021737D01*
X023706D02*
Y022200D01*
X024106D01*
Y021800D01*
X023706D01*
X025674D02*
Y022200D01*
X026074D01*
Y021800D01*
X025674D01*
X027643D02*
Y022200D01*
X028043D01*
Y021800D01*
X027643D01*
X025400Y014200D02*
X025200Y014600D01*
X025600D01*
X025400Y014200D01*
Y016200D02*
X025200Y016600D01*
X025600D01*
X025400Y016200D01*
X017400Y011200D02*
X017200Y011600D01*
X017600D01*
X017400Y011200D01*
Y015200D02*
X017200Y015600D01*
X017600D01*
X017400Y015200D01*
Y019200D02*
X017200Y019600D01*
X017600D01*
X017400Y019200D01*
X032900Y021400D02*
X033000Y021500D01*
X033100D01*
X033000Y021600D01*
X033100Y021700D01*
X033000D01*
X032900Y021800D01*
X032800Y021700D01*
X032700D01*
X032800Y021600D01*
X032700Y021500D01*
X032800D01*
X032900Y021400D01*
X030150Y010250D02*
X030250Y010350D01*
X030350D01*
X030250Y010450D01*
X030350Y010550D01*
X030250D01*
X030150Y010650D01*
X030050Y010550D01*
X029950D01*
X030050Y010450D01*
X029950Y010350D01*
X030050D01*
X030150Y010250D01*
X031400Y010400D02*
X031500Y010500D01*
X031600D01*
X031500Y010600D01*
X031600Y010700D01*
X031500D01*
X031400Y010800D01*
X031300Y010700D01*
X031200D01*
X031300Y010600D01*
X031200Y010500D01*
X031300D01*
X031400Y010400D01*
X015600Y022000D02*
X015700Y022100D01*
X015800D01*
X015700Y022200D01*
X015800Y022300D01*
X015700D01*
X015600Y022400D01*
X015500Y022300D01*
X015400D01*
X015500Y022200D01*
X015400Y022100D01*
X015500D01*
X015600Y022000D01*
X012009Y019409D02*
X012109Y019509D01*
X012209D01*
X012109Y019609D01*
X012209Y019709D01*
X012109D01*
X012009Y019809D01*
X011909Y019709D01*
X011809D01*
X011909Y019609D01*
X011809Y019509D01*
X011909D01*
X012009Y019409D01*
X015991D02*
X016091Y019509D01*
X016191D01*
X016091Y019609D01*
X016191Y019709D01*
X016091D01*
X015991Y019809D01*
X015891Y019709D01*
X015791D01*
X015891Y019609D01*
X015791Y019509D01*
X015891D01*
X015991Y019409D01*
X030800Y020400D02*
X030900Y020500D01*
X031000D01*
X030900Y020600D01*
X031000Y020700D01*
X030900D01*
X030800Y020800D01*
X030700Y020700D01*
X030600D01*
X030700Y020600D01*
X030600Y020500D01*
X030700D01*
X030800Y020400D01*
X030000Y020600D02*
X030100Y020700D01*
X030200D01*
X030100Y020800D01*
X030200Y020900D01*
X030100D01*
X030000Y021000D01*
X029900Y020900D01*
X029800D01*
X029900Y020800D01*
X029800Y020700D01*
X029900D01*
X030000Y020600D01*
X030600Y022200D02*
X030700Y022300D01*
X030800D01*
X030700Y022400D01*
X030800Y022500D01*
X030700D01*
X030600Y022600D01*
X030500Y022500D01*
X030400D01*
X030500Y022400D01*
X030400Y022300D01*
X030500D01*
X030600Y022200D01*
X029600Y021800D02*
X029700Y021900D01*
X029800D01*
X029700Y022000D01*
X029800Y022100D01*
X029700D01*
X029600Y022200D01*
X029500Y022100D01*
X029400D01*
X029500Y022000D01*
X029400Y021900D01*
X029500D01*
X029600Y021800D01*
X020600Y019600D02*
X020700Y019700D01*
X020800D01*
X020700Y019800D01*
X020800Y019900D01*
X020700D01*
X020600Y020000D01*
X020500Y019900D01*
X020400D01*
X020500Y019800D01*
X020400Y019700D01*
X020500D01*
X020600Y019600D01*
X024200D02*
X024300Y019700D01*
X024400D01*
X024300Y019800D01*
X024400Y019900D01*
X024300D01*
X024200Y020000D01*
X024100Y019900D01*
X024000D01*
X024100Y019800D01*
X024000Y019700D01*
X024100D01*
X024200Y019600D01*
X028800D02*
X028900Y019700D01*
X029000D01*
X028900Y019800D01*
X029000Y019900D01*
X028900D01*
X028800Y020000D01*
X028700Y019900D01*
X028600D01*
X028700Y019800D01*
X028600Y019700D01*
X028700D01*
X028800Y019600D01*
X012400Y015388D02*
X012500Y015488D01*
X012600D01*
X012500Y015588D01*
X012600Y015688D01*
X012500D01*
X012400Y015788D01*
X012300Y015688D01*
X012200D01*
X012300Y015588D01*
X012200Y015488D01*
X012300D01*
X012400Y015388D01*
X016600Y017000D02*
X016700Y017100D01*
X016800D01*
X016700Y017200D01*
X016800Y017300D01*
X016700D01*
X016600Y017400D01*
X016500Y017300D01*
X016400D01*
X016500Y017200D01*
X016400Y017100D01*
X016500D01*
X016600Y017000D01*
X013000D02*
X013100Y017100D01*
X013200D01*
X013100Y017200D01*
X013200Y017300D01*
X013100D01*
X013000Y017400D01*
X012900Y017300D01*
X012800D01*
X012900Y017200D01*
X012800Y017100D01*
X012900D01*
X013000Y017000D01*
X012063Y020937D02*
X012163Y021037D01*
X012263D01*
X012163Y021137D01*
X012263Y021237D01*
X012163D01*
X012063Y021337D01*
X011963Y021237D01*
X011863D01*
X011963Y021137D01*
X011863Y021037D01*
X011963D01*
X012063Y020937D01*
X012025Y019975D02*
X012125Y020075D01*
X012225D01*
X012125Y020175D01*
X012225Y020275D01*
X012125D01*
X012025Y020375D01*
X011925Y020275D01*
X011825D01*
X011925Y020175D01*
X011825Y020075D01*
X011925D01*
X012025Y019975D01*
X011200Y020200D02*
X011300Y020300D01*
X011400D01*
X011300Y020400D01*
X011400Y020500D01*
X011300D01*
X011200Y020600D01*
X011100Y020500D01*
X011000D01*
X011100Y020400D01*
X011000Y020300D01*
X011100D01*
X011200Y020200D01*
X012800D02*
X012900Y020300D01*
X013000D01*
X012900Y020400D01*
X013000Y020500D01*
X012900D01*
X012800Y020600D01*
X012700Y020500D01*
X012600D01*
X012700Y020400D01*
X012600Y020300D01*
X012700D01*
X012800Y020200D01*
X010600Y021400D02*
X010700Y021500D01*
X010800D01*
X010700Y021600D01*
X010800Y021700D01*
X010700D01*
X010600Y021800D01*
X010500Y021700D01*
X010400D01*
X010500Y021600D01*
X010400Y021500D01*
X010500D01*
X010600Y021400D01*
X014400Y020800D02*
X014500Y020900D01*
X014600D01*
X014500Y021000D01*
X014600Y021100D01*
X014500D01*
X014400Y021200D01*
X014300Y021100D01*
X014200D01*
X014300Y021000D01*
X014200Y020900D01*
X014300D01*
X014400Y020800D01*
X010600Y015000D02*
X010700Y015100D01*
X010800D01*
X010700Y015200D01*
X010800Y015300D01*
X010700D01*
X010600Y015400D01*
X010500Y015300D01*
X010400D01*
X010500Y015200D01*
X010400Y015100D01*
X010500D01*
X010600Y015000D01*
X014400D02*
X014500Y015100D01*
X014600D01*
X014500Y015200D01*
X014600Y015300D01*
X014500D01*
X014400Y015400D01*
X014300Y015300D01*
X014200D01*
X014300Y015200D01*
X014200Y015100D01*
X014300D01*
X014400Y015000D01*
X015800Y016600D02*
X015900Y016700D01*
X016000D01*
X015900Y016800D01*
X016000Y016900D01*
X015900D01*
X015800Y017000D01*
X015700Y016900D01*
X015600D01*
X015700Y016800D01*
X015600Y016700D01*
X015700D01*
X015800Y016600D01*
X012800D02*
X012900Y016700D01*
X013000D01*
X012900Y016800D01*
X013000Y016900D01*
X012900D01*
X012800Y017000D01*
X012700Y016900D01*
X012600D01*
X012700Y016800D01*
X012600Y016700D01*
X012700D01*
X012800Y016600D01*
X013600Y015400D02*
X013700Y015500D01*
X013800D01*
X013700Y015600D01*
X013800Y015700D01*
X013700D01*
X013600Y015800D01*
X013500Y015700D01*
X013400D01*
X013500Y015600D01*
X013400Y015500D01*
X013500D01*
X013600Y015400D01*
X014800D02*
X014900Y015500D01*
X015000D01*
X014900Y015600D01*
X015000Y015700D01*
X014900D01*
X014800Y015800D01*
X014700Y015700D01*
X014600D01*
X014700Y015600D01*
X014600Y015500D01*
X014700D01*
X014800Y015400D01*
X012200Y014400D02*
X012300Y014500D01*
X012400D01*
X012300Y014600D01*
X012400Y014700D01*
X012300D01*
X012200Y014800D01*
X012100Y014700D01*
X012000D01*
X012100Y014600D01*
X012000Y014500D01*
X012100D01*
X012200Y014400D01*
X016600Y019800D02*
X016700Y019900D01*
X016800D01*
X016700Y020000D01*
X016800Y020100D01*
X016700D01*
X016600Y020200D01*
X016500Y020100D01*
X016400D01*
X016500Y020000D01*
X016400Y019900D01*
X016500D01*
X016600Y019800D01*
X014800Y020200D02*
X014900Y020300D01*
X015000D01*
X014900Y020400D01*
X015000Y020500D01*
X014900D01*
X014800Y020600D01*
X014700Y020500D01*
X014600D01*
X014700Y020400D01*
X014600Y020300D01*
X014700D01*
X014800Y020200D01*
X021450Y020250D02*
X021550Y020350D01*
X021650D01*
X021550Y020450D01*
X021650Y020550D01*
X021550D01*
X021450Y020650D01*
X021350Y020550D01*
X021250D01*
X021350Y020450D01*
X021250Y020350D01*
X021350D01*
X021450Y020250D01*
X014200Y013000D02*
X014300Y013100D01*
X014400D01*
X014300Y013200D01*
X014400Y013300D01*
X014300D01*
X014200Y013400D01*
X014100Y013300D01*
X014000D01*
X014100Y013200D01*
X014000Y013100D01*
X014100D01*
X014200Y013000D01*
X013800Y022400D02*
X013900Y022500D01*
X014000D01*
X013900Y022600D01*
X014000Y022700D01*
X013900D01*
X013800Y022800D01*
X013700Y022700D01*
X013600D01*
X013700Y022600D01*
X013600Y022500D01*
X013700D01*
X013800Y022400D01*
X019800Y014600D02*
X019900Y014700D01*
X020000D01*
X019900Y014800D01*
X020000Y014900D01*
X019900D01*
X019800Y015000D01*
X019700Y014900D01*
X019600D01*
X019700Y014800D01*
X019600Y014700D01*
X019700D01*
X019800Y014600D01*
X025600Y012000D02*
X025700Y012100D01*
X025800D01*
X025700Y012200D01*
X025800Y012300D01*
X025700D01*
X025600Y012400D01*
X025500Y012300D01*
X025400D01*
X025500Y012200D01*
X025400Y012100D01*
X025500D01*
X025600Y012000D01*
X021800Y015000D02*
X021900Y015100D01*
X022000D01*
X021900Y015200D01*
X022000Y015300D01*
X021900D01*
X021800Y015400D01*
X021700Y015300D01*
X021600D01*
X021700Y015200D01*
X021600Y015100D01*
X021700D01*
X021800Y015000D01*
X025000Y015400D02*
X025100Y015500D01*
X025200D01*
X025100Y015600D01*
X025200Y015700D01*
X025100D01*
X025000Y015800D01*
X024900Y015700D01*
X024800D01*
X024900Y015600D01*
X024800Y015500D01*
X024900D01*
X025000Y015400D01*
X023600Y014400D02*
X023700Y014500D01*
X023800D01*
X023700Y014600D01*
X023800Y014700D01*
X023700D01*
X023600Y014800D01*
X023500Y014700D01*
X023400D01*
X023500Y014600D01*
X023400Y014500D01*
X023500D01*
X023600Y014400D01*
X029150Y012150D02*
X029250Y012250D01*
X029350D01*
X029250Y012350D01*
X029350Y012450D01*
X029250D01*
X029150Y012550D01*
X029050Y012450D01*
X028950D01*
X029050Y012350D01*
X028950Y012250D01*
X029050D01*
X029150Y012150D01*
X030200Y012200D02*
X030300Y012300D01*
X030400D01*
X030300Y012400D01*
X030400Y012500D01*
X030300D01*
X030200Y012600D01*
X030100Y012500D01*
X030000D01*
X030100Y012400D01*
X030000Y012300D01*
X030100D01*
X030200Y012200D01*
X034000Y012000D02*
X034100Y012100D01*
X034200D01*
X034100Y012200D01*
X034200Y012300D01*
X034100D01*
X034000Y012400D01*
X033900Y012300D01*
X033800D01*
X033900Y012200D01*
X033800Y012100D01*
X033900D01*
X034000Y012000D01*
X027200Y010800D02*
X027300Y010900D01*
X027400D01*
X027300Y011000D01*
X027400Y011100D01*
X027300D01*
X027200Y011200D01*
X027100Y011100D01*
X027000D01*
X027100Y011000D01*
X027000Y010900D01*
X027100D01*
X027200Y010800D01*
X031000Y011000D02*
X031100Y011100D01*
X031200D01*
X031100Y011200D01*
X031200Y011300D01*
X031100D01*
X031000Y011400D01*
X030900Y011300D01*
X030800D01*
X030900Y011200D01*
X030800Y011100D01*
X030900D01*
X031000Y011000D01*
Y013200D02*
X031100Y013300D01*
X031200D01*
X031100Y013400D01*
X031200Y013500D01*
X031100D01*
X031000Y013600D01*
X030900Y013500D01*
X030800D01*
X030900Y013400D01*
X030800Y013300D01*
X030900D01*
X031000Y013200D01*
X027900Y010500D02*
X028000Y010600D01*
X028100D01*
X028000Y010700D01*
X028100Y010800D01*
X028000D01*
X027900Y010900D01*
X027800Y010800D01*
X027700D01*
X027800Y010700D01*
X027700Y010600D01*
X027800D01*
X027900Y010500D01*
X030700D02*
X030800Y010600D01*
X030900D01*
X030800Y010700D01*
X030900Y010800D01*
X030800D01*
X030700Y010900D01*
X030600Y010800D01*
X030500D01*
X030600Y010700D01*
X030500Y010600D01*
X030600D01*
X030700Y010500D01*
Y013700D02*
X030800Y013800D01*
X030900D01*
X030800Y013900D01*
X030900Y014000D01*
X030800D01*
X030700Y014100D01*
X030600Y014000D01*
X030500D01*
X030600Y013900D01*
X030500Y013800D01*
X030600D01*
X030700Y013700D01*
X026800Y012600D02*
X026900Y012700D01*
X027000D01*
X026900Y012800D01*
X027000Y012900D01*
X026900D01*
X026800Y013000D01*
X026700Y012900D01*
X026600D01*
X026700Y012800D01*
X026600Y012700D01*
X026700D01*
X026800Y012600D01*
X027300Y012700D02*
X027400Y012800D01*
X027500D01*
X027400Y012900D01*
X027500Y013000D01*
X027400D01*
X027300Y013100D01*
X027200Y013000D01*
X027100D01*
X027200Y012900D01*
X027100Y012800D01*
X027200D01*
X027300Y012700D01*
X029400Y014800D02*
X029500Y014900D01*
X029600D01*
X029500Y015000D01*
X029600Y015100D01*
X029500D01*
X029400Y015200D01*
X029300Y015100D01*
X029200D01*
X029300Y015000D01*
X029200Y014900D01*
X029300D01*
X029400Y014800D01*
D49*
X033500Y012900D02*
G03*
X033500Y012900I-000200J000000D01*
G01*
X032500D02*
G03*
X032500Y012900I-000200J000000D01*
G01*
X033500Y013900D02*
G03*
X033500Y013900I-000200J000000D01*
G01*
X032500D02*
G03*
X032500Y013900I-000200J000000D01*
G01*
X033500Y014900D02*
G03*
X033500Y014900I-000200J000000D01*
G01*
X032500D02*
G03*
X032500Y014900I-000200J000000D01*
G01*
X033500Y015900D02*
G03*
X033500Y015900I-000200J000000D01*
G01*
X032500D02*
G03*
X032500Y015900I-000200J000000D01*
G01*
X033500Y016900D02*
G03*
X033500Y016900I-000200J000000D01*
G01*
X032500D02*
G03*
X032500Y016900I-000200J000000D01*
G01*
X033500Y017900D02*
G03*
X033500Y017900I-000200J000000D01*
G01*
X032500D02*
G03*
X032500Y017900I-000200J000000D01*
G01*
X033500Y018900D02*
G03*
X033500Y018900I-000200J000000D01*
G01*
X032500D02*
G03*
X032500Y018900I-000200J000000D01*
G01*
X033500Y019900D02*
G03*
X033500Y019900I-000200J000000D01*
G01*
X032500D02*
G03*
X032500Y019900I-000200J000000D01*
G01*
M02*
