%FSAX24Y24*%
%MOIN*%
G70*
G01*
G75*
G04 Layer_Color=8388736*
%ADD10R,0.0433X0.0394*%
%ADD11R,0.0787X0.0630*%
%ADD12R,0.0787X0.0787*%
%ADD13C,0.0200*%
%ADD14C,0.0080*%
%ADD15C,0.0100*%
%ADD16O,0.1181X0.0866*%
%ADD17C,0.0650*%
%ADD18R,0.0650X0.0650*%
%ADD19C,0.1000*%
%ADD20C,0.0250*%
%ADD21R,0.0394X0.0433*%
%ADD22R,0.0335X0.0866*%
%ADD23R,0.0700X0.0600*%
G04:AMPARAMS|DCode=24|XSize=60mil|YSize=70mil|CornerRadius=15mil|HoleSize=0mil|Usage=FLASHONLY|Rotation=90.000|XOffset=0mil|YOffset=0mil|HoleType=Round|Shape=RoundedRectangle|*
%AMROUNDEDRECTD24*
21,1,0.0600,0.0400,0,0,90.0*
21,1,0.0300,0.0700,0,0,90.0*
1,1,0.0300,0.0200,0.0150*
1,1,0.0300,0.0200,-0.0150*
1,1,0.0300,-0.0200,-0.0150*
1,1,0.0300,-0.0200,0.0150*
%
%ADD24ROUNDEDRECTD24*%
%ADD25O,0.0236X0.0866*%
%ADD26O,0.0236X0.0748*%
%ADD27O,0.0236X0.0591*%
%ADD28C,0.0098*%
%ADD29C,0.0079*%
%ADD30C,0.0059*%
%ADD31R,0.0748X0.1614*%
%ADD32C,0.0236*%
%ADD33R,0.3400X0.0800*%
%ADD34R,0.0513X0.0474*%
%ADD35R,0.0867X0.0710*%
%ADD36R,0.0867X0.0867*%
%ADD37O,0.1261X0.0946*%
%ADD38C,0.0730*%
%ADD39R,0.0730X0.0730*%
%ADD40C,0.1080*%
%ADD41C,0.0330*%
D34*
X033335Y022400D02*
D03*
X032665D02*
D03*
D35*
X012787Y022063D02*
D03*
Y021137D02*
D03*
X016387Y022063D02*
D03*
Y021137D02*
D03*
D36*
X011213Y021600D02*
D03*
X014813D02*
D03*
D37*
X018000Y022000D02*
D03*
X019969D02*
D03*
X021937D02*
D03*
X023906D02*
D03*
X025874D02*
D03*
X027843D02*
D03*
D38*
X033300Y012900D02*
D03*
X032300D02*
D03*
X033300Y013900D02*
D03*
X032300D02*
D03*
X033300Y014900D02*
D03*
X032300D02*
D03*
X033300Y015900D02*
D03*
X032300D02*
D03*
X033300Y016900D02*
D03*
X032300D02*
D03*
X033300Y017900D02*
D03*
X032300D02*
D03*
X033300Y018900D02*
D03*
X032300D02*
D03*
X033300Y019900D02*
D03*
D39*
X032300D02*
D03*
D40*
X025400Y014400D02*
D03*
Y016400D02*
D03*
X017400Y011400D02*
D03*
Y015400D02*
D03*
Y019400D02*
D03*
D41*
X032900Y021600D02*
D03*
X030150Y010450D02*
D03*
X031400Y010600D02*
D03*
X015600Y022200D02*
D03*
X012009Y019609D02*
D03*
X015991D02*
D03*
X030800Y020600D02*
D03*
X030000Y020800D02*
D03*
X030600Y022400D02*
D03*
X029600Y022000D02*
D03*
X020600Y019800D02*
D03*
X024200D02*
D03*
X028800D02*
D03*
X012400Y015588D02*
D03*
X016600Y017200D02*
D03*
X013000D02*
D03*
X012063Y021137D02*
D03*
X012025Y020175D02*
D03*
X011200Y020400D02*
D03*
X012800D02*
D03*
X010600Y021600D02*
D03*
X014400Y021000D02*
D03*
X010600Y015200D02*
D03*
X014400D02*
D03*
X015800Y016800D02*
D03*
X012800D02*
D03*
X013600Y015600D02*
D03*
X014800D02*
D03*
X012200Y014600D02*
D03*
X016600Y020000D02*
D03*
X014800Y020400D02*
D03*
X021450Y020450D02*
D03*
X014200Y013200D02*
D03*
X013800Y022600D02*
D03*
X019800Y014800D02*
D03*
X025600Y012200D02*
D03*
X021800Y015200D02*
D03*
X025000Y015600D02*
D03*
X023600Y014600D02*
D03*
X029150Y012350D02*
D03*
X030200Y012400D02*
D03*
X034000Y012200D02*
D03*
X027200Y011000D02*
D03*
X031000Y011200D02*
D03*
Y013400D02*
D03*
X027900Y010700D02*
D03*
X030700D02*
D03*
Y013900D02*
D03*
X026800Y012800D02*
D03*
X027300Y012900D02*
D03*
X029400Y015000D02*
D03*
M02*
