%FSAX24Y24*%
%MOIN*%
G70*
G01*
G75*
G04 Layer_Physical_Order=1*
G04 Layer_Color=255*
%ADD10R,0.0630X0.0709*%
%ADD11C,0.0100*%
%ADD12O,0.1181X0.0866*%
%ADD13C,0.0551*%
%ADD14C,0.0591*%
%ADD15R,0.0591X0.0591*%
G36*
X014800Y000200D02*
X000200D01*
Y006800D01*
X014800D01*
Y000200D01*
D02*
G37*
%LPC*%
G36*
X014352Y002350D02*
X014050D01*
Y002048D01*
X014093Y002054D01*
X014179Y002090D01*
X014253Y002147D01*
X014310Y002221D01*
X014346Y002307D01*
X014352Y002350D01*
D02*
G37*
G36*
X012950Y002752D02*
X012907Y002746D01*
X012821Y002710D01*
X012747Y002653D01*
X012690Y002579D01*
X012654Y002493D01*
X012648Y002450D01*
X012950D01*
Y002752D01*
D02*
G37*
G36*
X013352Y002350D02*
X013050D01*
Y002048D01*
X013093Y002054D01*
X013179Y002090D01*
X013253Y002147D01*
X013310Y002221D01*
X013346Y002307D01*
X013352Y002350D01*
D02*
G37*
G36*
X013950D02*
X013648D01*
X013654Y002307D01*
X013690Y002221D01*
X013747Y002147D01*
X013821Y002090D01*
X013907Y002054D01*
X013950Y002048D01*
Y002350D01*
D02*
G37*
G36*
X014050Y002752D02*
Y002450D01*
X014352D01*
X014346Y002493D01*
X014310Y002579D01*
X014253Y002653D01*
X014179Y002710D01*
X014093Y002746D01*
X014050Y002752D01*
D02*
G37*
G36*
X013950Y003350D02*
X013648D01*
X013654Y003307D01*
X013690Y003221D01*
X013747Y003147D01*
X013821Y003090D01*
X013907Y003054D01*
X013950Y003048D01*
Y003350D01*
D02*
G37*
G36*
X013050Y002752D02*
Y002450D01*
X013352D01*
X013346Y002493D01*
X013310Y002579D01*
X013253Y002653D01*
X013179Y002710D01*
X013093Y002746D01*
X013050Y002752D01*
D02*
G37*
G36*
X013950D02*
X013907Y002746D01*
X013821Y002710D01*
X013747Y002653D01*
X013690Y002579D01*
X013654Y002493D01*
X013648Y002450D01*
X013950D01*
Y002752D01*
D02*
G37*
G36*
X012950Y002350D02*
X012648D01*
X012654Y002307D01*
X012690Y002221D01*
X012747Y002147D01*
X012821Y002090D01*
X012907Y002054D01*
X012950Y002048D01*
Y002350D01*
D02*
G37*
G36*
X013950Y001350D02*
X013648D01*
X013654Y001307D01*
X013690Y001221D01*
X013747Y001147D01*
X013821Y001090D01*
X013907Y001054D01*
X013950Y001048D01*
Y001350D01*
D02*
G37*
G36*
X014352D02*
X014050D01*
Y001048D01*
X014093Y001054D01*
X014179Y001090D01*
X014253Y001147D01*
X014310Y001221D01*
X014346Y001307D01*
X014352Y001350D01*
D02*
G37*
G36*
X007056Y000950D02*
X006457D01*
X006468Y000871D01*
X006517Y000751D01*
X006596Y000648D01*
X006699Y000569D01*
X006819Y000520D01*
X006948Y000503D01*
X007056D01*
Y000950D01*
D02*
G37*
G36*
X007754D02*
X007156D01*
Y000503D01*
X007263D01*
X007392Y000520D01*
X007512Y000569D01*
X007615Y000648D01*
X007694Y000751D01*
X007743Y000871D01*
X007754Y000950D01*
D02*
G37*
G36*
X013950Y001752D02*
X013907Y001746D01*
X013821Y001710D01*
X013747Y001653D01*
X013690Y001579D01*
X013654Y001493D01*
X013648Y001450D01*
X013950D01*
Y001752D01*
D02*
G37*
G36*
X014050D02*
Y001450D01*
X014352D01*
X014346Y001493D01*
X014310Y001579D01*
X014253Y001653D01*
X014179Y001710D01*
X014093Y001746D01*
X014050Y001752D01*
D02*
G37*
G36*
X007056Y001497D02*
X006948D01*
X006819Y001480D01*
X006699Y001431D01*
X006596Y001352D01*
X006517Y001249D01*
X006468Y001129D01*
X006457Y001050D01*
X007056D01*
Y001497D01*
D02*
G37*
G36*
X007263D02*
X007156D01*
Y001050D01*
X007754D01*
X007743Y001129D01*
X007694Y001249D01*
X007615Y001352D01*
X007512Y001431D01*
X007392Y001480D01*
X007263Y001497D01*
D02*
G37*
G36*
X014352Y003350D02*
X014050D01*
Y003048D01*
X014093Y003054D01*
X014179Y003090D01*
X014253Y003147D01*
X014310Y003221D01*
X014346Y003307D01*
X014352Y003350D01*
D02*
G37*
G36*
X012000Y006512D02*
X012000Y006512D01*
X006600D01*
X006557Y006504D01*
X006521Y006479D01*
X006521Y006479D01*
X001511Y001470D01*
X001486Y001480D01*
X001357Y001497D01*
X001043D01*
X000914Y001480D01*
X000794Y001431D01*
X000691Y001352D01*
X000612Y001249D01*
X000562Y001129D01*
X000545Y001000D01*
X000562Y000871D01*
X000612Y000751D01*
X000691Y000648D01*
X000794Y000569D01*
X000914Y000520D01*
X001043Y000503D01*
X001357D01*
X001486Y000520D01*
X001606Y000569D01*
X001709Y000648D01*
X001788Y000751D01*
X001838Y000871D01*
X001855Y001000D01*
X001838Y001129D01*
X001788Y001249D01*
X001710Y001351D01*
X006646Y006288D01*
X011954D01*
X012645Y005597D01*
Y005045D01*
X013355D01*
Y005755D01*
X012803D01*
X012079Y006479D01*
X012043Y006504D01*
X012000Y006512D01*
D02*
G37*
G36*
X013950Y005350D02*
X013648D01*
X013654Y005307D01*
X013690Y005221D01*
X013747Y005147D01*
X013821Y005090D01*
X013907Y005054D01*
X013950Y005048D01*
Y005350D01*
D02*
G37*
G36*
Y004752D02*
X013907Y004746D01*
X013821Y004710D01*
X013747Y004653D01*
X013690Y004579D01*
X013654Y004493D01*
X013648Y004450D01*
X013950D01*
Y004752D01*
D02*
G37*
G36*
X014050D02*
Y004450D01*
X014352D01*
X014346Y004493D01*
X014310Y004579D01*
X014253Y004653D01*
X014179Y004710D01*
X014093Y004746D01*
X014050Y004752D01*
D02*
G37*
G36*
X014352Y005350D02*
X014050D01*
Y005048D01*
X014093Y005054D01*
X014179Y005090D01*
X014253Y005147D01*
X014310Y005221D01*
X014346Y005307D01*
X014352Y005350D01*
D02*
G37*
G36*
X014050Y005752D02*
Y005450D01*
X014352D01*
X014346Y005493D01*
X014310Y005579D01*
X014253Y005653D01*
X014179Y005710D01*
X014093Y005746D01*
X014050Y005752D01*
D02*
G37*
G36*
X011400Y005612D02*
X011400Y005612D01*
X006550D01*
X006550Y005612D01*
X006507Y005604D01*
X006471Y005579D01*
X006471Y005579D01*
X003089Y002198D01*
X003065Y002161D01*
X003056Y002119D01*
X003056Y002119D01*
Y001497D01*
X003011D01*
X002882Y001480D01*
X002762Y001431D01*
X002659Y001352D01*
X002580Y001249D01*
X002531Y001129D01*
X002514Y001000D01*
X002531Y000871D01*
X002580Y000751D01*
X002659Y000648D01*
X002762Y000569D01*
X002882Y000520D01*
X003011Y000503D01*
X003326D01*
X003455Y000520D01*
X003575Y000569D01*
X003678Y000648D01*
X003757Y000751D01*
X003806Y000871D01*
X003823Y001000D01*
X003806Y001129D01*
X003757Y001249D01*
X003678Y001352D01*
X003575Y001431D01*
X003455Y001480D01*
X003326Y001497D01*
X003281D01*
Y002072D01*
X006596Y005388D01*
X011354D01*
X012338Y004404D01*
Y003950D01*
X012338Y003950D01*
X012346Y003907D01*
X012371Y003871D01*
X012682Y003560D01*
X012654Y003493D01*
X012642Y003400D01*
X012654Y003307D01*
X012690Y003221D01*
X012747Y003147D01*
X012821Y003090D01*
X012907Y003054D01*
X013000Y003042D01*
X013093Y003054D01*
X013179Y003090D01*
X013253Y003147D01*
X013310Y003221D01*
X013346Y003307D01*
X013358Y003400D01*
X013346Y003493D01*
X013310Y003579D01*
X013253Y003653D01*
X013179Y003710D01*
X013093Y003746D01*
X013000Y003758D01*
X012907Y003746D01*
X012840Y003718D01*
X012562Y003996D01*
Y004450D01*
X012554Y004493D01*
X012529Y004529D01*
X012529Y004529D01*
X011479Y005579D01*
X011443Y005604D01*
X011400Y005612D01*
D02*
G37*
G36*
X011350Y005162D02*
X011350Y005162D01*
X007400D01*
X007400Y005162D01*
X007357Y005154D01*
X007321Y005129D01*
X005058Y002866D01*
X005033Y002830D01*
X005025Y002787D01*
X005025Y002787D01*
Y001497D01*
X004980D01*
X004851Y001480D01*
X004731Y001431D01*
X004628Y001352D01*
X004549Y001249D01*
X004499Y001129D01*
X004482Y001000D01*
X004499Y000871D01*
X004549Y000751D01*
X004628Y000648D01*
X004731Y000569D01*
X004851Y000520D01*
X004980Y000503D01*
X005294D01*
X005423Y000520D01*
X005543Y000569D01*
X005646Y000648D01*
X005725Y000751D01*
X005775Y000871D01*
X005792Y001000D01*
X005775Y001129D01*
X005725Y001249D01*
X005646Y001352D01*
X005543Y001431D01*
X005423Y001480D01*
X005294Y001497D01*
X005249D01*
Y002741D01*
X006837Y004328D01*
X006878Y004300D01*
X006873Y004288D01*
X006862Y004200D01*
X006873Y004112D01*
X006907Y004031D01*
X006961Y003961D01*
X007031Y003907D01*
X007112Y003873D01*
X007200Y003862D01*
X007288Y003873D01*
X007369Y003907D01*
X007439Y003961D01*
X007493Y004031D01*
X007517Y004088D01*
X008804D01*
X008937Y003955D01*
Y003614D01*
X008674D01*
Y002786D01*
X008937D01*
Y001497D01*
X008917D01*
X008788Y001480D01*
X008668Y001431D01*
X008565Y001352D01*
X008486Y001249D01*
X008436Y001129D01*
X008419Y001000D01*
X008436Y000871D01*
X008486Y000751D01*
X008565Y000648D01*
X008668Y000569D01*
X008788Y000520D01*
X008917Y000503D01*
X009232D01*
X009360Y000520D01*
X009480Y000569D01*
X009583Y000648D01*
X009662Y000751D01*
X009712Y000871D01*
X009729Y001000D01*
X009712Y001129D01*
X009662Y001249D01*
X009583Y001352D01*
X009480Y001431D01*
X009360Y001480D01*
X009232Y001497D01*
X009161D01*
Y002786D01*
X009424D01*
Y003614D01*
X009161D01*
Y004001D01*
X009161Y004001D01*
X009152Y004044D01*
X009128Y004080D01*
X009128Y004080D01*
X008929Y004279D01*
X008893Y004304D01*
X008850Y004312D01*
X008850Y004312D01*
X007517D01*
X007493Y004369D01*
X007439Y004439D01*
X007369Y004493D01*
X007288Y004527D01*
X007200Y004538D01*
X007112Y004527D01*
X007100Y004522D01*
X007072Y004563D01*
X007446Y004938D01*
X011304D01*
X011938Y004304D01*
Y002350D01*
X011938Y002350D01*
X011946Y002307D01*
X011971Y002271D01*
X012682Y001560D01*
X012654Y001493D01*
X012642Y001400D01*
X012654Y001307D01*
X012690Y001221D01*
X012747Y001147D01*
X012821Y001090D01*
X012907Y001054D01*
X013000Y001042D01*
X013093Y001054D01*
X013179Y001090D01*
X013253Y001147D01*
X013310Y001221D01*
X013346Y001307D01*
X013358Y001400D01*
X013346Y001493D01*
X013310Y001579D01*
X013253Y001653D01*
X013179Y001710D01*
X013093Y001746D01*
X013000Y001758D01*
X012907Y001746D01*
X012840Y001718D01*
X012162Y002396D01*
Y004350D01*
X012154Y004393D01*
X012129Y004429D01*
X012129Y004429D01*
X011429Y005129D01*
X011393Y005154D01*
X011350Y005162D01*
D02*
G37*
G36*
X013950Y005752D02*
X013907Y005746D01*
X013821Y005710D01*
X013747Y005653D01*
X013690Y005579D01*
X013654Y005493D01*
X013648Y005450D01*
X013950D01*
Y005752D01*
D02*
G37*
G36*
X012950Y004350D02*
X012648D01*
X012654Y004307D01*
X012690Y004221D01*
X012747Y004147D01*
X012821Y004090D01*
X012907Y004054D01*
X012950Y004048D01*
Y004350D01*
D02*
G37*
G36*
X013352D02*
X013050D01*
Y004048D01*
X013093Y004054D01*
X013179Y004090D01*
X013253Y004147D01*
X013310Y004221D01*
X013346Y004307D01*
X013352Y004350D01*
D02*
G37*
G36*
X013950Y003752D02*
X013907Y003746D01*
X013821Y003710D01*
X013747Y003653D01*
X013690Y003579D01*
X013654Y003493D01*
X013648Y003450D01*
X013950D01*
Y003752D01*
D02*
G37*
G36*
X014050D02*
Y003450D01*
X014352D01*
X014346Y003493D01*
X014310Y003579D01*
X014253Y003653D01*
X014179Y003710D01*
X014093Y003746D01*
X014050Y003752D01*
D02*
G37*
G36*
X013950Y004350D02*
X013648D01*
X013654Y004307D01*
X013690Y004221D01*
X013747Y004147D01*
X013821Y004090D01*
X013907Y004054D01*
X013950Y004048D01*
Y004350D01*
D02*
G37*
G36*
X012950Y004752D02*
X012907Y004746D01*
X012821Y004710D01*
X012747Y004653D01*
X012690Y004579D01*
X012654Y004493D01*
X012648Y004450D01*
X012950D01*
Y004752D01*
D02*
G37*
G36*
X013050D02*
Y004450D01*
X013352D01*
X013346Y004493D01*
X013310Y004579D01*
X013253Y004653D01*
X013179Y004710D01*
X013093Y004746D01*
X013050Y004752D01*
D02*
G37*
G36*
X014352Y004350D02*
X014050D01*
Y004048D01*
X014093Y004054D01*
X014179Y004090D01*
X014253Y004147D01*
X014310Y004221D01*
X014346Y004307D01*
X014352Y004350D01*
D02*
G37*
G36*
X011200Y004538D02*
X011112Y004527D01*
X011031Y004493D01*
X010961Y004439D01*
X010907Y004369D01*
X010883Y004312D01*
X010350D01*
X010350Y004312D01*
X010307Y004304D01*
X010271Y004279D01*
X010271Y004279D01*
X010072Y004080D01*
X010048Y004044D01*
X010039Y004001D01*
X010039Y004001D01*
Y003614D01*
X009776D01*
Y002786D01*
X010039D01*
Y001691D01*
X010039Y001691D01*
X010048Y001648D01*
X010072Y001612D01*
X010449Y001235D01*
X010405Y001129D01*
X010388Y001000D01*
X010405Y000871D01*
X010454Y000751D01*
X010533Y000648D01*
X010636Y000569D01*
X010756Y000520D01*
X010885Y000503D01*
X011200D01*
X011329Y000520D01*
X011449Y000569D01*
X011552Y000648D01*
X011631Y000751D01*
X011680Y000871D01*
X011697Y001000D01*
X011680Y001129D01*
X011631Y001249D01*
X011552Y001352D01*
X011449Y001431D01*
X011329Y001480D01*
X011200Y001497D01*
X010885D01*
X010756Y001480D01*
X010636Y001431D01*
X010599Y001402D01*
X010263Y001738D01*
Y002786D01*
X010526D01*
Y003614D01*
X010263D01*
Y003955D01*
X010396Y004088D01*
X010883D01*
X010907Y004031D01*
X010961Y003961D01*
X011031Y003907D01*
X011112Y003873D01*
X011200Y003862D01*
X011288Y003873D01*
X011369Y003907D01*
X011439Y003961D01*
X011493Y004031D01*
X011527Y004112D01*
X011538Y004200D01*
X011527Y004288D01*
X011493Y004369D01*
X011439Y004439D01*
X011369Y004493D01*
X011288Y004527D01*
X011200Y004538D01*
D02*
G37*
%LPD*%
D10*
X009049Y003200D02*
D03*
X010151D02*
D03*
D11*
X012000Y006400D02*
X013000Y005400D01*
X006550Y005500D02*
X011400D01*
X012450Y004450D01*
Y003950D02*
Y004450D01*
Y003950D02*
X013000Y003400D01*
X012050Y002350D02*
X013000Y001400D01*
X012050Y002350D02*
Y004350D01*
X011350Y005050D02*
X012050Y004350D01*
X007400Y005050D02*
X011350D01*
X008874Y001000D02*
X009049Y001175D01*
X008850Y004200D02*
X009049Y004001D01*
X010151Y001691D02*
X010843Y001000D01*
X010151Y004001D02*
X010350Y004200D01*
X011100D01*
X010151Y001691D02*
Y004001D01*
X001200Y001000D02*
X006600Y006400D01*
X003169Y001000D02*
Y002119D01*
X006550Y005500D01*
X005137Y001000D02*
Y002787D01*
X007400Y005050D01*
X006600Y006400D02*
X012000D01*
X007200Y004200D02*
X008850D01*
X009049Y001175D02*
Y004001D01*
D12*
X011043Y001000D02*
D03*
X009074D02*
D03*
X007106D02*
D03*
X005137D02*
D03*
X003169D02*
D03*
X001200D02*
D03*
D13*
X011200Y004200D02*
D03*
X007200D02*
D03*
D14*
X014000Y001400D02*
D03*
X013000D02*
D03*
X014000Y002400D02*
D03*
X013000D02*
D03*
X014000Y003400D02*
D03*
X013000D02*
D03*
X014000Y004400D02*
D03*
X013000D02*
D03*
X014000Y005400D02*
D03*
D15*
X013000D02*
D03*
M02*
