%FSAX24Y24*%
%MOIN*%
G70*
G01*
G75*
G04 Layer_Color=65535*
%ADD10R,0.0630X0.0709*%
%ADD11C,0.0100*%
%ADD12O,0.1181X0.0866*%
%ADD13C,0.0551*%
%ADD14C,0.0591*%
%ADD15R,0.0591X0.0591*%
%ADD16C,0.0079*%
%ADD17R,0.1142X0.1102*%
%ADD18R,0.3400X0.0800*%
G36*
X003507Y005450D02*
X003420D01*
Y005942D01*
X003507D01*
Y005450D01*
D02*
G37*
G36*
X003147Y005946D02*
X003152D01*
X003163Y005945D01*
X003178Y005942D01*
X003194Y005939D01*
X003211Y005935D01*
X003228Y005929D01*
X003246Y005921D01*
X003262Y005911D01*
X003278Y005900D01*
X003293Y005885D01*
X003304Y005869D01*
X003310Y005859D01*
X003313Y005850D01*
X003317Y005839D01*
X003319Y005827D01*
X003321Y005815D01*
X003322Y005802D01*
Y005801D01*
Y005799D01*
Y005797D01*
Y005794D01*
X003320Y005786D01*
X003319Y005776D01*
X003316Y005763D01*
X003311Y005750D01*
X003304Y005735D01*
X003296Y005722D01*
Y005721D01*
X003294Y005720D01*
X003291Y005716D01*
X003286Y005709D01*
X003278Y005702D01*
X003268Y005694D01*
X003257Y005685D01*
X003245Y005678D01*
X003230Y005671D01*
X003377Y005450D01*
X003276D01*
X003144Y005653D01*
X003129D01*
X003122Y005654D01*
X003112D01*
X003101Y005655D01*
X003089Y005655D01*
Y005450D01*
X002998D01*
Y005942D01*
X003008D01*
X003015Y005942D01*
X003025D01*
X003031Y005943D01*
X003038D01*
X003045Y005944D01*
X003059D01*
X003063Y005945D01*
X003072D01*
X003084Y005945D01*
X003096Y005946D01*
X003109D01*
X003122Y005947D01*
X003143D01*
X003147Y005946D01*
D02*
G37*
G36*
X005020Y005450D02*
X004923D01*
X004886Y005550D01*
X004718D01*
X004685Y005450D01*
X004587D01*
X004784Y005948D01*
X004822D01*
X005020Y005450D01*
D02*
G37*
G36*
X004348Y005865D02*
X004125D01*
Y005750D01*
X004284D01*
Y005675D01*
X004125D01*
Y005528D01*
X004348D01*
Y005450D01*
X004038D01*
Y005942D01*
X004348D01*
Y005865D01*
D02*
G37*
G36*
X002270Y005950D02*
X002278D01*
X002287Y005948D01*
X002297Y005947D01*
X002308Y005945D01*
X002320Y005942D01*
X002333Y005939D01*
X002346Y005935D01*
X002360Y005929D01*
X002374Y005923D01*
X002386Y005915D01*
X002399Y005907D01*
X002411Y005896D01*
X002422Y005885D01*
X002423Y005884D01*
X002424Y005881D01*
X002428Y005878D01*
X002431Y005872D01*
X002435Y005866D01*
X002440Y005858D01*
X002445Y005848D01*
X002450Y005837D01*
X002456Y005824D01*
X002461Y005811D01*
X002466Y005795D01*
X002469Y005779D01*
X002473Y005761D01*
X002476Y005742D01*
X002478Y005722D01*
X002479Y005700D01*
Y005698D01*
Y005694D01*
Y005688D01*
X002478Y005680D01*
X002477Y005670D01*
X002475Y005659D01*
X002473Y005646D01*
X002471Y005632D01*
X002468Y005617D01*
X002464Y005601D01*
X002459Y005585D01*
X002453Y005570D01*
X002447Y005554D01*
X002439Y005539D01*
X002430Y005525D01*
X002419Y005511D01*
X002418Y005510D01*
X002416Y005508D01*
X002413Y005505D01*
X002409Y005500D01*
X002402Y005495D01*
X002395Y005489D01*
X002386Y005483D01*
X002377Y005477D01*
X002365Y005470D01*
X002353Y005464D01*
X002339Y005458D01*
X002325Y005452D01*
X002309Y005448D01*
X002291Y005445D01*
X002273Y005442D01*
X002253Y005442D01*
X002249D01*
X002244Y005442D01*
X002237D01*
X002229Y005444D01*
X002219Y005445D01*
X002208Y005448D01*
X002197Y005450D01*
X002185Y005454D01*
X002173Y005458D01*
X002160Y005464D01*
X002147Y005471D01*
X002135Y005478D01*
X002123Y005487D01*
X002112Y005498D01*
X002101Y005510D01*
X002100Y005511D01*
X002099Y005513D01*
X002096Y005517D01*
X002093Y005523D01*
X002089Y005530D01*
X002084Y005538D01*
X002080Y005548D01*
X002075Y005560D01*
X002070Y005573D01*
X002065Y005587D01*
X002061Y005602D01*
X002057Y005619D01*
X002053Y005637D01*
X002051Y005657D01*
X002049Y005678D01*
X002049Y005700D01*
Y005701D01*
Y005704D01*
X002049Y005709D01*
Y005717D01*
X002050Y005726D01*
X002052Y005737D01*
X002053Y005748D01*
X002055Y005761D01*
X002058Y005775D01*
X002062Y005789D01*
X002067Y005804D01*
X002073Y005819D01*
X002079Y005834D01*
X002087Y005849D01*
X002096Y005864D01*
X002106Y005878D01*
X002106Y005878D01*
X002109Y005881D01*
X002112Y005885D01*
X002116Y005889D01*
X002122Y005894D01*
X002129Y005901D01*
X002138Y005907D01*
X002147Y005914D01*
X002157Y005921D01*
X002169Y005928D01*
X002182Y005934D01*
X002195Y005939D01*
X002210Y005944D01*
X002226Y005948D01*
X002243Y005950D01*
X002260Y005951D01*
X002265D01*
X002270Y005950D01*
D02*
G37*
G36*
X002844Y004824D02*
X002852Y004824D01*
X002860Y004822D01*
X002878Y004818D01*
X002879D01*
X002882Y004817D01*
X002886Y004816D01*
X002892Y004814D01*
X002899Y004811D01*
X002906Y004808D01*
X002922Y004800D01*
Y004800D01*
X002922Y004801D01*
X002925Y004804D01*
X002929Y004808D01*
X002934Y004812D01*
X002934D01*
X002935Y004812D01*
X002938Y004814D01*
X002943Y004815D01*
X002948Y004816D01*
X002951D01*
X002953Y004815D01*
X002956Y004814D01*
X002960Y004813D01*
X002963Y004812D01*
X002967Y004809D01*
X002971Y004806D01*
X002971Y004805D01*
X002972Y004804D01*
X002973Y004802D01*
X002975Y004798D01*
X002977Y004794D01*
X002978Y004788D01*
X002979Y004782D01*
X002979Y004774D01*
Y004722D01*
Y004721D01*
Y004718D01*
X002979Y004714D01*
X002978Y004710D01*
X002976Y004699D01*
X002973Y004694D01*
X002971Y004690D01*
X002970Y004690D01*
X002969Y004689D01*
X002967Y004688D01*
X002965Y004686D01*
X002957Y004682D01*
X002953Y004682D01*
X002948Y004681D01*
X002946D01*
X002944Y004682D01*
X002942D01*
X002935Y004684D01*
X002928Y004688D01*
Y004688D01*
X002927Y004689D01*
X002926Y004691D01*
X002924Y004694D01*
X002922Y004697D01*
X002921Y004702D01*
X002919Y004707D01*
X002918Y004714D01*
Y004714D01*
X002917Y004716D01*
X002916Y004718D01*
X002916Y004721D01*
X002913Y004727D01*
X002909Y004733D01*
X002908Y004734D01*
X002907Y004735D01*
X002904Y004738D01*
X002900Y004741D01*
X002895Y004744D01*
X002889Y004748D01*
X002882Y004751D01*
X002874Y004754D01*
X002874Y004755D01*
X002870Y004756D01*
X002866Y004757D01*
X002860Y004759D01*
X002854Y004760D01*
X002846Y004762D01*
X002838Y004762D01*
X002830Y004763D01*
X002825D01*
X002820Y004762D01*
X002813Y004762D01*
X002805Y004760D01*
X002797Y004758D01*
X002788Y004754D01*
X002779Y004750D01*
X002778Y004750D01*
X002775Y004748D01*
X002771Y004745D01*
X002765Y004741D01*
X002759Y004736D01*
X002752Y004729D01*
X002744Y004720D01*
X002738Y004711D01*
X002737Y004710D01*
X002735Y004706D01*
X002732Y004700D01*
X002729Y004693D01*
X002726Y004684D01*
X002723Y004673D01*
X002721Y004660D01*
X002720Y004647D01*
Y004607D01*
Y004606D01*
Y004605D01*
Y004603D01*
X002721Y004599D01*
Y004595D01*
X002722Y004591D01*
X002724Y004581D01*
X002728Y004569D01*
X002734Y004557D01*
X002742Y004544D01*
X002747Y004538D01*
X002752Y004532D01*
X002753D01*
X002754Y004531D01*
X002756Y004529D01*
X002758Y004527D01*
X002762Y004525D01*
X002766Y004523D01*
X002770Y004520D01*
X002776Y004517D01*
X002782Y004515D01*
X002789Y004512D01*
X002804Y004507D01*
X002822Y004504D01*
X002832Y004503D01*
X002842Y004503D01*
X002848D01*
X002854Y004503D01*
X002862Y004504D01*
X002872Y004505D01*
X002882Y004507D01*
X002891Y004509D01*
X002900Y004511D01*
X002901D01*
X002903Y004513D01*
X002906Y004514D01*
X002910Y004517D01*
X002914Y004519D01*
X002919Y004523D01*
X002924Y004528D01*
X002930Y004533D01*
X002931Y004534D01*
X002932Y004535D01*
X002936Y004539D01*
X002940Y004543D01*
X002945Y004545D01*
X002946Y004546D01*
X002949Y004547D01*
X002953Y004548D01*
X002957Y004549D01*
X002959D01*
X002961Y004548D01*
X002965Y004547D01*
X002968Y004546D01*
X002971Y004545D01*
X002975Y004542D01*
X002979Y004539D01*
X002979Y004538D01*
X002980Y004537D01*
X002982Y004535D01*
X002984Y004533D01*
X002987Y004525D01*
X002988Y004521D01*
X002989Y004517D01*
Y004516D01*
Y004515D01*
X002988Y004512D01*
X002987Y004509D01*
X002985Y004505D01*
X002983Y004500D01*
X002980Y004495D01*
X002976Y004490D01*
X002975Y004489D01*
X002973Y004487D01*
X002969Y004483D01*
X002963Y004478D01*
X002956Y004473D01*
X002948Y004467D01*
X002939Y004461D01*
X002928Y004457D01*
X002928D01*
X002926Y004456D01*
X002924Y004455D01*
X002922Y004454D01*
X002918Y004453D01*
X002914Y004451D01*
X002903Y004449D01*
X002890Y004446D01*
X002876Y004443D01*
X002860Y004441D01*
X002842Y004441D01*
X002837D01*
X002833Y004441D01*
X002828D01*
X002823Y004442D01*
X002816Y004443D01*
X002810Y004443D01*
X002794Y004446D01*
X002778Y004450D01*
X002760Y004456D01*
X002744Y004463D01*
X002743D01*
X002742Y004464D01*
X002740Y004465D01*
X002738Y004467D01*
X002731Y004471D01*
X002723Y004477D01*
X002714Y004485D01*
X002703Y004495D01*
X002693Y004507D01*
X002683Y004520D01*
Y004521D01*
X002682Y004522D01*
X002681Y004524D01*
X002679Y004527D01*
X002677Y004531D01*
X002675Y004535D01*
X002671Y004545D01*
X002666Y004558D01*
X002662Y004573D01*
X002660Y004589D01*
X002658Y004605D01*
Y004647D01*
Y004648D01*
Y004649D01*
Y004652D01*
X002659Y004655D01*
Y004660D01*
X002660Y004664D01*
X002661Y004676D01*
X002664Y004690D01*
X002668Y004706D01*
X002673Y004722D01*
X002680Y004738D01*
Y004738D01*
X002682Y004740D01*
X002683Y004742D01*
X002684Y004744D01*
X002690Y004752D01*
X002697Y004762D01*
X002706Y004772D01*
X002716Y004783D01*
X002729Y004793D01*
X002743Y004802D01*
X002744D01*
X002745Y004803D01*
X002747Y004804D01*
X002750Y004806D01*
X002754Y004808D01*
X002758Y004810D01*
X002768Y004814D01*
X002781Y004818D01*
X002796Y004822D01*
X002811Y004824D01*
X002828Y004825D01*
X002838D01*
X002844Y004824D01*
D02*
G37*
G36*
X002698Y005945D02*
X002705D01*
X002714Y005943D01*
X002724Y005942D01*
X002736Y005940D01*
X002749Y005938D01*
X002762Y005934D01*
X002776Y005930D01*
X002791Y005925D01*
X002805Y005919D01*
X002819Y005912D01*
X002833Y005903D01*
X002846Y005894D01*
X002858Y005882D01*
X002859Y005881D01*
X002861Y005879D01*
X002864Y005875D01*
X002868Y005871D01*
X002873Y005865D01*
X002878Y005857D01*
X002884Y005848D01*
X002890Y005837D01*
X002896Y005826D01*
X002902Y005814D01*
X002907Y005800D01*
X002912Y005785D01*
X002915Y005769D01*
X002918Y005752D01*
X002921Y005734D01*
X002921Y005715D01*
Y005714D01*
Y005712D01*
Y005708D01*
X002921Y005703D01*
Y005697D01*
X002920Y005690D01*
X002919Y005682D01*
X002918Y005674D01*
X002916Y005664D01*
X002914Y005653D01*
X002908Y005631D01*
X002900Y005607D01*
X002889Y005582D01*
X002883Y005570D01*
X002876Y005558D01*
X002867Y005546D01*
X002859Y005534D01*
X002849Y005522D01*
X002838Y005512D01*
X002826Y005501D01*
X002813Y005491D01*
X002799Y005483D01*
X002784Y005474D01*
X002768Y005468D01*
X002749Y005461D01*
X002730Y005457D01*
X002710Y005453D01*
X002689Y005451D01*
X002665Y005450D01*
X002556D01*
Y005942D01*
X002566D01*
X002573Y005942D01*
X002581D01*
X002590Y005943D01*
X002601D01*
X002612Y005944D01*
X002634D01*
X002655Y005945D01*
X002665Y005945D01*
X002692D01*
X002698Y005945D01*
D02*
G37*
G36*
X001146Y005865D02*
X000923D01*
Y005750D01*
X001082D01*
Y005675D01*
X000923D01*
Y005528D01*
X001146D01*
Y005450D01*
X000836D01*
Y005942D01*
X001146D01*
Y005865D01*
D02*
G37*
G36*
X003794Y005443D02*
X003746D01*
X003561Y005942D01*
X003657D01*
X003771Y005610D01*
X003891Y005942D01*
X003985D01*
X003794Y005443D01*
D02*
G37*
G36*
X007315Y005946D02*
X007320D01*
X007331Y005945D01*
X007346Y005942D01*
X007362Y005939D01*
X007379Y005935D01*
X007396Y005929D01*
X007414Y005921D01*
X007430Y005911D01*
X007446Y005900D01*
X007461Y005885D01*
X007472Y005869D01*
X007478Y005859D01*
X007481Y005850D01*
X007485Y005839D01*
X007487Y005827D01*
X007489Y005815D01*
X007490Y005802D01*
Y005801D01*
Y005799D01*
Y005797D01*
Y005794D01*
X007488Y005786D01*
X007487Y005776D01*
X007484Y005763D01*
X007479Y005750D01*
X007472Y005735D01*
X007464Y005722D01*
Y005721D01*
X007462Y005720D01*
X007459Y005716D01*
X007454Y005709D01*
X007446Y005702D01*
X007436Y005694D01*
X007425Y005685D01*
X007413Y005678D01*
X007398Y005671D01*
X007544Y005450D01*
X007444D01*
X007312Y005653D01*
X007297D01*
X007290Y005654D01*
X007280D01*
X007269Y005655D01*
X007257Y005655D01*
Y005450D01*
X007166D01*
Y005942D01*
X007176D01*
X007183Y005942D01*
X007193D01*
X007199Y005943D01*
X007206D01*
X007213Y005944D01*
X007227D01*
X007231Y005945D01*
X007240D01*
X007252Y005945D01*
X007264Y005946D01*
X007277D01*
X007290Y005947D01*
X007311D01*
X007315Y005946D01*
D02*
G37*
G36*
X001847Y005727D02*
X002031Y005450D01*
X001927D01*
X001789Y005659D01*
X001735Y005585D01*
Y005450D01*
X001647D01*
Y005942D01*
X001735D01*
Y005706D01*
X001902Y005942D01*
X002001D01*
X001847Y005727D01*
D02*
G37*
G36*
X006071Y005945D02*
X006081D01*
X006092Y005944D01*
X006104Y005942D01*
X006117Y005941D01*
X006145Y005937D01*
X006173Y005930D01*
X006187Y005926D01*
X006200Y005922D01*
X006212Y005916D01*
X006223Y005910D01*
X006223Y005909D01*
X006225Y005908D01*
X006228Y005906D01*
X006231Y005903D01*
X006235Y005899D01*
X006239Y005894D01*
X006245Y005889D01*
X006250Y005882D01*
X006255Y005875D01*
X006260Y005866D01*
X006264Y005857D01*
X006268Y005847D01*
X006271Y005837D01*
X006274Y005824D01*
X006276Y005811D01*
X006277Y005798D01*
Y005797D01*
Y005796D01*
Y005794D01*
Y005790D01*
X006275Y005783D01*
X006274Y005771D01*
X006271Y005759D01*
X006266Y005745D01*
X006260Y005729D01*
X006252Y005713D01*
X006241Y005697D01*
X006228Y005682D01*
X006220Y005675D01*
X006212Y005668D01*
X006203Y005662D01*
X006193Y005655D01*
X006182Y005649D01*
X006170Y005645D01*
X006157Y005640D01*
X006143Y005636D01*
X006128Y005633D01*
X006112Y005631D01*
X006096Y005630D01*
X006077Y005629D01*
X006067D01*
X006061Y005630D01*
X006054D01*
X006046Y005630D01*
X006038Y005631D01*
Y005450D01*
X005950D01*
Y005942D01*
X005959D01*
X005964Y005942D01*
X005971D01*
X005978Y005943D01*
X005996Y005944D01*
X006013D01*
X006030Y005945D01*
X006037Y005945D01*
X006064D01*
X006071Y005945D01*
D02*
G37*
G36*
X005898Y005450D02*
X005801D01*
X005765Y005550D01*
X005596D01*
X005563Y005450D01*
X005465D01*
X005662Y005948D01*
X005700D01*
X005898Y005450D01*
D02*
G37*
G36*
X005214Y005945D02*
X005221D01*
X005230Y005943D01*
X005240Y005942D01*
X005252Y005940D01*
X005265Y005938D01*
X005278Y005934D01*
X005292Y005930D01*
X005306Y005925D01*
X005321Y005919D01*
X005335Y005912D01*
X005349Y005903D01*
X005362Y005894D01*
X005374Y005882D01*
X005375Y005881D01*
X005377Y005879D01*
X005380Y005875D01*
X005384Y005871D01*
X005389Y005865D01*
X005394Y005857D01*
X005400Y005848D01*
X005406Y005837D01*
X005411Y005826D01*
X005418Y005814D01*
X005423Y005800D01*
X005427Y005785D01*
X005431Y005769D01*
X005434Y005752D01*
X005437Y005734D01*
X005437Y005715D01*
Y005714D01*
Y005712D01*
Y005708D01*
X005437Y005703D01*
Y005697D01*
X005436Y005690D01*
X005435Y005682D01*
X005433Y005674D01*
X005432Y005664D01*
X005430Y005653D01*
X005424Y005631D01*
X005416Y005607D01*
X005405Y005582D01*
X005399Y005570D01*
X005392Y005558D01*
X005383Y005546D01*
X005375Y005534D01*
X005365Y005522D01*
X005354Y005512D01*
X005342Y005501D01*
X005329Y005491D01*
X005315Y005483D01*
X005300Y005474D01*
X005284Y005468D01*
X005265Y005461D01*
X005246Y005457D01*
X005226Y005453D01*
X005204Y005451D01*
X005181Y005450D01*
X005072D01*
Y005942D01*
X005082D01*
X005089Y005942D01*
X005097D01*
X005106Y005943D01*
X005117D01*
X005128Y005944D01*
X005150D01*
X005171Y005945D01*
X005181Y005945D01*
X005207D01*
X005214Y005945D01*
D02*
G37*
G36*
X007086Y005865D02*
X006863D01*
Y005750D01*
X007022D01*
Y005675D01*
X006863D01*
Y005528D01*
X007086D01*
Y005450D01*
X006775D01*
Y005942D01*
X007086D01*
Y005865D01*
D02*
G37*
G36*
X006719D02*
X006555D01*
Y005450D01*
X006468D01*
Y005865D01*
X006311D01*
Y005942D01*
X006719D01*
Y005865D01*
D02*
G37*
G36*
X002597Y004815D02*
Y004722D01*
Y004721D01*
Y004718D01*
X002597Y004714D01*
X002596Y004709D01*
X002594Y004698D01*
X002591Y004693D01*
X002589Y004689D01*
X002588Y004688D01*
X002587Y004688D01*
X002585Y004686D01*
X002583Y004684D01*
X002575Y004681D01*
X002571Y004680D01*
X002566Y004680D01*
X002564D01*
X002561Y004680D01*
X002558Y004681D01*
X002551Y004684D01*
X002547Y004686D01*
X002543Y004689D01*
Y004690D01*
X002542Y004691D01*
X002541Y004693D01*
X002539Y004696D01*
X002538Y004701D01*
X002537Y004707D01*
X002536Y004714D01*
X002535Y004722D01*
Y004754D01*
X002391D01*
Y004664D01*
X002445D01*
Y004666D01*
Y004668D01*
Y004672D01*
X002445Y004676D01*
X002447Y004686D01*
X002448Y004690D01*
X002450Y004693D01*
X002451Y004694D01*
X002452Y004695D01*
X002455Y004697D01*
X002457Y004700D01*
X002465Y004704D01*
X002470Y004706D01*
X002475Y004706D01*
X002478D01*
X002480Y004706D01*
X002483Y004705D01*
X002487Y004704D01*
X002491Y004702D01*
X002495Y004700D01*
X002498Y004696D01*
X002499Y004696D01*
X002499Y004694D01*
X002501Y004692D01*
X002503Y004689D01*
X002504Y004684D01*
X002505Y004679D01*
X002506Y004672D01*
X002507Y004664D01*
Y004603D01*
Y004602D01*
Y004599D01*
Y004595D01*
X002506Y004590D01*
X002505Y004585D01*
X002504Y004581D01*
X002503Y004577D01*
X002501Y004573D01*
X002500Y004573D01*
X002499Y004571D01*
X002497Y004569D01*
X002493Y004567D01*
X002485Y004563D01*
X002481Y004561D01*
X002475Y004561D01*
X002473D01*
X002470Y004561D01*
X002467Y004562D01*
X002463Y004564D01*
X002459Y004566D01*
X002455Y004569D01*
X002450Y004573D01*
X002449Y004575D01*
X002449Y004577D01*
X002447Y004579D01*
X002447Y004583D01*
X002445Y004588D01*
X002445Y004595D01*
Y004603D01*
X002391D01*
Y004512D01*
X002548D01*
Y004545D01*
Y004547D01*
Y004549D01*
X002549Y004553D01*
X002549Y004558D01*
X002551Y004569D01*
X002553Y004573D01*
X002556Y004577D01*
X002557Y004578D01*
X002557Y004579D01*
X002559Y004581D01*
X002562Y004583D01*
X002569Y004586D01*
X002574Y004587D01*
X002579Y004587D01*
X002581D01*
X002583Y004587D01*
X002587Y004586D01*
X002591Y004585D01*
X002594Y004583D01*
X002598Y004581D01*
X002601Y004577D01*
X002602Y004577D01*
X002603Y004575D01*
X002604Y004573D01*
X002606Y004570D01*
X002607Y004565D01*
X002609Y004560D01*
X002609Y004553D01*
X002610Y004545D01*
Y004450D01*
X002315D01*
X002311Y004451D01*
X002307Y004451D01*
X002296Y004453D01*
X002291Y004455D01*
X002287Y004458D01*
X002286Y004459D01*
X002286Y004459D01*
X002284Y004461D01*
X002282Y004464D01*
X002279Y004471D01*
X002278Y004476D01*
X002278Y004481D01*
Y004481D01*
Y004483D01*
X002278Y004485D01*
X002279Y004489D01*
X002281Y004496D01*
X002283Y004500D01*
X002287Y004503D01*
X002287Y004504D01*
X002289Y004505D01*
X002291Y004506D01*
X002294Y004508D01*
X002299Y004509D01*
X002305Y004511D01*
X002311Y004511D01*
X002319Y004512D01*
X002329D01*
Y004754D01*
X002315D01*
X002311Y004754D01*
X002307Y004755D01*
X002296Y004757D01*
X002291Y004759D01*
X002287Y004762D01*
X002286Y004762D01*
X002286Y004763D01*
X002284Y004765D01*
X002282Y004768D01*
X002279Y004775D01*
X002278Y004780D01*
X002278Y004784D01*
Y004785D01*
Y004787D01*
X002278Y004789D01*
X002279Y004792D01*
X002281Y004800D01*
X002283Y004804D01*
X002287Y004807D01*
X002287Y004808D01*
X002289Y004808D01*
X002291Y004810D01*
X002294Y004812D01*
X002299Y004813D01*
X002305Y004814D01*
X002311Y004815D01*
X002319Y004816D01*
X002597Y004815D01*
D02*
G37*
G36*
X005428Y004850D02*
X005437Y004848D01*
X005447Y004846D01*
X005457Y004843D01*
X005468Y004839D01*
X005478Y004834D01*
X005479Y004833D01*
X005482Y004830D01*
X005487Y004826D01*
X005494Y004820D01*
X005501Y004812D01*
X005510Y004802D01*
X005518Y004788D01*
X005522Y004781D01*
X005527Y004773D01*
Y004772D01*
X005528Y004771D01*
X005529Y004768D01*
X005531Y004766D01*
X005532Y004761D01*
X005534Y004756D01*
X005537Y004751D01*
X005539Y004745D01*
X005544Y004731D01*
X005547Y004715D01*
X005550Y004698D01*
X005551Y004679D01*
Y004612D01*
Y004611D01*
Y004609D01*
Y004606D01*
X005550Y004602D01*
X005550Y004596D01*
X005549Y004590D01*
X005548Y004583D01*
X005546Y004575D01*
X005542Y004557D01*
X005536Y004537D01*
X005532Y004527D01*
X005528Y004517D01*
X005522Y004507D01*
X005516Y004496D01*
X005515Y004495D01*
X005514Y004494D01*
X005512Y004491D01*
X005509Y004487D01*
X005506Y004483D01*
X005501Y004479D01*
X005496Y004474D01*
X005490Y004469D01*
X005484Y004463D01*
X005476Y004459D01*
X005468Y004454D01*
X005459Y004450D01*
X005449Y004447D01*
X005439Y004444D01*
X005428Y004442D01*
X005416Y004441D01*
X005410D01*
X005402Y004442D01*
X005394Y004443D01*
X005384Y004445D01*
X005373Y004448D01*
X005362Y004452D01*
X005352Y004457D01*
X005351Y004458D01*
X005348Y004461D01*
X005343Y004465D01*
X005337Y004471D01*
X005330Y004479D01*
X005321Y004490D01*
X005312Y004503D01*
X005304Y004518D01*
Y004519D01*
X005303Y004520D01*
X005302Y004523D01*
X005300Y004526D01*
X005298Y004530D01*
X005296Y004535D01*
X005294Y004540D01*
X005292Y004546D01*
X005288Y004560D01*
X005284Y004576D01*
X005282Y004593D01*
X005281Y004612D01*
Y004679D01*
Y004680D01*
Y004682D01*
Y004685D01*
X005282Y004689D01*
X005282Y004694D01*
X005283Y004701D01*
X005284Y004708D01*
X005286Y004716D01*
X005290Y004734D01*
X005296Y004753D01*
X005300Y004763D01*
X005304Y004774D01*
X005310Y004784D01*
X005316Y004794D01*
X005316Y004795D01*
X005317Y004797D01*
X005319Y004800D01*
X005322Y004803D01*
X005326Y004808D01*
X005330Y004812D01*
X005335Y004817D01*
X005341Y004822D01*
X005348Y004828D01*
X005355Y004832D01*
X005363Y004838D01*
X005372Y004842D01*
X005382Y004845D01*
X005392Y004848D01*
X005403Y004850D01*
X005415Y004850D01*
X005421D01*
X005428Y004850D01*
D02*
G37*
G36*
X000985D02*
X000993Y004848D01*
X001003Y004846D01*
X001013Y004843D01*
X001024Y004839D01*
X001034Y004834D01*
X001035Y004833D01*
X001039Y004830D01*
X001043Y004826D01*
X001050Y004820D01*
X001057Y004812D01*
X001066Y004802D01*
X001075Y004788D01*
X001079Y004781D01*
X001083Y004773D01*
Y004772D01*
X001085Y004771D01*
X001085Y004768D01*
X001087Y004766D01*
X001089Y004761D01*
X001091Y004756D01*
X001093Y004751D01*
X001095Y004745D01*
X001100Y004731D01*
X001103Y004715D01*
X001106Y004698D01*
X001107Y004679D01*
Y004612D01*
Y004611D01*
Y004609D01*
Y004606D01*
X001107Y004602D01*
X001106Y004596D01*
X001105Y004590D01*
X001105Y004583D01*
X001103Y004575D01*
X001099Y004557D01*
X001093Y004537D01*
X001089Y004527D01*
X001084Y004517D01*
X001078Y004507D01*
X001072Y004496D01*
X001071Y004495D01*
X001071Y004494D01*
X001069Y004491D01*
X001065Y004487D01*
X001062Y004483D01*
X001057Y004479D01*
X001053Y004474D01*
X001047Y004469D01*
X001040Y004463D01*
X001033Y004459D01*
X001024Y004454D01*
X001015Y004450D01*
X001005Y004447D01*
X000995Y004444D01*
X000984Y004442D01*
X000972Y004441D01*
X000966D01*
X000959Y004442D01*
X000950Y004443D01*
X000940Y004445D01*
X000930Y004448D01*
X000919Y004452D01*
X000909Y004457D01*
X000908Y004458D01*
X000905Y004461D01*
X000900Y004465D01*
X000894Y004471D01*
X000886Y004479D01*
X000878Y004490D01*
X000869Y004503D01*
X000860Y004518D01*
Y004519D01*
X000860Y004520D01*
X000858Y004523D01*
X000857Y004526D01*
X000855Y004530D01*
X000853Y004535D01*
X000851Y004540D01*
X000849Y004546D01*
X000845Y004560D01*
X000841Y004576D01*
X000838Y004593D01*
X000838Y004612D01*
Y004679D01*
Y004680D01*
Y004682D01*
Y004685D01*
X000838Y004689D01*
X000839Y004694D01*
X000840Y004701D01*
X000840Y004708D01*
X000842Y004716D01*
X000846Y004734D01*
X000852Y004753D01*
X000856Y004763D01*
X000861Y004774D01*
X000866Y004784D01*
X000872Y004794D01*
X000873Y004795D01*
X000874Y004797D01*
X000876Y004800D01*
X000879Y004803D01*
X000882Y004808D01*
X000887Y004812D01*
X000892Y004817D01*
X000898Y004822D01*
X000904Y004828D01*
X000912Y004832D01*
X000920Y004838D01*
X000929Y004842D01*
X000938Y004845D01*
X000949Y004848D01*
X000959Y004850D01*
X000971Y004850D01*
X000977D01*
X000985Y004850D01*
D02*
G37*
G36*
X001375Y004512D02*
X001442D01*
X001446Y004511D01*
X001450Y004511D01*
X001461Y004509D01*
X001466Y004506D01*
X001470Y004503D01*
X001470Y004503D01*
X001471Y004502D01*
X001473Y004500D01*
X001475Y004497D01*
X001478Y004490D01*
X001479Y004486D01*
X001480Y004481D01*
Y004480D01*
Y004479D01*
X001479Y004476D01*
X001478Y004473D01*
X001477Y004469D01*
X001476Y004465D01*
X001473Y004461D01*
X001470Y004458D01*
X001469D01*
X001468Y004457D01*
X001466Y004455D01*
X001462Y004454D01*
X001458Y004453D01*
X001452Y004451D01*
X001446Y004451D01*
X001438Y004450D01*
X001247D01*
X001243Y004451D01*
X001238Y004451D01*
X001227Y004453D01*
X001222Y004455D01*
X001218Y004458D01*
X001217Y004459D01*
X001217Y004459D01*
X001215Y004461D01*
X001213Y004464D01*
X001210Y004471D01*
X001209Y004476D01*
X001209Y004481D01*
Y004481D01*
Y004483D01*
X001209Y004485D01*
X001210Y004489D01*
X001213Y004496D01*
X001215Y004500D01*
X001218Y004503D01*
X001219Y004504D01*
X001220Y004505D01*
X001222Y004506D01*
X001225Y004508D01*
X001230Y004509D01*
X001236Y004511D01*
X001243Y004511D01*
X001251Y004512D01*
X001313D01*
Y004770D01*
X001258Y004755D01*
X001257D01*
X001256Y004754D01*
X001253Y004754D01*
X001251D01*
X001244Y004752D01*
X001238Y004752D01*
X001236D01*
X001234Y004752D01*
X001231Y004753D01*
X001224Y004756D01*
X001221Y004758D01*
X001217Y004761D01*
Y004762D01*
X001216Y004763D01*
X001215Y004765D01*
X001213Y004768D01*
X001211Y004774D01*
X001210Y004779D01*
X001209Y004784D01*
Y004784D01*
Y004786D01*
X001210Y004788D01*
Y004790D01*
X001212Y004797D01*
X001215Y004803D01*
X001216Y004804D01*
X001217Y004804D01*
X001219Y004806D01*
X001221Y004808D01*
X001225Y004810D01*
X001229Y004812D01*
X001235Y004814D01*
X001242Y004816D01*
X001375Y004850D01*
Y004512D01*
D02*
G37*
G36*
X000607Y004850D02*
X000612Y004849D01*
X000618Y004848D01*
X000624Y004848D01*
X000631Y004846D01*
X000646Y004842D01*
X000662Y004835D01*
X000670Y004831D01*
X000678Y004826D01*
X000686Y004821D01*
X000693Y004814D01*
X000694Y004814D01*
X000694Y004813D01*
X000696Y004811D01*
X000699Y004808D01*
X000702Y004804D01*
X000705Y004800D01*
X000712Y004790D01*
X000718Y004778D01*
X000724Y004763D01*
X000729Y004746D01*
X000730Y004738D01*
X000730Y004728D01*
Y004727D01*
Y004724D01*
X000730Y004719D01*
X000729Y004713D01*
X000728Y004706D01*
X000726Y004698D01*
X000723Y004690D01*
X000720Y004681D01*
X000719Y004680D01*
X000718Y004677D01*
X000714Y004672D01*
X000709Y004665D01*
X000702Y004656D01*
X000694Y004646D01*
X000682Y004634D01*
X000676Y004628D01*
X000668Y004620D01*
X000668Y004620D01*
X000667Y004619D01*
X000665Y004617D01*
X000662Y004615D01*
X000658Y004611D01*
X000654Y004607D01*
X000648Y004602D01*
X000641Y004596D01*
X000633Y004589D01*
X000624Y004581D01*
X000614Y004572D01*
X000603Y004562D01*
X000590Y004551D01*
X000577Y004539D01*
X000561Y004526D01*
X000545Y004512D01*
X000679D01*
X000680Y004513D01*
X000681Y004513D01*
X000683Y004515D01*
X000686Y004517D01*
X000692Y004520D01*
X000696Y004521D01*
X000700Y004521D01*
X000703D01*
X000705Y004521D01*
X000708Y004520D01*
X000712Y004519D01*
X000716Y004517D01*
X000719Y004515D01*
X000722Y004511D01*
X000723Y004511D01*
X000724Y004509D01*
X000725Y004507D01*
X000727Y004504D01*
X000728Y004499D01*
X000730Y004494D01*
X000730Y004488D01*
X000731Y004480D01*
Y004450D01*
X000450D01*
Y004515D01*
X000451Y004516D01*
X000452Y004517D01*
X000454Y004519D01*
X000457Y004521D01*
X000461Y004525D01*
X000465Y004529D01*
X000477Y004537D01*
X000489Y004549D01*
X000505Y004561D01*
X000521Y004575D01*
X000537Y004589D01*
X000572Y004619D01*
X000589Y004634D01*
X000605Y004648D01*
X000619Y004662D01*
X000632Y004674D01*
X000642Y004684D01*
X000647Y004688D01*
X000650Y004692D01*
X000651Y004693D01*
X000653Y004696D01*
X000656Y004700D01*
X000660Y004704D01*
X000662Y004710D01*
X000666Y004717D01*
X000668Y004724D01*
X000668Y004730D01*
Y004732D01*
Y004734D01*
X000667Y004738D01*
X000666Y004744D01*
X000664Y004750D01*
X000660Y004757D01*
X000655Y004764D01*
X000648Y004770D01*
X000648Y004771D01*
X000645Y004773D01*
X000640Y004776D01*
X000634Y004780D01*
X000627Y004782D01*
X000618Y004786D01*
X000608Y004788D01*
X000596Y004788D01*
X000591D01*
X000585Y004788D01*
X000577Y004786D01*
X000568Y004784D01*
X000559Y004780D01*
X000550Y004776D01*
X000541Y004769D01*
X000541Y004768D01*
X000539Y004767D01*
X000537Y004764D01*
X000535Y004761D01*
X000532Y004757D01*
X000529Y004752D01*
X000526Y004746D01*
X000523Y004738D01*
Y004738D01*
X000523Y004736D01*
X000521Y004734D01*
X000520Y004732D01*
X000516Y004726D01*
X000514Y004722D01*
X000511Y004720D01*
X000510Y004720D01*
X000507Y004718D01*
X000501Y004716D01*
X000493Y004715D01*
X000491D01*
X000489Y004716D01*
X000486Y004716D01*
X000479Y004719D01*
X000475Y004721D01*
X000471Y004724D01*
X000471Y004724D01*
X000470Y004726D01*
X000469Y004727D01*
X000467Y004730D01*
X000464Y004736D01*
X000463Y004740D01*
X000463Y004745D01*
Y004746D01*
Y004748D01*
X000463Y004752D01*
X000465Y004758D01*
X000467Y004764D01*
X000470Y004772D01*
X000474Y004780D01*
X000479Y004790D01*
X000480Y004792D01*
X000483Y004795D01*
X000486Y004800D01*
X000492Y004806D01*
X000499Y004813D01*
X000507Y004820D01*
X000517Y004827D01*
X000528Y004834D01*
X000529D01*
X000529Y004834D01*
X000531Y004835D01*
X000533Y004836D01*
X000540Y004839D01*
X000549Y004842D01*
X000559Y004845D01*
X000571Y004848D01*
X000583Y004850D01*
X000597Y004850D01*
X000603D01*
X000607Y004850D01*
D02*
G37*
G36*
X001016Y004013D02*
Y003933D01*
Y003932D01*
Y003930D01*
X001016Y003926D01*
X001015Y003922D01*
X001014Y003913D01*
X001011Y003908D01*
X001009Y003905D01*
X001008Y003904D01*
X001008Y003904D01*
X001006Y003903D01*
X001004Y003901D01*
X000998Y003898D01*
X000994Y003898D01*
X000990Y003897D01*
X000988D01*
X000986Y003898D01*
X000983Y003898D01*
X000976Y003900D01*
X000973Y003902D01*
X000970Y003905D01*
Y003906D01*
X000969Y003907D01*
X000968Y003908D01*
X000967Y003911D01*
X000966Y003915D01*
X000964Y003920D01*
X000964Y003926D01*
X000963Y003933D01*
Y003960D01*
X000839D01*
Y003884D01*
X000886D01*
Y003885D01*
Y003887D01*
Y003890D01*
X000886Y003894D01*
X000887Y003903D01*
X000889Y003906D01*
X000890Y003908D01*
X000891Y003909D01*
X000892Y003910D01*
X000894Y003912D01*
X000897Y003914D01*
X000903Y003918D01*
X000907Y003919D01*
X000912Y003920D01*
X000914D01*
X000916Y003919D01*
X000919Y003919D01*
X000922Y003918D01*
X000925Y003916D01*
X000928Y003914D01*
X000931Y003911D01*
X000932Y003911D01*
X000932Y003910D01*
X000934Y003908D01*
X000935Y003905D01*
X000936Y003901D01*
X000938Y003896D01*
X000938Y003891D01*
X000939Y003884D01*
Y003831D01*
Y003830D01*
Y003827D01*
Y003824D01*
X000938Y003820D01*
X000938Y003816D01*
X000936Y003812D01*
X000935Y003808D01*
X000934Y003806D01*
X000933Y003805D01*
X000932Y003804D01*
X000930Y003802D01*
X000927Y003801D01*
X000921Y003796D01*
X000917Y003795D01*
X000912Y003795D01*
X000910D01*
X000907Y003795D01*
X000905Y003796D01*
X000902Y003798D01*
X000898Y003799D01*
X000894Y003802D01*
X000890Y003806D01*
X000890Y003807D01*
X000889Y003808D01*
X000888Y003811D01*
X000887Y003814D01*
X000886Y003818D01*
X000886Y003824D01*
Y003831D01*
X000839D01*
Y003753D01*
X000974D01*
Y003782D01*
Y003783D01*
Y003785D01*
X000975Y003789D01*
X000975Y003792D01*
X000977Y003802D01*
X000979Y003806D01*
X000981Y003809D01*
X000982Y003810D01*
X000982Y003810D01*
X000984Y003812D01*
X000986Y003814D01*
X000992Y003816D01*
X000996Y003817D01*
X001000Y003818D01*
X001003D01*
X001004Y003817D01*
X001007Y003816D01*
X001011Y003815D01*
X001014Y003814D01*
X001017Y003812D01*
X001020Y003809D01*
X001020Y003808D01*
X001021Y003807D01*
X001022Y003806D01*
X001024Y003803D01*
X001025Y003799D01*
X001026Y003794D01*
X001027Y003789D01*
X001027Y003782D01*
Y003700D01*
X000775D01*
X000771Y003701D01*
X000767Y003701D01*
X000758Y003703D01*
X000754Y003705D01*
X000750Y003707D01*
X000750Y003707D01*
X000749Y003708D01*
X000748Y003710D01*
X000746Y003712D01*
X000743Y003718D01*
X000743Y003722D01*
X000742Y003726D01*
Y003727D01*
Y003729D01*
X000743Y003730D01*
X000743Y003733D01*
X000746Y003739D01*
X000747Y003743D01*
X000750Y003746D01*
X000751Y003746D01*
X000752Y003747D01*
X000754Y003748D01*
X000757Y003750D01*
X000761Y003751D01*
X000766Y003752D01*
X000771Y003753D01*
X000778Y003753D01*
X000786D01*
Y003960D01*
X000775D01*
X000771Y003961D01*
X000767Y003962D01*
X000758Y003963D01*
X000754Y003965D01*
X000750Y003967D01*
X000750Y003968D01*
X000749Y003968D01*
X000748Y003970D01*
X000746Y003972D01*
X000743Y003979D01*
X000743Y003983D01*
X000742Y003987D01*
Y003987D01*
Y003989D01*
X000743Y003991D01*
X000743Y003993D01*
X000746Y004000D01*
X000747Y004003D01*
X000750Y004006D01*
X000751Y004007D01*
X000752Y004007D01*
X000754Y004008D01*
X000757Y004010D01*
X000761Y004011D01*
X000766Y004012D01*
X000771Y004013D01*
X000778Y004013D01*
X001016Y004013D01*
D02*
G37*
G36*
X001224D02*
X001229D01*
X001235Y004012D01*
X001240Y004011D01*
X001247Y004010D01*
X001261Y004007D01*
X001276Y004001D01*
X001283Y003999D01*
X001289Y003995D01*
X001296Y003991D01*
X001302Y003986D01*
X001303Y003985D01*
X001303Y003984D01*
X001305Y003983D01*
X001306Y003980D01*
X001312Y003975D01*
X001317Y003967D01*
X001323Y003956D01*
X001328Y003945D01*
X001332Y003932D01*
X001332Y003925D01*
X001333Y003918D01*
Y003916D01*
Y003914D01*
X001332Y003908D01*
X001331Y003903D01*
X001329Y003895D01*
X001326Y003888D01*
X001323Y003880D01*
X001318Y003872D01*
X001317Y003871D01*
X001315Y003868D01*
X001312Y003864D01*
X001307Y003860D01*
X001301Y003854D01*
X001293Y003848D01*
X001284Y003842D01*
X001274Y003836D01*
X001275Y003835D01*
X001277Y003834D01*
X001280Y003830D01*
X001285Y003826D01*
X001291Y003820D01*
X001296Y003814D01*
X001303Y003807D01*
X001310Y003799D01*
X001311Y003798D01*
X001312Y003796D01*
X001315Y003792D01*
X001318Y003787D01*
X001323Y003781D01*
X001329Y003773D01*
X001335Y003764D01*
X001342Y003753D01*
X001349D01*
X001353Y003753D01*
X001361Y003751D01*
X001365Y003750D01*
X001368Y003748D01*
X001368Y003747D01*
X001369Y003746D01*
X001371Y003745D01*
X001373Y003742D01*
X001377Y003735D01*
X001378Y003731D01*
X001378Y003726D01*
Y003726D01*
Y003725D01*
X001378Y003722D01*
X001377Y003719D01*
X001376Y003717D01*
X001375Y003713D01*
X001373Y003710D01*
X001370Y003707D01*
X001369D01*
X001368Y003706D01*
X001366Y003705D01*
X001364Y003703D01*
X001360Y003702D01*
X001354Y003701D01*
X001349Y003701D01*
X001342Y003700D01*
X001315D01*
Y003701D01*
X001314Y003701D01*
X001312Y003705D01*
X001309Y003709D01*
X001304Y003716D01*
X001299Y003723D01*
X001293Y003733D01*
X001285Y003742D01*
X001278Y003752D01*
X001261Y003773D01*
X001252Y003783D01*
X001243Y003792D01*
X001235Y003801D01*
X001225Y003808D01*
X001217Y003815D01*
X001209Y003819D01*
X001157D01*
Y003753D01*
X001180D01*
X001183Y003753D01*
X001187Y003752D01*
X001196Y003750D01*
X001200Y003748D01*
X001204Y003746D01*
X001204Y003745D01*
X001205Y003745D01*
X001207Y003743D01*
X001208Y003741D01*
X001211Y003734D01*
X001212Y003731D01*
X001212Y003726D01*
Y003726D01*
Y003725D01*
X001212Y003722D01*
X001211Y003719D01*
X001210Y003717D01*
X001209Y003713D01*
X001207Y003710D01*
X001204Y003707D01*
X001203D01*
X001202Y003706D01*
X001200Y003705D01*
X001197Y003703D01*
X001193Y003702D01*
X001189Y003701D01*
X001183Y003701D01*
X001176Y003700D01*
X001092D01*
X001089Y003701D01*
X001085Y003701D01*
X001076Y003703D01*
X001071Y003705D01*
X001068Y003707D01*
X001067Y003707D01*
X001067Y003708D01*
X001066Y003710D01*
X001064Y003712D01*
X001061Y003718D01*
X001060Y003722D01*
X001060Y003726D01*
Y003727D01*
Y003729D01*
X001060Y003730D01*
X001061Y003733D01*
X001063Y003739D01*
X001065Y003743D01*
X001068Y003746D01*
X001068Y003746D01*
X001070Y003747D01*
X001071Y003748D01*
X001074Y003750D01*
X001078Y003751D01*
X001083Y003752D01*
X001089Y003753D01*
X001096Y003753D01*
X001104D01*
Y003960D01*
X001092D01*
X001089Y003961D01*
X001085Y003962D01*
X001076Y003963D01*
X001071Y003965D01*
X001068Y003967D01*
X001067Y003968D01*
X001067Y003968D01*
X001066Y003970D01*
X001064Y003972D01*
X001061Y003979D01*
X001060Y003983D01*
X001060Y003987D01*
Y003987D01*
Y003989D01*
X001060Y003991D01*
X001061Y003993D01*
X001063Y004000D01*
X001065Y004003D01*
X001068Y004006D01*
X001068Y004007D01*
X001070Y004007D01*
X001071Y004008D01*
X001074Y004010D01*
X001078Y004011D01*
X001083Y004012D01*
X001089Y004013D01*
X001096Y004013D01*
X001220D01*
X001224Y004013D01*
D02*
G37*
G36*
X001591Y004063D02*
X001594Y004062D01*
X001599Y004060D01*
X001603Y004058D01*
X001606Y004055D01*
X001606Y004055D01*
X001607Y004054D01*
X001608Y004052D01*
X001610Y004050D01*
X001613Y004044D01*
X001613Y004040D01*
X001614Y004036D01*
Y004035D01*
Y004034D01*
Y004031D01*
X001613Y004025D01*
X001607Y003939D01*
X001622D01*
X001626Y003938D01*
X001630Y003938D01*
X001639Y003936D01*
X001643Y003934D01*
X001646Y003931D01*
X001647Y003931D01*
X001647Y003930D01*
X001649Y003928D01*
X001651Y003926D01*
X001654Y003920D01*
X001654Y003916D01*
X001655Y003912D01*
Y003911D01*
Y003910D01*
X001654Y003908D01*
X001654Y003905D01*
X001651Y003899D01*
X001650Y003895D01*
X001647Y003892D01*
X001646D01*
X001645Y003891D01*
X001643Y003890D01*
X001641Y003889D01*
X001637Y003888D01*
X001632Y003887D01*
X001626Y003886D01*
X001619Y003886D01*
X001603D01*
X001599Y003828D01*
X001611D01*
X001615Y003827D01*
X001619Y003827D01*
X001628Y003825D01*
X001632Y003823D01*
X001635Y003820D01*
X001636Y003820D01*
X001637Y003819D01*
X001638Y003818D01*
X001640Y003815D01*
X001643Y003809D01*
X001643Y003806D01*
X001644Y003801D01*
Y003801D01*
Y003799D01*
X001643Y003797D01*
X001643Y003794D01*
X001641Y003788D01*
X001639Y003785D01*
X001636Y003782D01*
X001635D01*
X001634Y003781D01*
X001633Y003779D01*
X001630Y003778D01*
X001626Y003777D01*
X001621Y003776D01*
X001615Y003775D01*
X001609Y003775D01*
X001595D01*
X001589Y003684D01*
Y003683D01*
X001589Y003682D01*
Y003681D01*
X001588Y003678D01*
X001587Y003675D01*
X001586Y003671D01*
X001585Y003666D01*
X001585Y003665D01*
X001583Y003662D01*
X001580Y003658D01*
X001575Y003655D01*
X001574Y003654D01*
X001571Y003653D01*
X001567Y003651D01*
X001562Y003650D01*
X001560D01*
X001558Y003651D01*
X001555Y003651D01*
X001550Y003654D01*
X001546Y003655D01*
X001543Y003658D01*
X001543Y003659D01*
X001542Y003660D01*
X001541Y003662D01*
X001540Y003664D01*
X001537Y003670D01*
X001537Y003674D01*
X001536Y003678D01*
Y003679D01*
Y003681D01*
Y003683D01*
Y003688D01*
X001542Y003775D01*
X001503D01*
X001497Y003684D01*
Y003683D01*
Y003682D01*
X001497Y003679D01*
Y003677D01*
X001496Y003671D01*
X001496Y003669D01*
X001495Y003668D01*
Y003667D01*
X001494Y003667D01*
X001493Y003663D01*
X001490Y003659D01*
X001485Y003655D01*
X001485D01*
X001484Y003655D01*
X001481Y003653D01*
X001476Y003651D01*
X001470Y003650D01*
X001469D01*
X001466Y003651D01*
X001464Y003651D01*
X001458Y003654D01*
X001454Y003655D01*
X001452Y003658D01*
X001451Y003659D01*
X001450Y003660D01*
X001449Y003662D01*
X001448Y003664D01*
X001445Y003670D01*
X001445Y003674D01*
X001444Y003678D01*
Y003679D01*
Y003681D01*
Y003683D01*
Y003688D01*
X001450Y003775D01*
X001434D01*
X001431Y003775D01*
X001427Y003776D01*
X001418Y003778D01*
X001414Y003779D01*
X001410Y003782D01*
X001410Y003782D01*
X001409Y003783D01*
X001408Y003785D01*
X001406Y003787D01*
X001404Y003793D01*
X001403Y003797D01*
X001402Y003801D01*
Y003802D01*
Y003803D01*
X001403Y003805D01*
X001404Y003808D01*
X001406Y003814D01*
X001408Y003818D01*
X001410Y003820D01*
X001411Y003821D01*
X001412Y003822D01*
X001414Y003823D01*
X001417Y003824D01*
X001421Y003826D01*
X001425Y003827D01*
X001431Y003827D01*
X001437Y003828D01*
X001454D01*
X001458Y003886D01*
X001445D01*
X001442Y003886D01*
X001437Y003887D01*
X001428Y003888D01*
X001424Y003890D01*
X001421Y003892D01*
X001420Y003893D01*
X001420Y003894D01*
X001418Y003895D01*
X001417Y003898D01*
X001414Y003904D01*
X001413Y003908D01*
X001413Y003912D01*
Y003912D01*
Y003914D01*
X001413Y003916D01*
X001414Y003919D01*
X001416Y003925D01*
X001418Y003928D01*
X001421Y003931D01*
X001421Y003932D01*
X001422Y003932D01*
X001424Y003934D01*
X001427Y003935D01*
X001431Y003936D01*
X001436Y003938D01*
X001441Y003938D01*
X001448Y003939D01*
X001461D01*
X001468Y004029D01*
Y004030D01*
Y004032D01*
X001468Y004034D01*
Y004036D01*
X001469Y004042D01*
X001469Y004044D01*
X001470Y004046D01*
Y004047D01*
X001470Y004047D01*
X001472Y004051D01*
X001475Y004054D01*
X001480Y004058D01*
X001480D01*
X001481Y004059D01*
X001484Y004061D01*
X001489Y004063D01*
X001494Y004063D01*
X001496D01*
X001498Y004063D01*
X001501Y004062D01*
X001507Y004060D01*
X001510Y004058D01*
X001513Y004055D01*
X001513Y004055D01*
X001514Y004054D01*
X001515Y004052D01*
X001517Y004049D01*
X001518Y004047D01*
X001519Y004043D01*
X001520Y004039D01*
X001521Y004035D01*
Y004034D01*
Y004032D01*
Y004029D01*
Y004025D01*
X001514Y003939D01*
X001554D01*
X001560Y004029D01*
Y004030D01*
Y004032D01*
X001561Y004036D01*
X001561Y004040D01*
X001563Y004048D01*
X001566Y004052D01*
X001568Y004055D01*
X001569Y004056D01*
X001569Y004056D01*
X001571Y004057D01*
X001573Y004059D01*
X001579Y004062D01*
X001583Y004063D01*
X001587Y004063D01*
X001589D01*
X001591Y004063D01*
D02*
G37*
G36*
X000588Y004021D02*
X000593Y004020D01*
X000600Y004020D01*
X000613Y004017D01*
X000613D01*
X000616Y004016D01*
X000619Y004015D01*
X000624Y004013D01*
X000628Y004012D01*
X000634Y004009D01*
X000645Y004003D01*
X000645Y004004D01*
X000646Y004005D01*
X000649Y004006D01*
X000651Y004008D01*
X000658Y004011D01*
X000661Y004012D01*
X000665Y004013D01*
X000668D01*
X000669Y004012D01*
X000672Y004012D01*
X000676Y004011D01*
X000678Y004009D01*
X000682Y004007D01*
X000685Y004004D01*
X000685Y004004D01*
X000686Y004003D01*
X000687Y004001D01*
X000689Y003998D01*
X000690Y003994D01*
X000691Y003990D01*
X000692Y003984D01*
X000692Y003978D01*
Y003938D01*
Y003937D01*
Y003935D01*
X000692Y003931D01*
X000691Y003927D01*
X000689Y003918D01*
X000687Y003914D01*
X000685Y003911D01*
X000684Y003910D01*
X000684Y003910D01*
X000682Y003908D01*
X000680Y003907D01*
X000673Y003904D01*
X000670Y003903D01*
X000665Y003903D01*
X000664D01*
X000662Y003903D01*
X000660D01*
X000654Y003905D01*
X000648Y003908D01*
X000647Y003910D01*
X000646Y003911D01*
X000645Y003912D01*
X000644Y003915D01*
X000642Y003918D01*
X000641Y003922D01*
X000640Y003926D01*
Y003927D01*
X000639Y003928D01*
X000638Y003931D01*
X000638Y003934D01*
X000636Y003940D01*
X000634Y003943D01*
X000633Y003945D01*
X000632Y003946D01*
X000631Y003947D01*
X000629Y003948D01*
X000627Y003951D01*
X000624Y003954D01*
X000620Y003956D01*
X000615Y003959D01*
X000610Y003962D01*
X000609Y003962D01*
X000607Y003963D01*
X000604Y003964D01*
X000600Y003965D01*
X000595Y003966D01*
X000589Y003967D01*
X000582Y003968D01*
X000571D01*
X000566Y003968D01*
X000559Y003967D01*
X000552Y003965D01*
X000545Y003963D01*
X000537Y003959D01*
X000531Y003955D01*
X000530Y003954D01*
X000528Y003952D01*
X000525Y003950D01*
X000523Y003946D01*
X000519Y003942D01*
X000517Y003938D01*
X000515Y003932D01*
X000514Y003927D01*
Y003926D01*
Y003925D01*
X000515Y003923D01*
Y003921D01*
X000517Y003915D01*
X000518Y003911D01*
X000520Y003908D01*
X000521Y003907D01*
X000521Y003906D01*
X000523Y003904D01*
X000525Y003903D01*
X000528Y003900D01*
X000532Y003898D01*
X000536Y003896D01*
X000540Y003894D01*
X000541D01*
X000542Y003893D01*
X000545Y003892D01*
X000549Y003891D01*
X000556Y003890D01*
X000560Y003888D01*
X000565Y003887D01*
X000570Y003886D01*
X000576Y003885D01*
X000582Y003884D01*
X000589Y003882D01*
X000590D01*
X000591Y003882D01*
X000593D01*
X000596Y003881D01*
X000600Y003880D01*
X000604Y003879D01*
X000612Y003877D01*
X000622Y003874D01*
X000633Y003871D01*
X000642Y003868D01*
X000652Y003864D01*
X000653Y003864D01*
X000656Y003863D01*
X000660Y003860D01*
X000665Y003857D01*
X000670Y003853D01*
X000676Y003848D01*
X000682Y003842D01*
X000688Y003834D01*
X000689Y003833D01*
X000690Y003831D01*
X000693Y003826D01*
X000696Y003820D01*
X000698Y003813D01*
X000701Y003805D01*
X000702Y003796D01*
X000703Y003786D01*
Y003785D01*
Y003784D01*
Y003782D01*
X000702Y003779D01*
Y003776D01*
X000701Y003772D01*
X000700Y003763D01*
X000696Y003753D01*
X000691Y003743D01*
X000688Y003737D01*
X000684Y003733D01*
X000680Y003727D01*
X000675Y003723D01*
X000674Y003722D01*
X000673Y003722D01*
X000671Y003720D01*
X000668Y003718D01*
X000665Y003716D01*
X000661Y003713D01*
X000656Y003710D01*
X000650Y003707D01*
X000643Y003705D01*
X000636Y003702D01*
X000628Y003699D01*
X000620Y003697D01*
X000611Y003695D01*
X000602Y003693D01*
X000592Y003693D01*
X000581Y003692D01*
X000578D01*
X000573Y003693D01*
X000568D01*
X000561Y003693D01*
X000554Y003694D01*
X000538Y003697D01*
X000537D01*
X000535Y003698D01*
X000531Y003699D01*
X000526Y003701D01*
X000520Y003703D01*
X000513Y003706D01*
X000499Y003713D01*
X000498Y003713D01*
X000497Y003712D01*
X000495Y003709D01*
X000491Y003705D01*
X000488Y003703D01*
X000487Y003702D01*
X000486Y003702D01*
X000484Y003701D01*
X000481Y003701D01*
X000477Y003700D01*
X000475D01*
X000472Y003701D01*
X000469Y003701D01*
X000463Y003703D01*
X000460Y003705D01*
X000457Y003708D01*
Y003709D01*
X000456Y003710D01*
X000455Y003711D01*
X000453Y003714D01*
X000452Y003718D01*
X000451Y003723D01*
X000451Y003729D01*
X000450Y003735D01*
Y003771D01*
Y003771D01*
Y003774D01*
X000451Y003777D01*
X000451Y003781D01*
X000453Y003790D01*
X000455Y003794D01*
X000457Y003798D01*
X000457Y003798D01*
X000458Y003799D01*
X000460Y003801D01*
X000462Y003802D01*
X000465Y003803D01*
X000468Y003805D01*
X000472Y003806D01*
X000477Y003806D01*
X000480D01*
X000482Y003806D01*
X000487Y003804D01*
X000492Y003801D01*
X000493D01*
X000493Y003800D01*
X000496Y003797D01*
X000499Y003792D01*
X000501Y003789D01*
X000502Y003785D01*
Y003784D01*
X000503Y003783D01*
X000503Y003781D01*
X000504Y003778D01*
X000507Y003773D01*
X000508Y003771D01*
X000509Y003769D01*
X000510Y003769D01*
X000511Y003768D01*
X000513Y003766D01*
X000516Y003764D01*
X000519Y003762D01*
X000524Y003759D01*
X000529Y003756D01*
X000536Y003753D01*
X000537Y003753D01*
X000539Y003752D01*
X000543Y003751D01*
X000548Y003749D01*
X000554Y003747D01*
X000561Y003746D01*
X000569Y003746D01*
X000577Y003745D01*
X000583D01*
X000590Y003746D01*
X000598Y003747D01*
X000607Y003749D01*
X000617Y003752D01*
X000626Y003756D01*
X000635Y003762D01*
X000636Y003762D01*
X000637Y003763D01*
X000640Y003766D01*
X000642Y003769D01*
X000645Y003772D01*
X000648Y003776D01*
X000649Y003781D01*
X000650Y003786D01*
Y003787D01*
Y003788D01*
X000649Y003790D01*
X000649Y003792D01*
X000647Y003798D01*
X000645Y003801D01*
X000642Y003804D01*
X000642Y003805D01*
X000641Y003806D01*
X000640Y003808D01*
X000637Y003810D01*
X000634Y003812D01*
X000630Y003815D01*
X000625Y003817D01*
X000620Y003819D01*
X000620D01*
X000618Y003820D01*
X000615Y003821D01*
X000610Y003822D01*
X000604Y003823D01*
X000596Y003825D01*
X000586Y003827D01*
X000580Y003828D01*
X000574Y003830D01*
X000573D01*
X000572Y003830D01*
X000570D01*
X000567Y003831D01*
X000563Y003832D01*
X000559Y003833D01*
X000550Y003835D01*
X000539Y003838D01*
X000528Y003841D01*
X000518Y003845D01*
X000509Y003849D01*
X000508Y003850D01*
X000505Y003851D01*
X000501Y003854D01*
X000496Y003858D01*
X000491Y003862D01*
X000484Y003867D01*
X000479Y003874D01*
X000473Y003881D01*
X000473Y003882D01*
X000472Y003884D01*
X000469Y003889D01*
X000467Y003895D01*
X000465Y003902D01*
X000463Y003909D01*
X000461Y003918D01*
X000461Y003926D01*
Y003927D01*
Y003928D01*
Y003930D01*
X000461Y003932D01*
X000462Y003936D01*
X000463Y003940D01*
X000465Y003948D01*
X000468Y003959D01*
X000474Y003970D01*
X000478Y003976D01*
X000482Y003981D01*
X000487Y003987D01*
X000492Y003992D01*
X000493Y003993D01*
X000494Y003993D01*
X000496Y003995D01*
X000498Y003997D01*
X000501Y003999D01*
X000505Y004001D01*
X000509Y004004D01*
X000515Y004007D01*
X000520Y004009D01*
X000527Y004012D01*
X000541Y004017D01*
X000557Y004020D01*
X000566Y004021D01*
X000575Y004021D01*
X000582D01*
X000588Y004021D01*
D02*
G37*
G36*
X003576Y004850D02*
X003580D01*
X003584Y004849D01*
X003595Y004847D01*
X003608Y004844D01*
X003621Y004839D01*
X003634Y004832D01*
X003647Y004823D01*
X003648D01*
X003649Y004822D01*
X003653Y004818D01*
X003659Y004812D01*
X003667Y004803D01*
X003675Y004792D01*
X003683Y004778D01*
X003691Y004762D01*
X003697Y004744D01*
Y004743D01*
X003698Y004742D01*
X003699Y004738D01*
X003700Y004735D01*
X003701Y004730D01*
X003703Y004724D01*
X003704Y004718D01*
X003705Y004711D01*
X003708Y004695D01*
X003711Y004677D01*
X003713Y004658D01*
X003713Y004637D01*
Y004636D01*
Y004633D01*
X003713Y004628D01*
X003712Y004622D01*
X003711Y004613D01*
X003709Y004605D01*
X003707Y004594D01*
X003704Y004583D01*
X003700Y004571D01*
X003695Y004559D01*
X003689Y004546D01*
X003683Y004533D01*
X003674Y004521D01*
X003664Y004509D01*
X003653Y004497D01*
X003640Y004485D01*
X003639Y004485D01*
X003637Y004483D01*
X003635Y004481D01*
X003630Y004479D01*
X003625Y004475D01*
X003619Y004471D01*
X003611Y004467D01*
X003604Y004463D01*
X003595Y004459D01*
X003585Y004455D01*
X003564Y004448D01*
X003553Y004445D01*
X003541Y004443D01*
X003529Y004442D01*
X003516Y004441D01*
X003510D01*
X003504Y004442D01*
X003495Y004443D01*
X003486Y004445D01*
X003476Y004447D01*
X003467Y004451D01*
X003458Y004456D01*
X003458Y004457D01*
X003456Y004458D01*
X003454Y004460D01*
X003452Y004463D01*
X003449Y004467D01*
X003447Y004471D01*
X003446Y004477D01*
X003445Y004483D01*
Y004483D01*
Y004485D01*
X003446Y004487D01*
X003446Y004491D01*
X003449Y004497D01*
X003451Y004501D01*
X003454Y004505D01*
X003454Y004505D01*
X003455Y004506D01*
X003457Y004507D01*
X003460Y004509D01*
X003466Y004513D01*
X003471Y004513D01*
X003476Y004514D01*
X003477D01*
X003480Y004513D01*
X003485Y004512D01*
X003492Y004509D01*
X003492D01*
X003494Y004509D01*
X003496Y004507D01*
X003499Y004507D01*
X003507Y004504D01*
X003516Y004503D01*
X003521D01*
X003524Y004504D01*
X003528D01*
X003533Y004505D01*
X003544Y004507D01*
X003558Y004511D01*
X003572Y004517D01*
X003588Y004525D01*
X003595Y004529D01*
X003602Y004535D01*
X003603Y004535D01*
X003604Y004536D01*
X003606Y004538D01*
X003608Y004541D01*
X003615Y004547D01*
X003623Y004557D01*
X003631Y004568D01*
X003639Y004581D01*
X003647Y004596D01*
X003649Y004604D01*
X003651Y004613D01*
X003650Y004612D01*
X003647Y004609D01*
X003643Y004606D01*
X003637Y004601D01*
X003631Y004597D01*
X003623Y004592D01*
X003616Y004588D01*
X003609Y004584D01*
X003608D01*
X003606Y004583D01*
X003602Y004581D01*
X003597Y004580D01*
X003590Y004579D01*
X003584Y004577D01*
X003576Y004577D01*
X003568Y004576D01*
X003564D01*
X003560Y004577D01*
X003556Y004577D01*
X003550Y004578D01*
X003539Y004581D01*
X003525Y004585D01*
X003518Y004589D01*
X003510Y004593D01*
X003503Y004597D01*
X003496Y004603D01*
X003488Y004609D01*
X003481Y004615D01*
X003480Y004616D01*
X003480Y004617D01*
X003478Y004619D01*
X003475Y004622D01*
X003472Y004626D01*
X003470Y004631D01*
X003466Y004636D01*
X003463Y004642D01*
X003459Y004649D01*
X003456Y004657D01*
X003450Y004674D01*
X003446Y004693D01*
X003445Y004704D01*
X003444Y004714D01*
Y004715D01*
Y004716D01*
Y004719D01*
X003445Y004722D01*
Y004726D01*
X003446Y004731D01*
X003448Y004742D01*
X003450Y004755D01*
X003455Y004769D01*
X003461Y004784D01*
X003470Y004798D01*
X003470Y004799D01*
X003471Y004800D01*
X003473Y004803D01*
X003476Y004806D01*
X003480Y004810D01*
X003484Y004815D01*
X003489Y004820D01*
X003495Y004824D01*
X003502Y004829D01*
X003509Y004834D01*
X003517Y004838D01*
X003526Y004842D01*
X003535Y004846D01*
X003545Y004848D01*
X003556Y004850D01*
X003568Y004850D01*
X003572D01*
X003576Y004850D01*
D02*
G37*
G36*
X004819Y004815D02*
Y004722D01*
Y004721D01*
Y004718D01*
X004818Y004714D01*
X004818Y004709D01*
X004816Y004698D01*
X004813Y004693D01*
X004810Y004689D01*
X004810Y004688D01*
X004809Y004688D01*
X004807Y004686D01*
X004804Y004684D01*
X004797Y004681D01*
X004793Y004680D01*
X004788Y004680D01*
X004786D01*
X004783Y004680D01*
X004780Y004681D01*
X004772Y004684D01*
X004768Y004686D01*
X004765Y004689D01*
Y004690D01*
X004764Y004691D01*
X004762Y004693D01*
X004761Y004696D01*
X004760Y004701D01*
X004758Y004707D01*
X004758Y004714D01*
X004757Y004722D01*
Y004754D01*
X004613D01*
Y004664D01*
X004666D01*
Y004666D01*
Y004668D01*
Y004672D01*
X004667Y004676D01*
X004668Y004686D01*
X004670Y004690D01*
X004672Y004693D01*
X004672Y004694D01*
X004674Y004695D01*
X004676Y004697D01*
X004679Y004700D01*
X004687Y004704D01*
X004692Y004706D01*
X004697Y004706D01*
X004700D01*
X004702Y004706D01*
X004705Y004705D01*
X004709Y004704D01*
X004712Y004702D01*
X004716Y004700D01*
X004720Y004696D01*
X004720Y004696D01*
X004721Y004694D01*
X004722Y004692D01*
X004724Y004689D01*
X004726Y004684D01*
X004727Y004679D01*
X004728Y004672D01*
X004728Y004664D01*
Y004603D01*
Y004602D01*
Y004599D01*
Y004595D01*
X004728Y004590D01*
X004727Y004585D01*
X004726Y004581D01*
X004724Y004577D01*
X004722Y004573D01*
X004722Y004573D01*
X004720Y004571D01*
X004718Y004569D01*
X004715Y004567D01*
X004707Y004563D01*
X004702Y004561D01*
X004697Y004561D01*
X004694D01*
X004692Y004561D01*
X004688Y004562D01*
X004685Y004564D01*
X004680Y004566D01*
X004676Y004569D01*
X004672Y004573D01*
X004671Y004575D01*
X004670Y004577D01*
X004669Y004579D01*
X004668Y004583D01*
X004667Y004588D01*
X004666Y004595D01*
Y004603D01*
X004613D01*
Y004512D01*
X004770D01*
Y004545D01*
Y004547D01*
Y004549D01*
X004770Y004553D01*
X004771Y004558D01*
X004773Y004569D01*
X004775Y004573D01*
X004778Y004577D01*
X004778Y004578D01*
X004779Y004579D01*
X004781Y004581D01*
X004784Y004583D01*
X004791Y004586D01*
X004796Y004587D01*
X004800Y004587D01*
X004803D01*
X004805Y004587D01*
X004808Y004586D01*
X004812Y004585D01*
X004816Y004583D01*
X004820Y004581D01*
X004823Y004577D01*
X004824Y004577D01*
X004824Y004575D01*
X004826Y004573D01*
X004828Y004570D01*
X004829Y004565D01*
X004830Y004560D01*
X004831Y004553D01*
X004832Y004545D01*
Y004450D01*
X004537D01*
X004533Y004451D01*
X004529Y004451D01*
X004518Y004453D01*
X004513Y004455D01*
X004509Y004458D01*
X004508Y004459D01*
X004507Y004459D01*
X004506Y004461D01*
X004504Y004464D01*
X004501Y004471D01*
X004500Y004476D01*
X004499Y004473D01*
X004498Y004469D01*
X004497Y004465D01*
X004494Y004461D01*
X004491Y004458D01*
X004490D01*
X004489Y004457D01*
X004487Y004455D01*
X004483Y004454D01*
X004479Y004453D01*
X004473Y004451D01*
X004466Y004451D01*
X004458Y004450D01*
X004427D01*
Y004451D01*
X004426Y004451D01*
X004423Y004455D01*
X004419Y004461D01*
X004414Y004469D01*
X004408Y004477D01*
X004401Y004488D01*
X004392Y004499D01*
X004383Y004511D01*
X004363Y004535D01*
X004353Y004547D01*
X004343Y004557D01*
X004333Y004567D01*
X004322Y004577D01*
X004312Y004584D01*
X004303Y004589D01*
X004242D01*
Y004512D01*
X004269D01*
X004273Y004511D01*
X004277Y004511D01*
X004288Y004509D01*
X004293Y004506D01*
X004297Y004503D01*
X004297Y004503D01*
X004298Y004502D01*
X004300Y004500D01*
X004302Y004497D01*
X004305Y004490D01*
X004306Y004486D01*
X004307Y004481D01*
Y004480D01*
Y004479D01*
X004306Y004476D01*
X004305Y004473D01*
X004304Y004469D01*
X004303Y004465D01*
X004300Y004461D01*
X004297Y004458D01*
X004296D01*
X004295Y004457D01*
X004293Y004455D01*
X004289Y004454D01*
X004285Y004453D01*
X004279Y004451D01*
X004273Y004451D01*
X004265Y004450D01*
X004167D01*
X004163Y004451D01*
X004158Y004451D01*
X004148Y004453D01*
X004142Y004455D01*
X004138Y004458D01*
X004138Y004459D01*
X004137Y004459D01*
X004136Y004461D01*
X004134Y004464D01*
X004130Y004471D01*
X004130Y004476D01*
X004129Y004481D01*
Y004481D01*
Y004483D01*
X004130Y004485D01*
X004130Y004489D01*
X004133Y004496D01*
X004135Y004500D01*
X004138Y004503D01*
X004139Y004504D01*
X004140Y004505D01*
X004142Y004506D01*
X004146Y004508D01*
X004150Y004509D01*
X004156Y004511D01*
X004163Y004511D01*
X004171Y004512D01*
X004180D01*
Y004754D01*
X004167D01*
X004163Y004754D01*
X004158Y004755D01*
X004148Y004757D01*
X004142Y004759D01*
X004138Y004762D01*
X004138Y004762D01*
X004137Y004763D01*
X004136Y004765D01*
X004134Y004768D01*
X004130Y004775D01*
X004130Y004780D01*
X004129Y004784D01*
Y004785D01*
Y004787D01*
X004130Y004789D01*
X004130Y004792D01*
X004133Y004800D01*
X004135Y004804D01*
X004138Y004807D01*
X004139Y004808D01*
X004140Y004808D01*
X004142Y004810D01*
X004146Y004812D01*
X004150Y004813D01*
X004156Y004814D01*
X004163Y004815D01*
X004171Y004816D01*
X004316D01*
X004321Y004815D01*
X004326D01*
X004333Y004814D01*
X004339Y004813D01*
X004347Y004812D01*
X004363Y004808D01*
X004381Y004802D01*
X004389Y004798D01*
X004397Y004794D01*
X004404Y004789D01*
X004411Y004783D01*
X004412Y004782D01*
X004413Y004782D01*
X004415Y004780D01*
X004417Y004777D01*
X004423Y004770D01*
X004429Y004761D01*
X004436Y004749D01*
X004442Y004736D01*
X004446Y004720D01*
X004447Y004712D01*
X004447Y004704D01*
Y004702D01*
Y004699D01*
X004447Y004693D01*
X004445Y004686D01*
X004443Y004678D01*
X004440Y004669D01*
X004436Y004660D01*
X004430Y004650D01*
X004429Y004649D01*
X004427Y004646D01*
X004423Y004642D01*
X004417Y004636D01*
X004410Y004630D01*
X004401Y004623D01*
X004391Y004616D01*
X004379Y004609D01*
X004379Y004608D01*
X004382Y004606D01*
X004386Y004602D01*
X004391Y004597D01*
X004398Y004591D01*
X004405Y004583D01*
X004413Y004575D01*
X004421Y004565D01*
X004421Y004565D01*
X004423Y004562D01*
X004427Y004558D01*
X004431Y004552D01*
X004436Y004545D01*
X004443Y004535D01*
X004450Y004525D01*
X004458Y004512D01*
X004466D01*
X004471Y004511D01*
X004481Y004509D01*
X004485Y004508D01*
X004488Y004506D01*
X004489Y004505D01*
X004490Y004504D01*
X004492Y004502D01*
X004495Y004499D01*
X004499Y004491D01*
X004500Y004486D01*
X004500Y004486D01*
X004501Y004489D01*
X004503Y004496D01*
X004505Y004500D01*
X004509Y004503D01*
X004509Y004504D01*
X004511Y004505D01*
X004513Y004506D01*
X004516Y004508D01*
X004521Y004509D01*
X004527Y004511D01*
X004533Y004511D01*
X004541Y004512D01*
X004551D01*
Y004754D01*
X004537D01*
X004533Y004754D01*
X004529Y004755D01*
X004518Y004757D01*
X004513Y004759D01*
X004509Y004762D01*
X004508Y004762D01*
X004507Y004763D01*
X004506Y004765D01*
X004504Y004768D01*
X004501Y004775D01*
X004500Y004780D01*
X004499Y004784D01*
Y004785D01*
Y004787D01*
X004500Y004789D01*
X004501Y004792D01*
X004503Y004800D01*
X004505Y004804D01*
X004509Y004807D01*
X004509Y004808D01*
X004511Y004808D01*
X004513Y004810D01*
X004516Y004812D01*
X004521Y004813D01*
X004527Y004814D01*
X004533Y004815D01*
X004541Y004816D01*
X004819Y004815D01*
D02*
G37*
G36*
X006162Y004731D02*
X006167D01*
X006172Y004730D01*
X006186Y004728D01*
X006200Y004726D01*
X006215Y004721D01*
X006229Y004715D01*
X006242Y004706D01*
X006243D01*
X006244Y004705D01*
X006248Y004702D01*
X006252Y004696D01*
X006258Y004688D01*
X006264Y004679D01*
X006270Y004667D01*
X006273Y004654D01*
X006273Y004646D01*
X006274Y004638D01*
Y004512D01*
X006289D01*
X006293Y004511D01*
X006297Y004511D01*
X006308Y004509D01*
X006313Y004506D01*
X006317Y004503D01*
X006317Y004503D01*
X006318Y004502D01*
X006320Y004500D01*
X006322Y004497D01*
X006325Y004490D01*
X006326Y004486D01*
X006327Y004481D01*
Y004480D01*
Y004479D01*
X006326Y004476D01*
X006325Y004473D01*
X006324Y004469D01*
X006323Y004465D01*
X006320Y004461D01*
X006317Y004458D01*
X006316D01*
X006315Y004457D01*
X006313Y004455D01*
X006309Y004454D01*
X006305Y004453D01*
X006299Y004451D01*
X006293Y004451D01*
X006285Y004450D01*
X006212D01*
Y004465D01*
X006211Y004464D01*
X006208Y004463D01*
X006204Y004461D01*
X006197Y004457D01*
X006190Y004455D01*
X006180Y004451D01*
X006171Y004449D01*
X006160Y004446D01*
X006159D01*
X006156Y004445D01*
X006150Y004444D01*
X006144Y004443D01*
X006136Y004442D01*
X006127Y004441D01*
X006110Y004440D01*
X006105D01*
X006102Y004441D01*
X006097D01*
X006092Y004441D01*
X006081Y004443D01*
X006068Y004447D01*
X006054Y004451D01*
X006041Y004457D01*
X006028Y004466D01*
X006027Y004467D01*
X006024Y004471D01*
X006018Y004476D01*
X006013Y004483D01*
X006008Y004492D01*
X006002Y004502D01*
X005999Y004513D01*
X005998Y004518D01*
X005998Y004524D01*
Y004525D01*
Y004526D01*
Y004528D01*
X005998Y004531D01*
X006000Y004538D01*
X006002Y004548D01*
X006007Y004559D01*
X006010Y004565D01*
X006014Y004571D01*
X006019Y004577D01*
X006024Y004584D01*
X006030Y004591D01*
X006037Y004597D01*
X006038Y004597D01*
X006039Y004598D01*
X006041Y004600D01*
X006044Y004602D01*
X006048Y004605D01*
X006054Y004607D01*
X006059Y004610D01*
X006066Y004613D01*
X006073Y004617D01*
X006082Y004619D01*
X006090Y004622D01*
X006100Y004624D01*
X006111Y004626D01*
X006122Y004628D01*
X006134Y004629D01*
X006147Y004630D01*
X006158D01*
X006166Y004629D01*
X006175Y004628D01*
X006186Y004627D01*
X006199Y004625D01*
X006212Y004623D01*
Y004638D01*
Y004639D01*
Y004640D01*
X006212Y004643D01*
X006211Y004646D01*
X006210Y004650D01*
X006207Y004653D01*
X006204Y004657D01*
X006200Y004660D01*
X006200Y004661D01*
X006198Y004662D01*
X006195Y004663D01*
X006190Y004665D01*
X006184Y004667D01*
X006176Y004668D01*
X006166Y004669D01*
X006154Y004670D01*
X006150D01*
X006144Y004669D01*
X006135Y004668D01*
X006125Y004667D01*
X006113Y004665D01*
X006099Y004662D01*
X006083Y004658D01*
X006082D01*
X006080Y004658D01*
X006078Y004657D01*
X006074D01*
X006066Y004656D01*
X006058Y004655D01*
X006056D01*
X006053Y004656D01*
X006050Y004656D01*
X006044Y004659D01*
X006040Y004661D01*
X006036Y004664D01*
Y004664D01*
X006035Y004665D01*
X006034Y004667D01*
X006032Y004670D01*
X006030Y004677D01*
X006029Y004682D01*
X006028Y004686D01*
Y004687D01*
Y004688D01*
X006029Y004691D01*
X006030Y004696D01*
X006031Y004700D01*
X006032Y004701D01*
X006034Y004703D01*
X006036Y004706D01*
X006040Y004709D01*
X006041Y004710D01*
X006042Y004710D01*
X006044Y004712D01*
X006048Y004712D01*
X006052Y004714D01*
X006056Y004716D01*
X006062Y004718D01*
X006064D01*
X006066Y004719D01*
X006071Y004720D01*
X006077Y004721D01*
X006084Y004723D01*
X006092Y004724D01*
X006109Y004728D01*
X006110D01*
X006113Y004728D01*
X006118Y004729D01*
X006124Y004730D01*
X006130Y004730D01*
X006138Y004731D01*
X006152Y004732D01*
X006158D01*
X006162Y004731D01*
D02*
G37*
G36*
X005211Y004815D02*
X005215Y004814D01*
X005226Y004812D01*
X005231Y004810D01*
X005235Y004807D01*
X005235Y004806D01*
X005236Y004806D01*
X005238Y004804D01*
X005240Y004801D01*
X005243Y004794D01*
X005244Y004790D01*
X005245Y004784D01*
Y004784D01*
Y004782D01*
X005244Y004779D01*
X005243Y004776D01*
X005241Y004772D01*
X005239Y004768D01*
X005236Y004764D01*
X005231Y004759D01*
X005230Y004758D01*
X005228Y004758D01*
X005225Y004756D01*
X005222Y004756D01*
X005217Y004754D01*
X005211Y004754D01*
X005203D01*
X005075Y004450D01*
X005016D01*
X004889Y004754D01*
X004882D01*
X004877Y004754D01*
X004872Y004755D01*
X004868Y004756D01*
X004864Y004757D01*
X004861Y004759D01*
X004860Y004760D01*
X004859Y004761D01*
X004857Y004764D01*
X004854Y004766D01*
X004850Y004774D01*
X004848Y004779D01*
X004848Y004784D01*
Y004785D01*
Y004787D01*
X004848Y004789D01*
X004849Y004792D01*
X004852Y004800D01*
X004854Y004804D01*
X004857Y004807D01*
X004858Y004808D01*
X004859Y004808D01*
X004861Y004810D01*
X004864Y004812D01*
X004869Y004813D01*
X004874Y004814D01*
X004881Y004815D01*
X004889Y004816D01*
X004975D01*
X004979Y004815D01*
X004983Y004814D01*
X004994Y004812D01*
X004999Y004810D01*
X005003Y004807D01*
X005004Y004806D01*
X005005Y004806D01*
X005007Y004804D01*
X005009Y004801D01*
X005012Y004794D01*
X005013Y004790D01*
X005013Y004784D01*
Y004784D01*
Y004782D01*
X005013Y004780D01*
X005012Y004776D01*
X005011Y004773D01*
X005009Y004769D01*
X005007Y004765D01*
X005003Y004762D01*
X005003D01*
X005001Y004760D01*
X004999Y004759D01*
X004996Y004758D01*
X004991Y004756D01*
X004985Y004755D01*
X004979Y004754D01*
X004971Y004754D01*
X004956D01*
X005045Y004540D01*
X005135Y004754D01*
X005117D01*
X005113Y004754D01*
X005109Y004755D01*
X005098Y004757D01*
X005093Y004759D01*
X005089Y004762D01*
X005088Y004762D01*
X005087Y004763D01*
X005086Y004765D01*
X005084Y004768D01*
X005081Y004775D01*
X005080Y004780D01*
X005079Y004784D01*
Y004785D01*
Y004787D01*
X005080Y004789D01*
X005081Y004792D01*
X005083Y004800D01*
X005085Y004804D01*
X005089Y004807D01*
X005089Y004808D01*
X005091Y004808D01*
X005093Y004810D01*
X005096Y004812D01*
X005101Y004813D01*
X005107Y004814D01*
X005113Y004815D01*
X005121Y004816D01*
X005207D01*
X005211Y004815D01*
D02*
G37*
G36*
X002076D02*
X002082D01*
X002088Y004814D01*
X002095Y004814D01*
X002104Y004812D01*
X002114Y004810D01*
X002125Y004808D01*
X002136Y004804D01*
X002136D01*
X002137Y004803D01*
X002140Y004802D01*
X002146Y004800D01*
X002152Y004796D01*
X002160Y004792D01*
X002168Y004788D01*
X002176Y004782D01*
X002182Y004776D01*
X002183Y004775D01*
X002185Y004773D01*
X002188Y004770D01*
X002191Y004766D01*
X002195Y004761D01*
X002200Y004755D01*
X002205Y004748D01*
X002210Y004740D01*
X002211Y004739D01*
X002213Y004736D01*
X002216Y004731D01*
X002218Y004726D01*
X002222Y004718D01*
X002226Y004711D01*
X002229Y004703D01*
X002232Y004694D01*
X002233Y004694D01*
X002234Y004690D01*
X002235Y004686D01*
X002236Y004680D01*
X002238Y004672D01*
X002238Y004662D01*
X002240Y004652D01*
Y004640D01*
Y004611D01*
Y004611D01*
Y004609D01*
Y004607D01*
Y004605D01*
X002239Y004597D01*
X002238Y004588D01*
X002236Y004577D01*
X002234Y004565D01*
X002230Y004553D01*
X002226Y004541D01*
X002225Y004540D01*
X002223Y004537D01*
X002220Y004531D01*
X002216Y004524D01*
X002211Y004516D01*
X002205Y004508D01*
X002198Y004500D01*
X002190Y004492D01*
X002190Y004491D01*
X002187Y004489D01*
X002182Y004485D01*
X002177Y004481D01*
X002171Y004477D01*
X002164Y004472D01*
X002157Y004468D01*
X002150Y004464D01*
X002149D01*
X002148Y004463D01*
X002146Y004463D01*
X002144Y004462D01*
X002138Y004459D01*
X002128Y004457D01*
X002117Y004455D01*
X002104Y004452D01*
X002088Y004451D01*
X002071Y004450D01*
X001942D01*
X001938Y004451D01*
X001933Y004451D01*
X001923Y004453D01*
X001917Y004455D01*
X001913Y004458D01*
X001913Y004459D01*
X001912Y004459D01*
X001911Y004461D01*
X001909Y004464D01*
X001905Y004471D01*
X001905Y004476D01*
X001904Y004481D01*
Y004481D01*
Y004483D01*
X001905Y004485D01*
X001905Y004489D01*
X001908Y004496D01*
X001910Y004500D01*
X001913Y004503D01*
X001914Y004504D01*
X001915Y004505D01*
X001917Y004506D01*
X001921Y004508D01*
X001925Y004509D01*
X001931Y004511D01*
X001938Y004511D01*
X001946Y004512D01*
Y004754D01*
X001942D01*
X001938Y004754D01*
X001933Y004755D01*
X001923Y004757D01*
X001917Y004759D01*
X001913Y004762D01*
X001913Y004762D01*
X001912Y004763D01*
X001911Y004765D01*
X001909Y004768D01*
X001905Y004775D01*
X001905Y004780D01*
X001904Y004784D01*
Y004785D01*
Y004787D01*
X001905Y004789D01*
X001905Y004792D01*
X001908Y004800D01*
X001910Y004804D01*
X001913Y004807D01*
X001914Y004808D01*
X001915Y004808D01*
X001917Y004810D01*
X001921Y004812D01*
X001925Y004813D01*
X001931Y004814D01*
X001938Y004815D01*
X001946Y004816D01*
X002076Y004815D01*
D02*
G37*
G36*
X001745Y004512D02*
X001812D01*
X001816Y004511D01*
X001821Y004511D01*
X001831Y004509D01*
X001836Y004506D01*
X001840Y004503D01*
X001841Y004503D01*
X001841Y004502D01*
X001843Y004500D01*
X001845Y004497D01*
X001849Y004490D01*
X001849Y004486D01*
X001850Y004481D01*
Y004480D01*
Y004479D01*
X001849Y004476D01*
X001849Y004473D01*
X001847Y004469D01*
X001846Y004465D01*
X001843Y004461D01*
X001840Y004458D01*
X001839D01*
X001838Y004457D01*
X001836Y004455D01*
X001833Y004454D01*
X001828Y004453D01*
X001823Y004451D01*
X001816Y004451D01*
X001808Y004450D01*
X001617D01*
X001613Y004451D01*
X001608Y004451D01*
X001598Y004453D01*
X001592Y004455D01*
X001588Y004458D01*
X001588Y004459D01*
X001587Y004459D01*
X001586Y004461D01*
X001584Y004464D01*
X001580Y004471D01*
X001580Y004476D01*
X001579Y004481D01*
Y004481D01*
Y004483D01*
X001580Y004485D01*
X001580Y004489D01*
X001583Y004496D01*
X001585Y004500D01*
X001588Y004503D01*
X001589Y004504D01*
X001590Y004505D01*
X001592Y004506D01*
X001596Y004508D01*
X001600Y004509D01*
X001606Y004511D01*
X001613Y004511D01*
X001621Y004512D01*
X001683D01*
Y004770D01*
X001628Y004755D01*
X001627D01*
X001626Y004754D01*
X001623Y004754D01*
X001621D01*
X001614Y004752D01*
X001608Y004752D01*
X001606D01*
X001604Y004752D01*
X001601Y004753D01*
X001594Y004756D01*
X001591Y004758D01*
X001588Y004761D01*
Y004762D01*
X001586Y004763D01*
X001585Y004765D01*
X001584Y004768D01*
X001581Y004774D01*
X001580Y004779D01*
X001580Y004784D01*
Y004784D01*
Y004786D01*
X001580Y004788D01*
Y004790D01*
X001582Y004797D01*
X001586Y004803D01*
X001586Y004804D01*
X001587Y004804D01*
X001589Y004806D01*
X001592Y004808D01*
X001595Y004810D01*
X001600Y004812D01*
X001606Y004814D01*
X001612Y004816D01*
X001745Y004850D01*
Y004512D01*
D02*
G37*
G36*
X005819D02*
X005885D01*
X005889Y004511D01*
X005894Y004511D01*
X005905Y004509D01*
X005909Y004506D01*
X005913Y004503D01*
X005914Y004503D01*
X005915Y004502D01*
X005917Y004500D01*
X005919Y004497D01*
X005922Y004490D01*
X005923Y004486D01*
X005923Y004481D01*
Y004480D01*
Y004479D01*
X005923Y004476D01*
X005922Y004473D01*
X005921Y004469D01*
X005919Y004465D01*
X005917Y004461D01*
X005913Y004458D01*
X005913D01*
X005911Y004457D01*
X005909Y004455D01*
X005906Y004454D01*
X005901Y004453D01*
X005896Y004451D01*
X005889Y004451D01*
X005881Y004450D01*
X005690D01*
X005686Y004451D01*
X005681Y004451D01*
X005671Y004453D01*
X005665Y004455D01*
X005661Y004458D01*
X005661Y004459D01*
X005660Y004459D01*
X005659Y004461D01*
X005657Y004464D01*
X005653Y004471D01*
X005653Y004476D01*
X005652Y004481D01*
Y004481D01*
Y004483D01*
X005653Y004485D01*
X005653Y004489D01*
X005656Y004496D01*
X005658Y004500D01*
X005661Y004503D01*
X005662Y004504D01*
X005663Y004505D01*
X005665Y004506D01*
X005669Y004508D01*
X005673Y004509D01*
X005679Y004511D01*
X005686Y004511D01*
X005694Y004512D01*
X005757D01*
Y004770D01*
X005701Y004755D01*
X005701D01*
X005699Y004754D01*
X005697Y004754D01*
X005694D01*
X005687Y004752D01*
X005681Y004752D01*
X005679D01*
X005677Y004752D01*
X005674Y004753D01*
X005667Y004756D01*
X005664Y004758D01*
X005661Y004761D01*
Y004762D01*
X005659Y004763D01*
X005658Y004765D01*
X005657Y004768D01*
X005654Y004774D01*
X005653Y004779D01*
X005653Y004784D01*
Y004784D01*
Y004786D01*
X005653Y004788D01*
Y004790D01*
X005655Y004797D01*
X005659Y004803D01*
X005659Y004804D01*
X005660Y004804D01*
X005662Y004806D01*
X005665Y004808D01*
X005668Y004810D01*
X005673Y004812D01*
X005679Y004814D01*
X005685Y004816D01*
X005819Y004850D01*
Y004512D01*
D02*
G37*
G36*
X003199Y004850D02*
X003204Y004849D01*
X003210Y004848D01*
X003217Y004848D01*
X003223Y004846D01*
X003239Y004842D01*
X003255Y004835D01*
X003263Y004831D01*
X003271Y004826D01*
X003278Y004821D01*
X003285Y004814D01*
X003286Y004814D01*
X003286Y004813D01*
X003288Y004811D01*
X003291Y004808D01*
X003294Y004804D01*
X003297Y004800D01*
X003304Y004790D01*
X003310Y004778D01*
X003316Y004763D01*
X003321Y004746D01*
X003322Y004738D01*
X003322Y004728D01*
Y004727D01*
Y004724D01*
X003322Y004719D01*
X003321Y004713D01*
X003320Y004706D01*
X003318Y004698D01*
X003315Y004690D01*
X003312Y004681D01*
X003311Y004680D01*
X003310Y004677D01*
X003306Y004672D01*
X003301Y004665D01*
X003294Y004656D01*
X003286Y004646D01*
X003275Y004634D01*
X003268Y004628D01*
X003261Y004620D01*
X003260Y004620D01*
X003259Y004619D01*
X003257Y004617D01*
X003254Y004615D01*
X003251Y004611D01*
X003246Y004607D01*
X003240Y004602D01*
X003233Y004596D01*
X003225Y004589D01*
X003217Y004581D01*
X003206Y004572D01*
X003195Y004562D01*
X003182Y004551D01*
X003169Y004539D01*
X003153Y004526D01*
X003137Y004512D01*
X003271D01*
X003272Y004513D01*
X003273Y004513D01*
X003275Y004515D01*
X003278Y004517D01*
X003284Y004520D01*
X003288Y004521D01*
X003292Y004521D01*
X003295D01*
X003297Y004521D01*
X003300Y004520D01*
X003304Y004519D01*
X003308Y004517D01*
X003311Y004515D01*
X003314Y004511D01*
X003315Y004511D01*
X003316Y004509D01*
X003317Y004507D01*
X003319Y004504D01*
X003320Y004499D01*
X003322Y004494D01*
X003322Y004488D01*
X003323Y004480D01*
Y004450D01*
X003042D01*
Y004515D01*
X003043Y004516D01*
X003044Y004517D01*
X003046Y004519D01*
X003049Y004521D01*
X003053Y004525D01*
X003057Y004529D01*
X003069Y004537D01*
X003081Y004549D01*
X003097Y004561D01*
X003113Y004575D01*
X003129Y004589D01*
X003164Y004619D01*
X003181Y004634D01*
X003197Y004648D01*
X003211Y004662D01*
X003224Y004674D01*
X003235Y004684D01*
X003239Y004688D01*
X003243Y004692D01*
X003243Y004693D01*
X003245Y004696D01*
X003249Y004700D01*
X003252Y004704D01*
X003255Y004710D01*
X003258Y004717D01*
X003260Y004724D01*
X003261Y004730D01*
Y004732D01*
Y004734D01*
X003259Y004738D01*
X003258Y004744D01*
X003256Y004750D01*
X003252Y004757D01*
X003247Y004764D01*
X003241Y004770D01*
X003240Y004771D01*
X003237Y004773D01*
X003233Y004776D01*
X003227Y004780D01*
X003219Y004782D01*
X003210Y004786D01*
X003200Y004788D01*
X003188Y004788D01*
X003183D01*
X003177Y004788D01*
X003169Y004786D01*
X003160Y004784D01*
X003151Y004780D01*
X003142Y004776D01*
X003133Y004769D01*
X003133Y004768D01*
X003131Y004767D01*
X003129Y004764D01*
X003127Y004761D01*
X003124Y004757D01*
X003121Y004752D01*
X003118Y004746D01*
X003115Y004738D01*
Y004738D01*
X003115Y004736D01*
X003113Y004734D01*
X003112Y004732D01*
X003108Y004726D01*
X003106Y004722D01*
X003103Y004720D01*
X003102Y004720D01*
X003099Y004718D01*
X003093Y004716D01*
X003085Y004715D01*
X003083D01*
X003081Y004716D01*
X003078Y004716D01*
X003071Y004719D01*
X003067Y004721D01*
X003063Y004724D01*
X003063Y004724D01*
X003062Y004726D01*
X003061Y004727D01*
X003059Y004730D01*
X003056Y004736D01*
X003055Y004740D01*
X003055Y004745D01*
Y004746D01*
Y004748D01*
X003055Y004752D01*
X003057Y004758D01*
X003059Y004764D01*
X003062Y004772D01*
X003066Y004780D01*
X003071Y004790D01*
X003072Y004792D01*
X003075Y004795D01*
X003078Y004800D01*
X003084Y004806D01*
X003091Y004813D01*
X003099Y004820D01*
X003109Y004827D01*
X003120Y004834D01*
X003121D01*
X003121Y004834D01*
X003123Y004835D01*
X003125Y004836D01*
X003132Y004839D01*
X003141Y004842D01*
X003151Y004845D01*
X003163Y004848D01*
X003175Y004850D01*
X003189Y004850D01*
X003195D01*
X003199Y004850D01*
D02*
G37*
G36*
X002482Y006515D02*
X002259D01*
Y006400D01*
X002418D01*
Y006325D01*
X002259D01*
Y006178D01*
X002482D01*
Y006100D01*
X002171D01*
Y006592D01*
X002482D01*
Y006515D01*
D02*
G37*
G36*
X001198Y006100D02*
X001101D01*
X001065Y006200D01*
X000896D01*
X000863Y006100D01*
X000766D01*
X000962Y006598D01*
X001000D01*
X001198Y006100D01*
D02*
G37*
G36*
X004032D02*
X003936D01*
X003899Y006200D01*
X003731D01*
X003698Y006100D01*
X003600D01*
X003797Y006598D01*
X003835D01*
X004032Y006100D01*
D02*
G37*
G36*
X003386Y006515D02*
X003222D01*
Y006100D01*
X003135D01*
Y006515D01*
X002978D01*
Y006592D01*
X003386D01*
Y006515D01*
D02*
G37*
G36*
X007602Y002338D02*
X007607D01*
X007620Y002336D01*
X007634Y002334D01*
X007650Y002331D01*
X007666Y002327D01*
X007681Y002321D01*
X007659Y002248D01*
X007658D01*
X007658Y002249D01*
X007656Y002250D01*
X007653Y002252D01*
X007646Y002255D01*
X007637Y002260D01*
X007626Y002264D01*
X007614Y002268D01*
X007600Y002270D01*
X007585Y002272D01*
X007582D01*
X007578Y002271D01*
X007574D01*
X007568Y002270D01*
X007562Y002268D01*
X007554Y002266D01*
X007546Y002264D01*
X007538Y002260D01*
X007528Y002256D01*
X007519Y002251D01*
X007510Y002245D01*
X007501Y002238D01*
X007491Y002229D01*
X007483Y002220D01*
X007474Y002208D01*
X007473Y002208D01*
X007472Y002206D01*
X007470Y002202D01*
X007467Y002197D01*
X007463Y002191D01*
X007460Y002184D01*
X007456Y002176D01*
X007452Y002167D01*
X007447Y002157D01*
X007443Y002146D01*
X007440Y002135D01*
X007437Y002122D01*
X007433Y002110D01*
X007431Y002096D01*
X007430Y002082D01*
X007429Y002069D01*
Y002068D01*
Y002067D01*
Y002064D01*
X007430Y002061D01*
Y002056D01*
X007431Y002051D01*
X007433Y002040D01*
X007435Y002027D01*
X007439Y002015D01*
X007445Y002001D01*
X007453Y001989D01*
X007455Y001988D01*
X007458Y001985D01*
X007463Y001980D01*
X007471Y001975D01*
X007481Y001969D01*
X007493Y001965D01*
X007506Y001961D01*
X007513Y001961D01*
X007521Y001960D01*
X007528D01*
X007532Y001961D01*
X007538Y001961D01*
X007544Y001962D01*
X007552Y001963D01*
X007560Y001965D01*
X007577Y001969D01*
X007595Y001975D01*
X007604Y001979D01*
X007612Y001984D01*
X007620Y001990D01*
X007628Y001996D01*
X007626Y001929D01*
X007625Y001928D01*
X007624Y001927D01*
X007622Y001925D01*
X007618Y001923D01*
X007614Y001921D01*
X007608Y001917D01*
X007602Y001914D01*
X007595Y001911D01*
X007587Y001907D01*
X007578Y001904D01*
X007568Y001901D01*
X007558Y001898D01*
X007546Y001896D01*
X007534Y001894D01*
X007520Y001893D01*
X007506Y001893D01*
X007499D01*
X007494Y001893D01*
X007488Y001894D01*
X007481Y001895D01*
X007474Y001897D01*
X007465Y001899D01*
X007457Y001901D01*
X007447Y001904D01*
X007438Y001907D01*
X007429Y001912D01*
X007419Y001917D01*
X007410Y001923D01*
X007401Y001931D01*
X007393Y001939D01*
X007392Y001939D01*
X007391Y001941D01*
X007389Y001943D01*
X007386Y001947D01*
X007383Y001951D01*
X007379Y001957D01*
X007375Y001963D01*
X007371Y001971D01*
X007367Y001979D01*
X007363Y001988D01*
X007360Y001998D01*
X007357Y002009D01*
X007354Y002020D01*
X007352Y002032D01*
X007351Y002045D01*
X007350Y002058D01*
Y002059D01*
Y002059D01*
Y002063D01*
X007351Y002069D01*
X007351Y002078D01*
X007352Y002088D01*
X007353Y002100D01*
X007355Y002113D01*
X007358Y002128D01*
X007362Y002143D01*
X007366Y002159D01*
X007371Y002176D01*
X007378Y002192D01*
X007385Y002209D01*
X007394Y002226D01*
X007405Y002242D01*
X007416Y002258D01*
X007417Y002258D01*
X007419Y002261D01*
X007423Y002265D01*
X007428Y002270D01*
X007435Y002276D01*
X007443Y002283D01*
X007452Y002290D01*
X007463Y002298D01*
X007474Y002306D01*
X007487Y002313D01*
X007501Y002320D01*
X007516Y002326D01*
X007533Y002331D01*
X007550Y002335D01*
X007569Y002338D01*
X007588Y002338D01*
X007597D01*
X007602Y002338D01*
D02*
G37*
G36*
X010397D02*
X010405Y002337D01*
X010414Y002336D01*
X010424Y002335D01*
X010436Y002333D01*
X010438D01*
X010442Y002332D01*
X010448Y002331D01*
X010455Y002330D01*
X010470Y002326D01*
X010477Y002324D01*
X010483Y002322D01*
X010459Y002246D01*
X010458D01*
X010458Y002247D01*
X010456Y002248D01*
X010453Y002250D01*
X010446Y002254D01*
X010438Y002258D01*
X010427Y002263D01*
X010416Y002267D01*
X010403Y002270D01*
X010390Y002271D01*
X010387D01*
X010383Y002270D01*
X010379D01*
X010374Y002270D01*
X010368Y002268D01*
X010355Y002264D01*
X010348Y002262D01*
X010342Y002258D01*
X010336Y002254D01*
X010330Y002248D01*
X010326Y002242D01*
X010323Y002235D01*
X010320Y002226D01*
X010320Y002217D01*
Y002216D01*
X010320Y002213D01*
X010322Y002208D01*
X010324Y002202D01*
X010329Y002194D01*
X010336Y002185D01*
X010340Y002180D01*
X010345Y002174D01*
X010350Y002169D01*
X010357Y002163D01*
X010401Y002125D01*
X010402Y002124D01*
X010404Y002122D01*
X010408Y002119D01*
X010412Y002115D01*
X010422Y002107D01*
X010426Y002102D01*
X010430Y002099D01*
X010430Y002098D01*
X010431Y002098D01*
X010433Y002096D01*
X010435Y002093D01*
X010437Y002090D01*
X010440Y002086D01*
X010446Y002076D01*
X010447Y002076D01*
X010448Y002074D01*
X010450Y002071D01*
X010451Y002068D01*
X010454Y002063D01*
X010456Y002059D01*
X010460Y002048D01*
Y002047D01*
X010460Y002045D01*
X010461Y002043D01*
X010462Y002039D01*
X010463Y002034D01*
X010464Y002029D01*
X010464Y002018D01*
Y002017D01*
Y002015D01*
Y002012D01*
X010464Y002008D01*
X010463Y002003D01*
X010462Y001997D01*
X010459Y001984D01*
X010454Y001969D01*
X010450Y001961D01*
X010446Y001954D01*
X010440Y001946D01*
X010434Y001939D01*
X010428Y001932D01*
X010420Y001925D01*
X010419Y001925D01*
X010418Y001924D01*
X010415Y001923D01*
X010412Y001920D01*
X010407Y001918D01*
X010402Y001915D01*
X010396Y001912D01*
X010389Y001909D01*
X010381Y001906D01*
X010372Y001903D01*
X010363Y001900D01*
X010353Y001898D01*
X010342Y001896D01*
X010330Y001894D01*
X010318Y001893D01*
X010305Y001893D01*
X010299D01*
X010295Y001893D01*
X010290D01*
X010284Y001894D01*
X010277Y001895D01*
X010270Y001896D01*
X010253Y001899D01*
X010234Y001903D01*
X010215Y001909D01*
X010196Y001918D01*
X010220Y001993D01*
X010221D01*
X010222Y001992D01*
X010224Y001991D01*
X010227Y001989D01*
X010231Y001987D01*
X010236Y001984D01*
X010241Y001981D01*
X010246Y001979D01*
X010260Y001973D01*
X010276Y001968D01*
X010293Y001965D01*
X010302Y001964D01*
X010312Y001963D01*
X010317D01*
X010323Y001964D01*
X010330Y001965D01*
X010338Y001967D01*
X010347Y001969D01*
X010356Y001972D01*
X010364Y001977D01*
X010364Y001977D01*
X010367Y001979D01*
X010370Y001982D01*
X010374Y001987D01*
X010378Y001992D01*
X010382Y001999D01*
X010384Y002006D01*
X010385Y002015D01*
Y002016D01*
X010384Y002019D01*
X010383Y002024D01*
X010380Y002031D01*
X010376Y002039D01*
X010373Y002043D01*
X010369Y002048D01*
X010364Y002053D01*
X010360Y002058D01*
X010354Y002063D01*
X010347Y002069D01*
X010301Y002105D01*
X010300Y002106D01*
X010298Y002108D01*
X010294Y002111D01*
X010290Y002114D01*
X010280Y002123D01*
X010276Y002126D01*
X010272Y002130D01*
Y002130D01*
X010271Y002131D01*
X010270Y002133D01*
X010268Y002136D01*
X010262Y002142D01*
X010256Y002151D01*
Y002152D01*
X010255Y002154D01*
X010254Y002156D01*
X010252Y002160D01*
X010248Y002169D01*
X010244Y002179D01*
Y002180D01*
X010244Y002182D01*
X010243Y002184D01*
X010242Y002188D01*
X010242Y002193D01*
X010241Y002198D01*
X010240Y002209D01*
Y002210D01*
Y002212D01*
Y002215D01*
X010241Y002219D01*
X010242Y002224D01*
X010242Y002230D01*
X010245Y002243D01*
X010250Y002258D01*
X010253Y002266D01*
X010257Y002274D01*
X010262Y002282D01*
X010267Y002289D01*
X010273Y002296D01*
X010280Y002303D01*
X010280Y002304D01*
X010282Y002304D01*
X010284Y002306D01*
X010287Y002308D01*
X010291Y002311D01*
X010296Y002314D01*
X010301Y002318D01*
X010307Y002321D01*
X010314Y002324D01*
X010322Y002327D01*
X010330Y002330D01*
X010340Y002333D01*
X010360Y002337D01*
X010371Y002338D01*
X010382Y002338D01*
X010391D01*
X010397Y002338D01*
D02*
G37*
G36*
X000758Y006515D02*
X000594D01*
Y006100D01*
X000507D01*
Y006515D01*
X000350D01*
Y006592D01*
X000758D01*
Y006515D01*
D02*
G37*
G36*
X005383Y006600D02*
X005391D01*
X005400Y006598D01*
X005410Y006597D01*
X005421Y006595D01*
X005433Y006592D01*
X005446Y006589D01*
X005459Y006585D01*
X005473Y006579D01*
X005487Y006573D01*
X005500Y006565D01*
X005513Y006557D01*
X005524Y006546D01*
X005535Y006535D01*
X005536Y006534D01*
X005538Y006531D01*
X005541Y006528D01*
X005545Y006522D01*
X005548Y006516D01*
X005553Y006508D01*
X005558Y006498D01*
X005564Y006487D01*
X005569Y006474D01*
X005574Y006461D01*
X005579Y006445D01*
X005583Y006429D01*
X005586Y006411D01*
X005589Y006392D01*
X005591Y006372D01*
X005592Y006350D01*
Y006348D01*
Y006344D01*
Y006338D01*
X005591Y006330D01*
X005590Y006320D01*
X005589Y006309D01*
X005586Y006296D01*
X005584Y006282D01*
X005581Y006267D01*
X005577Y006251D01*
X005573Y006235D01*
X005567Y006220D01*
X005560Y006204D01*
X005552Y006189D01*
X005543Y006175D01*
X005532Y006161D01*
X005532Y006160D01*
X005529Y006158D01*
X005526Y006155D01*
X005522Y006150D01*
X005516Y006145D01*
X005508Y006139D01*
X005500Y006133D01*
X005490Y006127D01*
X005478Y006120D01*
X005466Y006114D01*
X005452Y006108D01*
X005438Y006102D01*
X005422Y006098D01*
X005405Y006095D01*
X005386Y006092D01*
X005367Y006092D01*
X005362D01*
X005357Y006092D01*
X005351D01*
X005342Y006094D01*
X005332Y006095D01*
X005322Y006098D01*
X005310Y006100D01*
X005298Y006104D01*
X005286Y006108D01*
X005273Y006114D01*
X005261Y006121D01*
X005248Y006128D01*
X005236Y006137D01*
X005225Y006148D01*
X005214Y006160D01*
X005214Y006161D01*
X005212Y006163D01*
X005210Y006167D01*
X005206Y006173D01*
X005202Y006180D01*
X005198Y006188D01*
X005193Y006198D01*
X005188Y006210D01*
X005183Y006223D01*
X005179Y006237D01*
X005174Y006252D01*
X005170Y006269D01*
X005166Y006287D01*
X005164Y006307D01*
X005163Y006328D01*
X005162Y006350D01*
Y006351D01*
Y006354D01*
X005163Y006360D01*
Y006367D01*
X005163Y006376D01*
X005165Y006387D01*
X005166Y006398D01*
X005169Y006411D01*
X005172Y006425D01*
X005175Y006439D01*
X005180Y006454D01*
X005186Y006469D01*
X005192Y006484D01*
X005200Y006499D01*
X005209Y006514D01*
X005219Y006528D01*
X005220Y006528D01*
X005222Y006531D01*
X005225Y006535D01*
X005230Y006539D01*
X005236Y006544D01*
X005242Y006551D01*
X005251Y006557D01*
X005260Y006564D01*
X005271Y006571D01*
X005282Y006578D01*
X005295Y006584D01*
X005309Y006589D01*
X005323Y006594D01*
X005339Y006598D01*
X005356Y006600D01*
X005373Y006601D01*
X005378D01*
X005383Y006600D01*
D02*
G37*
G36*
X004693Y006595D02*
X004701D01*
X004709Y006593D01*
X004720Y006592D01*
X004732Y006590D01*
X004744Y006588D01*
X004758Y006584D01*
X004771Y006580D01*
X004786Y006575D01*
X004800Y006569D01*
X004814Y006562D01*
X004828Y006553D01*
X004841Y006544D01*
X004854Y006532D01*
X004854Y006531D01*
X004857Y006529D01*
X004860Y006525D01*
X004863Y006521D01*
X004868Y006515D01*
X004873Y006507D01*
X004879Y006498D01*
X004886Y006487D01*
X004891Y006476D01*
X004897Y006464D01*
X004902Y006450D01*
X004907Y006435D01*
X004911Y006419D01*
X004914Y006402D01*
X004916Y006384D01*
X004917Y006365D01*
Y006364D01*
Y006362D01*
Y006358D01*
X004916Y006353D01*
Y006347D01*
X004915Y006340D01*
X004914Y006332D01*
X004913Y006324D01*
X004911Y006314D01*
X004909Y006303D01*
X004903Y006281D01*
X004895Y006257D01*
X004885Y006232D01*
X004879Y006220D01*
X004871Y006208D01*
X004863Y006196D01*
X004854Y006184D01*
X004844Y006172D01*
X004834Y006162D01*
X004822Y006151D01*
X004809Y006141D01*
X004794Y006133D01*
X004779Y006124D01*
X004763Y006118D01*
X004745Y006111D01*
X004726Y006107D01*
X004705Y006103D01*
X004684Y006101D01*
X004660Y006100D01*
X004551D01*
Y006592D01*
X004561D01*
X004568Y006592D01*
X004577D01*
X004586Y006593D01*
X004596D01*
X004607Y006594D01*
X004629D01*
X004650Y006595D01*
X004660Y006595D01*
X004687D01*
X004693Y006595D01*
D02*
G37*
G36*
X001948Y006600D02*
X001955Y006599D01*
X001963Y006598D01*
X001972Y006597D01*
X001982Y006595D01*
X002004Y006589D01*
X002015Y006585D01*
X002026Y006580D01*
X002038Y006575D01*
X002050Y006568D01*
X002061Y006560D01*
X002072Y006552D01*
X002035Y006481D01*
X002034Y006482D01*
X002032Y006484D01*
X002028Y006487D01*
X002023Y006490D01*
X002017Y006494D01*
X002008Y006499D01*
X001998Y006503D01*
X001987Y006509D01*
X001985Y006509D01*
X001982Y006511D01*
X001975Y006513D01*
X001968Y006516D01*
X001960Y006519D01*
X001950Y006521D01*
X001941Y006522D01*
X001932Y006523D01*
X001925D01*
X001920Y006522D01*
X001914Y006522D01*
X001907Y006521D01*
X001899Y006519D01*
X001891Y006517D01*
X001873Y006511D01*
X001863Y006507D01*
X001854Y006503D01*
X001844Y006496D01*
X001835Y006490D01*
X001826Y006482D01*
X001818Y006474D01*
X001817Y006473D01*
X001816Y006471D01*
X001814Y006468D01*
X001811Y006465D01*
X001808Y006460D01*
X001805Y006454D01*
X001801Y006446D01*
X001797Y006439D01*
X001793Y006430D01*
X001789Y006420D01*
X001786Y006409D01*
X001783Y006397D01*
X001780Y006385D01*
X001778Y006371D01*
X001777Y006356D01*
X001776Y006341D01*
Y006340D01*
Y006337D01*
Y006334D01*
X001777Y006328D01*
X001778Y006321D01*
X001778Y006314D01*
X001780Y006305D01*
X001781Y006296D01*
X001786Y006276D01*
X001794Y006255D01*
X001798Y006245D01*
X001804Y006235D01*
X001810Y006225D01*
X001817Y006216D01*
X001818Y006215D01*
X001819Y006213D01*
X001822Y006211D01*
X001825Y006209D01*
X001829Y006205D01*
X001834Y006201D01*
X001840Y006197D01*
X001847Y006193D01*
X001855Y006188D01*
X001863Y006184D01*
X001872Y006180D01*
X001882Y006177D01*
X001893Y006174D01*
X001904Y006172D01*
X001916Y006170D01*
X001929Y006169D01*
X001934D01*
X001937Y006170D01*
X001945Y006171D01*
X001956Y006172D01*
X001968Y006175D01*
X001981Y006180D01*
X001994Y006186D01*
X002006Y006194D01*
Y006292D01*
X001937D01*
Y006366D01*
X002093D01*
Y006146D01*
X002092Y006145D01*
X002087Y006141D01*
X002081Y006137D01*
X002071Y006131D01*
X002059Y006124D01*
X002046Y006118D01*
X002030Y006111D01*
X002012Y006105D01*
X002011D01*
X002010Y006105D01*
X002007Y006104D01*
X002004Y006103D01*
X001999Y006102D01*
X001994Y006101D01*
X001982Y006098D01*
X001967Y006096D01*
X001950Y006094D01*
X001933Y006092D01*
X001915Y006092D01*
X001910D01*
X001905Y006092D01*
X001897D01*
X001888Y006094D01*
X001878Y006095D01*
X001867Y006098D01*
X001854Y006100D01*
X001841Y006104D01*
X001827Y006108D01*
X001813Y006114D01*
X001800Y006121D01*
X001785Y006129D01*
X001772Y006138D01*
X001759Y006149D01*
X001747Y006161D01*
X001746Y006162D01*
X001745Y006164D01*
X001742Y006168D01*
X001737Y006174D01*
X001733Y006181D01*
X001727Y006189D01*
X001722Y006199D01*
X001717Y006210D01*
X001711Y006223D01*
X001705Y006236D01*
X001700Y006251D01*
X001695Y006267D01*
X001692Y006285D01*
X001689Y006304D01*
X001686Y006324D01*
X001686Y006344D01*
Y006346D01*
Y006350D01*
X001686Y006355D01*
Y006363D01*
X001688Y006372D01*
X001689Y006384D01*
X001691Y006397D01*
X001694Y006410D01*
X001698Y006424D01*
X001702Y006439D01*
X001708Y006455D01*
X001714Y006470D01*
X001721Y006486D01*
X001730Y006501D01*
X001741Y006516D01*
X001753Y006529D01*
X001753Y006530D01*
X001756Y006532D01*
X001759Y006536D01*
X001765Y006541D01*
X001772Y006546D01*
X001780Y006552D01*
X001790Y006558D01*
X001800Y006565D01*
X001813Y006572D01*
X001826Y006578D01*
X001842Y006584D01*
X001858Y006589D01*
X001875Y006594D01*
X001894Y006598D01*
X001914Y006600D01*
X001934Y006601D01*
X001942D01*
X001948Y006600D01*
D02*
G37*
G36*
X006656Y006093D02*
X006620D01*
X006381Y006405D01*
Y006100D01*
X006297D01*
Y006592D01*
X006339D01*
X006572Y006295D01*
Y006592D01*
X006656D01*
Y006093D01*
D02*
G37*
G36*
X006972Y006600D02*
X006979D01*
X006987Y006599D01*
X006997Y006598D01*
X007006Y006596D01*
X007029Y006592D01*
X007051Y006586D01*
X007073Y006578D01*
X007084Y006573D01*
X007094Y006566D01*
X007057Y006494D01*
X007056Y006496D01*
X007052Y006499D01*
X007045Y006503D01*
X007040Y006506D01*
X007035Y006509D01*
X007029Y006512D01*
X007022Y006514D01*
X007014Y006516D01*
X007006Y006519D01*
X006996Y006521D01*
X006986Y006522D01*
X006975Y006523D01*
X006957D01*
X006953Y006522D01*
X006948Y006522D01*
X006942Y006520D01*
X006927Y006517D01*
X006911Y006510D01*
X006903Y006506D01*
X006895Y006501D01*
X006886Y006496D01*
X006878Y006488D01*
X006869Y006481D01*
X006862Y006471D01*
X006861Y006471D01*
X006860Y006469D01*
X006858Y006466D01*
X006856Y006462D01*
X006853Y006457D01*
X006850Y006451D01*
X006846Y006444D01*
X006843Y006436D01*
X006839Y006426D01*
X006835Y006417D01*
X006832Y006406D01*
X006829Y006395D01*
X006827Y006382D01*
X006825Y006369D01*
X006824Y006355D01*
X006823Y006340D01*
Y006340D01*
Y006337D01*
Y006333D01*
X006824Y006328D01*
Y006321D01*
X006825Y006313D01*
X006826Y006305D01*
X006828Y006295D01*
X006832Y006275D01*
X006838Y006254D01*
X006847Y006234D01*
X006854Y006224D01*
X006860Y006215D01*
X006860Y006214D01*
X006861Y006213D01*
X006863Y006210D01*
X006866Y006208D01*
X006870Y006204D01*
X006874Y006200D01*
X006885Y006192D01*
X006899Y006184D01*
X006916Y006176D01*
X006926Y006174D01*
X006936Y006172D01*
X006946Y006170D01*
X006957Y006169D01*
X006964D01*
X006968Y006170D01*
X006975Y006171D01*
X006981Y006172D01*
X006997Y006175D01*
X007014Y006181D01*
X007023Y006185D01*
X007032Y006190D01*
X007041Y006196D01*
X007050Y006203D01*
X007058Y006210D01*
X007066Y006219D01*
X007107Y006149D01*
X007106Y006148D01*
X007105Y006146D01*
X007102Y006143D01*
X007097Y006140D01*
X007091Y006136D01*
X007084Y006130D01*
X007076Y006126D01*
X007067Y006121D01*
X007057Y006115D01*
X007045Y006110D01*
X007032Y006105D01*
X007018Y006101D01*
X007003Y006097D01*
X006987Y006094D01*
X006969Y006092D01*
X006950Y006092D01*
X006946D01*
X006940Y006092D01*
X006933D01*
X006924Y006094D01*
X006914Y006095D01*
X006903Y006097D01*
X006892Y006100D01*
X006879Y006104D01*
X006866Y006108D01*
X006852Y006114D01*
X006839Y006121D01*
X006825Y006128D01*
X006813Y006137D01*
X006801Y006147D01*
X006790Y006159D01*
X006789Y006160D01*
X006787Y006162D01*
X006784Y006166D01*
X006780Y006172D01*
X006777Y006178D01*
X006771Y006187D01*
X006767Y006197D01*
X006761Y006208D01*
X006756Y006220D01*
X006751Y006234D01*
X006745Y006249D01*
X006742Y006266D01*
X006738Y006283D01*
X006735Y006302D01*
X006733Y006323D01*
X006733Y006344D01*
Y006346D01*
Y006349D01*
X006733Y006355D01*
Y006363D01*
X006735Y006372D01*
X006736Y006383D01*
X006738Y006395D01*
X006740Y006408D01*
X006744Y006423D01*
X006748Y006437D01*
X006753Y006452D01*
X006759Y006468D01*
X006767Y006483D01*
X006775Y006498D01*
X006784Y006513D01*
X006796Y006527D01*
X006796Y006528D01*
X006799Y006530D01*
X006803Y006534D01*
X006807Y006538D01*
X006813Y006544D01*
X006821Y006551D01*
X006830Y006557D01*
X006840Y006564D01*
X006850Y006571D01*
X006863Y006577D01*
X006876Y006584D01*
X006891Y006589D01*
X006906Y006594D01*
X006923Y006598D01*
X006939Y006600D01*
X006958Y006601D01*
X006966D01*
X006972Y006600D01*
D02*
G37*
G36*
X006093D02*
X006099D01*
X006108Y006599D01*
X006117Y006598D01*
X006127Y006596D01*
X006149Y006592D01*
X006172Y006586D01*
X006194Y006578D01*
X006204Y006573D01*
X006214Y006566D01*
X006178Y006494D01*
X006176Y006496D01*
X006172Y006499D01*
X006165Y006503D01*
X006160Y006506D01*
X006155Y006509D01*
X006149Y006512D01*
X006142Y006514D01*
X006134Y006516D01*
X006126Y006519D01*
X006116Y006521D01*
X006106Y006522D01*
X006096Y006523D01*
X006077D01*
X006073Y006522D01*
X006068Y006522D01*
X006062Y006520D01*
X006048Y006517D01*
X006032Y006510D01*
X006023Y006506D01*
X006015Y006501D01*
X006007Y006496D01*
X005998Y006488D01*
X005990Y006481D01*
X005982Y006471D01*
X005981Y006471D01*
X005981Y006469D01*
X005978Y006466D01*
X005976Y006462D01*
X005973Y006457D01*
X005970Y006451D01*
X005966Y006444D01*
X005963Y006436D01*
X005959Y006426D01*
X005956Y006417D01*
X005952Y006406D01*
X005949Y006395D01*
X005947Y006382D01*
X005945Y006369D01*
X005944Y006355D01*
X005943Y006340D01*
Y006340D01*
Y006337D01*
Y006333D01*
X005944Y006328D01*
Y006321D01*
X005946Y006313D01*
X005946Y006305D01*
X005948Y006295D01*
X005952Y006275D01*
X005959Y006254D01*
X005968Y006234D01*
X005974Y006224D01*
X005980Y006215D01*
X005981Y006214D01*
X005981Y006213D01*
X005984Y006210D01*
X005987Y006208D01*
X005991Y006204D01*
X005994Y006200D01*
X006006Y006192D01*
X006019Y006184D01*
X006036Y006176D01*
X006046Y006174D01*
X006056Y006172D01*
X006066Y006170D01*
X006077Y006169D01*
X006084D01*
X006089Y006170D01*
X006095Y006171D01*
X006102Y006172D01*
X006117Y006175D01*
X006134Y006181D01*
X006143Y006185D01*
X006153Y006190D01*
X006162Y006196D01*
X006170Y006203D01*
X006179Y006210D01*
X006186Y006219D01*
X006227Y006149D01*
X006226Y006148D01*
X006225Y006146D01*
X006222Y006143D01*
X006217Y006140D01*
X006211Y006136D01*
X006204Y006130D01*
X006197Y006126D01*
X006188Y006121D01*
X006177Y006115D01*
X006166Y006110D01*
X006153Y006105D01*
X006138Y006101D01*
X006123Y006097D01*
X006107Y006094D01*
X006089Y006092D01*
X006070Y006092D01*
X006066D01*
X006061Y006092D01*
X006054D01*
X006045Y006094D01*
X006035Y006095D01*
X006023Y006097D01*
X006012Y006100D01*
X005999Y006104D01*
X005986Y006108D01*
X005972Y006114D01*
X005959Y006121D01*
X005946Y006128D01*
X005933Y006137D01*
X005921Y006147D01*
X005910Y006159D01*
X005909Y006160D01*
X005908Y006162D01*
X005905Y006166D01*
X005901Y006172D01*
X005897Y006178D01*
X005892Y006187D01*
X005887Y006197D01*
X005882Y006208D01*
X005876Y006220D01*
X005871Y006234D01*
X005866Y006249D01*
X005862Y006266D01*
X005858Y006283D01*
X005855Y006302D01*
X005854Y006323D01*
X005853Y006344D01*
Y006346D01*
Y006349D01*
X005854Y006355D01*
Y006363D01*
X005855Y006372D01*
X005856Y006383D01*
X005858Y006395D01*
X005860Y006408D01*
X005864Y006423D01*
X005868Y006437D01*
X005873Y006452D01*
X005879Y006468D01*
X005887Y006483D01*
X005895Y006498D01*
X005905Y006513D01*
X005916Y006527D01*
X005917Y006528D01*
X005919Y006530D01*
X005923Y006534D01*
X005927Y006538D01*
X005933Y006544D01*
X005941Y006551D01*
X005950Y006557D01*
X005960Y006564D01*
X005971Y006571D01*
X005984Y006577D01*
X005997Y006584D01*
X006011Y006589D01*
X006026Y006594D01*
X006043Y006598D01*
X006060Y006600D01*
X006078Y006601D01*
X006086D01*
X006093Y006600D01*
D02*
G37*
G36*
X004450Y006253D02*
Y006252D01*
Y006250D01*
Y006246D01*
X004450Y006241D01*
X004449Y006234D01*
X004447Y006227D01*
X004446Y006219D01*
X004444Y006210D01*
X004438Y006191D01*
X004434Y006181D01*
X004429Y006171D01*
X004423Y006162D01*
X004416Y006152D01*
X004408Y006143D01*
X004399Y006134D01*
X004399Y006133D01*
X004397Y006133D01*
X004394Y006130D01*
X004390Y006127D01*
X004385Y006124D01*
X004379Y006121D01*
X004371Y006117D01*
X004364Y006113D01*
X004354Y006109D01*
X004344Y006105D01*
X004332Y006102D01*
X004320Y006098D01*
X004307Y006095D01*
X004293Y006093D01*
X004278Y006092D01*
X004263Y006092D01*
X004255D01*
X004249Y006092D01*
X004242Y006093D01*
X004233Y006094D01*
X004224Y006095D01*
X004214Y006097D01*
X004194Y006102D01*
X004172Y006109D01*
X004161Y006114D01*
X004150Y006120D01*
X004141Y006126D01*
X004131Y006133D01*
X004131Y006134D01*
X004129Y006136D01*
X004127Y006138D01*
X004125Y006141D01*
X004121Y006146D01*
X004117Y006151D01*
X004112Y006157D01*
X004109Y006164D01*
X004104Y006172D01*
X004099Y006181D01*
X004096Y006191D01*
X004093Y006202D01*
X004090Y006213D01*
X004087Y006226D01*
X004086Y006239D01*
X004085Y006254D01*
Y006592D01*
X004173D01*
Y006258D01*
Y006258D01*
Y006257D01*
Y006254D01*
X004173Y006251D01*
X004174Y006245D01*
X004176Y006235D01*
X004179Y006225D01*
X004182Y006214D01*
X004188Y006204D01*
X004196Y006194D01*
X004198Y006193D01*
X004201Y006190D01*
X004206Y006186D01*
X004214Y006181D01*
X004223Y006177D01*
X004234Y006173D01*
X004248Y006170D01*
X004262Y006169D01*
X004267D01*
X004270Y006170D01*
X004278Y006171D01*
X004289Y006172D01*
X004301Y006175D01*
X004313Y006180D01*
X004325Y006185D01*
X004336Y006194D01*
X004338Y006195D01*
X004341Y006198D01*
X004344Y006204D01*
X004350Y006211D01*
X004354Y006220D01*
X004359Y006232D01*
X004362Y006245D01*
X004363Y006260D01*
Y006592D01*
X004450D01*
Y006253D01*
D02*
G37*
G36*
X005083Y006100D02*
X004995D01*
Y006592D01*
X005083D01*
Y006100D01*
D02*
G37*
G36*
X002921Y006093D02*
X002885D01*
X002646Y006405D01*
Y006100D01*
X002562D01*
Y006592D01*
X002604D01*
X002837Y006295D01*
Y006592D01*
X002921D01*
Y006093D01*
D02*
G37*
G36*
X001609D02*
X001573D01*
X001334Y006405D01*
Y006100D01*
X001250D01*
Y006592D01*
X001292D01*
X001525Y006295D01*
Y006592D01*
X001609D01*
Y006093D01*
D02*
G37*
G36*
X009519Y001894D02*
X009489D01*
X009331Y002172D01*
X009283Y001900D01*
X009207D01*
X009287Y002331D01*
X009322D01*
X009477Y002064D01*
X009524Y002331D01*
X009600D01*
X009519Y001894D01*
D02*
G37*
G36*
X008677Y002334D02*
X008683D01*
X008690Y002334D01*
X008697Y002333D01*
X008706Y002332D01*
X008723Y002328D01*
X008742Y002324D01*
X008759Y002317D01*
X008768Y002312D01*
X008776Y002308D01*
X008777D01*
X008778Y002306D01*
X008780Y002305D01*
X008783Y002303D01*
X008789Y002296D01*
X008797Y002288D01*
X008804Y002277D01*
X008811Y002264D01*
X008813Y002256D01*
X008815Y002248D01*
X008816Y002240D01*
X008817Y002230D01*
Y002230D01*
Y002228D01*
Y002225D01*
X008816Y002222D01*
Y002217D01*
X008815Y002212D01*
X008813Y002200D01*
X008809Y002186D01*
X008804Y002170D01*
X008797Y002155D01*
X008792Y002148D01*
X008787Y002140D01*
Y002140D01*
X008785Y002139D01*
X008783Y002137D01*
X008781Y002134D01*
X008775Y002128D01*
X008766Y002120D01*
X008755Y002112D01*
X008741Y002103D01*
X008725Y002096D01*
X008708Y002090D01*
X008804Y001900D01*
X008718D01*
X008636Y002078D01*
X008633D01*
X008628Y002078D01*
X008623D01*
X008615Y002079D01*
X008607Y002080D01*
X008597Y002080D01*
X008587Y002081D01*
X008553Y001900D01*
X008475D01*
X008553Y002331D01*
X008557D01*
X008561Y002332D01*
X008574D01*
X008582Y002332D01*
X008591D01*
X008599Y002333D01*
X008619Y002334D01*
X008637Y002334D01*
X008645D01*
X008653Y002335D01*
X008673D01*
X008677Y002334D01*
D02*
G37*
G36*
X009191Y002264D02*
X008994D01*
X008976Y002164D01*
X009118D01*
X009105Y002100D01*
X008963D01*
X008939Y001967D01*
X009134D01*
X009122Y001900D01*
X008848D01*
X008927Y002331D01*
X009204D01*
X009191Y002264D01*
D02*
G37*
G36*
X000613Y005950D02*
X000619Y005949D01*
X000628Y005948D01*
X000636Y005947D01*
X000646Y005945D01*
X000668Y005939D01*
X000680Y005935D01*
X000691Y005930D01*
X000702Y005925D01*
X000715Y005918D01*
X000726Y005910D01*
X000737Y005902D01*
X000699Y005831D01*
X000699Y005832D01*
X000696Y005834D01*
X000692Y005837D01*
X000688Y005840D01*
X000681Y005844D01*
X000673Y005849D01*
X000663Y005853D01*
X000651Y005859D01*
X000650Y005859D01*
X000646Y005861D01*
X000640Y005863D01*
X000632Y005866D01*
X000624Y005869D01*
X000615Y005871D01*
X000606Y005872D01*
X000597Y005873D01*
X000590D01*
X000584Y005872D01*
X000578Y005872D01*
X000571Y005871D01*
X000564Y005869D01*
X000555Y005867D01*
X000537Y005861D01*
X000527Y005857D01*
X000518Y005853D01*
X000508Y005846D01*
X000499Y005840D01*
X000491Y005832D01*
X000482Y005824D01*
X000482Y005823D01*
X000481Y005821D01*
X000479Y005818D01*
X000476Y005815D01*
X000473Y005810D01*
X000469Y005804D01*
X000466Y005796D01*
X000462Y005789D01*
X000457Y005780D01*
X000454Y005770D01*
X000450Y005759D01*
X000447Y005747D01*
X000444Y005735D01*
X000442Y005721D01*
X000441Y005706D01*
X000441Y005691D01*
Y005690D01*
Y005687D01*
Y005684D01*
X000441Y005678D01*
X000442Y005671D01*
X000443Y005664D01*
X000444Y005655D01*
X000446Y005646D01*
X000450Y005626D01*
X000458Y005605D01*
X000463Y005595D01*
X000468Y005585D01*
X000475Y005575D01*
X000482Y005566D01*
X000482Y005565D01*
X000484Y005563D01*
X000486Y005561D01*
X000489Y005559D01*
X000493Y005555D01*
X000498Y005551D01*
X000504Y005547D01*
X000511Y005543D01*
X000519Y005538D01*
X000527Y005534D01*
X000536Y005530D01*
X000546Y005527D01*
X000557Y005524D01*
X000568Y005522D01*
X000581Y005520D01*
X000594Y005519D01*
X000598D01*
X000601Y005520D01*
X000609Y005521D01*
X000621Y005522D01*
X000632Y005525D01*
X000645Y005530D01*
X000658Y005536D01*
X000670Y005544D01*
Y005642D01*
X000602D01*
Y005716D01*
X000758D01*
Y005496D01*
X000756Y005495D01*
X000752Y005491D01*
X000745Y005487D01*
X000736Y005481D01*
X000724Y005474D01*
X000710Y005468D01*
X000694Y005461D01*
X000676Y005455D01*
X000676D01*
X000674Y005455D01*
X000672Y005454D01*
X000668Y005453D01*
X000664Y005452D01*
X000658Y005451D01*
X000646Y005448D01*
X000632Y005446D01*
X000615Y005444D01*
X000597Y005442D01*
X000579Y005442D01*
X000575D01*
X000569Y005442D01*
X000562D01*
X000552Y005444D01*
X000543Y005445D01*
X000531Y005448D01*
X000518Y005450D01*
X000505Y005454D01*
X000492Y005458D01*
X000478Y005464D01*
X000464Y005471D01*
X000450Y005479D01*
X000437Y005488D01*
X000424Y005499D01*
X000412Y005511D01*
X000411Y005512D01*
X000409Y005514D01*
X000406Y005518D01*
X000402Y005524D01*
X000397Y005531D01*
X000392Y005539D01*
X000387Y005549D01*
X000381Y005560D01*
X000375Y005573D01*
X000370Y005586D01*
X000364Y005601D01*
X000360Y005617D01*
X000356Y005635D01*
X000353Y005654D01*
X000351Y005674D01*
X000350Y005694D01*
Y005696D01*
Y005700D01*
X000351Y005705D01*
Y005713D01*
X000352Y005722D01*
X000354Y005734D01*
X000355Y005747D01*
X000358Y005760D01*
X000362Y005774D01*
X000367Y005789D01*
X000372Y005805D01*
X000378Y005820D01*
X000386Y005836D01*
X000395Y005851D01*
X000406Y005866D01*
X000417Y005879D01*
X000418Y005880D01*
X000420Y005882D01*
X000424Y005886D01*
X000429Y005891D01*
X000436Y005896D01*
X000444Y005902D01*
X000454Y005908D01*
X000465Y005915D01*
X000478Y005922D01*
X000491Y005928D01*
X000506Y005934D01*
X000522Y005939D01*
X000539Y005944D01*
X000559Y005948D01*
X000578Y005950D01*
X000599Y005951D01*
X000606D01*
X000613Y005950D01*
D02*
G37*
G36*
X008302Y002334D02*
X008308D01*
X008314Y002334D01*
X008322Y002333D01*
X008330Y002332D01*
X008348Y002328D01*
X008366Y002324D01*
X008384Y002317D01*
X008392Y002312D01*
X008400Y002308D01*
X008401D01*
X008402Y002306D01*
X008404Y002305D01*
X008407Y002303D01*
X008413Y002296D01*
X008421Y002288D01*
X008428Y002277D01*
X008435Y002264D01*
X008437Y002256D01*
X008439Y002248D01*
X008440Y002240D01*
X008441Y002230D01*
Y002230D01*
Y002228D01*
Y002225D01*
X008440Y002222D01*
Y002217D01*
X008440Y002212D01*
X008437Y002200D01*
X008434Y002186D01*
X008428Y002170D01*
X008421Y002155D01*
X008416Y002148D01*
X008411Y002140D01*
Y002140D01*
X008410Y002139D01*
X008408Y002137D01*
X008406Y002134D01*
X008399Y002128D01*
X008390Y002120D01*
X008379Y002112D01*
X008366Y002103D01*
X008350Y002096D01*
X008332Y002090D01*
X008428Y001900D01*
X008342D01*
X008260Y002078D01*
X008257D01*
X008252Y002078D01*
X008247D01*
X008240Y002079D01*
X008231Y002080D01*
X008222Y002080D01*
X008211Y002081D01*
X008178Y001900D01*
X008099D01*
X008178Y002331D01*
X008182D01*
X008186Y002332D01*
X008198D01*
X008206Y002332D01*
X008215D01*
X008224Y002333D01*
X008243Y002334D01*
X008261Y002334D01*
X008270D01*
X008278Y002335D01*
X008297D01*
X008302Y002334D01*
D02*
G37*
G36*
X001443Y005950D02*
X001450D01*
X001458Y005949D01*
X001467Y005948D01*
X001477Y005946D01*
X001499Y005942D01*
X001522Y005936D01*
X001544Y005928D01*
X001555Y005923D01*
X001565Y005916D01*
X001528Y005844D01*
X001527Y005846D01*
X001523Y005849D01*
X001515Y005853D01*
X001511Y005856D01*
X001505Y005859D01*
X001499Y005862D01*
X001492Y005864D01*
X001485Y005866D01*
X001476Y005869D01*
X001466Y005871D01*
X001456Y005872D01*
X001446Y005873D01*
X001428D01*
X001424Y005872D01*
X001418Y005872D01*
X001412Y005870D01*
X001398Y005867D01*
X001382Y005860D01*
X001374Y005856D01*
X001365Y005851D01*
X001357Y005846D01*
X001348Y005838D01*
X001340Y005831D01*
X001332Y005821D01*
X001332Y005821D01*
X001331Y005819D01*
X001329Y005816D01*
X001326Y005812D01*
X001323Y005807D01*
X001320Y005801D01*
X001316Y005794D01*
X001313Y005786D01*
X001310Y005776D01*
X001306Y005767D01*
X001303Y005756D01*
X001300Y005745D01*
X001297Y005732D01*
X001295Y005719D01*
X001294Y005705D01*
X001294Y005690D01*
Y005690D01*
Y005687D01*
Y005683D01*
X001294Y005678D01*
Y005671D01*
X001296Y005663D01*
X001297Y005655D01*
X001298Y005645D01*
X001303Y005625D01*
X001309Y005604D01*
X001318Y005584D01*
X001324Y005574D01*
X001330Y005565D01*
X001331Y005564D01*
X001332Y005563D01*
X001334Y005560D01*
X001337Y005558D01*
X001341Y005554D01*
X001345Y005550D01*
X001356Y005542D01*
X001370Y005534D01*
X001386Y005526D01*
X001396Y005524D01*
X001406Y005522D01*
X001416Y005520D01*
X001428Y005519D01*
X001434D01*
X001439Y005520D01*
X001445Y005521D01*
X001452Y005522D01*
X001467Y005525D01*
X001485Y005531D01*
X001494Y005535D01*
X001503Y005540D01*
X001512Y005546D01*
X001520Y005553D01*
X001529Y005560D01*
X001536Y005569D01*
X001577Y005499D01*
X001577Y005498D01*
X001575Y005496D01*
X001572Y005493D01*
X001568Y005490D01*
X001562Y005486D01*
X001555Y005480D01*
X001547Y005476D01*
X001538Y005471D01*
X001527Y005465D01*
X001516Y005460D01*
X001503Y005455D01*
X001488Y005451D01*
X001473Y005447D01*
X001457Y005444D01*
X001440Y005442D01*
X001421Y005442D01*
X001416D01*
X001411Y005442D01*
X001404D01*
X001395Y005444D01*
X001385Y005445D01*
X001374Y005447D01*
X001362Y005450D01*
X001349Y005454D01*
X001336Y005458D01*
X001323Y005464D01*
X001310Y005471D01*
X001296Y005478D01*
X001284Y005487D01*
X001272Y005497D01*
X001260Y005509D01*
X001259Y005510D01*
X001258Y005512D01*
X001255Y005516D01*
X001251Y005522D01*
X001247Y005528D01*
X001242Y005537D01*
X001237Y005547D01*
X001232Y005558D01*
X001227Y005570D01*
X001221Y005584D01*
X001216Y005599D01*
X001212Y005616D01*
X001208Y005633D01*
X001205Y005652D01*
X001204Y005673D01*
X001203Y005694D01*
Y005696D01*
Y005699D01*
X001204Y005705D01*
Y005713D01*
X001205Y005722D01*
X001206Y005733D01*
X001208Y005745D01*
X001211Y005758D01*
X001214Y005773D01*
X001218Y005787D01*
X001224Y005802D01*
X001230Y005818D01*
X001237Y005833D01*
X001246Y005848D01*
X001255Y005863D01*
X001266Y005877D01*
X001267Y005878D01*
X001269Y005880D01*
X001273Y005884D01*
X001278Y005888D01*
X001284Y005894D01*
X001291Y005901D01*
X001300Y005907D01*
X001310Y005914D01*
X001321Y005921D01*
X001334Y005927D01*
X001347Y005934D01*
X001361Y005939D01*
X001377Y005944D01*
X001393Y005948D01*
X001410Y005950D01*
X001428Y005951D01*
X001437D01*
X001443Y005950D01*
D02*
G37*
G36*
X009999Y002264D02*
X009863D01*
X009796Y001900D01*
X009719D01*
X009786Y002264D01*
X009648D01*
X009660Y002331D01*
X010011D01*
X009999Y002264D01*
D02*
G37*
G36*
X011251D02*
X011115D01*
X011048Y001900D01*
X010971D01*
X011038Y002264D01*
X010900D01*
X010912Y002331D01*
X011263D01*
X011251Y002264D01*
D02*
G37*
G36*
X008043Y002033D02*
Y002032D01*
X008043Y002030D01*
X008042Y002026D01*
X008041Y002022D01*
X008039Y002016D01*
X008037Y002009D01*
X008034Y002003D01*
X008031Y001995D01*
X008023Y001978D01*
X008017Y001969D01*
X008012Y001961D01*
X008005Y001953D01*
X007998Y001944D01*
X007990Y001937D01*
X007981Y001929D01*
X007981Y001929D01*
X007979Y001928D01*
X007976Y001926D01*
X007973Y001923D01*
X007968Y001921D01*
X007962Y001918D01*
X007955Y001915D01*
X007947Y001911D01*
X007939Y001907D01*
X007930Y001904D01*
X007919Y001901D01*
X007909Y001899D01*
X007897Y001896D01*
X007885Y001894D01*
X007872Y001893D01*
X007859Y001893D01*
X007853D01*
X007849Y001893D01*
X007844D01*
X007838Y001894D01*
X007831Y001895D01*
X007824Y001896D01*
X007808Y001900D01*
X007792Y001905D01*
X007775Y001912D01*
X007767Y001916D01*
X007760Y001921D01*
X007759Y001922D01*
X007758Y001923D01*
X007756Y001925D01*
X007754Y001927D01*
X007748Y001933D01*
X007741Y001943D01*
X007734Y001954D01*
X007728Y001968D01*
X007725Y001976D01*
X007723Y001984D01*
X007722Y001993D01*
X007722Y002003D01*
Y002003D01*
Y002005D01*
Y002009D01*
X007722Y002013D01*
Y002017D01*
X007723Y002023D01*
X007724Y002035D01*
X007779Y002331D01*
X007857D01*
X007802Y002037D01*
Y002037D01*
Y002036D01*
X007802Y002032D01*
X007801Y002027D01*
Y002021D01*
Y002019D01*
Y002016D01*
X007802Y002011D01*
X007803Y002004D01*
X007806Y001997D01*
X007808Y001989D01*
X007813Y001982D01*
X007819Y001975D01*
X007820Y001975D01*
X007822Y001973D01*
X007826Y001971D01*
X007832Y001968D01*
X007839Y001965D01*
X007847Y001963D01*
X007857Y001961D01*
X007867Y001960D01*
X007871D01*
X007874Y001961D01*
X007881Y001961D01*
X007891Y001963D01*
X007901Y001965D01*
X007912Y001969D01*
X007923Y001974D01*
X007933Y001981D01*
X007935Y001983D01*
X007937Y001985D01*
X007942Y001990D01*
X007947Y001997D01*
X007953Y002005D01*
X007959Y002016D01*
X007963Y002028D01*
X007967Y002041D01*
X008021Y002331D01*
X008099D01*
X008043Y002033D01*
D02*
G37*
G36*
X010841Y002264D02*
X010643D01*
X010625Y002164D01*
X010767D01*
X010755Y002100D01*
X010613D01*
X010589Y001967D01*
X010784D01*
X010771Y001900D01*
X010498D01*
X010577Y002331D01*
X010854D01*
X010841Y002264D01*
D02*
G37*
%LPC*%
G36*
X000981Y006448D02*
X000922Y006267D01*
X001039D01*
X000981Y006448D01*
D02*
G37*
G36*
X003816D02*
X003756Y006267D01*
X003874D01*
X003816Y006448D01*
D02*
G37*
G36*
X007286Y005868D02*
X007277D01*
X007267Y005867D01*
X007257Y005866D01*
Y005729D01*
X007261D01*
X007265Y005729D01*
X007271D01*
X007282Y005728D01*
X007303D01*
X007307Y005729D01*
X007312D01*
X007324Y005730D01*
X007337Y005732D01*
X007350Y005734D01*
X007363Y005738D01*
X007373Y005743D01*
X007374Y005744D01*
X007377Y005746D01*
X007382Y005750D01*
X007386Y005756D01*
X007391Y005764D01*
X007395Y005774D01*
X007398Y005787D01*
X007399Y005802D01*
Y005803D01*
Y005804D01*
X007398Y005808D01*
X007398Y005815D01*
X007396Y005822D01*
X007392Y005831D01*
X007388Y005840D01*
X007381Y005847D01*
X007372Y005853D01*
X007370Y005854D01*
X007366Y005856D01*
X007360Y005858D01*
X007350Y005861D01*
X007339Y005863D01*
X007324Y005866D01*
X007306Y005867D01*
X007286Y005868D01*
D02*
G37*
G36*
X005373Y006523D02*
X005368D01*
X005363Y006522D01*
X005359Y006522D01*
X005354Y006521D01*
X005340Y006517D01*
X005325Y006512D01*
X005319Y006508D01*
X005311Y006503D01*
X005303Y006498D01*
X005296Y006491D01*
X005290Y006484D01*
X005284Y006476D01*
Y006475D01*
X005282Y006474D01*
X005281Y006471D01*
X005279Y006468D01*
X005277Y006462D01*
X005274Y006457D01*
X005271Y006450D01*
X005268Y006442D01*
X005265Y006434D01*
X005262Y006424D01*
X005260Y006414D01*
X005257Y006403D01*
X005255Y006391D01*
X005254Y006378D01*
X005252Y006364D01*
Y006350D01*
Y006349D01*
Y006346D01*
Y006341D01*
X005253Y006335D01*
Y006328D01*
X005254Y006320D01*
X005255Y006311D01*
X005256Y006301D01*
X005259Y006280D01*
X005265Y006258D01*
X005271Y006235D01*
X005276Y006226D01*
X005281Y006216D01*
Y006216D01*
X005283Y006214D01*
X005284Y006212D01*
X005287Y006209D01*
X005293Y006201D01*
X005303Y006193D01*
X005315Y006184D01*
X005329Y006177D01*
X005338Y006174D01*
X005347Y006172D01*
X005357Y006170D01*
X005367Y006169D01*
X005373D01*
X005377Y006170D01*
X005382Y006171D01*
X005389Y006172D01*
X005404Y006175D01*
X005420Y006181D01*
X005428Y006184D01*
X005437Y006188D01*
X005444Y006194D01*
X005452Y006200D01*
X005459Y006207D01*
X005466Y006215D01*
X005467Y006216D01*
X005468Y006217D01*
X005469Y006219D01*
X005472Y006223D01*
X005475Y006229D01*
X005478Y006234D01*
X005481Y006242D01*
X005484Y006249D01*
X005487Y006258D01*
X005490Y006268D01*
X005493Y006280D01*
X005496Y006291D01*
X005498Y006305D01*
X005500Y006318D01*
X005501Y006334D01*
Y006350D01*
Y006350D01*
Y006352D01*
Y006354D01*
Y006357D01*
X005500Y006361D01*
Y006366D01*
X005499Y006377D01*
X005497Y006390D01*
X005494Y006404D01*
X005491Y006420D01*
X005485Y006436D01*
X005478Y006452D01*
X005470Y006468D01*
X005459Y006483D01*
X005447Y006496D01*
X005433Y006507D01*
X005424Y006512D01*
X005415Y006516D01*
X005406Y006519D01*
X005396Y006521D01*
X005385Y006522D01*
X005373Y006523D01*
D02*
G37*
G36*
X004679Y006518D02*
X004669D01*
X004663Y006517D01*
X004656Y006516D01*
X004648Y006516D01*
X004639Y006515D01*
Y006179D01*
X004643D01*
X004647Y006178D01*
X004660D01*
X004667Y006178D01*
X004691D01*
X004695Y006178D01*
X004701Y006179D01*
X004707Y006180D01*
X004723Y006184D01*
X004739Y006189D01*
X004748Y006194D01*
X004756Y006198D01*
X004765Y006204D01*
X004773Y006210D01*
X004781Y006217D01*
X004788Y006226D01*
X004789Y006226D01*
X004790Y006228D01*
X004792Y006231D01*
X004794Y006235D01*
X004797Y006239D01*
X004800Y006245D01*
X004803Y006252D01*
X004807Y006261D01*
X004811Y006270D01*
X004814Y006280D01*
X004817Y006290D01*
X004820Y006302D01*
X004822Y006315D01*
X004825Y006329D01*
X004825Y006344D01*
X004826Y006360D01*
Y006360D01*
Y006361D01*
Y006363D01*
Y006366D01*
X004825Y006374D01*
X004824Y006385D01*
X004822Y006396D01*
X004819Y006410D01*
X004814Y006424D01*
X004808Y006439D01*
X004800Y006453D01*
X004790Y006468D01*
X004778Y006481D01*
X004764Y006493D01*
X004747Y006503D01*
X004727Y006511D01*
X004717Y006514D01*
X004704Y006516D01*
X004692Y006517D01*
X004679Y006518D01*
D02*
G37*
G36*
X003118Y005868D02*
X003109D01*
X003099Y005867D01*
X003089Y005866D01*
Y005729D01*
X003093D01*
X003097Y005729D01*
X003103D01*
X003114Y005728D01*
X003135D01*
X003139Y005729D01*
X003144D01*
X003156Y005730D01*
X003169Y005732D01*
X003182Y005734D01*
X003195Y005738D01*
X003205Y005743D01*
X003206Y005744D01*
X003209Y005746D01*
X003214Y005750D01*
X003218Y005756D01*
X003223Y005764D01*
X003227Y005774D01*
X003230Y005787D01*
X003231Y005802D01*
Y005803D01*
Y005804D01*
X003230Y005808D01*
X003230Y005815D01*
X003228Y005822D01*
X003224Y005831D01*
X003220Y005840D01*
X003213Y005847D01*
X003204Y005853D01*
X003202Y005854D01*
X003198Y005856D01*
X003192Y005858D01*
X003182Y005861D01*
X003171Y005863D01*
X003156Y005866D01*
X003138Y005867D01*
X003118Y005868D01*
D02*
G37*
G36*
X001217Y003960D02*
X001157D01*
Y003872D01*
X001201D01*
X001206Y003873D01*
X001211Y003874D01*
X001218Y003874D01*
X001225Y003875D01*
X001232Y003877D01*
X001239Y003879D01*
X001240Y003880D01*
X001243Y003881D01*
X001247Y003883D01*
X001252Y003885D01*
X001263Y003891D01*
X001267Y003895D01*
X001271Y003899D01*
X001272Y003899D01*
X001272Y003900D01*
X001274Y003903D01*
X001276Y003905D01*
X001279Y003912D01*
X001279Y003915D01*
X001280Y003919D01*
Y003920D01*
Y003922D01*
X001279Y003925D01*
X001278Y003928D01*
X001276Y003933D01*
X001273Y003938D01*
X001269Y003943D01*
X001264Y003947D01*
X001263Y003948D01*
X001261Y003950D01*
X001257Y003951D01*
X001252Y003954D01*
X001245Y003956D01*
X001237Y003958D01*
X001228Y003960D01*
X001217Y003960D01*
D02*
G37*
G36*
X006064Y005868D02*
X006055D01*
X006047Y005867D01*
X006038Y005866D01*
Y005709D01*
X006042D01*
X006045Y005708D01*
X006051D01*
X006061Y005707D01*
X006067Y005706D01*
X006082D01*
X006086Y005707D01*
X006093D01*
X006105Y005709D01*
X006120Y005711D01*
X006134Y005715D01*
X006148Y005719D01*
X006154Y005722D01*
X006159Y005726D01*
X006161Y005727D01*
X006164Y005730D01*
X006169Y005735D01*
X006174Y005741D01*
X006179Y005751D01*
X006183Y005762D01*
X006186Y005775D01*
X006188Y005791D01*
Y005792D01*
Y005794D01*
X006187Y005798D01*
X006185Y005803D01*
X006184Y005808D01*
X006181Y005815D01*
X006177Y005822D01*
X006172Y005830D01*
X006166Y005837D01*
X006157Y005843D01*
X006147Y005850D01*
X006135Y005856D01*
X006121Y005861D01*
X006105Y005865D01*
X006086Y005867D01*
X006064Y005868D01*
D02*
G37*
G36*
X005681Y005798D02*
X005621Y005617D01*
X005739D01*
X005681Y005798D01*
D02*
G37*
G36*
X001550Y003886D02*
X001511D01*
X001507Y003828D01*
X001546D01*
X001550Y003886D01*
D02*
G37*
G36*
X003569Y004788D02*
X003565D01*
X003560Y004787D01*
X003554Y004786D01*
X003547Y004783D01*
X003539Y004780D01*
X003532Y004774D01*
X003524Y004768D01*
X003524Y004767D01*
X003522Y004764D01*
X003518Y004760D01*
X003516Y004754D01*
X003512Y004746D01*
X003509Y004737D01*
X003507Y004726D01*
X003506Y004715D01*
Y004714D01*
Y004714D01*
Y004712D01*
Y004709D01*
X003507Y004703D01*
X003508Y004695D01*
X003511Y004686D01*
X003514Y004677D01*
X003518Y004668D01*
X003524Y004659D01*
X003525Y004658D01*
X003528Y004656D01*
X003532Y004652D01*
X003537Y004648D01*
X003543Y004644D01*
X003550Y004641D01*
X003558Y004638D01*
X003567Y004638D01*
X003569D01*
X003571Y004638D01*
X003574Y004639D01*
X003578Y004640D01*
X003582Y004642D01*
X003587Y004644D01*
X003592Y004647D01*
X003598Y004650D01*
X003604Y004655D01*
X003610Y004661D01*
X003616Y004668D01*
X003623Y004676D01*
X003629Y004686D01*
X003636Y004697D01*
X003643Y004710D01*
Y004710D01*
X003642Y004712D01*
X003641Y004714D01*
X003641Y004716D01*
X003639Y004724D01*
X003635Y004733D01*
X003631Y004743D01*
X003626Y004753D01*
X003620Y004762D01*
X003613Y004770D01*
X003612Y004771D01*
X003609Y004773D01*
X003606Y004776D01*
X003600Y004780D01*
X003594Y004782D01*
X003586Y004786D01*
X003578Y004788D01*
X003569Y004788D01*
D02*
G37*
G36*
X002260Y005873D02*
X002255D01*
X002250Y005872D01*
X002246Y005872D01*
X002240Y005871D01*
X002227Y005867D01*
X002212Y005862D01*
X002205Y005858D01*
X002198Y005853D01*
X002190Y005848D01*
X002183Y005841D01*
X002176Y005834D01*
X002170Y005826D01*
Y005825D01*
X002169Y005824D01*
X002167Y005821D01*
X002166Y005818D01*
X002163Y005812D01*
X002160Y005807D01*
X002157Y005800D01*
X002155Y005792D01*
X002152Y005784D01*
X002149Y005774D01*
X002147Y005764D01*
X002144Y005753D01*
X002142Y005741D01*
X002141Y005728D01*
X002139Y005714D01*
Y005700D01*
Y005699D01*
Y005696D01*
Y005691D01*
X002140Y005685D01*
Y005678D01*
X002141Y005670D01*
X002141Y005661D01*
X002143Y005651D01*
X002146Y005630D01*
X002151Y005608D01*
X002158Y005585D01*
X002163Y005576D01*
X002168Y005566D01*
Y005566D01*
X002170Y005564D01*
X002171Y005562D01*
X002173Y005559D01*
X002180Y005551D01*
X002189Y005543D01*
X002202Y005534D01*
X002216Y005527D01*
X002224Y005524D01*
X002233Y005522D01*
X002243Y005520D01*
X002253Y005519D01*
X002259D01*
X002264Y005520D01*
X002269Y005521D01*
X002276Y005522D01*
X002291Y005525D01*
X002307Y005531D01*
X002315Y005534D01*
X002323Y005538D01*
X002331Y005544D01*
X002338Y005550D01*
X002346Y005557D01*
X002353Y005565D01*
X002354Y005566D01*
X002354Y005567D01*
X002356Y005569D01*
X002358Y005573D01*
X002361Y005579D01*
X002364Y005584D01*
X002367Y005592D01*
X002370Y005599D01*
X002374Y005608D01*
X002377Y005618D01*
X002380Y005630D01*
X002383Y005641D01*
X002385Y005655D01*
X002386Y005668D01*
X002388Y005684D01*
Y005700D01*
Y005700D01*
Y005702D01*
Y005704D01*
Y005707D01*
X002387Y005711D01*
Y005716D01*
X002386Y005727D01*
X002384Y005740D01*
X002381Y005754D01*
X002377Y005770D01*
X002372Y005786D01*
X002365Y005802D01*
X002357Y005818D01*
X002346Y005833D01*
X002334Y005846D01*
X002319Y005857D01*
X002311Y005862D01*
X002302Y005866D01*
X002293Y005869D01*
X002283Y005871D01*
X002272Y005872D01*
X002260Y005873D01*
D02*
G37*
G36*
X002072Y004754D02*
X002008D01*
Y004512D01*
X002079D01*
X002086Y004513D01*
X002094Y004513D01*
X002102Y004515D01*
X002112Y004516D01*
X002120Y004519D01*
X002128Y004522D01*
X002130Y004523D01*
X002132Y004525D01*
X002136Y004527D01*
X002142Y004532D01*
X002148Y004537D01*
X002154Y004543D01*
X002160Y004550D01*
X002165Y004557D01*
X002166Y004559D01*
X002167Y004561D01*
X002169Y004566D01*
X002172Y004573D01*
X002174Y004581D01*
X002176Y004590D01*
X002177Y004601D01*
X002178Y004613D01*
Y004642D01*
Y004642D01*
Y004643D01*
Y004646D01*
X002177Y004652D01*
X002176Y004659D01*
X002175Y004667D01*
X002173Y004676D01*
X002170Y004684D01*
X002166Y004693D01*
Y004694D01*
X002166Y004694D01*
X002163Y004698D01*
X002160Y004704D01*
X002155Y004712D01*
X002149Y004720D01*
X002142Y004728D01*
X002135Y004735D01*
X002127Y004740D01*
X002126Y004741D01*
X002123Y004742D01*
X002118Y004744D01*
X002112Y004747D01*
X002104Y004750D01*
X002095Y004752D01*
X002084Y004753D01*
X002072Y004754D01*
D02*
G37*
G36*
X008272Y002267D02*
X008267D01*
X008264Y002266D01*
X008258D01*
X008252Y002266D01*
X008244Y002265D01*
X008222Y002144D01*
X008225D01*
X008228Y002144D01*
X008233D01*
X008242Y002143D01*
X008253Y002142D01*
X008258D01*
X008263Y002143D01*
X008270Y002144D01*
X008279Y002144D01*
X008288Y002146D01*
X008298Y002148D01*
X008309Y002151D01*
X008319Y002155D01*
X008329Y002160D01*
X008338Y002165D01*
X008347Y002172D01*
X008354Y002180D01*
X008360Y002189D01*
X008363Y002200D01*
X008364Y002212D01*
Y002213D01*
Y002214D01*
Y002217D01*
X008363Y002222D01*
X008362Y002228D01*
X008359Y002236D01*
X008356Y002242D01*
X008350Y002249D01*
X008343Y002254D01*
X008342Y002255D01*
X008339Y002256D01*
X008334Y002258D01*
X008326Y002261D01*
X008316Y002263D01*
X008304Y002265D01*
X008290Y002266D01*
X008272Y002267D01*
D02*
G37*
G36*
X008648D02*
X008643D01*
X008639Y002266D01*
X008634D01*
X008628Y002266D01*
X008620Y002265D01*
X008598Y002144D01*
X008601D01*
X008604Y002144D01*
X008609D01*
X008618Y002143D01*
X008629Y002142D01*
X008633D01*
X008639Y002143D01*
X008646Y002144D01*
X008655Y002144D01*
X008664Y002146D01*
X008674Y002148D01*
X008685Y002151D01*
X008695Y002155D01*
X008705Y002160D01*
X008714Y002165D01*
X008723Y002172D01*
X008730Y002180D01*
X008735Y002189D01*
X008739Y002200D01*
X008740Y002212D01*
Y002213D01*
Y002214D01*
Y002217D01*
X008739Y002222D01*
X008737Y002228D01*
X008735Y002236D01*
X008731Y002242D01*
X008726Y002249D01*
X008719Y002254D01*
X008718Y002255D01*
X008715Y002256D01*
X008709Y002258D01*
X008702Y002261D01*
X008692Y002263D01*
X008680Y002265D01*
X008665Y002266D01*
X008648Y002267D01*
D02*
G37*
G36*
X004312Y004754D02*
X004242D01*
Y004651D01*
X004294D01*
X004299Y004652D01*
X004305Y004652D01*
X004313Y004653D01*
X004321Y004654D01*
X004329Y004656D01*
X004337Y004659D01*
X004339Y004660D01*
X004342Y004661D01*
X004347Y004663D01*
X004353Y004666D01*
X004365Y004673D01*
X004371Y004677D01*
X004375Y004682D01*
X004376Y004682D01*
X004377Y004684D01*
X004379Y004686D01*
X004381Y004689D01*
X004384Y004697D01*
X004385Y004701D01*
X004385Y004706D01*
Y004706D01*
Y004709D01*
X004385Y004712D01*
X004383Y004716D01*
X004381Y004722D01*
X004377Y004727D01*
X004373Y004733D01*
X004367Y004738D01*
X004366Y004739D01*
X004363Y004741D01*
X004359Y004743D01*
X004353Y004746D01*
X004345Y004749D01*
X004336Y004751D01*
X004325Y004753D01*
X004312Y004754D01*
D02*
G37*
G36*
X006155Y004568D02*
X006137D01*
X006130Y004567D01*
X006121Y004566D01*
X006111Y004563D01*
X006100Y004560D01*
X006089Y004555D01*
X006078Y004549D01*
X006078Y004549D01*
X006076Y004547D01*
X006073Y004545D01*
X006070Y004542D01*
X006067Y004539D01*
X006064Y004535D01*
X006062Y004531D01*
X006062Y004526D01*
Y004525D01*
Y004525D01*
X006063Y004521D01*
X006065Y004516D01*
X006067Y004513D01*
X006070Y004511D01*
X006070Y004511D01*
X006072Y004510D01*
X006076Y004509D01*
X006080Y004507D01*
X006086Y004505D01*
X006093Y004503D01*
X006102Y004503D01*
X006111Y004502D01*
X006115D01*
X006120Y004503D01*
X006126Y004503D01*
X006134Y004504D01*
X006142Y004506D01*
X006152Y004508D01*
X006162Y004511D01*
X006163Y004511D01*
X006166Y004512D01*
X006172Y004514D01*
X006178Y004517D01*
X006186Y004520D01*
X006195Y004524D01*
X006212Y004534D01*
Y004561D01*
X006212D01*
X006211Y004561D01*
X006209D01*
X006206Y004562D01*
X006199Y004563D01*
X006190Y004565D01*
X006179Y004566D01*
X006168Y004567D01*
X006155Y004568D01*
D02*
G37*
G36*
X005199Y005868D02*
X005189D01*
X005183Y005867D01*
X005177Y005866D01*
X005169Y005866D01*
X005160Y005865D01*
Y005529D01*
X005163D01*
X005167Y005528D01*
X005180D01*
X005188Y005528D01*
X005211D01*
X005216Y005528D01*
X005222Y005529D01*
X005228Y005530D01*
X005243Y005534D01*
X005259Y005539D01*
X005268Y005544D01*
X005277Y005548D01*
X005285Y005554D01*
X005293Y005560D01*
X005301Y005567D01*
X005309Y005576D01*
X005309Y005576D01*
X005310Y005578D01*
X005312Y005581D01*
X005315Y005585D01*
X005318Y005589D01*
X005321Y005595D01*
X005324Y005602D01*
X005328Y005611D01*
X005332Y005620D01*
X005335Y005630D01*
X005338Y005640D01*
X005341Y005652D01*
X005343Y005665D01*
X005345Y005679D01*
X005346Y005694D01*
X005347Y005709D01*
Y005710D01*
Y005711D01*
Y005713D01*
Y005716D01*
X005346Y005724D01*
X005344Y005735D01*
X005342Y005746D01*
X005339Y005760D01*
X005335Y005774D01*
X005328Y005789D01*
X005321Y005803D01*
X005311Y005818D01*
X005299Y005831D01*
X005284Y005843D01*
X005268Y005853D01*
X005248Y005861D01*
X005237Y005864D01*
X005225Y005866D01*
X005213Y005867D01*
X005199Y005868D01*
D02*
G37*
G36*
X004803Y005798D02*
X004743Y005617D01*
X004861D01*
X004803Y005798D01*
D02*
G37*
G36*
X005416Y004788D02*
X005414D01*
X005411Y004788D01*
X005406Y004787D01*
X005400Y004786D01*
X005392Y004782D01*
X005384Y004778D01*
X005377Y004773D01*
X005370Y004765D01*
Y004764D01*
X005368Y004764D01*
X005367Y004762D01*
X005366Y004759D01*
X005364Y004756D01*
X005361Y004752D01*
X005356Y004741D01*
X005352Y004729D01*
X005347Y004714D01*
X005344Y004698D01*
X005343Y004679D01*
Y004612D01*
Y004611D01*
Y004610D01*
Y004607D01*
X005344Y004603D01*
Y004599D01*
X005344Y004594D01*
X005346Y004582D01*
X005350Y004568D01*
X005355Y004553D01*
X005362Y004539D01*
X005371Y004524D01*
X005372Y004523D01*
X005374Y004521D01*
X005378Y004517D01*
X005383Y004514D01*
X005389Y004510D01*
X005397Y004507D01*
X005406Y004504D01*
X005416Y004503D01*
X005418D01*
X005421Y004504D01*
X005426Y004505D01*
X005432Y004506D01*
X005440Y004509D01*
X005447Y004513D01*
X005454Y004519D01*
X005462Y004526D01*
Y004527D01*
X005463Y004527D01*
X005464Y004529D01*
X005466Y004532D01*
X005468Y004535D01*
X005470Y004540D01*
X005476Y004550D01*
X005480Y004562D01*
X005485Y004577D01*
X005488Y004593D01*
X005489Y004612D01*
Y004679D01*
Y004680D01*
Y004681D01*
Y004684D01*
X005488Y004688D01*
Y004692D01*
X005488Y004697D01*
X005486Y004709D01*
X005482Y004723D01*
X005477Y004738D01*
X005470Y004752D01*
X005466Y004760D01*
X005460Y004767D01*
X005460Y004768D01*
X005458Y004770D01*
X005454Y004774D01*
X005449Y004778D01*
X005442Y004782D01*
X005435Y004785D01*
X005426Y004788D01*
X005416Y004788D01*
D02*
G37*
G36*
X002683Y005868D02*
X002673D01*
X002667Y005867D01*
X002661Y005866D01*
X002653Y005866D01*
X002644Y005865D01*
Y005529D01*
X002647D01*
X002651Y005528D01*
X002664D01*
X002672Y005528D01*
X002695D01*
X002700Y005528D01*
X002706Y005529D01*
X002712Y005530D01*
X002727Y005534D01*
X002743Y005539D01*
X002752Y005544D01*
X002761Y005548D01*
X002769Y005554D01*
X002778Y005560D01*
X002785Y005567D01*
X002793Y005576D01*
X002794Y005576D01*
X002794Y005578D01*
X002797Y005581D01*
X002799Y005585D01*
X002802Y005589D01*
X002805Y005595D01*
X002808Y005602D01*
X002812Y005611D01*
X002816Y005620D01*
X002819Y005630D01*
X002822Y005640D01*
X002825Y005652D01*
X002827Y005665D01*
X002829Y005679D01*
X002830Y005694D01*
X002831Y005709D01*
Y005710D01*
Y005711D01*
Y005713D01*
Y005716D01*
X002830Y005724D01*
X002829Y005735D01*
X002826Y005746D01*
X002823Y005760D01*
X002819Y005774D01*
X002813Y005789D01*
X002805Y005803D01*
X002795Y005818D01*
X002783Y005831D01*
X002768Y005843D01*
X002752Y005853D01*
X002732Y005861D01*
X002721Y005864D01*
X002709Y005866D01*
X002697Y005867D01*
X002683Y005868D01*
D02*
G37*
G36*
X000972Y004788D02*
X000971D01*
X000967Y004788D01*
X000962Y004787D01*
X000956Y004786D01*
X000949Y004782D01*
X000941Y004778D01*
X000934Y004773D01*
X000926Y004765D01*
Y004764D01*
X000925Y004764D01*
X000924Y004762D01*
X000922Y004759D01*
X000920Y004756D01*
X000918Y004752D01*
X000913Y004741D01*
X000908Y004729D01*
X000904Y004714D01*
X000901Y004698D01*
X000900Y004679D01*
Y004612D01*
Y004611D01*
Y004610D01*
Y004607D01*
X000900Y004603D01*
Y004599D01*
X000901Y004594D01*
X000903Y004582D01*
X000906Y004568D01*
X000912Y004553D01*
X000918Y004539D01*
X000928Y004524D01*
X000928Y004523D01*
X000930Y004521D01*
X000934Y004517D01*
X000940Y004514D01*
X000945Y004510D01*
X000953Y004507D01*
X000962Y004504D01*
X000973Y004503D01*
X000974D01*
X000977Y004504D01*
X000982Y004505D01*
X000989Y004506D01*
X000996Y004509D01*
X001003Y004513D01*
X001011Y004519D01*
X001018Y004526D01*
Y004527D01*
X001019Y004527D01*
X001021Y004529D01*
X001022Y004532D01*
X001025Y004535D01*
X001027Y004540D01*
X001032Y004550D01*
X001037Y004562D01*
X001041Y004577D01*
X001044Y004593D01*
X001045Y004612D01*
Y004679D01*
Y004680D01*
Y004681D01*
Y004684D01*
X001045Y004688D01*
Y004692D01*
X001044Y004697D01*
X001042Y004709D01*
X001039Y004723D01*
X001033Y004738D01*
X001026Y004752D01*
X001022Y004760D01*
X001017Y004767D01*
X001016Y004768D01*
X001014Y004770D01*
X001010Y004774D01*
X001005Y004778D01*
X000999Y004782D01*
X000991Y004785D01*
X000982Y004788D01*
X000972Y004788D01*
D02*
G37*
%LPD*%
D11*
X011690Y002650D02*
X011695Y002655D01*
X013850Y006100D02*
Y006600D01*
X014100D01*
X014183Y006517D01*
Y006350D01*
X014100Y006267D01*
X013850D01*
X014350Y006100D02*
X014516D01*
X014433D01*
Y006600D01*
X014350Y006517D01*
X010700Y002950D02*
Y003450D01*
X010950D01*
X011033Y003367D01*
Y003200D01*
X010950Y003117D01*
X010700D01*
X010867D02*
X011033Y002950D01*
X011200D02*
X011366D01*
X011283D01*
Y003450D01*
X011200Y003367D01*
X008750Y004800D02*
Y005300D01*
X009000D01*
X009083Y005217D01*
Y005050D01*
X009000Y004967D01*
X008750D01*
X008917D02*
X009083Y004800D01*
X009583D02*
X009250D01*
X009583Y005133D01*
Y005217D01*
X009500Y005300D01*
X009333D01*
X009250Y005217D01*
D16*
X009482Y003515D02*
X009718D01*
X009482Y002885D02*
X009718D01*
X010400Y003800D02*
Y004600D01*
X008000Y003800D02*
X010400D01*
X008000D02*
Y004600D01*
X010400D01*
Y004200D02*
X010800D01*
X007600D02*
X008000D01*
X012409Y000754D02*
Y005991D01*
X014575Y000754D02*
Y005991D01*
X012409D02*
X014575D01*
X012409Y000754D02*
X014575D01*
D17*
X012980Y005439D02*
D03*
D18*
X003400Y003850D02*
D03*
M02*
