%FSAX24Y24*%
%MOIN*%
G70*
G01*
G75*
G04 Layer_Color=32896*
%ADD10R,0.0630X0.0709*%
%ADD11C,0.0100*%
%ADD12O,0.1181X0.0866*%
%ADD13C,0.0551*%
%ADD14C,0.0591*%
%ADD15R,0.0591X0.0591*%
%ADD16C,0.0079*%
%ADD17R,0.1142X0.1102*%
%ADD18R,0.3400X0.0800*%
G36*
X004862Y006423D02*
X004867Y006422D01*
X004875Y006419D01*
X004878Y006416D01*
X004881Y006414D01*
X004881Y006413D01*
X004882Y006412D01*
X004885Y006408D01*
X004888Y006403D01*
X004890Y006390D01*
X004891Y006385D01*
X004891Y006381D01*
Y006377D01*
Y006376D01*
Y006313D01*
X004917D01*
X004926Y006312D01*
X004934Y006311D01*
X004940Y006310D01*
X004945Y006308D01*
X004949Y006306D01*
X004951Y006304D01*
X004953Y006304D01*
X004954Y006303D01*
X004958Y006299D01*
X004960Y006295D01*
X004963Y006286D01*
X004964Y006282D01*
X004964Y006280D01*
Y006278D01*
Y006277D01*
X004964Y006272D01*
X004963Y006266D01*
X004959Y006258D01*
X004957Y006255D01*
X004955Y006253D01*
X004955Y006252D01*
X004954Y006251D01*
X004949Y006248D01*
X004944Y006246D01*
X004932Y006244D01*
X004926Y006243D01*
X004921Y006242D01*
X004891D01*
Y006086D01*
X004891Y006078D01*
X004890Y006072D01*
X004886Y006058D01*
X004881Y006046D01*
X004875Y006036D01*
X004869Y006028D01*
X004864Y006022D01*
X004860Y006018D01*
X004859Y006017D01*
X004852Y006012D01*
X004845Y006008D01*
X004830Y006001D01*
X004813Y005995D01*
X004797Y005992D01*
X004783Y005990D01*
X004776Y005989D01*
X004771D01*
X004767Y005989D01*
X004760D01*
X004747Y005989D01*
X004733Y005991D01*
X004719Y005992D01*
X004706Y005995D01*
X004694Y005998D01*
X004689Y005998D01*
X004685Y005999D01*
X004681Y006000D01*
X004679Y006001D01*
X004678Y006002D01*
X004677D01*
X004668Y006004D01*
X004660Y006007D01*
X004646Y006012D01*
X004634Y006018D01*
X004625Y006022D01*
X004618Y006026D01*
X004614Y006029D01*
X004611Y006031D01*
X004611Y006032D01*
X004607Y006036D01*
X004604Y006040D01*
X004602Y006044D01*
X004601Y006047D01*
X004600Y006051D01*
X004599Y006053D01*
Y006055D01*
Y006056D01*
X004600Y006061D01*
X004601Y006065D01*
X004604Y006074D01*
X004607Y006077D01*
X004608Y006079D01*
X004609Y006080D01*
X004610Y006081D01*
X004614Y006084D01*
X004617Y006087D01*
X004625Y006090D01*
X004629Y006091D01*
X004631Y006091D01*
X004637D01*
X004642Y006090D01*
X004651Y006087D01*
X004655Y006085D01*
X004658Y006084D01*
X004660Y006083D01*
X004661Y006082D01*
X004678Y006075D01*
X004696Y006069D01*
X004713Y006065D01*
X004728Y006062D01*
X004741Y006061D01*
X004747Y006060D01*
X004751D01*
X004755Y006059D01*
X004760D01*
X004773Y006060D01*
X004784Y006061D01*
X004792Y006062D01*
X004799Y006065D01*
X004805Y006067D01*
X004808Y006068D01*
X004811Y006069D01*
X004811Y006070D01*
X004814Y006074D01*
X004817Y006078D01*
X004819Y006088D01*
X004820Y006093D01*
X004821Y006097D01*
Y006100D01*
Y006100D01*
Y006242D01*
X004691D01*
X004682Y006243D01*
X004675Y006244D01*
X004669Y006245D01*
X004664Y006247D01*
X004660Y006248D01*
X004658Y006250D01*
X004656Y006251D01*
X004655D01*
X004652Y006255D01*
X004649Y006259D01*
X004647Y006264D01*
X004646Y006268D01*
X004645Y006272D01*
X004644Y006275D01*
Y006276D01*
Y006277D01*
X004645Y006283D01*
X004646Y006288D01*
X004649Y006296D01*
X004652Y006299D01*
X004654Y006301D01*
X004655Y006302D01*
X004655Y006303D01*
X004660Y006306D01*
X004665Y006309D01*
X004678Y006311D01*
X004683Y006312D01*
X004687Y006313D01*
X004821D01*
Y006376D01*
X004821Y006385D01*
X004822Y006393D01*
X004824Y006399D01*
X004825Y006404D01*
X004827Y006408D01*
X004829Y006410D01*
X004830Y006412D01*
X004830Y006412D01*
X004834Y006416D01*
X004839Y006419D01*
X004843Y006421D01*
X004847Y006422D01*
X004851Y006423D01*
X004853Y006424D01*
X004856D01*
X004862Y006423D01*
D02*
G37*
G36*
X004121Y006312D02*
X004129Y006311D01*
X004136Y006310D01*
X004141Y006308D01*
X004145Y006306D01*
X004147Y006304D01*
X004149Y006304D01*
X004149Y006303D01*
X004153Y006299D01*
X004155Y006295D01*
X004159Y006286D01*
X004159Y006282D01*
X004160Y006280D01*
Y006278D01*
Y006277D01*
X004159Y006272D01*
X004159Y006266D01*
X004155Y006258D01*
X004152Y006255D01*
X004151Y006253D01*
X004150Y006252D01*
X004149Y006251D01*
X004145Y006248D01*
X004139Y006246D01*
X004127Y006244D01*
X004121Y006243D01*
X004117Y006242D01*
X004100D01*
Y006090D01*
X004099Y006080D01*
X004098Y006071D01*
X004097Y006062D01*
X004095Y006056D01*
X004092Y006051D01*
X004091Y006046D01*
X004090Y006044D01*
X004089Y006043D01*
X004083Y006034D01*
X004077Y006026D01*
X004070Y006019D01*
X004064Y006014D01*
X004058Y006009D01*
X004053Y006006D01*
X004050Y006004D01*
X004050Y006003D01*
X004040Y005998D01*
X004029Y005995D01*
X004019Y005992D01*
X004009Y005990D01*
X004001Y005989D01*
X003995Y005989D01*
X003989D01*
X003971Y005989D01*
X003961Y005991D01*
X003954Y005992D01*
X003947Y005993D01*
X003942Y005995D01*
X003939Y005995D01*
X003937D01*
X003916Y006002D01*
X003906Y006005D01*
X003897Y006008D01*
X003890Y006011D01*
X003884Y006014D01*
X003880Y006015D01*
X003878Y006016D01*
Y006000D01*
X003808D01*
X003799Y006001D01*
X003791Y006002D01*
X003785Y006003D01*
X003780Y006005D01*
X003776Y006006D01*
X003773Y006008D01*
X003772Y006009D01*
X003771D01*
X003767Y006013D01*
X003764Y006018D01*
X003763Y006022D01*
X003761Y006026D01*
X003761Y006030D01*
X003760Y006033D01*
Y006034D01*
Y006035D01*
X003761Y006041D01*
X003761Y006046D01*
X003765Y006054D01*
X003767Y006057D01*
X003770Y006059D01*
X003770Y006060D01*
X003771Y006061D01*
X003776Y006064D01*
X003781Y006067D01*
X003793Y006069D01*
X003799Y006070D01*
X003803Y006071D01*
X003808D01*
Y006313D01*
X003904D01*
X003913Y006312D01*
X003921Y006311D01*
X003928Y006310D01*
X003933Y006308D01*
X003937Y006306D01*
X003939Y006304D01*
X003941Y006304D01*
X003942Y006303D01*
X003945Y006299D01*
X003948Y006295D01*
X003951Y006286D01*
X003952Y006282D01*
X003952Y006280D01*
Y006278D01*
Y006277D01*
X003952Y006272D01*
X003951Y006266D01*
X003947Y006258D01*
X003945Y006255D01*
X003943Y006253D01*
X003942Y006252D01*
X003942Y006251D01*
X003937Y006248D01*
X003931Y006246D01*
X003919Y006244D01*
X003913Y006243D01*
X003909Y006242D01*
X003878D01*
Y006098D01*
X003891Y006091D01*
X003904Y006084D01*
X003914Y006079D01*
X003923Y006075D01*
X003930Y006072D01*
X003936Y006069D01*
X003939Y006068D01*
X003940Y006068D01*
X003949Y006065D01*
X003958Y006063D01*
X003965Y006062D01*
X003972Y006060D01*
X003977D01*
X003982Y006059D01*
X003986D01*
X003993Y006060D01*
X004000Y006061D01*
X004006Y006062D01*
X004010Y006065D01*
X004014Y006066D01*
X004016Y006068D01*
X004018Y006068D01*
X004018Y006069D01*
X004022Y006074D01*
X004025Y006079D01*
X004028Y006090D01*
X004028Y006095D01*
X004029Y006099D01*
Y006102D01*
Y006103D01*
Y006313D01*
X004112D01*
X004121Y006312D01*
D02*
G37*
G36*
X006495Y006320D02*
X006503Y006320D01*
X006511Y006318D01*
X006517Y006317D01*
X006522Y006315D01*
X006525Y006314D01*
X006526Y006314D01*
X006542Y006306D01*
X006550Y006302D01*
X006556Y006298D01*
X006560Y006295D01*
X006565Y006291D01*
X006567Y006290D01*
X006568Y006289D01*
Y006313D01*
X006639D01*
X006648Y006312D01*
X006655Y006311D01*
X006662Y006310D01*
X006668Y006308D01*
X006671Y006306D01*
X006674Y006304D01*
X006675Y006304D01*
X006676Y006303D01*
X006680Y006299D01*
X006682Y006295D01*
X006685Y006286D01*
X006686Y006282D01*
X006687Y006280D01*
Y006278D01*
Y006277D01*
X006686Y006272D01*
X006685Y006266D01*
X006681Y006258D01*
X006679Y006255D01*
X006677Y006253D01*
X006677Y006252D01*
X006676Y006251D01*
X006671Y006248D01*
X006665Y006246D01*
X006653Y006244D01*
X006648Y006243D01*
X006643Y006242D01*
X006639D01*
Y006071D01*
X006648D01*
X006655Y006070D01*
X006661Y006068D01*
X006665Y006068D01*
X006668Y006066D01*
X006671Y006065D01*
X006672Y006064D01*
X006677Y006059D01*
X006680Y006054D01*
X006683Y006049D01*
X006685Y006045D01*
X006686Y006041D01*
X006687Y006038D01*
Y006036D01*
Y006035D01*
X006686Y006030D01*
X006685Y006024D01*
X006681Y006016D01*
X006679Y006013D01*
X006677Y006011D01*
X006677Y006010D01*
X006676Y006009D01*
X006671Y006006D01*
X006665Y006004D01*
X006653Y006002D01*
X006648Y006001D01*
X006643Y006000D01*
X006568D01*
X006559Y006001D01*
X006551Y006002D01*
X006545Y006003D01*
X006540Y006005D01*
X006536Y006006D01*
X006534Y006008D01*
X006532Y006009D01*
X006531D01*
X006528Y006013D01*
X006524Y006018D01*
X006523Y006022D01*
X006521Y006026D01*
X006521Y006030D01*
X006520Y006033D01*
Y006034D01*
Y006035D01*
X006521Y006041D01*
X006522Y006046D01*
X006528Y006056D01*
X006531Y006059D01*
X006533Y006062D01*
X006534Y006063D01*
X006535Y006064D01*
X006538Y006066D01*
X006543Y006068D01*
X006554Y006070D01*
X006559Y006071D01*
X006568D01*
Y006202D01*
X006558Y006212D01*
X006549Y006221D01*
X006540Y006228D01*
X006534Y006233D01*
X006529Y006237D01*
X006524Y006240D01*
X006522Y006240D01*
X006521Y006241D01*
X006515Y006244D01*
X006507Y006247D01*
X006500Y006249D01*
X006493Y006250D01*
X006487Y006250D01*
X006483Y006251D01*
X006479D01*
X006467Y006250D01*
X006457Y006249D01*
X006449Y006247D01*
X006442Y006244D01*
X006437Y006241D01*
X006433Y006239D01*
X006431Y006237D01*
X006430Y006237D01*
X006426Y006232D01*
X006422Y006227D01*
X006420Y006221D01*
X006419Y006216D01*
X006418Y006211D01*
X006417Y006207D01*
Y006204D01*
Y006203D01*
Y006071D01*
X006426Y006070D01*
X006434Y006069D01*
X006441Y006068D01*
X006446Y006066D01*
X006450Y006064D01*
X006452Y006062D01*
X006454Y006062D01*
X006454Y006061D01*
X006458Y006057D01*
X006461Y006053D01*
X006464Y006044D01*
X006464Y006040D01*
X006465Y006038D01*
Y006036D01*
Y006035D01*
X006464Y006030D01*
X006464Y006024D01*
X006460Y006016D01*
X006457Y006013D01*
X006456Y006011D01*
X006455Y006010D01*
X006454Y006009D01*
X006450Y006006D01*
X006444Y006004D01*
X006432Y006002D01*
X006426Y006001D01*
X006422Y006000D01*
X006346D01*
X006337Y006001D01*
X006330Y006002D01*
X006324Y006003D01*
X006318Y006005D01*
X006314Y006006D01*
X006312Y006008D01*
X006311Y006009D01*
X006310D01*
X006306Y006013D01*
X006303Y006018D01*
X006301Y006022D01*
X006300Y006026D01*
X006299Y006030D01*
X006298Y006033D01*
Y006034D01*
Y006035D01*
X006299Y006041D01*
X006300Y006046D01*
X006304Y006054D01*
X006306Y006057D01*
X006308Y006059D01*
X006309Y006060D01*
X006310Y006061D01*
X006314Y006064D01*
X006320Y006067D01*
X006332Y006069D01*
X006337Y006070D01*
X006342Y006071D01*
X006346D01*
Y006202D01*
X006348Y006220D01*
X006351Y006235D01*
X006356Y006250D01*
X006361Y006261D01*
X006367Y006270D01*
X006371Y006277D01*
X006375Y006281D01*
X006376Y006282D01*
X006383Y006289D01*
X006391Y006295D01*
X006399Y006301D01*
X006407Y006305D01*
X006423Y006312D01*
X006439Y006317D01*
X006453Y006320D01*
X006459Y006320D01*
X006464Y006321D01*
X006469Y006322D01*
X006485D01*
X006495Y006320D01*
D02*
G37*
G36*
X011208Y006423D02*
X011214Y006422D01*
X011222Y006419D01*
X011225Y006416D01*
X011227Y006414D01*
X011228Y006413D01*
X011229Y006412D01*
X011232Y006408D01*
X011234Y006403D01*
X011237Y006390D01*
X011237Y006385D01*
X011238Y006381D01*
Y006377D01*
Y006376D01*
Y006313D01*
X011264D01*
X011273Y006312D01*
X011281Y006311D01*
X011287Y006310D01*
X011292Y006308D01*
X011296Y006306D01*
X011298Y006304D01*
X011300Y006304D01*
X011300Y006303D01*
X011304Y006299D01*
X011307Y006295D01*
X011310Y006286D01*
X011310Y006282D01*
X011311Y006280D01*
Y006278D01*
Y006277D01*
X011310Y006272D01*
X011310Y006266D01*
X011306Y006258D01*
X011304Y006255D01*
X011302Y006253D01*
X011301Y006252D01*
X011300Y006251D01*
X011296Y006248D01*
X011291Y006246D01*
X011278Y006244D01*
X011272Y006243D01*
X011268Y006242D01*
X011238D01*
Y006086D01*
X011237Y006078D01*
X011237Y006072D01*
X011233Y006058D01*
X011227Y006046D01*
X011221Y006036D01*
X011216Y006028D01*
X011211Y006022D01*
X011207Y006018D01*
X011205Y006017D01*
X011199Y006012D01*
X011192Y006008D01*
X011176Y006001D01*
X011160Y005995D01*
X011144Y005992D01*
X011129Y005990D01*
X011123Y005989D01*
X011118D01*
X011113Y005989D01*
X011107D01*
X011094Y005989D01*
X011080Y005991D01*
X011065Y005992D01*
X011052Y005995D01*
X011041Y005998D01*
X011036Y005998D01*
X011032Y005999D01*
X011028Y006000D01*
X011026Y006001D01*
X011024Y006002D01*
X011023D01*
X011014Y006004D01*
X011007Y006007D01*
X010992Y006012D01*
X010981Y006018D01*
X010972Y006022D01*
X010965Y006026D01*
X010960Y006029D01*
X010958Y006031D01*
X010957Y006032D01*
X010953Y006036D01*
X010950Y006040D01*
X010949Y006044D01*
X010947Y006047D01*
X010947Y006051D01*
X010946Y006053D01*
Y006055D01*
Y006056D01*
X010947Y006061D01*
X010947Y006065D01*
X010951Y006074D01*
X010953Y006077D01*
X010955Y006079D01*
X010956Y006080D01*
X010957Y006081D01*
X010960Y006084D01*
X010964Y006087D01*
X010972Y006090D01*
X010976Y006091D01*
X010978Y006091D01*
X010984D01*
X010988Y006090D01*
X010998Y006087D01*
X011001Y006085D01*
X011004Y006084D01*
X011007Y006083D01*
X011008Y006082D01*
X011025Y006075D01*
X011043Y006069D01*
X011059Y006065D01*
X011074Y006062D01*
X011087Y006061D01*
X011094Y006060D01*
X011098D01*
X011102Y006059D01*
X011107D01*
X011120Y006060D01*
X011131Y006061D01*
X011139Y006062D01*
X011146Y006065D01*
X011151Y006067D01*
X011155Y006068D01*
X011157Y006069D01*
X011158Y006070D01*
X011161Y006074D01*
X011164Y006078D01*
X011166Y006088D01*
X011167Y006093D01*
X011167Y006097D01*
Y006100D01*
Y006100D01*
Y006242D01*
X011038D01*
X011029Y006243D01*
X011022Y006244D01*
X011016Y006245D01*
X011011Y006247D01*
X011007Y006248D01*
X011004Y006250D01*
X011003Y006251D01*
X011002D01*
X010998Y006255D01*
X010995Y006259D01*
X010994Y006264D01*
X010992Y006268D01*
X010992Y006272D01*
X010991Y006275D01*
Y006276D01*
Y006277D01*
X010992Y006283D01*
X010992Y006288D01*
X010996Y006296D01*
X010998Y006299D01*
X011001Y006301D01*
X011001Y006302D01*
X011002Y006303D01*
X011007Y006306D01*
X011012Y006309D01*
X011024Y006311D01*
X011030Y006312D01*
X011034Y006313D01*
X011167D01*
Y006376D01*
X011168Y006385D01*
X011169Y006393D01*
X011170Y006399D01*
X011172Y006404D01*
X011174Y006408D01*
X011176Y006410D01*
X011176Y006412D01*
X011177Y006412D01*
X011181Y006416D01*
X011186Y006419D01*
X011189Y006421D01*
X011194Y006422D01*
X011198Y006423D01*
X011200Y006424D01*
X011203D01*
X011208Y006423D01*
D02*
G37*
G36*
X007400D02*
X007406Y006422D01*
X007414Y006419D01*
X007417Y006416D01*
X007419Y006414D01*
X007420Y006413D01*
X007421Y006412D01*
X007424Y006408D01*
X007426Y006403D01*
X007429Y006390D01*
X007429Y006385D01*
X007430Y006381D01*
Y006377D01*
Y006376D01*
Y006313D01*
X007456D01*
X007465Y006312D01*
X007473Y006311D01*
X007479Y006310D01*
X007484Y006308D01*
X007488Y006306D01*
X007490Y006304D01*
X007492Y006304D01*
X007492Y006303D01*
X007496Y006299D01*
X007499Y006295D01*
X007502Y006286D01*
X007502Y006282D01*
X007503Y006280D01*
Y006278D01*
Y006277D01*
X007502Y006272D01*
X007502Y006266D01*
X007498Y006258D01*
X007495Y006255D01*
X007494Y006253D01*
X007493Y006252D01*
X007492Y006251D01*
X007488Y006248D01*
X007483Y006246D01*
X007470Y006244D01*
X007464Y006243D01*
X007460Y006242D01*
X007430D01*
Y006086D01*
X007429Y006078D01*
X007429Y006072D01*
X007425Y006058D01*
X007419Y006046D01*
X007413Y006036D01*
X007408Y006028D01*
X007403Y006022D01*
X007399Y006018D01*
X007397Y006017D01*
X007390Y006012D01*
X007384Y006008D01*
X007368Y006001D01*
X007352Y005995D01*
X007336Y005992D01*
X007321Y005990D01*
X007315Y005989D01*
X007310D01*
X007305Y005989D01*
X007299D01*
X007285Y005989D01*
X007272Y005991D01*
X007257Y005992D01*
X007244Y005995D01*
X007233Y005998D01*
X007228Y005998D01*
X007224Y005999D01*
X007220Y006000D01*
X007218Y006001D01*
X007216Y006002D01*
X007215D01*
X007206Y006004D01*
X007199Y006007D01*
X007184Y006012D01*
X007173Y006018D01*
X007164Y006022D01*
X007157Y006026D01*
X007152Y006029D01*
X007150Y006031D01*
X007149Y006032D01*
X007145Y006036D01*
X007142Y006040D01*
X007141Y006044D01*
X007139Y006047D01*
X007139Y006051D01*
X007138Y006053D01*
Y006055D01*
Y006056D01*
X007139Y006061D01*
X007139Y006065D01*
X007143Y006074D01*
X007145Y006077D01*
X007147Y006079D01*
X007148Y006080D01*
X007148Y006081D01*
X007152Y006084D01*
X007156Y006087D01*
X007164Y006090D01*
X007168Y006091D01*
X007170Y006091D01*
X007176D01*
X007180Y006090D01*
X007190Y006087D01*
X007193Y006085D01*
X007196Y006084D01*
X007199Y006083D01*
X007199Y006082D01*
X007217Y006075D01*
X007234Y006069D01*
X007251Y006065D01*
X007266Y006062D01*
X007279Y006061D01*
X007285Y006060D01*
X007290D01*
X007294Y006059D01*
X007299D01*
X007312Y006060D01*
X007323Y006061D01*
X007331Y006062D01*
X007338Y006065D01*
X007343Y006067D01*
X007347Y006068D01*
X007349Y006069D01*
X007350Y006070D01*
X007353Y006074D01*
X007355Y006078D01*
X007358Y006088D01*
X007359Y006093D01*
X007359Y006097D01*
Y006100D01*
Y006100D01*
Y006242D01*
X007230D01*
X007221Y006243D01*
X007214Y006244D01*
X007208Y006245D01*
X007203Y006247D01*
X007199Y006248D01*
X007196Y006250D01*
X007195Y006251D01*
X007194D01*
X007190Y006255D01*
X007187Y006259D01*
X007186Y006264D01*
X007184Y006268D01*
X007183Y006272D01*
X007183Y006275D01*
Y006276D01*
Y006277D01*
X007183Y006283D01*
X007184Y006288D01*
X007188Y006296D01*
X007190Y006299D01*
X007193Y006301D01*
X007193Y006302D01*
X007194Y006303D01*
X007199Y006306D01*
X007204Y006309D01*
X007216Y006311D01*
X007222Y006312D01*
X007226Y006313D01*
X007359D01*
Y006376D01*
X007360Y006385D01*
X007361Y006393D01*
X007362Y006399D01*
X007364Y006404D01*
X007366Y006408D01*
X007368Y006410D01*
X007368Y006412D01*
X007369Y006412D01*
X007373Y006416D01*
X007378Y006419D01*
X007381Y006421D01*
X007386Y006422D01*
X007390Y006423D01*
X007392Y006424D01*
X007395D01*
X007400Y006423D01*
D02*
G37*
G36*
X005671Y006321D02*
X005684Y006320D01*
X005696Y006317D01*
X005708Y006314D01*
X005729Y006307D01*
X005739Y006303D01*
X005747Y006298D01*
X005756Y006294D01*
X005763Y006290D01*
X005769Y006285D01*
X005774Y006282D01*
X005779Y006279D01*
X005782Y006277D01*
X005783Y006275D01*
X005784Y006275D01*
X005794Y006266D01*
X005802Y006256D01*
X005809Y006247D01*
X005816Y006236D01*
X005821Y006226D01*
X005825Y006216D01*
X005829Y006206D01*
X005832Y006197D01*
X005834Y006188D01*
X005836Y006180D01*
X005837Y006173D01*
X005838Y006166D01*
Y006161D01*
X005839Y006157D01*
Y006154D01*
Y006154D01*
X005838Y006141D01*
X005837Y006129D01*
X005834Y006117D01*
X005831Y006106D01*
X005823Y006086D01*
X005818Y006077D01*
X005814Y006068D01*
X005809Y006061D01*
X005805Y006055D01*
X005800Y006049D01*
X005796Y006044D01*
X005793Y006040D01*
X005791Y006038D01*
X005789Y006037D01*
X005789Y006036D01*
X005779Y006027D01*
X005768Y006021D01*
X005757Y006014D01*
X005746Y006008D01*
X005735Y006004D01*
X005723Y006000D01*
X005702Y005995D01*
X005692Y005992D01*
X005683Y005991D01*
X005674Y005990D01*
X005667Y005989D01*
X005661Y005989D01*
X005653D01*
X005635Y005989D01*
X005616Y005990D01*
X005599Y005992D01*
X005583Y005995D01*
X005570Y005996D01*
X005564Y005998D01*
X005560Y005998D01*
X005556Y005999D01*
X005553D01*
X005551Y006000D01*
X005550D01*
X005540Y006002D01*
X005532Y006005D01*
X005525Y006007D01*
X005518Y006008D01*
X005512Y006011D01*
X005505Y006013D01*
X005497Y006017D01*
X005490Y006020D01*
X005486Y006022D01*
X005484Y006024D01*
X005483Y006024D01*
X005480Y006028D01*
X005477Y006032D01*
X005474Y006040D01*
X005474Y006043D01*
X005473Y006045D01*
Y006046D01*
Y006047D01*
X005474Y006053D01*
X005474Y006058D01*
X005477Y006065D01*
X005480Y006068D01*
X005481Y006071D01*
X005482Y006072D01*
X005483Y006072D01*
X005486Y006076D01*
X005490Y006078D01*
X005498Y006081D01*
X005502Y006082D01*
X005504Y006083D01*
X005511D01*
X005517Y006082D01*
X005529Y006080D01*
X005534Y006078D01*
X005539Y006077D01*
X005542Y006076D01*
X005544D01*
X005567Y006071D01*
X005588Y006066D01*
X005605Y006063D01*
X005613Y006062D01*
X005620Y006062D01*
X005626Y006061D01*
X005632Y006060D01*
X005637D01*
X005641Y006059D01*
X005648D01*
X005665Y006060D01*
X005680Y006062D01*
X005693Y006065D01*
X005704Y006068D01*
X005712Y006071D01*
X005719Y006074D01*
X005722Y006075D01*
X005724Y006076D01*
X005734Y006083D01*
X005742Y006090D01*
X005748Y006097D01*
X005754Y006104D01*
X005758Y006110D01*
X005760Y006116D01*
X005762Y006119D01*
X005763Y006120D01*
X005473D01*
X005474Y006150D01*
X005474Y006162D01*
X005475Y006174D01*
X005477Y006184D01*
X005479Y006193D01*
X005481Y006201D01*
X005483Y006206D01*
X005483Y006209D01*
X005484Y006211D01*
X005491Y006224D01*
X005498Y006237D01*
X005505Y006247D01*
X005511Y006256D01*
X005517Y006264D01*
X005521Y006269D01*
X005525Y006272D01*
X005525Y006274D01*
X005533Y006280D01*
X005541Y006286D01*
X005550Y006292D01*
X005559Y006297D01*
X005567Y006301D01*
X005573Y006304D01*
X005578Y006306D01*
X005579Y006307D01*
X005579D01*
X005593Y006312D01*
X005607Y006316D01*
X005620Y006318D01*
X005632Y006320D01*
X005642Y006321D01*
X005650Y006322D01*
X005658D01*
X005671Y006321D01*
D02*
G37*
G36*
X005225Y006320D02*
X005234Y006320D01*
X005241Y006318D01*
X005247Y006317D01*
X005253Y006315D01*
X005256Y006314D01*
X005257Y006314D01*
X005273Y006306D01*
X005280Y006302D01*
X005286Y006298D01*
X005291Y006295D01*
X005295Y006291D01*
X005298Y006290D01*
X005298Y006289D01*
Y006313D01*
X005369D01*
X005378Y006312D01*
X005386Y006311D01*
X005393Y006310D01*
X005398Y006308D01*
X005402Y006306D01*
X005404Y006304D01*
X005406Y006304D01*
X005407Y006303D01*
X005410Y006299D01*
X005413Y006295D01*
X005416Y006286D01*
X005416Y006282D01*
X005417Y006280D01*
Y006278D01*
Y006277D01*
X005416Y006272D01*
X005416Y006266D01*
X005412Y006258D01*
X005410Y006255D01*
X005408Y006253D01*
X005407Y006252D01*
X005407Y006251D01*
X005402Y006248D01*
X005396Y006246D01*
X005384Y006244D01*
X005378Y006243D01*
X005374Y006242D01*
X005369D01*
Y006071D01*
X005378D01*
X005386Y006070D01*
X005391Y006068D01*
X005396Y006068D01*
X005399Y006066D01*
X005401Y006065D01*
X005403Y006064D01*
X005407Y006059D01*
X005411Y006054D01*
X005413Y006049D01*
X005416Y006045D01*
X005416Y006041D01*
X005417Y006038D01*
Y006036D01*
Y006035D01*
X005416Y006030D01*
X005416Y006024D01*
X005412Y006016D01*
X005410Y006013D01*
X005408Y006011D01*
X005407Y006010D01*
X005407Y006009D01*
X005402Y006006D01*
X005396Y006004D01*
X005384Y006002D01*
X005378Y006001D01*
X005374Y006000D01*
X005298D01*
X005289Y006001D01*
X005282Y006002D01*
X005276Y006003D01*
X005270Y006005D01*
X005267Y006006D01*
X005264Y006008D01*
X005263Y006009D01*
X005262D01*
X005258Y006013D01*
X005255Y006018D01*
X005254Y006022D01*
X005252Y006026D01*
X005251Y006030D01*
X005251Y006033D01*
Y006034D01*
Y006035D01*
X005251Y006041D01*
X005253Y006046D01*
X005258Y006056D01*
X005261Y006059D01*
X005263Y006062D01*
X005265Y006063D01*
X005266Y006064D01*
X005269Y006066D01*
X005273Y006068D01*
X005285Y006070D01*
X005290Y006071D01*
X005298D01*
Y006202D01*
X005289Y006212D01*
X005279Y006221D01*
X005271Y006228D01*
X005265Y006233D01*
X005260Y006237D01*
X005255Y006240D01*
X005253Y006240D01*
X005252Y006241D01*
X005245Y006244D01*
X005238Y006247D01*
X005231Y006249D01*
X005224Y006250D01*
X005218Y006250D01*
X005213Y006251D01*
X005209D01*
X005198Y006250D01*
X005188Y006249D01*
X005180Y006247D01*
X005173Y006244D01*
X005168Y006241D01*
X005164Y006239D01*
X005162Y006237D01*
X005161Y006237D01*
X005156Y006232D01*
X005153Y006227D01*
X005151Y006221D01*
X005149Y006216D01*
X005149Y006211D01*
X005148Y006207D01*
Y006204D01*
Y006203D01*
Y006071D01*
X005157Y006070D01*
X005165Y006069D01*
X005171Y006068D01*
X005177Y006066D01*
X005181Y006064D01*
X005183Y006062D01*
X005184Y006062D01*
X005185Y006061D01*
X005189Y006057D01*
X005191Y006053D01*
X005194Y006044D01*
X005195Y006040D01*
X005196Y006038D01*
Y006036D01*
Y006035D01*
X005195Y006030D01*
X005194Y006024D01*
X005190Y006016D01*
X005188Y006013D01*
X005187Y006011D01*
X005186Y006010D01*
X005185Y006009D01*
X005181Y006006D01*
X005174Y006004D01*
X005162Y006002D01*
X005157Y006001D01*
X005152Y006000D01*
X005077D01*
X005068Y006001D01*
X005060Y006002D01*
X005054Y006003D01*
X005049Y006005D01*
X005045Y006006D01*
X005043Y006008D01*
X005041Y006009D01*
X005041D01*
X005037Y006013D01*
X005034Y006018D01*
X005032Y006022D01*
X005031Y006026D01*
X005030Y006030D01*
X005029Y006033D01*
Y006034D01*
Y006035D01*
X005030Y006041D01*
X005031Y006046D01*
X005034Y006054D01*
X005037Y006057D01*
X005039Y006059D01*
X005040Y006060D01*
X005041Y006061D01*
X005045Y006064D01*
X005050Y006067D01*
X005063Y006069D01*
X005068Y006070D01*
X005072Y006071D01*
X005077D01*
Y006202D01*
X005079Y006220D01*
X005082Y006235D01*
X005086Y006250D01*
X005092Y006261D01*
X005098Y006270D01*
X005102Y006277D01*
X005105Y006281D01*
X005107Y006282D01*
X005114Y006289D01*
X005121Y006295D01*
X005130Y006301D01*
X005138Y006305D01*
X005154Y006312D01*
X005170Y006317D01*
X005184Y006320D01*
X005190Y006320D01*
X005195Y006321D01*
X005200Y006322D01*
X005216D01*
X005225Y006320D01*
D02*
G37*
G36*
X010031Y002200D02*
X010043Y002199D01*
X010063Y002195D01*
X010081Y002189D01*
X010090Y002186D01*
X010097Y002182D01*
X010104Y002178D01*
X010110Y002175D01*
X010115Y002172D01*
X010119Y002169D01*
X010122Y002166D01*
X010124Y002164D01*
X010126Y002163D01*
X010126Y002163D01*
X010133Y002156D01*
X010140Y002148D01*
X010145Y002140D01*
X010150Y002132D01*
X010158Y002116D01*
X010162Y002101D01*
X010165Y002088D01*
X010166Y002082D01*
X010167Y002077D01*
X010167Y002073D01*
Y002070D01*
Y002068D01*
Y002068D01*
X010167Y002056D01*
X010166Y002046D01*
X010164Y002036D01*
X010162Y002029D01*
X010161Y002022D01*
X010159Y002017D01*
X010158Y002014D01*
X010158Y002012D01*
X010153Y002003D01*
X010148Y001995D01*
X010143Y001987D01*
X010139Y001981D01*
X010134Y001975D01*
X010130Y001972D01*
X010128Y001969D01*
X010127Y001969D01*
X010123Y001965D01*
X010118Y001961D01*
X010107Y001953D01*
X010094Y001946D01*
X010081Y001938D01*
X010070Y001931D01*
X010065Y001929D01*
X010060Y001926D01*
X010056Y001925D01*
X010053Y001923D01*
X010052Y001921D01*
X010051D01*
X010040Y001916D01*
X010031Y001912D01*
X010023Y001906D01*
X010015Y001902D01*
X010008Y001897D01*
X010002Y001893D01*
X009992Y001886D01*
X009985Y001879D01*
X009980Y001874D01*
X009976Y001871D01*
X009976Y001870D01*
X009970Y001862D01*
X009965Y001854D01*
X009962Y001845D01*
X009960Y001838D01*
X009958Y001832D01*
X009957Y001827D01*
Y001824D01*
Y001823D01*
X009958Y001813D01*
X009961Y001805D01*
X009964Y001798D01*
X009970Y001792D01*
X009976Y001787D01*
X009982Y001782D01*
X009989Y001778D01*
X009996Y001776D01*
X010011Y001772D01*
X010017Y001771D01*
X010023Y001770D01*
X010028Y001769D01*
X010035D01*
X010044Y001770D01*
X010053Y001771D01*
X010072Y001775D01*
X010089Y001781D01*
X010104Y001788D01*
X010117Y001794D01*
X010123Y001797D01*
X010127Y001800D01*
X010131Y001803D01*
X010134Y001804D01*
X010136Y001805D01*
X010136Y001806D01*
X010168Y001727D01*
X010158Y001721D01*
X010147Y001715D01*
X010126Y001706D01*
X010105Y001700D01*
X010085Y001696D01*
X010077Y001695D01*
X010069Y001693D01*
X010062Y001692D01*
X010056D01*
X010051Y001692D01*
X010044D01*
X010030Y001692D01*
X010016Y001693D01*
X010003Y001695D01*
X009991Y001698D01*
X009980Y001701D01*
X009970Y001704D01*
X009960Y001707D01*
X009951Y001711D01*
X009944Y001714D01*
X009937Y001717D01*
X009932Y001721D01*
X009926Y001724D01*
X009922Y001726D01*
X009920Y001728D01*
X009919Y001729D01*
X009918Y001730D01*
X009910Y001737D01*
X009903Y001745D01*
X009896Y001753D01*
X009890Y001762D01*
X009886Y001770D01*
X009882Y001778D01*
X009877Y001794D01*
X009873Y001807D01*
X009872Y001813D01*
X009871Y001819D01*
X009871Y001823D01*
Y001826D01*
Y001828D01*
Y001829D01*
X009871Y001841D01*
X009872Y001851D01*
X009875Y001862D01*
X009876Y001870D01*
X009878Y001878D01*
X009881Y001883D01*
X009881Y001886D01*
X009882Y001888D01*
X009887Y001898D01*
X009892Y001907D01*
X009897Y001915D01*
X009903Y001922D01*
X009908Y001928D01*
X009912Y001932D01*
X009915Y001935D01*
X009916Y001936D01*
X009925Y001944D01*
X009936Y001951D01*
X009948Y001959D01*
X009960Y001966D01*
X009970Y001972D01*
X009979Y001976D01*
X009983Y001978D01*
X009985Y001979D01*
X009986Y001980D01*
X009987D01*
X010003Y001988D01*
X010018Y001997D01*
X010031Y002005D01*
X010040Y002013D01*
X010050Y002021D01*
X010057Y002028D01*
X010063Y002035D01*
X010069Y002042D01*
X010072Y002047D01*
X010075Y002052D01*
X010077Y002057D01*
X010078Y002061D01*
X010079Y002064D01*
X010080Y002067D01*
Y002068D01*
Y002068D01*
X010079Y002077D01*
X010078Y002086D01*
X010075Y002093D01*
X010072Y002099D01*
X010069Y002104D01*
X010066Y002107D01*
X010065Y002109D01*
X010064Y002110D01*
X010057Y002116D01*
X010050Y002119D01*
X010042Y002122D01*
X010034Y002124D01*
X010027Y002125D01*
X010022Y002126D01*
X010008D01*
X009999Y002125D01*
X009980Y002121D01*
X009964Y002116D01*
X009950Y002110D01*
X009938Y002104D01*
X009932Y002101D01*
X009929Y002099D01*
X009925Y002096D01*
X009922Y002095D01*
X009921Y002094D01*
X009920Y002093D01*
X009894Y002169D01*
X009902Y002174D01*
X009910Y002179D01*
X009930Y002187D01*
X009951Y002193D01*
X009971Y002197D01*
X009981Y002198D01*
X009990Y002199D01*
X009998Y002200D01*
X010005D01*
X010011Y002201D01*
X010019D01*
X010031Y002200D01*
D02*
G37*
G36*
X010575D02*
X010586Y002199D01*
X010607Y002195D01*
X010625Y002189D01*
X010633Y002186D01*
X010641Y002182D01*
X010647Y002178D01*
X010653Y002175D01*
X010658Y002172D01*
X010662Y002169D01*
X010665Y002166D01*
X010667Y002164D01*
X010669Y002163D01*
X010670Y002163D01*
X010677Y002156D01*
X010683Y002148D01*
X010689Y002140D01*
X010693Y002132D01*
X010701Y002116D01*
X010706Y002101D01*
X010709Y002088D01*
X010709Y002082D01*
X010710Y002077D01*
X010711Y002073D01*
Y002070D01*
Y002068D01*
Y002068D01*
X010710Y002056D01*
X010709Y002046D01*
X010708Y002036D01*
X010706Y002029D01*
X010704Y002022D01*
X010702Y002017D01*
X010702Y002014D01*
X010701Y002012D01*
X010696Y002003D01*
X010692Y001995D01*
X010686Y001987D01*
X010682Y001981D01*
X010677Y001975D01*
X010674Y001972D01*
X010671Y001969D01*
X010671Y001969D01*
X010667Y001965D01*
X010661Y001961D01*
X010650Y001953D01*
X010638Y001946D01*
X010625Y001938D01*
X010613Y001931D01*
X010608Y001929D01*
X010604Y001926D01*
X010600Y001925D01*
X010597Y001923D01*
X010595Y001921D01*
X010594D01*
X010584Y001916D01*
X010575Y001912D01*
X010566Y001906D01*
X010559Y001902D01*
X010552Y001897D01*
X010546Y001893D01*
X010535Y001886D01*
X010528Y001879D01*
X010523Y001874D01*
X010520Y001871D01*
X010519Y001870D01*
X010513Y001862D01*
X010508Y001854D01*
X010505Y001845D01*
X010503Y001838D01*
X010502Y001832D01*
X010501Y001827D01*
Y001824D01*
Y001823D01*
X010502Y001813D01*
X010504Y001805D01*
X010508Y001798D01*
X010513Y001792D01*
X010519Y001787D01*
X010525Y001782D01*
X010532Y001778D01*
X010540Y001776D01*
X010554Y001772D01*
X010560Y001771D01*
X010566Y001770D01*
X010572Y001769D01*
X010578D01*
X010588Y001770D01*
X010597Y001771D01*
X010615Y001775D01*
X010632Y001781D01*
X010648Y001788D01*
X010661Y001794D01*
X010666Y001797D01*
X010671Y001800D01*
X010674Y001803D01*
X010677Y001804D01*
X010679Y001805D01*
X010680Y001806D01*
X010712Y001727D01*
X010701Y001721D01*
X010690Y001715D01*
X010669Y001706D01*
X010648Y001700D01*
X010629Y001696D01*
X010620Y001695D01*
X010613Y001693D01*
X010605Y001692D01*
X010599D01*
X010594Y001692D01*
X010588D01*
X010573Y001692D01*
X010559Y001693D01*
X010546Y001695D01*
X010534Y001698D01*
X010523Y001701D01*
X010513Y001704D01*
X010503Y001707D01*
X010495Y001711D01*
X010487Y001714D01*
X010480Y001717D01*
X010475Y001721D01*
X010470Y001724D01*
X010466Y001726D01*
X010464Y001728D01*
X010462Y001729D01*
X010461Y001730D01*
X010453Y001737D01*
X010446Y001745D01*
X010439Y001753D01*
X010434Y001762D01*
X010429Y001770D01*
X010425Y001778D01*
X010420Y001794D01*
X010416Y001807D01*
X010416Y001813D01*
X010415Y001819D01*
X010414Y001823D01*
Y001826D01*
Y001828D01*
Y001829D01*
X010415Y001841D01*
X010416Y001851D01*
X010418Y001862D01*
X010419Y001870D01*
X010422Y001878D01*
X010424Y001883D01*
X010425Y001886D01*
X010425Y001888D01*
X010430Y001898D01*
X010435Y001907D01*
X010441Y001915D01*
X010447Y001922D01*
X010451Y001928D01*
X010455Y001932D01*
X010458Y001935D01*
X010459Y001936D01*
X010468Y001944D01*
X010480Y001951D01*
X010491Y001959D01*
X010503Y001966D01*
X010514Y001972D01*
X010522Y001976D01*
X010526Y001978D01*
X010528Y001979D01*
X010530Y001980D01*
X010530D01*
X010546Y001988D01*
X010561Y001997D01*
X010574Y002005D01*
X010584Y002013D01*
X010593Y002021D01*
X010601Y002028D01*
X010607Y002035D01*
X010612Y002042D01*
X010616Y002047D01*
X010619Y002052D01*
X010620Y002057D01*
X010622Y002061D01*
X010623Y002064D01*
X010623Y002067D01*
Y002068D01*
Y002068D01*
X010623Y002077D01*
X010621Y002086D01*
X010618Y002093D01*
X010615Y002099D01*
X010613Y002104D01*
X010610Y002107D01*
X010608Y002109D01*
X010607Y002110D01*
X010601Y002116D01*
X010593Y002119D01*
X010585Y002122D01*
X010578Y002124D01*
X010571Y002125D01*
X010565Y002126D01*
X010551D01*
X010542Y002125D01*
X010524Y002121D01*
X010508Y002116D01*
X010493Y002110D01*
X010481Y002104D01*
X010476Y002101D01*
X010472Y002099D01*
X010468Y002096D01*
X010466Y002095D01*
X010464Y002094D01*
X010464Y002093D01*
X010437Y002169D01*
X010445Y002174D01*
X010454Y002179D01*
X010473Y002187D01*
X010494Y002193D01*
X010515Y002197D01*
X010524Y002198D01*
X010534Y002199D01*
X010541Y002200D01*
X010549D01*
X010554Y002201D01*
X010562D01*
X010575Y002200D01*
D02*
G37*
G36*
X008778Y002196D02*
X008792D01*
X008804Y002195D01*
X008815Y002195D01*
X008824D01*
X008828Y002194D01*
X008842D01*
X008849Y002193D01*
X008856D01*
X008862Y002192D01*
X008872D01*
X008879Y002192D01*
X008889D01*
Y001700D01*
X008798D01*
Y001905D01*
X008786Y001905D01*
X008775Y001904D01*
X008766D01*
X008758Y001903D01*
X008744D01*
X008611Y001700D01*
X008511D01*
X008657Y001921D01*
X008642Y001928D01*
X008630Y001935D01*
X008619Y001944D01*
X008609Y001952D01*
X008601Y001960D01*
X008596Y001966D01*
X008593Y001970D01*
X008591Y001971D01*
Y001972D01*
X008583Y001985D01*
X008576Y002000D01*
X008572Y002013D01*
X008569Y002026D01*
X008567Y002036D01*
X008566Y002044D01*
Y002047D01*
Y002049D01*
Y002051D01*
Y002052D01*
X008566Y002065D01*
X008568Y002077D01*
X008570Y002089D01*
X008574Y002100D01*
X008578Y002109D01*
X008583Y002119D01*
X008594Y002135D01*
X008609Y002150D01*
X008625Y002161D01*
X008642Y002171D01*
X008659Y002179D01*
X008677Y002185D01*
X008693Y002189D01*
X008709Y002192D01*
X008724Y002195D01*
X008735Y002196D01*
X008741D01*
X008744Y002197D01*
X008765D01*
X008778Y002196D01*
D02*
G37*
G36*
X003213Y006312D02*
X003221Y006311D01*
X003228Y006310D01*
X003233Y006308D01*
X003237Y006306D01*
X003239Y006304D01*
X003241Y006304D01*
X003242Y006303D01*
X003245Y006299D01*
X003248Y006295D01*
X003251Y006286D01*
X003251Y006282D01*
X003252Y006280D01*
Y006278D01*
Y006277D01*
X003251Y006272D01*
X003251Y006266D01*
X003247Y006258D01*
X003245Y006255D01*
X003243Y006253D01*
X003242Y006252D01*
X003242Y006251D01*
X003237Y006248D01*
X003231Y006246D01*
X003219Y006244D01*
X003213Y006243D01*
X003209Y006242D01*
X003147D01*
Y006071D01*
X003232D01*
X003241Y006070D01*
X003248Y006069D01*
X003255Y006068D01*
X003261Y006066D01*
X003264Y006064D01*
X003267Y006062D01*
X003268Y006062D01*
X003269Y006061D01*
X003273Y006057D01*
X003275Y006053D01*
X003278Y006044D01*
X003279Y006040D01*
X003280Y006038D01*
Y006036D01*
Y006035D01*
X003279Y006030D01*
X003278Y006024D01*
X003274Y006016D01*
X003272Y006013D01*
X003270Y006011D01*
X003270Y006010D01*
X003269Y006009D01*
X003264Y006006D01*
X003258Y006004D01*
X003246Y006002D01*
X003241Y006001D01*
X003236Y006000D01*
X002992D01*
X002983Y006001D01*
X002975Y006002D01*
X002969Y006003D01*
X002964Y006005D01*
X002960Y006006D01*
X002958Y006008D01*
X002956Y006009D01*
X002955D01*
X002952Y006013D01*
X002949Y006018D01*
X002947Y006022D01*
X002945Y006026D01*
X002945Y006030D01*
X002944Y006033D01*
Y006034D01*
Y006035D01*
X002945Y006041D01*
X002945Y006046D01*
X002949Y006054D01*
X002952Y006057D01*
X002954Y006059D01*
X002955Y006060D01*
X002955Y006061D01*
X002960Y006064D01*
X002965Y006067D01*
X002977Y006069D01*
X002983Y006070D01*
X002987Y006071D01*
X003076D01*
Y006313D01*
X003204D01*
X003213Y006312D01*
D02*
G37*
G36*
X007774Y006081D02*
X007782Y006080D01*
X007788Y006078D01*
X007794Y006075D01*
X007798Y006073D01*
X007801Y006071D01*
X007804Y006069D01*
X007804Y006068D01*
X007809Y006063D01*
X007812Y006058D01*
X007815Y006052D01*
X007817Y006046D01*
X007817Y006042D01*
X007818Y006038D01*
Y006036D01*
Y006035D01*
X007817Y006028D01*
X007816Y006021D01*
X007814Y006016D01*
X007811Y006011D01*
X007809Y006007D01*
X007807Y006004D01*
X007805Y006002D01*
X007804Y006002D01*
X007798Y005997D01*
X007792Y005994D01*
X007785Y005992D01*
X007779Y005990D01*
X007774Y005989D01*
X007769Y005989D01*
X007766D01*
X007757Y005989D01*
X007749Y005991D01*
X007742Y005992D01*
X007737Y005995D01*
X007732Y005998D01*
X007729Y005999D01*
X007728Y006001D01*
X007727Y006002D01*
X007722Y006007D01*
X007718Y006013D01*
X007716Y006018D01*
X007714Y006024D01*
X007713Y006028D01*
X007712Y006032D01*
Y006034D01*
Y006035D01*
X007713Y006042D01*
X007715Y006049D01*
X007717Y006054D01*
X007719Y006059D01*
X007722Y006063D01*
X007725Y006066D01*
X007726Y006068D01*
X007727Y006068D01*
X007732Y006073D01*
X007739Y006076D01*
X007745Y006079D01*
X007751Y006081D01*
X007757Y006081D01*
X007762Y006082D01*
X007766D01*
X007774Y006081D01*
D02*
G37*
G36*
X009203Y002200D02*
X009219Y002198D01*
X009235Y002194D01*
X009250Y002189D01*
X009263Y002184D01*
X009276Y002178D01*
X009288Y002171D01*
X009298Y002164D01*
X009308Y002157D01*
X009316Y002151D01*
X009323Y002144D01*
X009329Y002139D01*
X009333Y002135D01*
X009336Y002131D01*
X009339Y002128D01*
X009340Y002128D01*
X009349Y002114D01*
X009359Y002099D01*
X009366Y002084D01*
X009372Y002069D01*
X009378Y002054D01*
X009383Y002039D01*
X009387Y002025D01*
X009390Y002011D01*
X009392Y001998D01*
X009394Y001987D01*
X009395Y001976D01*
X009396Y001967D01*
Y001960D01*
X009397Y001954D01*
Y001951D01*
Y001950D01*
X009396Y001928D01*
X009394Y001907D01*
X009392Y001887D01*
X009388Y001869D01*
X009384Y001852D01*
X009380Y001837D01*
X009375Y001823D01*
X009370Y001810D01*
X009365Y001798D01*
X009361Y001788D01*
X009356Y001780D01*
X009352Y001773D01*
X009349Y001767D01*
X009346Y001763D01*
X009345Y001761D01*
X009344Y001760D01*
X009333Y001748D01*
X009322Y001737D01*
X009311Y001728D01*
X009298Y001721D01*
X009285Y001714D01*
X009273Y001708D01*
X009260Y001704D01*
X009248Y001700D01*
X009237Y001698D01*
X009226Y001695D01*
X009216Y001694D01*
X009208Y001692D01*
X009201D01*
X009196Y001692D01*
X009192D01*
X009172Y001692D01*
X009154Y001695D01*
X009136Y001698D01*
X009120Y001702D01*
X009106Y001708D01*
X009092Y001714D01*
X009080Y001720D01*
X009069Y001727D01*
X009059Y001733D01*
X009050Y001739D01*
X009043Y001745D01*
X009037Y001750D01*
X009032Y001755D01*
X009029Y001758D01*
X009027Y001760D01*
X009026Y001761D01*
X009015Y001775D01*
X009006Y001789D01*
X008999Y001804D01*
X008992Y001820D01*
X008986Y001835D01*
X008981Y001851D01*
X008977Y001867D01*
X008974Y001882D01*
X008972Y001896D01*
X008970Y001909D01*
X008968Y001920D01*
X008967Y001930D01*
X008967Y001938D01*
Y001944D01*
Y001948D01*
Y001950D01*
X008967Y001972D01*
X008969Y001992D01*
X008972Y002011D01*
X008976Y002029D01*
X008980Y002045D01*
X008984Y002061D01*
X008989Y002074D01*
X008995Y002087D01*
X009000Y002098D01*
X009005Y002108D01*
X009010Y002116D01*
X009014Y002122D01*
X009018Y002128D01*
X009021Y002131D01*
X009022Y002134D01*
X009023Y002135D01*
X009034Y002146D01*
X009046Y002157D01*
X009059Y002165D01*
X009072Y002173D01*
X009085Y002179D01*
X009099Y002185D01*
X009112Y002189D01*
X009125Y002192D01*
X009137Y002195D01*
X009149Y002197D01*
X009158Y002198D01*
X009168Y002200D01*
X009175D01*
X009180Y002201D01*
X009185D01*
X009203Y002200D01*
D02*
G37*
G36*
X012161Y006446D02*
X012169Y006445D01*
X012176Y006444D01*
X012181Y006442D01*
X012185Y006440D01*
X012187Y006438D01*
X012189Y006438D01*
X012189Y006437D01*
X012193Y006433D01*
X012195Y006428D01*
X012198Y006420D01*
X012199Y006416D01*
X012200Y006414D01*
Y006412D01*
Y006411D01*
X012199Y006406D01*
X012198Y006400D01*
X012195Y006392D01*
X012192Y006389D01*
X012191Y006387D01*
X012190Y006386D01*
X012189Y006385D01*
X012185Y006382D01*
X012179Y006380D01*
X012167Y006377D01*
X012161Y006377D01*
X012157Y006376D01*
X012140D01*
Y006071D01*
X012149D01*
X012157Y006070D01*
X012162Y006068D01*
X012167Y006068D01*
X012170Y006066D01*
X012172Y006065D01*
X012173Y006064D01*
X012178Y006059D01*
X012182Y006054D01*
X012184Y006049D01*
X012186Y006045D01*
X012187Y006041D01*
X012188Y006038D01*
Y006036D01*
Y006035D01*
X012187Y006030D01*
X012186Y006024D01*
X012183Y006016D01*
X012180Y006013D01*
X012179Y006011D01*
X012178Y006010D01*
X012177Y006009D01*
X012173Y006006D01*
X012167Y006004D01*
X012154Y006002D01*
X012149Y006001D01*
X012144Y006000D01*
X012069D01*
X012060Y006001D01*
X012052Y006002D01*
X012046Y006003D01*
X012041Y006005D01*
X012037Y006006D01*
X012035Y006008D01*
X012033Y006009D01*
X012033D01*
X012029Y006013D01*
X012026Y006018D01*
X012024Y006022D01*
X012023Y006026D01*
X012022Y006030D01*
X012021Y006033D01*
Y006034D01*
Y006035D01*
X012022Y006041D01*
X012023Y006046D01*
X012029Y006056D01*
X012032Y006059D01*
X012034Y006062D01*
X012036Y006063D01*
X012036Y006064D01*
X012039Y006066D01*
X012044Y006068D01*
X012055Y006070D01*
X012061Y006071D01*
X012069D01*
Y006202D01*
X012058Y006212D01*
X012049Y006221D01*
X012040Y006228D01*
X012033Y006233D01*
X012028Y006237D01*
X012024Y006240D01*
X012022Y006240D01*
X012021Y006241D01*
X012014Y006244D01*
X012007Y006247D01*
X012000Y006249D01*
X011993Y006250D01*
X011988Y006250D01*
X011983Y006251D01*
X011979D01*
X011969Y006250D01*
X011959Y006249D01*
X011950Y006247D01*
X011944Y006244D01*
X011939Y006240D01*
X011935Y006238D01*
X011933Y006237D01*
X011932Y006236D01*
X011928Y006231D01*
X011925Y006225D01*
X011922Y006219D01*
X011921Y006213D01*
X011920Y006207D01*
X011919Y006202D01*
Y006199D01*
Y006198D01*
Y006071D01*
X011928D01*
X011936Y006070D01*
X011942Y006068D01*
X011947Y006068D01*
X011950Y006066D01*
X011952Y006065D01*
X011953Y006064D01*
X011953D01*
X011958Y006059D01*
X011961Y006054D01*
X011964Y006049D01*
X011966Y006045D01*
X011966Y006041D01*
X011967Y006038D01*
Y006036D01*
Y006035D01*
X011966Y006030D01*
X011966Y006024D01*
X011962Y006016D01*
X011960Y006013D01*
X011958Y006011D01*
X011957Y006010D01*
X011956Y006009D01*
X011952Y006006D01*
X011946Y006004D01*
X011934Y006002D01*
X011928Y006001D01*
X011924Y006000D01*
X011848D01*
X011839Y006001D01*
X011832Y006002D01*
X011826Y006003D01*
X011820Y006005D01*
X011816Y006006D01*
X011814Y006008D01*
X011813Y006009D01*
X011812D01*
X011808Y006013D01*
X011805Y006018D01*
X011804Y006022D01*
X011802Y006026D01*
X011801Y006030D01*
X011800Y006033D01*
Y006034D01*
Y006035D01*
X011801Y006041D01*
X011803Y006046D01*
X011808Y006056D01*
X011811Y006059D01*
X011813Y006062D01*
X011815Y006063D01*
X011816Y006064D01*
X011819Y006066D01*
X011823Y006068D01*
X011835Y006070D01*
X011840Y006071D01*
X011848D01*
Y006203D01*
X011849Y006218D01*
X011851Y006231D01*
X011855Y006242D01*
X011858Y006252D01*
X011861Y006259D01*
X011864Y006266D01*
X011867Y006269D01*
X011867Y006270D01*
X011875Y006279D01*
X011883Y006288D01*
X011891Y006295D01*
X011899Y006300D01*
X011905Y006304D01*
X011911Y006307D01*
X011914Y006308D01*
X011915Y006309D01*
X011926Y006314D01*
X011937Y006317D01*
X011948Y006319D01*
X011958Y006320D01*
X011966Y006321D01*
X011973Y006322D01*
X011979D01*
X011997Y006321D01*
X012004Y006320D01*
X012011Y006319D01*
X012017Y006317D01*
X012022Y006316D01*
X012025Y006315D01*
X012026D01*
X012042Y006310D01*
X012049Y006307D01*
X012055Y006304D01*
X012062Y006301D01*
X012065Y006298D01*
X012068Y006297D01*
X012069Y006296D01*
Y006447D01*
X012152D01*
X012161Y006446D01*
D02*
G37*
G36*
X006106Y006323D02*
X006119Y006321D01*
X006131Y006319D01*
X006142Y006316D01*
X006153Y006312D01*
X006163Y006308D01*
X006172Y006304D01*
X006180Y006299D01*
X006188Y006295D01*
X006195Y006290D01*
X006200Y006286D01*
X006205Y006282D01*
X006209Y006279D01*
X006212Y006277D01*
X006213Y006275D01*
X006214Y006275D01*
X006222Y006266D01*
X006230Y006256D01*
X006236Y006246D01*
X006241Y006236D01*
X006246Y006226D01*
X006251Y006216D01*
X006256Y006197D01*
X006258Y006189D01*
X006260Y006180D01*
X006260Y006174D01*
X006261Y006167D01*
X006262Y006162D01*
Y006158D01*
Y006156D01*
Y006155D01*
X006261Y006142D01*
X006260Y006130D01*
X006257Y006118D01*
X006254Y006107D01*
X006247Y006087D01*
X006242Y006078D01*
X006238Y006069D01*
X006234Y006062D01*
X006229Y006056D01*
X006225Y006049D01*
X006222Y006045D01*
X006219Y006041D01*
X006216Y006039D01*
X006215Y006037D01*
X006214Y006037D01*
X006205Y006028D01*
X006195Y006021D01*
X006185Y006014D01*
X006174Y006009D01*
X006165Y006005D01*
X006155Y006000D01*
X006135Y005995D01*
X006126Y005992D01*
X006118Y005991D01*
X006111Y005990D01*
X006105Y005989D01*
X006100Y005989D01*
X006093D01*
X006075Y005990D01*
X006066Y005991D01*
X006059Y005992D01*
X006053Y005994D01*
X006047Y005995D01*
X006044Y005996D01*
X006044D01*
X006034Y005999D01*
X006026Y006002D01*
X006018Y006006D01*
X006010Y006010D01*
X006004Y006013D01*
X005999Y006016D01*
X005996Y006018D01*
X005996Y006018D01*
Y005985D01*
X005996Y005975D01*
X005999Y005967D01*
X006002Y005959D01*
X006005Y005953D01*
X006008Y005947D01*
X006011Y005944D01*
X006013Y005941D01*
X006014Y005941D01*
X006021Y005935D01*
X006029Y005931D01*
X006037Y005928D01*
X006045Y005925D01*
X006052Y005924D01*
X006058Y005923D01*
X006150D01*
X006158Y005922D01*
X006164Y005920D01*
X006169Y005919D01*
X006173Y005917D01*
X006175Y005916D01*
X006177Y005915D01*
X006177Y005914D01*
X006181Y005910D01*
X006184Y005906D01*
X006187Y005897D01*
X006187Y005893D01*
X006188Y005891D01*
Y005889D01*
Y005888D01*
X006187Y005883D01*
X006187Y005877D01*
X006183Y005869D01*
X006180Y005866D01*
X006179Y005864D01*
X006178Y005863D01*
X006177Y005862D01*
X006173Y005859D01*
X006168Y005857D01*
X006155Y005854D01*
X006150Y005853D01*
X006145Y005852D01*
X006062D01*
X006047Y005853D01*
X006034Y005855D01*
X006021Y005859D01*
X006011Y005863D01*
X006002Y005866D01*
X005995Y005870D01*
X005991Y005872D01*
X005989Y005873D01*
X005978Y005881D01*
X005968Y005889D01*
X005960Y005896D01*
X005953Y005904D01*
X005948Y005911D01*
X005944Y005916D01*
X005942Y005919D01*
X005941Y005921D01*
X005935Y005932D01*
X005932Y005943D01*
X005929Y005954D01*
X005927Y005963D01*
X005926Y005973D01*
X005925Y005979D01*
Y005984D01*
Y005985D01*
Y005986D01*
Y006242D01*
X005913D01*
X005903Y006243D01*
X005896Y006244D01*
X005890Y006245D01*
X005884Y006247D01*
X005881Y006248D01*
X005878Y006250D01*
X005877Y006251D01*
X005876D01*
X005872Y006255D01*
X005869Y006259D01*
X005868Y006264D01*
X005866Y006268D01*
X005865Y006272D01*
X005865Y006275D01*
Y006276D01*
Y006277D01*
X005865Y006283D01*
X005866Y006288D01*
X005870Y006296D01*
X005872Y006299D01*
X005875Y006301D01*
X005875Y006302D01*
X005876Y006303D01*
X005881Y006306D01*
X005886Y006309D01*
X005898Y006311D01*
X005903Y006312D01*
X005908Y006313D01*
X005996D01*
Y006291D01*
X006004Y006297D01*
X006012Y006302D01*
X006020Y006306D01*
X006027Y006309D01*
X006033Y006312D01*
X006038Y006314D01*
X006041Y006315D01*
X006042D01*
X006051Y006318D01*
X006060Y006320D01*
X006069Y006321D01*
X006076Y006323D01*
X006083D01*
X006088Y006323D01*
X006093D01*
X006106Y006323D01*
D02*
G37*
G36*
X001054Y006321D02*
X001060Y006320D01*
X001064Y006319D01*
X001069Y006317D01*
X001072Y006316D01*
X001073Y006315D01*
X001074D01*
X001080Y006312D01*
X001085Y006309D01*
X001095Y006301D01*
X001099Y006298D01*
X001102Y006295D01*
X001104Y006293D01*
X001105Y006292D01*
Y006313D01*
X001175D01*
X001185Y006312D01*
X001192Y006311D01*
X001199Y006310D01*
X001204Y006308D01*
X001208Y006306D01*
X001210Y006304D01*
X001212Y006304D01*
X001213Y006303D01*
X001216Y006299D01*
X001219Y006295D01*
X001222Y006286D01*
X001223Y006282D01*
X001223Y006280D01*
Y006278D01*
Y006277D01*
X001223Y006272D01*
X001222Y006266D01*
X001218Y006258D01*
X001216Y006255D01*
X001214Y006253D01*
X001213Y006252D01*
X001213Y006251D01*
X001208Y006248D01*
X001202Y006246D01*
X001190Y006244D01*
X001185Y006243D01*
X001180Y006242D01*
X001175D01*
Y006071D01*
X001185Y006070D01*
X001192Y006069D01*
X001199Y006068D01*
X001204Y006066D01*
X001208Y006064D01*
X001210Y006062D01*
X001212Y006062D01*
X001213Y006061D01*
X001216Y006057D01*
X001219Y006053D01*
X001222Y006044D01*
X001223Y006040D01*
X001223Y006038D01*
Y006036D01*
Y006035D01*
X001223Y006030D01*
X001222Y006024D01*
X001218Y006016D01*
X001216Y006013D01*
X001214Y006011D01*
X001213Y006010D01*
X001213Y006009D01*
X001208Y006006D01*
X001202Y006004D01*
X001190Y006002D01*
X001185Y006001D01*
X001180Y006000D01*
X001105D01*
X001095Y006001D01*
X001088Y006002D01*
X001082Y006003D01*
X001076Y006005D01*
X001073Y006006D01*
X001070Y006008D01*
X001069Y006009D01*
X001068D01*
X001064Y006013D01*
X001061Y006018D01*
X001060Y006022D01*
X001058Y006026D01*
X001057Y006030D01*
X001057Y006033D01*
Y006034D01*
Y006035D01*
X001057Y006041D01*
X001058Y006046D01*
X001062Y006054D01*
X001064Y006057D01*
X001067Y006059D01*
X001067Y006060D01*
X001068Y006061D01*
X001073Y006064D01*
X001078Y006067D01*
X001090Y006069D01*
X001095Y006070D01*
X001100Y006071D01*
X001105D01*
Y006212D01*
X001099Y006220D01*
X001093Y006227D01*
X001089Y006232D01*
X001084Y006236D01*
X001081Y006239D01*
X001079Y006241D01*
X001077Y006243D01*
X001076D01*
X001072Y006246D01*
X001067Y006247D01*
X001059Y006250D01*
X001056D01*
X001054Y006251D01*
X001051D01*
X001043Y006250D01*
X001038Y006248D01*
X001034Y006245D01*
X001033Y006244D01*
X001031Y006241D01*
X001029Y006238D01*
X001028Y006231D01*
X001027Y006228D01*
Y006224D01*
Y006223D01*
Y006222D01*
Y006000D01*
X000956D01*
X000947Y006001D01*
X000939Y006002D01*
X000933Y006003D01*
X000928Y006005D01*
X000924Y006006D01*
X000922Y006008D01*
X000920Y006009D01*
X000920D01*
X000916Y006013D01*
X000913Y006018D01*
X000911Y006022D01*
X000910Y006026D01*
X000909Y006030D01*
X000908Y006033D01*
Y006034D01*
Y006035D01*
X000909Y006041D01*
X000910Y006046D01*
X000914Y006054D01*
X000916Y006057D01*
X000918Y006059D01*
X000919Y006060D01*
X000920Y006061D01*
X000924Y006064D01*
X000930Y006067D01*
X000942Y006069D01*
X000947Y006070D01*
X000952Y006071D01*
X000956D01*
Y006212D01*
X000950Y006221D01*
X000944Y006228D01*
X000939Y006233D01*
X000934Y006237D01*
X000931Y006240D01*
X000928Y006243D01*
X000927Y006244D01*
X000926Y006244D01*
X000918Y006248D01*
X000911Y006250D01*
X000908Y006251D01*
X000904D01*
X000896Y006250D01*
X000891Y006248D01*
X000887Y006245D01*
X000886Y006244D01*
X000884Y006241D01*
X000882Y006238D01*
X000881Y006231D01*
X000880Y006228D01*
Y006224D01*
Y006223D01*
Y006222D01*
Y006000D01*
X000809D01*
X000800Y006001D01*
X000793Y006002D01*
X000787Y006003D01*
X000781Y006005D01*
X000777Y006006D01*
X000775Y006008D01*
X000774Y006009D01*
X000773D01*
X000769Y006013D01*
X000766Y006018D01*
X000764Y006022D01*
X000763Y006026D01*
X000762Y006030D01*
X000761Y006033D01*
Y006034D01*
Y006035D01*
X000762Y006041D01*
X000763Y006046D01*
X000767Y006054D01*
X000769Y006057D01*
X000771Y006059D01*
X000772Y006060D01*
X000773Y006061D01*
X000777Y006064D01*
X000783Y006067D01*
X000795Y006069D01*
X000800Y006070D01*
X000805Y006071D01*
X000809D01*
Y006228D01*
Y006237D01*
X000811Y006244D01*
X000815Y006259D01*
X000820Y006271D01*
X000825Y006282D01*
X000831Y006290D01*
X000837Y006295D01*
X000841Y006299D01*
X000841Y006301D01*
X000842D01*
X000852Y006307D01*
X000863Y006313D01*
X000873Y006317D01*
X000883Y006320D01*
X000892Y006321D01*
X000899Y006322D01*
X000906D01*
X000920Y006320D01*
X000927Y006320D01*
X000933Y006318D01*
X000938Y006317D01*
X000942Y006316D01*
X000944Y006314D01*
X000945D01*
X000959Y006307D01*
X000965Y006304D01*
X000970Y006300D01*
X000974Y006297D01*
X000978Y006294D01*
X000981Y006292D01*
X000981Y006291D01*
X000992Y006301D01*
X001002Y006309D01*
X001006Y006311D01*
X001009Y006313D01*
X001010Y006314D01*
X001011D01*
X001022Y006319D01*
X001032Y006321D01*
X001036Y006322D01*
X001041D01*
X001054Y006321D01*
D02*
G37*
G36*
X011400Y002442D02*
X000981D01*
Y003351D01*
X011400D01*
Y002442D01*
D02*
G37*
G36*
X003170Y006372D02*
X003086D01*
Y006447D01*
X003170D01*
Y006372D01*
D02*
G37*
G36*
X001848Y006321D02*
X001863Y006320D01*
X001876Y006317D01*
X001888Y006314D01*
X001900Y006310D01*
X001911Y006306D01*
X001920Y006302D01*
X001930Y006298D01*
X001937Y006292D01*
X001944Y006288D01*
X001950Y006284D01*
X001955Y006280D01*
X001959Y006277D01*
X001962Y006275D01*
X001964Y006273D01*
X001965Y006272D01*
X001973Y006263D01*
X001981Y006253D01*
X001987Y006243D01*
X001993Y006232D01*
X001998Y006221D01*
X002002Y006212D01*
X002008Y006192D01*
X002010Y006183D01*
X002012Y006174D01*
X002012Y006167D01*
X002013Y006161D01*
X002014Y006155D01*
Y006151D01*
Y006148D01*
Y006148D01*
X002013Y006133D01*
X002011Y006119D01*
X002008Y006107D01*
X002004Y006094D01*
X002000Y006083D01*
X001994Y006073D01*
X001989Y006063D01*
X001983Y006055D01*
X001977Y006047D01*
X001972Y006041D01*
X001967Y006035D01*
X001962Y006030D01*
X001958Y006027D01*
X001955Y006024D01*
X001953Y006023D01*
X001952Y006022D01*
X001943Y006016D01*
X001934Y006011D01*
X001913Y006003D01*
X001891Y005997D01*
X001871Y005993D01*
X001862Y005992D01*
X001853Y005990D01*
X001845Y005989D01*
X001838D01*
X001832Y005989D01*
X001808D01*
X001793Y005990D01*
X001778Y005992D01*
X001764Y005993D01*
X001752Y005996D01*
X001741Y005998D01*
X001730Y006002D01*
X001721Y006005D01*
X001713Y006007D01*
X001706Y006010D01*
X001700Y006013D01*
X001695Y006015D01*
X001691Y006017D01*
X001688Y006018D01*
X001687Y006020D01*
X001686D01*
X001680Y006024D01*
X001675Y006027D01*
X001667Y006035D01*
X001661Y006043D01*
X001657Y006049D01*
X001655Y006056D01*
X001654Y006060D01*
X001653Y006063D01*
Y006064D01*
X001654Y006069D01*
X001655Y006074D01*
X001659Y006082D01*
X001661Y006085D01*
X001662Y006088D01*
X001663Y006088D01*
X001664Y006089D01*
X001668Y006093D01*
X001672Y006096D01*
X001677Y006097D01*
X001681Y006099D01*
X001684Y006100D01*
X001687Y006100D01*
X001689D01*
X001694Y006100D01*
X001698Y006098D01*
X001707Y006094D01*
X001711Y006091D01*
X001714Y006089D01*
X001716Y006088D01*
X001716Y006087D01*
X001727Y006078D01*
X001738Y006072D01*
X001742Y006070D01*
X001745Y006069D01*
X001747Y006068D01*
X001748D01*
X001758Y006065D01*
X001770Y006063D01*
X001783Y006062D01*
X001793Y006060D01*
X001804D01*
X001812Y006059D01*
X001831D01*
X001843Y006060D01*
X001853Y006062D01*
X001863Y006063D01*
X001871Y006065D01*
X001879Y006067D01*
X001886Y006069D01*
X001892Y006072D01*
X001898Y006073D01*
X001902Y006075D01*
X001910Y006079D01*
X001914Y006082D01*
X001915Y006083D01*
X001924Y006093D01*
X001931Y006103D01*
X001936Y006114D01*
X001939Y006124D01*
X001942Y006133D01*
X001942Y006141D01*
X001943Y006144D01*
Y006146D01*
Y006147D01*
Y006148D01*
X001942Y006164D01*
X001939Y006178D01*
X001934Y006191D01*
X001928Y006202D01*
X001923Y006210D01*
X001918Y006216D01*
X001915Y006220D01*
X001914Y006221D01*
X001901Y006231D01*
X001888Y006239D01*
X001876Y006244D01*
X001863Y006247D01*
X001851Y006250D01*
X001846Y006250D01*
X001842D01*
X001838Y006251D01*
X001834D01*
X001818Y006250D01*
X001804Y006249D01*
X001792Y006246D01*
X001782Y006243D01*
X001774Y006240D01*
X001767Y006237D01*
X001764Y006235D01*
X001763Y006234D01*
X001758Y006231D01*
X001753Y006226D01*
X001750Y006221D01*
X001747Y006217D01*
X001745Y006212D01*
X001744Y006209D01*
X001743Y006206D01*
Y006205D01*
X001742Y006199D01*
X001739Y006193D01*
X001738Y006189D01*
X001735Y006186D01*
X001734Y006183D01*
X001732Y006182D01*
X001732Y006180D01*
X001723Y006176D01*
X001716Y006174D01*
X001713D01*
X001710Y006173D01*
X001707D01*
X001701Y006174D01*
X001697Y006174D01*
X001688Y006178D01*
X001685Y006180D01*
X001683Y006182D01*
X001682Y006183D01*
X001681Y006183D01*
X001678Y006188D01*
X001675Y006193D01*
X001673Y006205D01*
X001672Y006211D01*
X001672Y006215D01*
Y006218D01*
Y006219D01*
Y006265D01*
X001672Y006274D01*
X001673Y006281D01*
X001675Y006287D01*
X001676Y006292D01*
X001678Y006296D01*
X001680Y006298D01*
X001681Y006300D01*
X001681Y006301D01*
X001685Y006304D01*
X001690Y006307D01*
X001694Y006309D01*
X001697Y006310D01*
X001701Y006311D01*
X001704Y006312D01*
X001707D01*
X001712Y006311D01*
X001716Y006310D01*
X001725Y006306D01*
X001728Y006304D01*
X001730Y006302D01*
X001732Y006301D01*
X001732Y006300D01*
X001748Y006307D01*
X001757Y006310D01*
X001764Y006312D01*
X001770Y006314D01*
X001774Y006315D01*
X001777Y006316D01*
X001779D01*
X001798Y006320D01*
X001807Y006320D01*
X001815Y006321D01*
X001823Y006322D01*
X001834D01*
X001848Y006321D01*
D02*
G37*
G36*
X006941D02*
X006950Y006320D01*
X006957Y006320D01*
X006964Y006319D01*
X006970Y006318D01*
X006973Y006317D01*
X006974D01*
X006994Y006314D01*
X007003Y006312D01*
X007011Y006310D01*
X007018Y006308D01*
X007023Y006307D01*
X007026Y006306D01*
X007027D01*
X007034Y006304D01*
X007040Y006302D01*
X007044Y006300D01*
X007048Y006299D01*
X007050Y006298D01*
X007052Y006297D01*
X007053Y006296D01*
X007057Y006293D01*
X007060Y006289D01*
X007062Y006287D01*
X007063Y006285D01*
X007065Y006281D01*
X007066Y006275D01*
X007066Y006272D01*
Y006271D01*
Y006270D01*
X007066Y006265D01*
X007065Y006259D01*
X007062Y006251D01*
X007060Y006248D01*
X007059Y006246D01*
X007057Y006245D01*
Y006244D01*
X007053Y006241D01*
X007049Y006239D01*
X007041Y006236D01*
X007038Y006235D01*
X007035Y006234D01*
X007033D01*
X007024Y006235D01*
X007015Y006237D01*
X007010D01*
X007007Y006237D01*
X007005Y006238D01*
X007004D01*
X006986Y006243D01*
X006970Y006246D01*
X006956Y006248D01*
X006945Y006250D01*
X006935Y006250D01*
X006928Y006251D01*
X006922D01*
X006909Y006250D01*
X006898Y006250D01*
X006889Y006248D01*
X006881Y006246D01*
X006876Y006244D01*
X006873Y006242D01*
X006871Y006241D01*
X006870Y006240D01*
X006865Y006237D01*
X006862Y006232D01*
X006859Y006228D01*
X006858Y006224D01*
X006857Y006221D01*
X006856Y006218D01*
Y006216D01*
Y006215D01*
Y006198D01*
X006871Y006200D01*
X006886Y006202D01*
X006899Y006204D01*
X006910Y006205D01*
X006919Y006205D01*
X006931D01*
X006945Y006205D01*
X006959Y006204D01*
X006972Y006202D01*
X006984Y006199D01*
X006996Y006196D01*
X007005Y006193D01*
X007015Y006190D01*
X007024Y006186D01*
X007031Y006183D01*
X007037Y006180D01*
X007043Y006177D01*
X007048Y006174D01*
X007052Y006171D01*
X007054Y006169D01*
X007056Y006168D01*
X007056Y006167D01*
X007064Y006161D01*
X007071Y006153D01*
X007077Y006145D01*
X007082Y006138D01*
X007087Y006132D01*
X007091Y006125D01*
X007096Y006112D01*
X007099Y006100D01*
X007101Y006092D01*
X007101Y006089D01*
Y006087D01*
Y006085D01*
Y006084D01*
X007101Y006078D01*
X007100Y006072D01*
X007096Y006059D01*
X007090Y006048D01*
X007084Y006038D01*
X007078Y006030D01*
X007072Y006024D01*
X007068Y006020D01*
X007066Y006018D01*
X007052Y006008D01*
X007037Y006001D01*
X007021Y005996D01*
X007006Y005992D01*
X006993Y005990D01*
X006988Y005989D01*
X006983D01*
X006979Y005989D01*
X006973D01*
X006954Y005989D01*
X006944Y005991D01*
X006935Y005992D01*
X006927Y005993D01*
X006921Y005995D01*
X006917Y005995D01*
X006916D01*
X006903Y005998D01*
X006893Y006002D01*
X006882Y006005D01*
X006874Y006008D01*
X006866Y006012D01*
X006861Y006014D01*
X006858Y006016D01*
X006856Y006017D01*
Y006000D01*
X006773D01*
X006764Y006001D01*
X006757Y006002D01*
X006750Y006003D01*
X006745Y006005D01*
X006741Y006006D01*
X006739Y006008D01*
X006738Y006009D01*
X006737D01*
X006733Y006013D01*
X006730Y006018D01*
X006728Y006022D01*
X006727Y006026D01*
X006726Y006030D01*
X006725Y006033D01*
Y006034D01*
Y006035D01*
X006726Y006041D01*
X006727Y006046D01*
X006731Y006054D01*
X006733Y006057D01*
X006735Y006059D01*
X006736Y006060D01*
X006737Y006061D01*
X006741Y006064D01*
X006747Y006067D01*
X006759Y006069D01*
X006764Y006070D01*
X006769Y006071D01*
X006785D01*
Y006215D01*
X006786Y006224D01*
X006787Y006233D01*
X006791Y006248D01*
X006797Y006262D01*
X006804Y006272D01*
X006811Y006282D01*
X006816Y006288D01*
X006820Y006291D01*
X006821Y006293D01*
X006822D01*
X006837Y006303D01*
X006853Y006310D01*
X006871Y006315D01*
X006887Y006318D01*
X006902Y006320D01*
X006908Y006321D01*
X006914D01*
X006919Y006322D01*
X006925D01*
X006941Y006321D01*
D02*
G37*
G36*
X008791Y006312D02*
X008796Y006311D01*
X008804Y006308D01*
X008807Y006306D01*
X008808Y006304D01*
X008810Y006304D01*
X008811Y006303D01*
X008814Y006299D01*
X008817Y006295D01*
X008820Y006286D01*
X008820Y006282D01*
X008821Y006280D01*
Y006278D01*
Y006277D01*
X008820Y006272D01*
X008820Y006266D01*
X008816Y006258D01*
X008814Y006255D01*
X008812Y006253D01*
X008811Y006252D01*
X008811Y006251D01*
X008807Y006248D01*
X008802Y006246D01*
X008795Y006244D01*
X008791Y006243D01*
X008788Y006242D01*
X008786D01*
X008728Y006000D01*
X008661D01*
X008612Y006130D01*
X008561Y006000D01*
X008495D01*
X008437Y006242D01*
X008432Y006243D01*
X008428Y006244D01*
X008420Y006247D01*
X008417Y006248D01*
X008415Y006250D01*
X008414Y006251D01*
X008413D01*
X008409Y006255D01*
X008406Y006259D01*
X008405Y006264D01*
X008403Y006268D01*
X008403Y006272D01*
X008402Y006275D01*
Y006276D01*
Y006277D01*
X008403Y006283D01*
X008403Y006288D01*
X008407Y006296D01*
X008409Y006299D01*
X008412Y006301D01*
X008413Y006302D01*
X008413Y006303D01*
X008417Y006306D01*
X008422Y006309D01*
X008429Y006311D01*
X008432Y006312D01*
X008435Y006313D01*
X008510D01*
X008520Y006312D01*
X008528Y006311D01*
X008534Y006310D01*
X008540Y006308D01*
X008544Y006306D01*
X008546Y006304D01*
X008548Y006304D01*
X008549Y006303D01*
X008553Y006299D01*
X008555Y006295D01*
X008558Y006286D01*
X008559Y006282D01*
X008559Y006280D01*
Y006278D01*
Y006277D01*
X008559Y006271D01*
X008557Y006266D01*
X008552Y006256D01*
X008549Y006253D01*
X008547Y006250D01*
X008546Y006249D01*
X008545Y006248D01*
X008541Y006246D01*
X008537Y006244D01*
X008530Y006244D01*
X008525Y006243D01*
X008519Y006242D01*
X008510D01*
X008537Y006130D01*
X008581Y006245D01*
X008644D01*
X008687Y006130D01*
X008714Y006242D01*
X008704Y006243D01*
X008696Y006244D01*
X008690Y006245D01*
X008685Y006247D01*
X008681Y006248D01*
X008678Y006249D01*
X008677Y006250D01*
X008677D01*
X008672Y006255D01*
X008669Y006259D01*
X008667Y006263D01*
X008665Y006268D01*
X008664Y006272D01*
X008664Y006275D01*
Y006276D01*
Y006277D01*
X008664Y006283D01*
X008665Y006288D01*
X008669Y006296D01*
X008671Y006299D01*
X008674Y006301D01*
X008674Y006302D01*
X008675Y006303D01*
X008680Y006306D01*
X008686Y006309D01*
X008699Y006311D01*
X008705Y006312D01*
X008709Y006313D01*
X008786D01*
X008791Y006312D01*
D02*
G37*
G36*
X008368D02*
X008373Y006311D01*
X008381Y006308D01*
X008384Y006306D01*
X008385Y006304D01*
X008387Y006304D01*
X008387Y006303D01*
X008391Y006299D01*
X008393Y006295D01*
X008397Y006286D01*
X008397Y006282D01*
X008398Y006280D01*
Y006278D01*
Y006277D01*
X008397Y006272D01*
X008397Y006266D01*
X008393Y006258D01*
X008390Y006255D01*
X008389Y006253D01*
X008388Y006252D01*
X008387Y006251D01*
X008384Y006248D01*
X008379Y006246D01*
X008371Y006244D01*
X008368Y006243D01*
X008365Y006242D01*
X008363D01*
X008304Y006000D01*
X008238D01*
X008189Y006130D01*
X008138Y006000D01*
X008072D01*
X008014Y006242D01*
X008009Y006243D01*
X008005Y006244D01*
X007997Y006247D01*
X007994Y006248D01*
X007992Y006250D01*
X007991Y006251D01*
X007990D01*
X007986Y006255D01*
X007983Y006259D01*
X007982Y006264D01*
X007980Y006268D01*
X007979Y006272D01*
X007979Y006275D01*
Y006276D01*
Y006277D01*
X007979Y006283D01*
X007980Y006288D01*
X007984Y006296D01*
X007986Y006299D01*
X007989Y006301D01*
X007989Y006302D01*
X007990Y006303D01*
X007994Y006306D01*
X007999Y006309D01*
X008006Y006311D01*
X008009Y006312D01*
X008011Y006313D01*
X008087D01*
X008097Y006312D01*
X008105Y006311D01*
X008111Y006310D01*
X008116Y006308D01*
X008121Y006306D01*
X008123Y006304D01*
X008125Y006304D01*
X008126Y006303D01*
X008129Y006299D01*
X008132Y006295D01*
X008135Y006286D01*
X008135Y006282D01*
X008136Y006280D01*
Y006278D01*
Y006277D01*
X008135Y006271D01*
X008134Y006266D01*
X008129Y006256D01*
X008126Y006253D01*
X008124Y006250D01*
X008123Y006249D01*
X008122Y006248D01*
X008118Y006246D01*
X008113Y006244D01*
X008107Y006244D01*
X008102Y006243D01*
X008096Y006242D01*
X008087D01*
X008114Y006130D01*
X008158Y006245D01*
X008221D01*
X008264Y006130D01*
X008291Y006242D01*
X008281Y006243D01*
X008273Y006244D01*
X008266Y006245D01*
X008262Y006247D01*
X008258Y006248D01*
X008255Y006249D01*
X008254Y006250D01*
X008253D01*
X008249Y006255D01*
X008246Y006259D01*
X008244Y006263D01*
X008242Y006268D01*
X008241Y006272D01*
X008241Y006275D01*
Y006276D01*
Y006277D01*
X008241Y006283D01*
X008242Y006288D01*
X008246Y006296D01*
X008248Y006299D01*
X008250Y006301D01*
X008251Y006302D01*
X008252Y006303D01*
X008256Y006306D01*
X008263Y006309D01*
X008276Y006311D01*
X008282Y006312D01*
X008286Y006313D01*
X008363D01*
X008368Y006312D01*
D02*
G37*
G36*
X011632Y006423D02*
X011637Y006422D01*
X011645Y006419D01*
X011648Y006416D01*
X011651Y006414D01*
X011651Y006413D01*
X011652Y006412D01*
X011655Y006408D01*
X011657Y006403D01*
X011660Y006390D01*
X011660Y006385D01*
X011661Y006381D01*
Y006377D01*
Y006376D01*
Y006313D01*
X011687D01*
X011696Y006312D01*
X011704Y006311D01*
X011710Y006310D01*
X011715Y006308D01*
X011719Y006306D01*
X011721Y006304D01*
X011723Y006304D01*
X011724Y006303D01*
X011727Y006299D01*
X011730Y006295D01*
X011733Y006286D01*
X011734Y006282D01*
X011734Y006280D01*
Y006278D01*
Y006277D01*
X011734Y006272D01*
X011733Y006266D01*
X011729Y006258D01*
X011727Y006255D01*
X011725Y006253D01*
X011724Y006252D01*
X011724Y006251D01*
X011719Y006248D01*
X011714Y006246D01*
X011702Y006244D01*
X011695Y006243D01*
X011691Y006242D01*
X011661D01*
Y006086D01*
X011660Y006078D01*
X011660Y006072D01*
X011656Y006058D01*
X011651Y006046D01*
X011644Y006036D01*
X011639Y006028D01*
X011634Y006022D01*
X011630Y006018D01*
X011628Y006017D01*
X011622Y006012D01*
X011615Y006008D01*
X011600Y006001D01*
X011583Y005995D01*
X011567Y005992D01*
X011552Y005990D01*
X011546Y005989D01*
X011541D01*
X011536Y005989D01*
X011530D01*
X011517Y005989D01*
X011503Y005991D01*
X011488Y005992D01*
X011476Y005995D01*
X011464Y005998D01*
X011459Y005998D01*
X011455Y005999D01*
X011451Y006000D01*
X011449Y006001D01*
X011447Y006002D01*
X011447D01*
X011437Y006004D01*
X011430Y006007D01*
X011415Y006012D01*
X011404Y006018D01*
X011395Y006022D01*
X011388Y006026D01*
X011383Y006029D01*
X011381Y006031D01*
X011380Y006032D01*
X011377Y006036D01*
X011374Y006040D01*
X011372Y006044D01*
X011371Y006047D01*
X011370Y006051D01*
X011369Y006053D01*
Y006055D01*
Y006056D01*
X011370Y006061D01*
X011371Y006065D01*
X011374Y006074D01*
X011377Y006077D01*
X011378Y006079D01*
X011379Y006080D01*
X011380Y006081D01*
X011383Y006084D01*
X011387Y006087D01*
X011395Y006090D01*
X011399Y006091D01*
X011401Y006091D01*
X011407D01*
X011412Y006090D01*
X011421Y006087D01*
X011425Y006085D01*
X011428Y006084D01*
X011430Y006083D01*
X011431Y006082D01*
X011448Y006075D01*
X011466Y006069D01*
X011482Y006065D01*
X011498Y006062D01*
X011511Y006061D01*
X011517Y006060D01*
X011521D01*
X011525Y006059D01*
X011530D01*
X011543Y006060D01*
X011554Y006061D01*
X011562Y006062D01*
X011569Y006065D01*
X011574Y006067D01*
X011578Y006068D01*
X011581Y006069D01*
X011581Y006070D01*
X011584Y006074D01*
X011587Y006078D01*
X011589Y006088D01*
X011590Y006093D01*
X011590Y006097D01*
Y006100D01*
Y006100D01*
Y006242D01*
X011461D01*
X011452Y006243D01*
X011445Y006244D01*
X011439Y006245D01*
X011434Y006247D01*
X011430Y006248D01*
X011428Y006250D01*
X011426Y006251D01*
X011425D01*
X011422Y006255D01*
X011418Y006259D01*
X011417Y006264D01*
X011415Y006268D01*
X011415Y006272D01*
X011414Y006275D01*
Y006276D01*
Y006277D01*
X011415Y006283D01*
X011415Y006288D01*
X011419Y006296D01*
X011422Y006299D01*
X011424Y006301D01*
X011425Y006302D01*
X011425Y006303D01*
X011430Y006306D01*
X011435Y006309D01*
X011447Y006311D01*
X011453Y006312D01*
X011457Y006313D01*
X011590D01*
Y006376D01*
X011591Y006385D01*
X011592Y006393D01*
X011593Y006399D01*
X011595Y006404D01*
X011597Y006408D01*
X011599Y006410D01*
X011600Y006412D01*
X011600Y006412D01*
X011604Y006416D01*
X011609Y006419D01*
X011613Y006421D01*
X011617Y006422D01*
X011621Y006423D01*
X011623Y006424D01*
X011626D01*
X011632Y006423D01*
D02*
G37*
G36*
X004403Y006321D02*
X004411Y006320D01*
X004419Y006320D01*
X004426Y006319D01*
X004431Y006318D01*
X004434Y006317D01*
X004436D01*
X004455Y006314D01*
X004464Y006312D01*
X004472Y006310D01*
X004479Y006308D01*
X004484Y006307D01*
X004487Y006306D01*
X004489D01*
X004496Y006304D01*
X004501Y006302D01*
X004506Y006300D01*
X004509Y006299D01*
X004512Y006298D01*
X004513Y006297D01*
X004515Y006296D01*
X004518Y006293D01*
X004522Y006289D01*
X004524Y006287D01*
X004525Y006285D01*
X004526Y006281D01*
X004527Y006275D01*
X004528Y006272D01*
Y006271D01*
Y006270D01*
X004527Y006265D01*
X004526Y006259D01*
X004523Y006251D01*
X004522Y006248D01*
X004520Y006246D01*
X004518Y006245D01*
Y006244D01*
X004515Y006241D01*
X004510Y006239D01*
X004502Y006236D01*
X004499Y006235D01*
X004496Y006234D01*
X004494D01*
X004485Y006235D01*
X004476Y006237D01*
X004471D01*
X004468Y006237D01*
X004466Y006238D01*
X004465D01*
X004447Y006243D01*
X004431Y006246D01*
X004417Y006248D01*
X004406Y006250D01*
X004396Y006250D01*
X004389Y006251D01*
X004384D01*
X004370Y006250D01*
X004359Y006250D01*
X004350Y006248D01*
X004343Y006246D01*
X004337Y006244D01*
X004334Y006242D01*
X004332Y006241D01*
X004331Y006240D01*
X004327Y006237D01*
X004324Y006232D01*
X004321Y006228D01*
X004319Y006224D01*
X004318Y006221D01*
X004318Y006218D01*
Y006216D01*
Y006215D01*
Y006198D01*
X004333Y006200D01*
X004347Y006202D01*
X004360Y006204D01*
X004371Y006205D01*
X004380Y006205D01*
X004392D01*
X004407Y006205D01*
X004420Y006204D01*
X004433Y006202D01*
X004445Y006199D01*
X004457Y006196D01*
X004467Y006193D01*
X004477Y006190D01*
X004485Y006186D01*
X004493Y006183D01*
X004499Y006180D01*
X004505Y006177D01*
X004509Y006174D01*
X004513Y006171D01*
X004515Y006169D01*
X004517Y006168D01*
X004518Y006167D01*
X004525Y006161D01*
X004532Y006153D01*
X004538Y006145D01*
X004544Y006138D01*
X004548Y006132D01*
X004552Y006125D01*
X004557Y006112D01*
X004560Y006100D01*
X004562Y006092D01*
X004563Y006089D01*
Y006087D01*
Y006085D01*
Y006084D01*
X004562Y006078D01*
X004561Y006072D01*
X004557Y006059D01*
X004551Y006048D01*
X004545Y006038D01*
X004539Y006030D01*
X004533Y006024D01*
X004529Y006020D01*
X004528Y006018D01*
X004513Y006008D01*
X004498Y006001D01*
X004483Y005996D01*
X004467Y005992D01*
X004455Y005990D01*
X004449Y005989D01*
X004444D01*
X004440Y005989D01*
X004435D01*
X004415Y005989D01*
X004405Y005991D01*
X004396Y005992D01*
X004388Y005993D01*
X004382Y005995D01*
X004378Y005995D01*
X004377D01*
X004365Y005998D01*
X004354Y006002D01*
X004343Y006005D01*
X004335Y006008D01*
X004327Y006012D01*
X004322Y006014D01*
X004319Y006016D01*
X004318Y006017D01*
Y006000D01*
X004235D01*
X004225Y006001D01*
X004218Y006002D01*
X004212Y006003D01*
X004206Y006005D01*
X004203Y006006D01*
X004200Y006008D01*
X004199Y006009D01*
X004198D01*
X004194Y006013D01*
X004191Y006018D01*
X004190Y006022D01*
X004188Y006026D01*
X004187Y006030D01*
X004187Y006033D01*
Y006034D01*
Y006035D01*
X004187Y006041D01*
X004188Y006046D01*
X004192Y006054D01*
X004194Y006057D01*
X004197Y006059D01*
X004197Y006060D01*
X004198Y006061D01*
X004203Y006064D01*
X004208Y006067D01*
X004220Y006069D01*
X004225Y006070D01*
X004230Y006071D01*
X004247D01*
Y006215D01*
X004248Y006224D01*
X004248Y006233D01*
X004252Y006248D01*
X004258Y006262D01*
X004265Y006272D01*
X004272Y006282D01*
X004277Y006288D01*
X004282Y006291D01*
X004283Y006293D01*
X004283D01*
X004299Y006303D01*
X004315Y006310D01*
X004332Y006315D01*
X004348Y006318D01*
X004363Y006320D01*
X004369Y006321D01*
X004375D01*
X004380Y006322D01*
X004386D01*
X004403Y006321D01*
D02*
G37*
G36*
X010313Y006312D02*
X010320Y006310D01*
X010327Y006308D01*
X010333Y006306D01*
X010337Y006304D01*
X010340Y006301D01*
X010342Y006300D01*
X010343Y006299D01*
X010348Y006294D01*
X010351Y006288D01*
X010354Y006282D01*
X010355Y006277D01*
X010356Y006272D01*
X010357Y006269D01*
Y006266D01*
Y006266D01*
X010356Y006259D01*
X010355Y006252D01*
X010352Y006247D01*
X010350Y006241D01*
X010348Y006237D01*
X010345Y006234D01*
X010344Y006233D01*
X010343Y006232D01*
X010337Y006228D01*
X010331Y006224D01*
X010324Y006222D01*
X010318Y006221D01*
X010313Y006220D01*
X010308Y006219D01*
X010304D01*
X010295Y006220D01*
X010288Y006221D01*
X010281Y006223D01*
X010275Y006226D01*
X010271Y006228D01*
X010268Y006230D01*
X010266Y006231D01*
X010266Y006232D01*
X010261Y006237D01*
X010257Y006244D01*
X010255Y006249D01*
X010253Y006254D01*
X010252Y006259D01*
X010251Y006263D01*
Y006265D01*
Y006266D01*
X010252Y006272D01*
X010253Y006279D01*
X010256Y006285D01*
X010258Y006290D01*
X010261Y006294D01*
X010263Y006297D01*
X010265Y006298D01*
X010266Y006299D01*
X010271Y006304D01*
X010278Y006307D01*
X010284Y006310D01*
X010290Y006311D01*
X010296Y006312D01*
X010301Y006313D01*
X010304D01*
X010313Y006312D01*
D02*
G37*
G36*
X009215D02*
X009219Y006311D01*
X009227Y006308D01*
X009230Y006306D01*
X009231Y006304D01*
X009233Y006304D01*
X009234Y006303D01*
X009237Y006299D01*
X009240Y006295D01*
X009243Y006286D01*
X009244Y006282D01*
X009244Y006280D01*
Y006278D01*
Y006277D01*
X009244Y006272D01*
X009243Y006266D01*
X009239Y006258D01*
X009237Y006255D01*
X009235Y006253D01*
X009234Y006252D01*
X009234Y006251D01*
X009230Y006248D01*
X009225Y006246D01*
X009218Y006244D01*
X009214Y006243D01*
X009212Y006242D01*
X009209D01*
X009151Y006000D01*
X009084D01*
X009035Y006130D01*
X008984Y006000D01*
X008918D01*
X008860Y006242D01*
X008855Y006243D01*
X008851Y006244D01*
X008843Y006247D01*
X008840Y006248D01*
X008838Y006250D01*
X008837Y006251D01*
X008836D01*
X008833Y006255D01*
X008830Y006259D01*
X008828Y006264D01*
X008826Y006268D01*
X008826Y006272D01*
X008825Y006275D01*
Y006276D01*
Y006277D01*
X008826Y006283D01*
X008826Y006288D01*
X008830Y006296D01*
X008833Y006299D01*
X008835Y006301D01*
X008836Y006302D01*
X008836Y006303D01*
X008840Y006306D01*
X008845Y006309D01*
X008852Y006311D01*
X008855Y006312D01*
X008858Y006313D01*
X008933D01*
X008943Y006312D01*
X008951Y006311D01*
X008957Y006310D01*
X008963Y006308D01*
X008967Y006306D01*
X008970Y006304D01*
X008971Y006304D01*
X008972Y006303D01*
X008976Y006299D01*
X008978Y006295D01*
X008981Y006286D01*
X008982Y006282D01*
X008982Y006280D01*
Y006278D01*
Y006277D01*
X008982Y006271D01*
X008980Y006266D01*
X008975Y006256D01*
X008973Y006253D01*
X008970Y006250D01*
X008969Y006249D01*
X008968Y006248D01*
X008964Y006246D01*
X008960Y006244D01*
X008954Y006244D01*
X008948Y006243D01*
X008942Y006242D01*
X008933D01*
X008960Y006130D01*
X009005Y006245D01*
X009067D01*
X009110Y006130D01*
X009137Y006242D01*
X009127Y006243D01*
X009119Y006244D01*
X009113Y006245D01*
X009108Y006247D01*
X009104Y006248D01*
X009101Y006249D01*
X009100Y006250D01*
X009100D01*
X009095Y006255D01*
X009092Y006259D01*
X009090Y006263D01*
X009088Y006268D01*
X009088Y006272D01*
X009087Y006275D01*
Y006276D01*
Y006277D01*
X009088Y006283D01*
X009088Y006288D01*
X009092Y006296D01*
X009094Y006299D01*
X009097Y006301D01*
X009097Y006302D01*
X009098Y006303D01*
X009103Y006306D01*
X009109Y006309D01*
X009122Y006311D01*
X009128Y006312D01*
X009132Y006313D01*
X009209D01*
X009215Y006312D01*
D02*
G37*
G36*
X009837Y002115D02*
X009680D01*
Y001700D01*
X009593D01*
Y002115D01*
X009429D01*
Y002192D01*
X009837D01*
Y002115D01*
D02*
G37*
G36*
X001152Y002200D02*
X001163Y002199D01*
X001184Y002195D01*
X001202Y002189D01*
X001211Y002186D01*
X001218Y002182D01*
X001224Y002178D01*
X001230Y002175D01*
X001236Y002172D01*
X001239Y002169D01*
X001243Y002166D01*
X001245Y002164D01*
X001246Y002163D01*
X001247Y002163D01*
X001254Y002156D01*
X001261Y002148D01*
X001266Y002140D01*
X001271Y002132D01*
X001278Y002116D01*
X001283Y002101D01*
X001286Y002088D01*
X001287Y002082D01*
X001287Y002077D01*
X001288Y002073D01*
Y002070D01*
Y002068D01*
Y002068D01*
X001287Y002056D01*
X001287Y002046D01*
X001285Y002036D01*
X001283Y002029D01*
X001281Y002022D01*
X001280Y002017D01*
X001279Y002014D01*
X001278Y002012D01*
X001274Y002003D01*
X001269Y001995D01*
X001264Y001987D01*
X001259Y001981D01*
X001255Y001975D01*
X001251Y001972D01*
X001249Y001969D01*
X001248Y001969D01*
X001244Y001965D01*
X001239Y001961D01*
X001227Y001953D01*
X001215Y001946D01*
X001202Y001938D01*
X001191Y001931D01*
X001185Y001929D01*
X001181Y001926D01*
X001177Y001925D01*
X001174Y001923D01*
X001172Y001921D01*
X001172D01*
X001161Y001916D01*
X001152Y001912D01*
X001144Y001906D01*
X001136Y001902D01*
X001129Y001897D01*
X001123Y001893D01*
X001112Y001886D01*
X001106Y001879D01*
X001100Y001874D01*
X001097Y001871D01*
X001096Y001870D01*
X001090Y001862D01*
X001086Y001854D01*
X001083Y001845D01*
X001080Y001838D01*
X001079Y001832D01*
X001078Y001827D01*
Y001824D01*
Y001823D01*
X001079Y001813D01*
X001081Y001805D01*
X001085Y001798D01*
X001090Y001792D01*
X001096Y001787D01*
X001102Y001782D01*
X001109Y001778D01*
X001117Y001776D01*
X001131Y001772D01*
X001137Y001771D01*
X001144Y001770D01*
X001149Y001769D01*
X001156D01*
X001165Y001770D01*
X001174Y001771D01*
X001192Y001775D01*
X001210Y001781D01*
X001225Y001788D01*
X001238Y001794D01*
X001243Y001797D01*
X001248Y001800D01*
X001252Y001803D01*
X001255Y001804D01*
X001256Y001805D01*
X001257Y001806D01*
X001289Y001727D01*
X001278Y001721D01*
X001268Y001715D01*
X001246Y001706D01*
X001226Y001700D01*
X001206Y001696D01*
X001198Y001695D01*
X001190Y001693D01*
X001182Y001692D01*
X001176D01*
X001172Y001692D01*
X001165D01*
X001150Y001692D01*
X001137Y001693D01*
X001124Y001695D01*
X001112Y001698D01*
X001100Y001701D01*
X001090Y001704D01*
X001080Y001707D01*
X001072Y001711D01*
X001064Y001714D01*
X001058Y001717D01*
X001052Y001721D01*
X001047Y001724D01*
X001043Y001726D01*
X001041Y001728D01*
X001039Y001729D01*
X001039Y001730D01*
X001030Y001737D01*
X001023Y001745D01*
X001016Y001753D01*
X001011Y001762D01*
X001007Y001770D01*
X001003Y001778D01*
X000997Y001794D01*
X000994Y001807D01*
X000993Y001813D01*
X000992Y001819D01*
X000991Y001823D01*
Y001826D01*
Y001828D01*
Y001829D01*
X000992Y001841D01*
X000993Y001851D01*
X000995Y001862D01*
X000997Y001870D01*
X000999Y001878D01*
X001001Y001883D01*
X001002Y001886D01*
X001003Y001888D01*
X001007Y001898D01*
X001013Y001907D01*
X001018Y001915D01*
X001024Y001922D01*
X001029Y001928D01*
X001032Y001932D01*
X001036Y001935D01*
X001036Y001936D01*
X001045Y001944D01*
X001057Y001951D01*
X001068Y001959D01*
X001080Y001966D01*
X001091Y001972D01*
X001099Y001976D01*
X001103Y001978D01*
X001106Y001979D01*
X001107Y001980D01*
X001108D01*
X001124Y001988D01*
X001138Y001997D01*
X001151Y002005D01*
X001161Y002013D01*
X001170Y002021D01*
X001178Y002028D01*
X001184Y002035D01*
X001189Y002042D01*
X001193Y002047D01*
X001196Y002052D01*
X001198Y002057D01*
X001199Y002061D01*
X001200Y002064D01*
X001201Y002067D01*
Y002068D01*
Y002068D01*
X001200Y002077D01*
X001198Y002086D01*
X001195Y002093D01*
X001192Y002099D01*
X001190Y002104D01*
X001187Y002107D01*
X001185Y002109D01*
X001185Y002110D01*
X001178Y002116D01*
X001170Y002119D01*
X001163Y002122D01*
X001155Y002124D01*
X001148Y002125D01*
X001143Y002126D01*
X001128D01*
X001119Y002125D01*
X001101Y002121D01*
X001085Y002116D01*
X001071Y002110D01*
X001058Y002104D01*
X001053Y002101D01*
X001049Y002099D01*
X001045Y002096D01*
X001043Y002095D01*
X001042Y002094D01*
X001041Y002093D01*
X001014Y002169D01*
X001023Y002174D01*
X001031Y002179D01*
X001051Y002187D01*
X001071Y002193D01*
X001092Y002197D01*
X001102Y002198D01*
X001111Y002199D01*
X001118Y002200D01*
X001126D01*
X001131Y002201D01*
X001140D01*
X001152Y002200D01*
D02*
G37*
G36*
X004534Y002195D02*
X004550Y002194D01*
X004568D01*
X004585Y002193D01*
X004593Y002192D01*
X004600D01*
X004605Y002192D01*
X004614D01*
Y001700D01*
X004526D01*
Y001881D01*
X004518Y001880D01*
X004509Y001880D01*
X004502D01*
X004497Y001879D01*
X004487D01*
X004468Y001880D01*
X004452Y001881D01*
X004436Y001883D01*
X004420Y001886D01*
X004407Y001890D01*
X004394Y001895D01*
X004382Y001899D01*
X004371Y001905D01*
X004361Y001912D01*
X004352Y001918D01*
X004343Y001925D01*
X004336Y001932D01*
X004323Y001947D01*
X004312Y001963D01*
X004304Y001979D01*
X004298Y001995D01*
X004293Y002009D01*
X004290Y002021D01*
X004289Y002033D01*
X004287Y002040D01*
Y002044D01*
Y002046D01*
Y002047D01*
Y002048D01*
X004288Y002061D01*
X004289Y002074D01*
X004292Y002087D01*
X004295Y002097D01*
X004299Y002107D01*
X004304Y002116D01*
X004309Y002125D01*
X004314Y002132D01*
X004319Y002139D01*
X004324Y002144D01*
X004329Y002149D01*
X004333Y002153D01*
X004336Y002156D01*
X004339Y002158D01*
X004340Y002159D01*
X004341Y002160D01*
X004352Y002166D01*
X004364Y002172D01*
X004377Y002176D01*
X004391Y002180D01*
X004419Y002187D01*
X004447Y002191D01*
X004460Y002192D01*
X004472Y002194D01*
X004483Y002195D01*
X004493D01*
X004500Y002195D01*
X004527D01*
X004534Y002195D01*
D02*
G37*
G36*
X005005Y001700D02*
X004694D01*
Y001778D01*
X004917D01*
Y001925D01*
X004758D01*
Y002000D01*
X004917D01*
Y002115D01*
X004694D01*
Y002192D01*
X005005D01*
Y001700D01*
D02*
G37*
G36*
X006915D02*
X006830D01*
X006778Y001966D01*
X006678Y001693D01*
X006647D01*
X006548Y001966D01*
X006497Y001700D01*
X006413D01*
X006513Y002192D01*
X006559D01*
X006663Y001861D01*
X006770Y002192D01*
X006816D01*
X006915Y001700D01*
D02*
G37*
G36*
X005663Y002200D02*
X005674Y002199D01*
X005695Y002195D01*
X005713Y002189D01*
X005722Y002186D01*
X005729Y002182D01*
X005735Y002178D01*
X005741Y002175D01*
X005747Y002172D01*
X005751Y002169D01*
X005754Y002166D01*
X005756Y002164D01*
X005757Y002163D01*
X005758Y002163D01*
X005765Y002156D01*
X005772Y002148D01*
X005777Y002140D01*
X005782Y002132D01*
X005789Y002116D01*
X005794Y002101D01*
X005797Y002088D01*
X005798Y002082D01*
X005798Y002077D01*
X005799Y002073D01*
Y002070D01*
Y002068D01*
Y002068D01*
X005798Y002056D01*
X005798Y002046D01*
X005796Y002036D01*
X005794Y002029D01*
X005792Y002022D01*
X005791Y002017D01*
X005790Y002014D01*
X005789Y002012D01*
X005785Y002003D01*
X005780Y001995D01*
X005775Y001987D01*
X005770Y001981D01*
X005766Y001975D01*
X005762Y001972D01*
X005760Y001969D01*
X005759Y001969D01*
X005755Y001965D01*
X005750Y001961D01*
X005738Y001953D01*
X005726Y001946D01*
X005713Y001938D01*
X005702Y001931D01*
X005696Y001929D01*
X005692Y001926D01*
X005688Y001925D01*
X005685Y001923D01*
X005684Y001921D01*
X005683D01*
X005672Y001916D01*
X005663Y001912D01*
X005655Y001906D01*
X005647Y001902D01*
X005640Y001897D01*
X005634Y001893D01*
X005623Y001886D01*
X005617Y001879D01*
X005611Y001874D01*
X005608Y001871D01*
X005607Y001870D01*
X005601Y001862D01*
X005597Y001854D01*
X005594Y001845D01*
X005591Y001838D01*
X005590Y001832D01*
X005589Y001827D01*
Y001824D01*
Y001823D01*
X005590Y001813D01*
X005592Y001805D01*
X005596Y001798D01*
X005601Y001792D01*
X005607Y001787D01*
X005614Y001782D01*
X005620Y001778D01*
X005628Y001776D01*
X005642Y001772D01*
X005649Y001771D01*
X005655Y001770D01*
X005660Y001769D01*
X005667D01*
X005676Y001770D01*
X005685Y001771D01*
X005703Y001775D01*
X005721Y001781D01*
X005736Y001788D01*
X005749Y001794D01*
X005754Y001797D01*
X005759Y001800D01*
X005763Y001803D01*
X005766Y001804D01*
X005767Y001805D01*
X005768Y001806D01*
X005800Y001727D01*
X005789Y001721D01*
X005779Y001715D01*
X005757Y001706D01*
X005737Y001700D01*
X005717Y001696D01*
X005709Y001695D01*
X005701Y001693D01*
X005693Y001692D01*
X005687D01*
X005683Y001692D01*
X005676D01*
X005662Y001692D01*
X005648Y001693D01*
X005635Y001695D01*
X005623Y001698D01*
X005611Y001701D01*
X005601Y001704D01*
X005591Y001707D01*
X005583Y001711D01*
X005576Y001714D01*
X005569Y001717D01*
X005563Y001721D01*
X005558Y001724D01*
X005554Y001726D01*
X005552Y001728D01*
X005550Y001729D01*
X005550Y001730D01*
X005541Y001737D01*
X005534Y001745D01*
X005528Y001753D01*
X005522Y001762D01*
X005518Y001770D01*
X005514Y001778D01*
X005509Y001794D01*
X005505Y001807D01*
X005504Y001813D01*
X005503Y001819D01*
X005502Y001823D01*
Y001826D01*
Y001828D01*
Y001829D01*
X005503Y001841D01*
X005504Y001851D01*
X005506Y001862D01*
X005508Y001870D01*
X005510Y001878D01*
X005512Y001883D01*
X005513Y001886D01*
X005514Y001888D01*
X005518Y001898D01*
X005524Y001907D01*
X005529Y001915D01*
X005535Y001922D01*
X005540Y001928D01*
X005544Y001932D01*
X005547Y001935D01*
X005547Y001936D01*
X005556Y001944D01*
X005568Y001951D01*
X005579Y001959D01*
X005591Y001966D01*
X005602Y001972D01*
X005611Y001976D01*
X005614Y001978D01*
X005617Y001979D01*
X005618Y001980D01*
X005619D01*
X005635Y001988D01*
X005649Y001997D01*
X005662Y002005D01*
X005672Y002013D01*
X005681Y002021D01*
X005689Y002028D01*
X005695Y002035D01*
X005700Y002042D01*
X005704Y002047D01*
X005707Y002052D01*
X005709Y002057D01*
X005710Y002061D01*
X005711Y002064D01*
X005712Y002067D01*
Y002068D01*
Y002068D01*
X005711Y002077D01*
X005709Y002086D01*
X005706Y002093D01*
X005703Y002099D01*
X005701Y002104D01*
X005698Y002107D01*
X005696Y002109D01*
X005696Y002110D01*
X005689Y002116D01*
X005681Y002119D01*
X005674Y002122D01*
X005666Y002124D01*
X005659Y002125D01*
X005654Y002126D01*
X005639D01*
X005630Y002125D01*
X005612Y002121D01*
X005596Y002116D01*
X005582Y002110D01*
X005569Y002104D01*
X005564Y002101D01*
X005560Y002099D01*
X005556Y002096D01*
X005554Y002095D01*
X005553Y002094D01*
X005552Y002093D01*
X005525Y002169D01*
X005534Y002174D01*
X005542Y002179D01*
X005562Y002187D01*
X005582Y002193D01*
X005603Y002197D01*
X005613Y002198D01*
X005622Y002199D01*
X005630Y002200D01*
X005637D01*
X005642Y002201D01*
X005651D01*
X005663Y002200D01*
D02*
G37*
G36*
X000963Y001700D02*
X000866D01*
X000832Y001800D01*
X000664D01*
X000628Y001700D01*
X000531D01*
X000729Y002198D01*
X000767D01*
X000963Y001700D01*
D02*
G37*
G36*
X005469Y002115D02*
X005312D01*
Y001700D01*
X005225D01*
Y002115D01*
X005061D01*
Y002192D01*
X005469D01*
Y002115D01*
D02*
G37*
G36*
X003256Y001700D02*
X003169D01*
Y002192D01*
X003256D01*
Y001700D01*
D02*
G37*
G36*
X009772Y006497D02*
X009779Y006495D01*
X009785Y006492D01*
X009785Y006491D01*
X009786D01*
X009788Y006489D01*
X009791Y006485D01*
X009796Y006477D01*
X009798Y006473D01*
X009800Y006470D01*
X009801Y006468D01*
X009801Y006467D01*
X010027Y005980D01*
X010030Y005974D01*
X010032Y005968D01*
X010033Y005963D01*
X010034Y005960D01*
Y005957D01*
X010035Y005954D01*
Y005954D01*
Y005953D01*
X010034Y005948D01*
X010033Y005944D01*
X010030Y005936D01*
X010028Y005933D01*
X010027Y005931D01*
X010026Y005930D01*
X010025Y005929D01*
X010021Y005925D01*
X010017Y005923D01*
X010008Y005920D01*
X010005Y005919D01*
X010002Y005919D01*
X010000D01*
X009992Y005920D01*
X009985Y005922D01*
X009980Y005925D01*
X009979Y005926D01*
X009979D01*
X009976Y005928D01*
X009973Y005932D01*
X009968Y005940D01*
X009966Y005944D01*
X009964Y005947D01*
X009963Y005949D01*
X009963Y005950D01*
X009737Y006438D01*
X009734Y006444D01*
X009732Y006449D01*
X009731Y006454D01*
X009729Y006458D01*
Y006461D01*
X009728Y006463D01*
Y006464D01*
Y006465D01*
X009729Y006470D01*
X009730Y006474D01*
X009734Y006481D01*
X009736Y006484D01*
X009737Y006486D01*
X009738Y006487D01*
X009739Y006488D01*
X009743Y006492D01*
X009747Y006494D01*
X009756Y006497D01*
X009759Y006498D01*
X009762Y006498D01*
X009764D01*
X009772Y006497D01*
D02*
G37*
G36*
X003601Y002195D02*
X003622Y002194D01*
X003644D01*
X003655Y002193D01*
X003666D01*
X003675Y002192D01*
X003683D01*
X003690Y002192D01*
X003700D01*
Y001700D01*
X003591D01*
X003568Y001701D01*
X003546Y001703D01*
X003526Y001707D01*
X003507Y001711D01*
X003488Y001717D01*
X003472Y001724D01*
X003457Y001733D01*
X003443Y001741D01*
X003430Y001751D01*
X003418Y001762D01*
X003407Y001772D01*
X003397Y001784D01*
X003389Y001796D01*
X003380Y001808D01*
X003373Y001820D01*
X003367Y001832D01*
X003356Y001857D01*
X003348Y001881D01*
X003342Y001903D01*
X003340Y001914D01*
X003339Y001924D01*
X003337Y001932D01*
X003336Y001940D01*
X003335Y001947D01*
Y001953D01*
X003335Y001958D01*
Y001962D01*
Y001964D01*
Y001965D01*
X003335Y001984D01*
X003338Y002002D01*
X003341Y002019D01*
X003345Y002035D01*
X003349Y002050D01*
X003355Y002064D01*
X003361Y002076D01*
X003366Y002087D01*
X003372Y002098D01*
X003378Y002107D01*
X003383Y002115D01*
X003388Y002121D01*
X003392Y002125D01*
X003395Y002129D01*
X003397Y002131D01*
X003398Y002132D01*
X003410Y002144D01*
X003423Y002153D01*
X003437Y002162D01*
X003451Y002169D01*
X003466Y002175D01*
X003480Y002180D01*
X003494Y002184D01*
X003507Y002188D01*
X003520Y002190D01*
X003532Y002192D01*
X003542Y002193D01*
X003551Y002195D01*
X003558D01*
X003565Y002195D01*
X003591D01*
X003601Y002195D01*
D02*
G37*
G36*
X009349Y006497D02*
X009356Y006495D01*
X009361Y006492D01*
X009362Y006491D01*
X009363D01*
X009365Y006489D01*
X009368Y006485D01*
X009373Y006477D01*
X009375Y006473D01*
X009377Y006470D01*
X009377Y006468D01*
X009378Y006467D01*
X009604Y005980D01*
X009607Y005974D01*
X009609Y005968D01*
X009610Y005963D01*
X009611Y005960D01*
Y005957D01*
X009612Y005954D01*
Y005954D01*
Y005953D01*
X009611Y005948D01*
X009610Y005944D01*
X009607Y005936D01*
X009605Y005933D01*
X009603Y005931D01*
X009603Y005930D01*
X009602Y005929D01*
X009598Y005925D01*
X009594Y005923D01*
X009585Y005920D01*
X009582Y005919D01*
X009579Y005919D01*
X009577D01*
X009568Y005920D01*
X009562Y005922D01*
X009557Y005925D01*
X009556Y005926D01*
X009556D01*
X009552Y005928D01*
X009550Y005932D01*
X009545Y005940D01*
X009543Y005944D01*
X009541Y005947D01*
X009540Y005949D01*
X009540Y005950D01*
X009314Y006438D01*
X009310Y006444D01*
X009309Y006449D01*
X009307Y006454D01*
X009306Y006458D01*
Y006461D01*
X009305Y006463D01*
Y006464D01*
Y006465D01*
X009306Y006470D01*
X009307Y006474D01*
X009310Y006481D01*
X009313Y006484D01*
X009314Y006486D01*
X009315Y006487D01*
X009316Y006488D01*
X009320Y006492D01*
X009324Y006494D01*
X009333Y006497D01*
X009336Y006498D01*
X009339Y006498D01*
X009341D01*
X009349Y006497D01*
D02*
G37*
G36*
X010312Y006081D02*
X010320Y006079D01*
X010326Y006077D01*
X010332Y006075D01*
X010336Y006072D01*
X010339Y006070D01*
X010342Y006068D01*
X010342Y006068D01*
X010347Y006062D01*
X010350Y006057D01*
X010353Y006051D01*
X010355Y006046D01*
X010355Y006041D01*
X010356Y006037D01*
Y006035D01*
Y006034D01*
X010355Y006027D01*
X010354Y006021D01*
X010352Y006015D01*
X010349Y006010D01*
X010347Y006006D01*
X010345Y006003D01*
X010343Y006002D01*
X010342Y006001D01*
X010336Y005996D01*
X010330Y005993D01*
X010323Y005991D01*
X010317Y005989D01*
X010312Y005989D01*
X010307Y005988D01*
X010304D01*
X010294Y005989D01*
X010287Y005990D01*
X010280Y005992D01*
X010275Y005995D01*
X010270Y005997D01*
X010267Y005998D01*
X010266Y006000D01*
X010265Y006001D01*
X010260Y006006D01*
X010256Y006012D01*
X010254Y006018D01*
X010252Y006023D01*
X010251Y006027D01*
X010250Y006031D01*
Y006033D01*
Y006034D01*
X010251Y006041D01*
X010253Y006048D01*
X010255Y006053D01*
X010257Y006059D01*
X010260Y006062D01*
X010262Y006065D01*
X010264Y006067D01*
X010265Y006068D01*
X010270Y006072D01*
X010277Y006075D01*
X010283Y006078D01*
X010289Y006080D01*
X010295Y006081D01*
X010300Y006081D01*
X010304D01*
X010312Y006081D01*
D02*
G37*
G36*
X002955Y002196D02*
X002969D01*
X002981Y002195D01*
X002992Y002195D01*
X003001D01*
X003005Y002194D01*
X003019D01*
X003027Y002193D01*
X003033D01*
X003039Y002192D01*
X003049D01*
X003056Y002192D01*
X003066D01*
Y001700D01*
X002976D01*
Y001905D01*
X002963Y001905D01*
X002952Y001904D01*
X002943D01*
X002935Y001903D01*
X002921D01*
X002788Y001700D01*
X002688D01*
X002834Y001921D01*
X002820Y001928D01*
X002807Y001935D01*
X002796Y001944D01*
X002786Y001952D01*
X002778Y001960D01*
X002773Y001966D01*
X002770Y001970D01*
X002769Y001971D01*
Y001972D01*
X002760Y001985D01*
X002753Y002000D01*
X002749Y002013D01*
X002746Y002026D01*
X002744Y002036D01*
X002743Y002044D01*
Y002047D01*
Y002049D01*
Y002051D01*
Y002052D01*
X002743Y002065D01*
X002745Y002077D01*
X002747Y002089D01*
X002751Y002100D01*
X002755Y002109D01*
X002760Y002119D01*
X002772Y002135D01*
X002786Y002150D01*
X002802Y002161D01*
X002819Y002171D01*
X002836Y002179D01*
X002854Y002185D01*
X002871Y002189D01*
X002886Y002192D01*
X002901Y002195D01*
X002912Y002196D01*
X002918D01*
X002921Y002197D01*
X002942D01*
X002955Y002196D01*
D02*
G37*
G36*
X003465Y006446D02*
X003473Y006445D01*
X003480Y006444D01*
X003485Y006442D01*
X003489Y006440D01*
X003491Y006438D01*
X003493Y006438D01*
X003493Y006437D01*
X003497Y006433D01*
X003499Y006428D01*
X003503Y006420D01*
X003503Y006416D01*
X003504Y006414D01*
Y006412D01*
Y006411D01*
X003503Y006406D01*
X003503Y006400D01*
X003499Y006392D01*
X003496Y006389D01*
X003495Y006387D01*
X003494Y006386D01*
X003493Y006385D01*
X003489Y006382D01*
X003483Y006380D01*
X003471Y006377D01*
X003465Y006377D01*
X003461Y006376D01*
X003444D01*
Y006288D01*
X003454Y006294D01*
X003463Y006298D01*
X003472Y006303D01*
X003480Y006307D01*
X003487Y006309D01*
X003492Y006311D01*
X003495Y006313D01*
X003496D01*
X003506Y006316D01*
X003516Y006318D01*
X003525Y006320D01*
X003534Y006321D01*
X003541D01*
X003546Y006322D01*
X003550D01*
X003564Y006321D01*
X003577Y006320D01*
X003589Y006317D01*
X003601Y006314D01*
X003611Y006310D01*
X003622Y006306D01*
X003631Y006301D01*
X003640Y006297D01*
X003648Y006291D01*
X003655Y006287D01*
X003660Y006283D01*
X003665Y006279D01*
X003669Y006275D01*
X003672Y006273D01*
X003674Y006272D01*
X003675Y006271D01*
X003684Y006261D01*
X003691Y006251D01*
X003698Y006240D01*
X003703Y006231D01*
X003709Y006220D01*
X003713Y006210D01*
X003719Y006190D01*
X003720Y006182D01*
X003722Y006174D01*
X003723Y006167D01*
X003724Y006161D01*
X003725Y006155D01*
Y006151D01*
Y006149D01*
Y006148D01*
X003724Y006136D01*
X003722Y006124D01*
X003720Y006113D01*
X003717Y006102D01*
X003710Y006082D01*
X003705Y006074D01*
X003700Y006065D01*
X003697Y006059D01*
X003692Y006053D01*
X003688Y006047D01*
X003684Y006043D01*
X003681Y006039D01*
X003679Y006037D01*
X003678Y006035D01*
X003677Y006034D01*
X003668Y006026D01*
X003657Y006019D01*
X003647Y006013D01*
X003636Y006008D01*
X003626Y006004D01*
X003615Y006000D01*
X003595Y005995D01*
X003585Y005992D01*
X003576Y005991D01*
X003569Y005990D01*
X003562Y005989D01*
X003557Y005989D01*
X003538D01*
X003528Y005990D01*
X003519Y005991D01*
X003512Y005992D01*
X003505Y005994D01*
X003499Y005995D01*
X003496Y005996D01*
X003495D01*
X003476Y006002D01*
X003467Y006006D01*
X003459Y006009D01*
X003453Y006013D01*
X003449Y006015D01*
X003445Y006017D01*
X003444Y006018D01*
Y006000D01*
X003361D01*
X003352Y006001D01*
X003344Y006002D01*
X003338Y006003D01*
X003333Y006005D01*
X003329Y006006D01*
X003327Y006008D01*
X003325Y006009D01*
X003324D01*
X003321Y006013D01*
X003318Y006018D01*
X003316Y006022D01*
X003315Y006026D01*
X003314Y006030D01*
X003313Y006033D01*
Y006034D01*
Y006035D01*
X003314Y006041D01*
X003315Y006046D01*
X003318Y006054D01*
X003321Y006057D01*
X003323Y006059D01*
X003324Y006060D01*
X003324Y006061D01*
X003329Y006064D01*
X003334Y006067D01*
X003347Y006069D01*
X003352Y006070D01*
X003356Y006071D01*
X003373D01*
Y006447D01*
X003456D01*
X003465Y006446D01*
D02*
G37*
G36*
X002706Y006321D02*
X002723Y006318D01*
X002738Y006314D01*
X002752Y006310D01*
X002764Y006306D01*
X002769Y006304D01*
X002773Y006302D01*
X002776Y006301D01*
X002778Y006299D01*
X002780Y006298D01*
X002780D01*
X002796Y006288D01*
X002809Y006279D01*
X002821Y006268D01*
X002830Y006257D01*
X002837Y006248D01*
X002843Y006240D01*
X002845Y006237D01*
X002847Y006235D01*
X002847Y006234D01*
Y006234D01*
X002855Y006218D01*
X002860Y006204D01*
X002865Y006189D01*
X002867Y006177D01*
X002869Y006167D01*
X002869Y006158D01*
X002870Y006155D01*
Y006153D01*
Y006151D01*
Y006151D01*
X002869Y006135D01*
X002866Y006120D01*
X002863Y006107D01*
X002859Y006095D01*
X002854Y006085D01*
X002851Y006078D01*
X002850Y006075D01*
X002848Y006072D01*
X002847Y006072D01*
Y006071D01*
X002838Y006057D01*
X002828Y006046D01*
X002816Y006035D01*
X002805Y006027D01*
X002796Y006020D01*
X002787Y006014D01*
X002785Y006013D01*
X002783Y006011D01*
X002781Y006011D01*
X002780D01*
X002764Y006003D01*
X002748Y005998D01*
X002732Y005994D01*
X002718Y005992D01*
X002706Y005990D01*
X002700Y005989D01*
X002697Y005989D01*
X002688D01*
X002670Y005989D01*
X002653Y005992D01*
X002637Y005995D01*
X002624Y006000D01*
X002612Y006004D01*
X002607Y006005D01*
X002603Y006008D01*
X002600Y006008D01*
X002598Y006010D01*
X002596Y006011D01*
X002595D01*
X002579Y006020D01*
X002566Y006030D01*
X002554Y006040D01*
X002544Y006049D01*
X002538Y006059D01*
X002532Y006065D01*
X002528Y006070D01*
X002528Y006071D01*
Y006072D01*
X002520Y006086D01*
X002515Y006100D01*
X002510Y006113D01*
X002508Y006125D01*
X002506Y006135D01*
X002505Y006143D01*
Y006146D01*
Y006148D01*
Y006149D01*
Y006150D01*
X002506Y006166D01*
X002509Y006181D01*
X002512Y006195D01*
X002516Y006208D01*
X002520Y006218D01*
X002524Y006226D01*
X002525Y006229D01*
X002527Y006231D01*
X002528Y006232D01*
Y006233D01*
X002537Y006247D01*
X002548Y006260D01*
X002559Y006272D01*
X002570Y006281D01*
X002580Y006288D01*
X002588Y006293D01*
X002591Y006295D01*
X002593Y006297D01*
X002595Y006298D01*
X002595D01*
X002612Y006306D01*
X002628Y006312D01*
X002644Y006316D01*
X002659Y006319D01*
X002671Y006320D01*
X002675Y006321D01*
X002680Y006322D01*
X002688D01*
X002706Y006321D01*
D02*
G37*
G36*
X002274Y006081D02*
X002281Y006080D01*
X002288Y006078D01*
X002293Y006075D01*
X002298Y006073D01*
X002301Y006071D01*
X002303Y006069D01*
X002304Y006068D01*
X002309Y006063D01*
X002312Y006058D01*
X002315Y006052D01*
X002316Y006046D01*
X002317Y006042D01*
X002318Y006038D01*
Y006036D01*
Y006035D01*
X002317Y006028D01*
X002315Y006021D01*
X002313Y006016D01*
X002311Y006011D01*
X002309Y006007D01*
X002306Y006004D01*
X002305Y006002D01*
X002304Y006002D01*
X002298Y005997D01*
X002292Y005994D01*
X002285Y005992D01*
X002279Y005990D01*
X002274Y005989D01*
X002269Y005989D01*
X002265D01*
X002256Y005989D01*
X002248Y005991D01*
X002242Y005992D01*
X002236Y005995D01*
X002232Y005998D01*
X002229Y005999D01*
X002227Y006001D01*
X002226Y006002D01*
X002222Y006007D01*
X002218Y006013D01*
X002216Y006018D01*
X002213Y006024D01*
X002213Y006028D01*
X002212Y006032D01*
Y006034D01*
Y006035D01*
X002213Y006042D01*
X002214Y006049D01*
X002216Y006054D01*
X002219Y006059D01*
X002222Y006063D01*
X002224Y006066D01*
X002226Y006068D01*
X002226Y006068D01*
X002232Y006073D01*
X002239Y006076D01*
X002245Y006079D01*
X002251Y006081D01*
X002257Y006081D01*
X002261Y006082D01*
X002265D01*
X002274Y006081D01*
D02*
G37*
G36*
X010336Y001700D02*
X010248D01*
Y002192D01*
X010336D01*
Y001700D01*
D02*
G37*
G36*
X011080D02*
X010769D01*
Y001778D01*
X010992D01*
Y001925D01*
X010833D01*
Y002000D01*
X010992D01*
Y002115D01*
X010769D01*
Y002192D01*
X011080D01*
Y001700D01*
D02*
G37*
G36*
X011389Y002196D02*
X011403D01*
X011415Y002195D01*
X011426Y002195D01*
X011435D01*
X011439Y002194D01*
X011453D01*
X011460Y002193D01*
X011467D01*
X011473Y002192D01*
X011483D01*
X011490Y002192D01*
X011500D01*
Y001700D01*
X011409D01*
Y001905D01*
X011397Y001905D01*
X011386Y001904D01*
X011377D01*
X011369Y001903D01*
X011355D01*
X011222Y001700D01*
X011122D01*
X011268Y001921D01*
X011253Y001928D01*
X011241Y001935D01*
X011230Y001944D01*
X011220Y001952D01*
X011212Y001960D01*
X011207Y001966D01*
X011204Y001970D01*
X011202Y001971D01*
Y001972D01*
X011194Y001985D01*
X011187Y002000D01*
X011183Y002013D01*
X011180Y002026D01*
X011178Y002036D01*
X011177Y002044D01*
Y002047D01*
Y002049D01*
Y002051D01*
Y002052D01*
X011177Y002065D01*
X011179Y002077D01*
X011181Y002089D01*
X011185Y002100D01*
X011189Y002109D01*
X011194Y002119D01*
X011205Y002135D01*
X011220Y002150D01*
X011236Y002161D01*
X011253Y002171D01*
X011270Y002179D01*
X011288Y002185D01*
X011304Y002189D01*
X011320Y002192D01*
X011335Y002195D01*
X011346Y002196D01*
X011352D01*
X011355Y002197D01*
X011376D01*
X011389Y002196D01*
D02*
G37*
G36*
X007185Y002200D02*
X007202Y002198D01*
X007218Y002194D01*
X007232Y002189D01*
X007246Y002184D01*
X007259Y002178D01*
X007270Y002171D01*
X007281Y002164D01*
X007290Y002157D01*
X007298Y002151D01*
X007305Y002144D01*
X007311Y002139D01*
X007316Y002135D01*
X007319Y002131D01*
X007321Y002128D01*
X007322Y002128D01*
X007332Y002114D01*
X007341Y002099D01*
X007349Y002084D01*
X007355Y002069D01*
X007361Y002054D01*
X007365Y002039D01*
X007369Y002025D01*
X007372Y002011D01*
X007375Y001998D01*
X007376Y001987D01*
X007378Y001976D01*
X007378Y001967D01*
Y001960D01*
X007379Y001954D01*
Y001951D01*
Y001950D01*
X007378Y001928D01*
X007377Y001907D01*
X007375Y001887D01*
X007371Y001869D01*
X007367Y001852D01*
X007362Y001837D01*
X007358Y001823D01*
X007353Y001810D01*
X007348Y001798D01*
X007343Y001788D01*
X007339Y001780D01*
X007335Y001773D01*
X007331Y001767D01*
X007329Y001763D01*
X007327Y001761D01*
X007327Y001760D01*
X007316Y001748D01*
X007305Y001737D01*
X007293Y001728D01*
X007280Y001721D01*
X007268Y001714D01*
X007255Y001708D01*
X007243Y001704D01*
X007231Y001700D01*
X007219Y001698D01*
X007209Y001695D01*
X007199Y001694D01*
X007190Y001692D01*
X007184D01*
X007179Y001692D01*
X007174D01*
X007155Y001692D01*
X007136Y001695D01*
X007119Y001698D01*
X007103Y001702D01*
X007088Y001708D01*
X007075Y001714D01*
X007063Y001720D01*
X007051Y001727D01*
X007041Y001733D01*
X007033Y001739D01*
X007025Y001745D01*
X007019Y001750D01*
X007015Y001755D01*
X007012Y001758D01*
X007009Y001760D01*
X007009Y001761D01*
X006998Y001775D01*
X006989Y001789D01*
X006981Y001804D01*
X006974Y001820D01*
X006968Y001835D01*
X006964Y001851D01*
X006960Y001867D01*
X006957Y001882D01*
X006955Y001896D01*
X006952Y001909D01*
X006951Y001920D01*
X006950Y001930D01*
X006949Y001938D01*
Y001944D01*
Y001948D01*
Y001950D01*
X006950Y001972D01*
X006951Y001992D01*
X006955Y002011D01*
X006958Y002029D01*
X006962Y002045D01*
X006967Y002061D01*
X006972Y002074D01*
X006977Y002087D01*
X006983Y002098D01*
X006988Y002108D01*
X006993Y002116D01*
X006996Y002122D01*
X007000Y002128D01*
X007003Y002131D01*
X007005Y002134D01*
X007006Y002135D01*
X007017Y002146D01*
X007028Y002157D01*
X007041Y002165D01*
X007054Y002173D01*
X007068Y002179D01*
X007082Y002185D01*
X007095Y002189D01*
X007107Y002192D01*
X007120Y002195D01*
X007131Y002197D01*
X007141Y002198D01*
X007150Y002200D01*
X007158D01*
X007163Y002201D01*
X007168D01*
X007185Y002200D01*
D02*
G37*
G36*
X001801Y002195D02*
X001822Y002194D01*
X001844D01*
X001855Y002193D01*
X001866D01*
X001875Y002192D01*
X001883D01*
X001890Y002192D01*
X001900D01*
Y001700D01*
X001791D01*
X001768Y001701D01*
X001746Y001703D01*
X001726Y001707D01*
X001707Y001711D01*
X001688Y001717D01*
X001672Y001724D01*
X001657Y001733D01*
X001643Y001741D01*
X001630Y001751D01*
X001618Y001762D01*
X001607Y001772D01*
X001597Y001784D01*
X001589Y001796D01*
X001580Y001808D01*
X001573Y001820D01*
X001567Y001832D01*
X001556Y001857D01*
X001548Y001881D01*
X001542Y001903D01*
X001540Y001914D01*
X001539Y001924D01*
X001537Y001932D01*
X001536Y001940D01*
X001535Y001947D01*
Y001953D01*
X001535Y001958D01*
Y001962D01*
Y001964D01*
Y001965D01*
X001535Y001984D01*
X001538Y002002D01*
X001541Y002019D01*
X001545Y002035D01*
X001549Y002050D01*
X001555Y002064D01*
X001561Y002076D01*
X001566Y002087D01*
X001572Y002098D01*
X001578Y002107D01*
X001583Y002115D01*
X001588Y002121D01*
X001592Y002125D01*
X001595Y002129D01*
X001597Y002131D01*
X001598Y002132D01*
X001610Y002144D01*
X001623Y002153D01*
X001637Y002162D01*
X001651Y002169D01*
X001666Y002175D01*
X001680Y002180D01*
X001694Y002184D01*
X001707Y002188D01*
X001720Y002190D01*
X001732Y002192D01*
X001742Y002193D01*
X001751Y002195D01*
X001758D01*
X001765Y002195D01*
X001791D01*
X001801Y002195D01*
D02*
G37*
G36*
X007593Y002200D02*
X007610Y002198D01*
X007626Y002194D01*
X007642Y002189D01*
X007656Y002184D01*
X007669Y002177D01*
X007682Y002171D01*
X007693Y002164D01*
X007703Y002157D01*
X007712Y002151D01*
X007719Y002144D01*
X007725Y002138D01*
X007730Y002134D01*
X007734Y002130D01*
X007736Y002128D01*
X007737Y002127D01*
X007748Y002113D01*
X007757Y002098D01*
X007766Y002083D01*
X007773Y002068D01*
X007779Y002052D01*
X007785Y002037D01*
X007789Y002023D01*
X007792Y002008D01*
X007795Y001995D01*
X007797Y001983D01*
X007798Y001972D01*
X007799Y001963D01*
Y001955D01*
X007800Y001949D01*
Y001946D01*
Y001944D01*
X007799Y001923D01*
X007798Y001902D01*
X007795Y001883D01*
X007791Y001866D01*
X007787Y001849D01*
X007782Y001834D01*
X007776Y001820D01*
X007771Y001808D01*
X007766Y001797D01*
X007761Y001787D01*
X007756Y001778D01*
X007752Y001772D01*
X007748Y001766D01*
X007745Y001762D01*
X007744Y001760D01*
X007743Y001759D01*
X007732Y001747D01*
X007719Y001737D01*
X007707Y001728D01*
X007693Y001721D01*
X007681Y001714D01*
X007667Y001708D01*
X007654Y001704D01*
X007641Y001700D01*
X007630Y001697D01*
X007618Y001695D01*
X007608Y001694D01*
X007599Y001692D01*
X007592D01*
X007587Y001692D01*
X007582D01*
X007563Y001692D01*
X007546Y001694D01*
X007530Y001697D01*
X007515Y001701D01*
X007500Y001705D01*
X007487Y001710D01*
X007476Y001715D01*
X007465Y001721D01*
X007456Y001726D01*
X007448Y001730D01*
X007442Y001736D01*
X007435Y001740D01*
X007431Y001743D01*
X007428Y001746D01*
X007426Y001748D01*
X007426Y001749D01*
X007467Y001819D01*
X007474Y001810D01*
X007483Y001803D01*
X007491Y001796D01*
X007500Y001790D01*
X007509Y001785D01*
X007518Y001781D01*
X007536Y001775D01*
X007551Y001772D01*
X007558Y001771D01*
X007564Y001770D01*
X007569Y001769D01*
X007576D01*
X007587Y001770D01*
X007597Y001772D01*
X007607Y001774D01*
X007617Y001776D01*
X007633Y001784D01*
X007647Y001792D01*
X007658Y001800D01*
X007662Y001804D01*
X007666Y001808D01*
X007669Y001810D01*
X007671Y001813D01*
X007672Y001814D01*
X007673Y001815D01*
X007679Y001824D01*
X007685Y001834D01*
X007694Y001854D01*
X007700Y001875D01*
X007705Y001895D01*
X007706Y001905D01*
X007707Y001913D01*
X007709Y001921D01*
Y001928D01*
X007709Y001933D01*
Y001937D01*
Y001940D01*
Y001940D01*
X007709Y001955D01*
X007708Y001969D01*
X007706Y001982D01*
X007703Y001995D01*
X007700Y002006D01*
X007697Y002017D01*
X007693Y002026D01*
X007690Y002036D01*
X007687Y002044D01*
X007683Y002051D01*
X007680Y002057D01*
X007677Y002062D01*
X007674Y002066D01*
X007672Y002069D01*
X007671Y002071D01*
X007671Y002071D01*
X007663Y002080D01*
X007655Y002088D01*
X007646Y002096D01*
X007638Y002101D01*
X007630Y002106D01*
X007621Y002110D01*
X007605Y002117D01*
X007591Y002120D01*
X007585Y002122D01*
X007579Y002122D01*
X007576Y002123D01*
X007557D01*
X007547Y002122D01*
X007537Y002121D01*
X007527Y002119D01*
X007518Y002116D01*
X007511Y002114D01*
X007504Y002112D01*
X007498Y002109D01*
X007493Y002106D01*
X007488Y002103D01*
X007480Y002099D01*
X007477Y002096D01*
X007475Y002094D01*
X007439Y002166D01*
X007448Y002173D01*
X007459Y002178D01*
X007481Y002186D01*
X007504Y002192D01*
X007526Y002196D01*
X007536Y002198D01*
X007545Y002199D01*
X007553Y002200D01*
X007560D01*
X007566Y002201D01*
X007575D01*
X007593Y002200D01*
D02*
G37*
G36*
X001456Y001700D02*
X001369D01*
Y002192D01*
X001456D01*
Y001700D01*
D02*
G37*
G36*
X001436Y006321D02*
X001453Y006318D01*
X001469Y006314D01*
X001483Y006310D01*
X001494Y006306D01*
X001500Y006304D01*
X001503Y006302D01*
X001506Y006301D01*
X001509Y006299D01*
X001510Y006298D01*
X001511D01*
X001526Y006288D01*
X001540Y006279D01*
X001551Y006268D01*
X001560Y006257D01*
X001568Y006248D01*
X001573Y006240D01*
X001576Y006237D01*
X001577Y006235D01*
X001578Y006234D01*
Y006234D01*
X001586Y006218D01*
X001591Y006204D01*
X001595Y006189D01*
X001598Y006177D01*
X001599Y006167D01*
X001600Y006158D01*
X001601Y006155D01*
Y006153D01*
Y006151D01*
Y006151D01*
X001600Y006135D01*
X001597Y006120D01*
X001593Y006107D01*
X001589Y006095D01*
X001585Y006085D01*
X001582Y006078D01*
X001580Y006075D01*
X001579Y006072D01*
X001578Y006072D01*
Y006071D01*
X001569Y006057D01*
X001558Y006046D01*
X001547Y006035D01*
X001536Y006027D01*
X001526Y006020D01*
X001518Y006014D01*
X001516Y006013D01*
X001513Y006011D01*
X001512Y006011D01*
X001511D01*
X001494Y006003D01*
X001478Y005998D01*
X001462Y005994D01*
X001449Y005992D01*
X001436Y005990D01*
X001431Y005989D01*
X001427Y005989D01*
X001419D01*
X001401Y005989D01*
X001384Y005992D01*
X001368Y005995D01*
X001354Y006000D01*
X001343Y006004D01*
X001337Y006005D01*
X001334Y006008D01*
X001331Y006008D01*
X001328Y006010D01*
X001327Y006011D01*
X001326D01*
X001310Y006020D01*
X001296Y006030D01*
X001285Y006040D01*
X001275Y006049D01*
X001268Y006059D01*
X001263Y006065D01*
X001259Y006070D01*
X001258Y006071D01*
Y006072D01*
X001251Y006086D01*
X001245Y006100D01*
X001241Y006113D01*
X001239Y006125D01*
X001237Y006135D01*
X001236Y006143D01*
Y006146D01*
Y006148D01*
Y006149D01*
Y006150D01*
X001236Y006166D01*
X001239Y006181D01*
X001242Y006195D01*
X001247Y006208D01*
X001251Y006218D01*
X001255Y006226D01*
X001256Y006229D01*
X001258Y006231D01*
X001258Y006232D01*
Y006233D01*
X001267Y006247D01*
X001279Y006260D01*
X001290Y006272D01*
X001301Y006281D01*
X001311Y006288D01*
X001318Y006293D01*
X001321Y006295D01*
X001324Y006297D01*
X001325Y006298D01*
X001326D01*
X001343Y006306D01*
X001359Y006312D01*
X001375Y006316D01*
X001389Y006319D01*
X001401Y006320D01*
X001406Y006321D01*
X001411Y006322D01*
X001419D01*
X001436Y006321D01*
D02*
G37*
G36*
X010730Y006320D02*
X010739Y006320D01*
X010747Y006318D01*
X010754Y006317D01*
X010759Y006315D01*
X010762Y006314D01*
X010764Y006314D01*
X010774Y006310D01*
X010783Y006306D01*
X010791Y006302D01*
X010799Y006298D01*
X010806Y006295D01*
X010810Y006291D01*
X010813Y006289D01*
X010815Y006288D01*
Y006313D01*
X010898D01*
X010907Y006312D01*
X010915Y006311D01*
X010922Y006310D01*
X010927Y006308D01*
X010931Y006306D01*
X010933Y006304D01*
X010934Y006304D01*
X010935Y006303D01*
X010939Y006299D01*
X010941Y006295D01*
X010944Y006286D01*
X010945Y006282D01*
X010946Y006280D01*
Y006278D01*
Y006277D01*
X010945Y006272D01*
X010944Y006266D01*
X010941Y006258D01*
X010938Y006255D01*
X010937Y006253D01*
X010936Y006252D01*
X010935Y006251D01*
X010931Y006248D01*
X010925Y006246D01*
X010912Y006244D01*
X010907Y006243D01*
X010902Y006242D01*
X010886D01*
Y005923D01*
X010907D01*
X010915Y005922D01*
X010922Y005920D01*
X010927Y005919D01*
X010931Y005917D01*
X010933Y005916D01*
X010934Y005915D01*
X010935Y005914D01*
X010939Y005910D01*
X010941Y005906D01*
X010944Y005897D01*
X010945Y005893D01*
X010946Y005891D01*
Y005889D01*
Y005888D01*
X010945Y005883D01*
X010944Y005877D01*
X010941Y005869D01*
X010938Y005866D01*
X010937Y005864D01*
X010936Y005863D01*
X010935Y005862D01*
X010931Y005859D01*
X010925Y005857D01*
X010912Y005854D01*
X010907Y005853D01*
X010902Y005852D01*
X010772D01*
X010763Y005853D01*
X010756Y005854D01*
X010750Y005855D01*
X010744Y005858D01*
X010740Y005859D01*
X010738Y005861D01*
X010737Y005861D01*
X010736Y005862D01*
X010732Y005866D01*
X010729Y005871D01*
X010727Y005875D01*
X010726Y005879D01*
X010725Y005883D01*
X010724Y005886D01*
Y005887D01*
Y005888D01*
X010725Y005894D01*
X010726Y005899D01*
X010730Y005907D01*
X010732Y005910D01*
X010734Y005912D01*
X010735Y005913D01*
X010736Y005914D01*
X010740Y005917D01*
X010746Y005919D01*
X010758Y005922D01*
X010763D01*
X010768Y005923D01*
X010815D01*
Y006040D01*
X010796Y006029D01*
X010788Y006025D01*
X010779Y006021D01*
X010773Y006019D01*
X010768Y006017D01*
X010764Y006016D01*
X010763Y006015D01*
X010743Y006011D01*
X010734Y006009D01*
X010726Y006008D01*
X010719D01*
X010714Y006008D01*
X010709D01*
X010698Y006008D01*
X010686Y006009D01*
X010665Y006014D01*
X010646Y006020D01*
X010629Y006027D01*
X010622Y006030D01*
X010616Y006033D01*
X010610Y006037D01*
X010606Y006039D01*
X010602Y006042D01*
X010599Y006043D01*
X010597Y006044D01*
X010597Y006045D01*
X010586Y006054D01*
X010577Y006063D01*
X010568Y006072D01*
X010562Y006082D01*
X010555Y006092D01*
X010550Y006101D01*
X010546Y006111D01*
X010543Y006120D01*
X010541Y006129D01*
X010539Y006136D01*
X010537Y006143D01*
X010536Y006149D01*
X010536Y006154D01*
Y006158D01*
Y006160D01*
Y006161D01*
X010536Y006172D01*
X010538Y006183D01*
X010540Y006194D01*
X010543Y006205D01*
X010552Y006224D01*
X010561Y006240D01*
X010566Y006247D01*
X010571Y006253D01*
X010575Y006259D01*
X010578Y006264D01*
X010582Y006268D01*
X010584Y006270D01*
X010586Y006272D01*
X010587Y006272D01*
X010597Y006281D01*
X010606Y006288D01*
X010617Y006295D01*
X010628Y006301D01*
X010638Y006306D01*
X010648Y006310D01*
X010667Y006316D01*
X010676Y006318D01*
X010684Y006320D01*
X010692Y006320D01*
X010698Y006321D01*
X010703Y006322D01*
X010720D01*
X010730Y006320D01*
D02*
G37*
G36*
X000464Y006497D02*
X000471Y006495D01*
X000476Y006492D01*
X000477Y006491D01*
X000478D01*
X000480Y006489D01*
X000482Y006485D01*
X000487Y006477D01*
X000490Y006473D01*
X000491Y006470D01*
X000492Y006468D01*
X000493Y006467D01*
X000719Y005980D01*
X000721Y005974D01*
X000723Y005968D01*
X000725Y005963D01*
X000726Y005960D01*
Y005957D01*
X000726Y005954D01*
Y005954D01*
Y005953D01*
X000726Y005948D01*
X000725Y005944D01*
X000721Y005936D01*
X000720Y005933D01*
X000718Y005931D01*
X000717Y005930D01*
X000717Y005929D01*
X000713Y005925D01*
X000708Y005923D01*
X000700Y005920D01*
X000697Y005919D01*
X000694Y005919D01*
X000691D01*
X000683Y005920D01*
X000676Y005922D01*
X000672Y005925D01*
X000671Y005926D01*
X000670D01*
X000667Y005928D01*
X000665Y005932D01*
X000659Y005940D01*
X000657Y005944D01*
X000656Y005947D01*
X000655Y005949D01*
X000654Y005950D01*
X000428Y006438D01*
X000425Y006444D01*
X000424Y006449D01*
X000422Y006454D01*
X000420Y006458D01*
Y006461D01*
X000420Y006463D01*
Y006464D01*
Y006465D01*
X000420Y006470D01*
X000421Y006474D01*
X000425Y006481D01*
X000427Y006484D01*
X000429Y006486D01*
X000430Y006487D01*
X000430Y006488D01*
X000434Y006492D01*
X000439Y006494D01*
X000447Y006497D01*
X000450Y006498D01*
X000453Y006498D01*
X000455D01*
X000464Y006497D01*
D02*
G37*
%LPC*%
G36*
X003554Y006251D02*
X003550D01*
X003534Y006250D01*
X003519Y006247D01*
X003506Y006241D01*
X003496Y006236D01*
X003487Y006231D01*
X003480Y006225D01*
X003477Y006222D01*
X003475Y006221D01*
X003464Y006209D01*
X003457Y006196D01*
X003452Y006184D01*
X003448Y006173D01*
X003445Y006162D01*
X003445Y006154D01*
X003444Y006151D01*
Y006149D01*
Y006148D01*
Y006147D01*
X003445Y006133D01*
X003449Y006121D01*
X003453Y006110D01*
X003458Y006101D01*
X003463Y006094D01*
X003468Y006088D01*
X003471Y006085D01*
X003472Y006084D01*
X003484Y006075D01*
X003496Y006070D01*
X003509Y006065D01*
X003521Y006062D01*
X003532Y006061D01*
X003541Y006060D01*
X003545Y006059D01*
X003550D01*
X003567Y006060D01*
X003582Y006063D01*
X003595Y006067D01*
X003607Y006072D01*
X003615Y006076D01*
X003621Y006080D01*
X003625Y006083D01*
X003627Y006084D01*
X003636Y006094D01*
X003643Y006104D01*
X003647Y006115D01*
X003650Y006125D01*
X003652Y006134D01*
X003653Y006142D01*
X003654Y006146D01*
Y006147D01*
Y006148D01*
X003652Y006163D01*
X003649Y006177D01*
X003644Y006189D01*
X003639Y006200D01*
X003633Y006209D01*
X003628Y006215D01*
X003625Y006219D01*
X003624Y006221D01*
X003611Y006231D01*
X003599Y006238D01*
X003587Y006244D01*
X003575Y006247D01*
X003565Y006250D01*
X003557Y006250D01*
X003554Y006251D01*
D02*
G37*
G36*
X004404Y006135D02*
X004383D01*
X004369Y006133D01*
X004356Y006132D01*
X004343Y006131D01*
X004333Y006129D01*
X004324Y006128D01*
X004321Y006127D01*
X004319D01*
X004318Y006126D01*
X004318D01*
Y006096D01*
X004337Y006084D01*
X004347Y006080D01*
X004356Y006076D01*
X004364Y006073D01*
X004370Y006071D01*
X004374Y006070D01*
X004375Y006069D01*
X004387Y006066D01*
X004398Y006064D01*
X004407Y006062D01*
X004416Y006061D01*
X004423Y006060D01*
X004429Y006059D01*
X004433D01*
X004444Y006060D01*
X004454Y006061D01*
X004461Y006062D01*
X004468Y006065D01*
X004474Y006067D01*
X004477Y006068D01*
X004480Y006069D01*
X004480Y006070D01*
X004483Y006072D01*
X004486Y006075D01*
X004488Y006081D01*
X004490Y006085D01*
Y006086D01*
Y006087D01*
X004489Y006092D01*
X004487Y006097D01*
X004483Y006101D01*
X004480Y006105D01*
X004477Y006109D01*
X004474Y006111D01*
X004471Y006113D01*
X004471Y006113D01*
X004458Y006120D01*
X004446Y006126D01*
X004433Y006129D01*
X004422Y006132D01*
X004412Y006134D01*
X004404Y006135D01*
D02*
G37*
G36*
X001423Y006251D02*
X001419D01*
X001409Y006250D01*
X001399Y006250D01*
X001382Y006245D01*
X001367Y006239D01*
X001354Y006232D01*
X001344Y006224D01*
X001337Y006218D01*
X001333Y006214D01*
X001331Y006213D01*
Y006212D01*
X001323Y006202D01*
X001317Y006190D01*
X001312Y006180D01*
X001309Y006170D01*
X001308Y006162D01*
X001306Y006156D01*
Y006151D01*
Y006151D01*
Y006150D01*
Y006144D01*
X001308Y006138D01*
X001312Y006126D01*
X001317Y006116D01*
X001322Y006107D01*
X001328Y006098D01*
X001334Y006093D01*
X001337Y006089D01*
X001338Y006088D01*
X001339D01*
X001352Y006078D01*
X001365Y006072D01*
X001379Y006066D01*
X001391Y006063D01*
X001402Y006061D01*
X001411Y006060D01*
X001414Y006059D01*
X001419D01*
X001436Y006061D01*
X001451Y006064D01*
X001465Y006068D01*
X001476Y006074D01*
X001485Y006078D01*
X001492Y006083D01*
X001497Y006086D01*
X001498Y006088D01*
X001509Y006098D01*
X001516Y006110D01*
X001522Y006119D01*
X001526Y006129D01*
X001529Y006137D01*
X001529Y006144D01*
X001530Y006148D01*
Y006149D01*
X001529Y006164D01*
X001525Y006177D01*
X001520Y006189D01*
X001514Y006199D01*
X001508Y006209D01*
X001503Y006215D01*
X001500Y006218D01*
X001498Y006220D01*
X001485Y006231D01*
X001472Y006238D01*
X001459Y006244D01*
X001446Y006247D01*
X001436Y006250D01*
X001427Y006250D01*
X001423Y006251D01*
D02*
G37*
G36*
X002693D02*
X002688D01*
X002678Y006250D01*
X002668Y006250D01*
X002652Y006245D01*
X002637Y006239D01*
X002624Y006232D01*
X002614Y006224D01*
X002607Y006218D01*
X002602Y006214D01*
X002601Y006213D01*
Y006212D01*
X002592Y006202D01*
X002586Y006190D01*
X002582Y006180D01*
X002579Y006170D01*
X002577Y006162D01*
X002576Y006156D01*
Y006151D01*
Y006151D01*
Y006150D01*
Y006144D01*
X002577Y006138D01*
X002581Y006126D01*
X002586Y006116D01*
X002592Y006107D01*
X002598Y006098D01*
X002603Y006093D01*
X002607Y006089D01*
X002608Y006088D01*
X002608D01*
X002621Y006078D01*
X002634Y006072D01*
X002648Y006066D01*
X002660Y006063D01*
X002672Y006061D01*
X002680Y006060D01*
X002684Y006059D01*
X002688D01*
X002705Y006061D01*
X002720Y006064D01*
X002734Y006068D01*
X002745Y006074D01*
X002754Y006078D01*
X002761Y006083D01*
X002766Y006086D01*
X002767Y006088D01*
X002778Y006098D01*
X002786Y006110D01*
X002792Y006119D01*
X002796Y006129D01*
X002798Y006137D01*
X002799Y006144D01*
X002799Y006148D01*
Y006149D01*
X002798Y006164D01*
X002794Y006177D01*
X002789Y006189D01*
X002783Y006199D01*
X002777Y006209D01*
X002773Y006215D01*
X002769Y006218D01*
X002767Y006220D01*
X002754Y006231D01*
X002742Y006238D01*
X002729Y006244D01*
X002716Y006247D01*
X002705Y006250D01*
X002696Y006250D01*
X002693Y006251D01*
D02*
G37*
G36*
X010716D02*
X010711D01*
X010699Y006250D01*
X010689Y006249D01*
X010679Y006246D01*
X010670Y006244D01*
X010664Y006240D01*
X010659Y006237D01*
X010655Y006236D01*
X010654Y006235D01*
X010646Y006229D01*
X010638Y006223D01*
X010632Y006216D01*
X010627Y006211D01*
X010623Y006205D01*
X010621Y006201D01*
X010619Y006198D01*
X010619Y006197D01*
X010615Y006189D01*
X010612Y006182D01*
X010610Y006176D01*
X010608Y006170D01*
X010607Y006166D01*
X010606Y006163D01*
Y006161D01*
Y006160D01*
X010608Y006149D01*
X010611Y006139D01*
X010616Y006129D01*
X010622Y006121D01*
X010627Y006114D01*
X010632Y006109D01*
X010635Y006106D01*
X010637Y006104D01*
X010648Y006096D01*
X010661Y006089D01*
X010673Y006084D01*
X010685Y006081D01*
X010696Y006080D01*
X010703Y006079D01*
X010706Y006078D01*
X010711D01*
X010727Y006079D01*
X010741Y006082D01*
X010754Y006087D01*
X010765Y006091D01*
X010774Y006096D01*
X010780Y006100D01*
X010784Y006104D01*
X010785Y006104D01*
X010795Y006114D01*
X010803Y006124D01*
X010807Y006133D01*
X010811Y006142D01*
X010813Y006148D01*
X010814Y006154D01*
X010815Y006158D01*
Y006159D01*
X010814Y006168D01*
X010812Y006178D01*
X010808Y006186D01*
X010804Y006195D01*
X010801Y006202D01*
X010797Y006207D01*
X010795Y006210D01*
X010794Y006212D01*
X010788Y006218D01*
X010782Y006224D01*
X010775Y006230D01*
X010768Y006234D01*
X010754Y006241D01*
X010741Y006247D01*
X010729Y006249D01*
X010724Y006250D01*
X010719Y006250D01*
X010716Y006251D01*
D02*
G37*
G36*
X005662D02*
X005656D01*
X005643Y006250D01*
X005631Y006249D01*
X005621Y006247D01*
X005612Y006244D01*
X005604Y006240D01*
X005599Y006238D01*
X005596Y006237D01*
X005595Y006236D01*
X005585Y006230D01*
X005576Y006222D01*
X005569Y006215D01*
X005563Y006208D01*
X005558Y006201D01*
X005554Y006196D01*
X005552Y006193D01*
X005551Y006191D01*
X005760D01*
X005754Y006202D01*
X005747Y006211D01*
X005740Y006218D01*
X005734Y006224D01*
X005728Y006230D01*
X005723Y006233D01*
X005719Y006235D01*
X005719Y006236D01*
X005708Y006241D01*
X005697Y006245D01*
X005687Y006247D01*
X005677Y006250D01*
X005669Y006250D01*
X005662Y006251D01*
D02*
G37*
G36*
X006098Y006253D02*
X006094D01*
X006079Y006251D01*
X006066Y006248D01*
X006054Y006244D01*
X006044Y006238D01*
X006036Y006233D01*
X006030Y006228D01*
X006026Y006225D01*
X006024Y006224D01*
X006015Y006212D01*
X006008Y006201D01*
X006002Y006189D01*
X005999Y006179D01*
X005997Y006170D01*
X005996Y006163D01*
X005996Y006160D01*
Y006158D01*
Y006157D01*
Y006156D01*
X005997Y006142D01*
X006000Y006129D01*
X006005Y006117D01*
X006010Y006107D01*
X006015Y006099D01*
X006020Y006093D01*
X006023Y006089D01*
X006024Y006088D01*
X006036Y006078D01*
X006047Y006072D01*
X006059Y006066D01*
X006070Y006063D01*
X006079Y006061D01*
X006087Y006060D01*
X006090Y006059D01*
X006094D01*
X006108Y006061D01*
X006122Y006064D01*
X006133Y006068D01*
X006143Y006074D01*
X006152Y006078D01*
X006158Y006083D01*
X006161Y006086D01*
X006163Y006088D01*
X006172Y006099D01*
X006179Y006110D01*
X006184Y006122D01*
X006187Y006132D01*
X006190Y006142D01*
X006190Y006149D01*
X006191Y006152D01*
Y006154D01*
Y006155D01*
Y006156D01*
X006190Y006170D01*
X006187Y006183D01*
X006182Y006195D01*
X006177Y006205D01*
X006172Y006212D01*
X006168Y006218D01*
X006165Y006222D01*
X006163Y006224D01*
X006152Y006234D01*
X006140Y006240D01*
X006128Y006246D01*
X006117Y006249D01*
X006108Y006251D01*
X006101Y006252D01*
X006098Y006253D01*
D02*
G37*
G36*
X006942Y006135D02*
X006922D01*
X006907Y006133D01*
X006894Y006132D01*
X006882Y006131D01*
X006871Y006129D01*
X006863Y006128D01*
X006860Y006127D01*
X006858D01*
X006857Y006126D01*
X006856D01*
Y006096D01*
X006876Y006084D01*
X006886Y006080D01*
X006895Y006076D01*
X006903Y006073D01*
X006909Y006071D01*
X006913Y006070D01*
X006914Y006069D01*
X006926Y006066D01*
X006937Y006064D01*
X006946Y006062D01*
X006955Y006061D01*
X006962Y006060D01*
X006967Y006059D01*
X006972D01*
X006983Y006060D01*
X006992Y006061D01*
X007000Y006062D01*
X007007Y006065D01*
X007012Y006067D01*
X007016Y006068D01*
X007018Y006069D01*
X007019Y006070D01*
X007022Y006072D01*
X007024Y006075D01*
X007027Y006081D01*
X007028Y006085D01*
Y006086D01*
Y006087D01*
X007027Y006092D01*
X007025Y006097D01*
X007022Y006101D01*
X007018Y006105D01*
X007015Y006109D01*
X007012Y006111D01*
X007010Y006113D01*
X007009Y006113D01*
X006997Y006120D01*
X006985Y006126D01*
X006972Y006129D01*
X006961Y006132D01*
X006951Y006134D01*
X006942Y006135D01*
D02*
G37*
G36*
X009820Y003151D02*
X009812D01*
X009806Y003150D01*
X009799Y003149D01*
X009791Y003148D01*
X009782Y003147D01*
X009772Y003145D01*
X009750Y003139D01*
X009739Y003135D01*
X009727Y003130D01*
X009716Y003125D01*
X009704Y003118D01*
X009692Y003110D01*
X009682Y003102D01*
X009719Y003031D01*
X009720Y003032D01*
X009722Y003034D01*
X009726Y003037D01*
X009731Y003040D01*
X009737Y003044D01*
X009746Y003049D01*
X009756Y003053D01*
X009767Y003059D01*
X009769Y003059D01*
X009772Y003061D01*
X009778Y003063D01*
X009786Y003066D01*
X009794Y003069D01*
X009804Y003071D01*
X009813Y003072D01*
X009822Y003073D01*
X009829D01*
X009834Y003072D01*
X009840Y003072D01*
X009847Y003071D01*
X009855Y003069D01*
X009863Y003067D01*
X009881Y003061D01*
X009891Y003057D01*
X009900Y003053D01*
X009910Y003046D01*
X009919Y003040D01*
X009928Y003032D01*
X009936Y003024D01*
X009937Y003023D01*
X009937Y003021D01*
X009940Y003018D01*
X009943Y003015D01*
X009946Y003010D01*
X009949Y003004D01*
X009953Y002996D01*
X009957Y002989D01*
X009961Y002980D01*
X009965Y002970D01*
X009968Y002959D01*
X009971Y002947D01*
X009974Y002935D01*
X009976Y002921D01*
X009977Y002906D01*
X009978Y002891D01*
Y002890D01*
Y002887D01*
Y002884D01*
X009977Y002878D01*
X009976Y002871D01*
X009976Y002864D01*
X009974Y002855D01*
X009973Y002846D01*
X009968Y002826D01*
X009960Y002805D01*
X009956Y002795D01*
X009950Y002785D01*
X009944Y002775D01*
X009937Y002766D01*
X009936Y002765D01*
X009934Y002763D01*
X009932Y002761D01*
X009929Y002759D01*
X009925Y002755D01*
X009920Y002751D01*
X009914Y002747D01*
X009907Y002743D01*
X009899Y002738D01*
X009891Y002734D01*
X009882Y002730D01*
X009872Y002727D01*
X009861Y002724D01*
X009850Y002722D01*
X009838Y002720D01*
X009825Y002719D01*
X009820D01*
X009817Y002720D01*
X009809Y002721D01*
X009797Y002722D01*
X009786Y002725D01*
X009773Y002730D01*
X009760Y002736D01*
X009748Y002744D01*
Y002842D01*
X009816D01*
Y002916D01*
X009661D01*
Y002696D01*
X009662Y002695D01*
X009667Y002691D01*
X009673Y002687D01*
X009683Y002681D01*
X009695Y002674D01*
X009708Y002668D01*
X009724Y002661D01*
X009742Y002655D01*
X009743D01*
X009744Y002655D01*
X009746Y002654D01*
X009750Y002653D01*
X009755Y002652D01*
X009760Y002651D01*
X009772Y002648D01*
X009787Y002646D01*
X009804Y002644D01*
X009821Y002642D01*
X009839Y002642D01*
X009844D01*
X009849Y002642D01*
X009857D01*
X009866Y002644D01*
X009876Y002645D01*
X009887Y002648D01*
X009900Y002650D01*
X009913Y002654D01*
X009927Y002658D01*
X009941Y002664D01*
X009954Y002671D01*
X009969Y002679D01*
X009982Y002688D01*
X009995Y002699D01*
X010007Y002711D01*
X010008Y002712D01*
X010009Y002714D01*
X010012Y002718D01*
X010017Y002724D01*
X010021Y002731D01*
X010027Y002739D01*
X010032Y002749D01*
X010037Y002760D01*
X010043Y002773D01*
X010049Y002786D01*
X010054Y002801D01*
X010058Y002817D01*
X010062Y002835D01*
X010065Y002854D01*
X010068Y002874D01*
X010068Y002894D01*
Y002896D01*
Y002900D01*
X010068Y002905D01*
Y002913D01*
X010066Y002922D01*
X010065Y002934D01*
X010063Y002947D01*
X010060Y002960D01*
X010056Y002974D01*
X010052Y002989D01*
X010046Y003005D01*
X010040Y003020D01*
X010033Y003036D01*
X010023Y003051D01*
X010013Y003066D01*
X010001Y003079D01*
X010001Y003080D01*
X009998Y003082D01*
X009995Y003086D01*
X009989Y003091D01*
X009982Y003096D01*
X009974Y003102D01*
X009964Y003108D01*
X009953Y003115D01*
X009941Y003122D01*
X009928Y003128D01*
X009912Y003134D01*
X009896Y003139D01*
X009879Y003144D01*
X009860Y003148D01*
X009840Y003150D01*
X009820Y003151D01*
D02*
G37*
G36*
X003583Y002118D02*
X003573D01*
X003559Y002117D01*
X003547Y002116D01*
X003535Y002114D01*
X003524Y002111D01*
X003504Y002103D01*
X003488Y002093D01*
X003473Y002081D01*
X003461Y002068D01*
X003451Y002053D01*
X003444Y002039D01*
X003437Y002024D01*
X003433Y002010D01*
X003430Y001996D01*
X003428Y001985D01*
X003426Y001974D01*
X003425Y001966D01*
Y001963D01*
Y001961D01*
Y001960D01*
Y001960D01*
X003426Y001944D01*
X003427Y001929D01*
X003429Y001915D01*
X003431Y001902D01*
X003434Y001890D01*
X003437Y001880D01*
X003440Y001870D01*
X003444Y001861D01*
X003448Y001852D01*
X003451Y001845D01*
X003454Y001839D01*
X003457Y001835D01*
X003460Y001831D01*
X003462Y001828D01*
X003463Y001826D01*
X003463Y001826D01*
X003471Y001817D01*
X003479Y001810D01*
X003487Y001804D01*
X003495Y001798D01*
X003504Y001794D01*
X003513Y001789D01*
X003529Y001784D01*
X003544Y001780D01*
X003550Y001779D01*
X003556Y001778D01*
X003561Y001778D01*
X003584D01*
X003592Y001778D01*
X003605D01*
X003609Y001779D01*
X003612D01*
Y002115D01*
X003603Y002116D01*
X003595Y002116D01*
X003589Y002117D01*
X003583Y002118D01*
D02*
G37*
G36*
X004509D02*
X004500D01*
X004478Y002117D01*
X004459Y002115D01*
X004442Y002111D01*
X004429Y002106D01*
X004417Y002100D01*
X004407Y002093D01*
X004398Y002087D01*
X004391Y002080D01*
X004387Y002072D01*
X004383Y002065D01*
X004380Y002058D01*
X004378Y002053D01*
X004377Y002048D01*
X004376Y002044D01*
Y002042D01*
Y002041D01*
X004378Y002025D01*
X004381Y002012D01*
X004385Y002001D01*
X004390Y001991D01*
X004395Y001985D01*
X004400Y001980D01*
X004403Y001977D01*
X004404Y001976D01*
X004410Y001972D01*
X004416Y001969D01*
X004429Y001965D01*
X004444Y001961D01*
X004458Y001959D01*
X004471Y001957D01*
X004477D01*
X004482Y001956D01*
X004496D01*
X004502Y001957D01*
X004513Y001958D01*
X004518D01*
X004522Y001959D01*
X004526D01*
Y002116D01*
X004517Y002117D01*
X004509Y002118D01*
D02*
G37*
G36*
X008990Y003151D02*
X008982D01*
X008976Y003150D01*
X008969D01*
X008960Y003149D01*
X008951Y003148D01*
X008941Y003146D01*
X008919Y003142D01*
X008896Y003136D01*
X008874Y003128D01*
X008864Y003123D01*
X008854Y003116D01*
X008890Y003044D01*
X008892Y003046D01*
X008896Y003049D01*
X008903Y003053D01*
X008908Y003056D01*
X008913Y003059D01*
X008919Y003062D01*
X008926Y003064D01*
X008934Y003066D01*
X008942Y003069D01*
X008952Y003071D01*
X008962Y003072D01*
X008973Y003073D01*
X008991D01*
X008995Y003072D01*
X009000Y003072D01*
X009006Y003070D01*
X009021Y003067D01*
X009036Y003060D01*
X009045Y003056D01*
X009053Y003051D01*
X009062Y003046D01*
X009070Y003038D01*
X009078Y003031D01*
X009086Y003021D01*
X009087Y003021D01*
X009087Y003019D01*
X009090Y003016D01*
X009092Y003012D01*
X009095Y003007D01*
X009098Y003001D01*
X009102Y002994D01*
X009105Y002986D01*
X009109Y002976D01*
X009113Y002967D01*
X009116Y002956D01*
X009119Y002945D01*
X009121Y002932D01*
X009123Y002919D01*
X009124Y002905D01*
X009125Y002890D01*
Y002890D01*
Y002887D01*
Y002883D01*
X009124Y002878D01*
Y002871D01*
X009122Y002863D01*
X009122Y002855D01*
X009120Y002845D01*
X009116Y002825D01*
X009110Y002804D01*
X009100Y002784D01*
X009094Y002774D01*
X009088Y002765D01*
X009087Y002764D01*
X009087Y002763D01*
X009084Y002760D01*
X009081Y002758D01*
X009078Y002754D01*
X009074Y002750D01*
X009062Y002742D01*
X009049Y002734D01*
X009032Y002726D01*
X009022Y002724D01*
X009012Y002722D01*
X009002Y002720D01*
X008991Y002719D01*
X008984D01*
X008979Y002720D01*
X008973Y002721D01*
X008966Y002722D01*
X008951Y002725D01*
X008934Y002731D01*
X008925Y002735D01*
X008915Y002740D01*
X008906Y002746D01*
X008898Y002753D01*
X008890Y002760D01*
X008882Y002769D01*
X008841Y002699D01*
X008842Y002698D01*
X008843Y002696D01*
X008846Y002693D01*
X008851Y002690D01*
X008857Y002686D01*
X008864Y002680D01*
X008871Y002676D01*
X008880Y002671D01*
X008891Y002665D01*
X008903Y002660D01*
X008915Y002655D01*
X008930Y002651D01*
X008945Y002647D01*
X008961Y002644D01*
X008979Y002642D01*
X008998Y002642D01*
X009002D01*
X009008Y002642D01*
X009014D01*
X009024Y002644D01*
X009033Y002645D01*
X009045Y002647D01*
X009056Y002650D01*
X009069Y002654D01*
X009082Y002658D01*
X009096Y002664D01*
X009109Y002671D01*
X009122Y002678D01*
X009135Y002687D01*
X009147Y002697D01*
X009158Y002709D01*
X009159Y002710D01*
X009161Y002712D01*
X009164Y002716D01*
X009167Y002722D01*
X009171Y002728D01*
X009176Y002737D01*
X009181Y002747D01*
X009186Y002758D01*
X009192Y002770D01*
X009197Y002784D01*
X009202Y002799D01*
X009206Y002816D01*
X009210Y002833D01*
X009213Y002852D01*
X009215Y002873D01*
X009215Y002894D01*
Y002896D01*
Y002899D01*
X009215Y002905D01*
Y002913D01*
X009213Y002922D01*
X009212Y002933D01*
X009210Y002945D01*
X009208Y002958D01*
X009204Y002973D01*
X009200Y002987D01*
X009195Y003002D01*
X009189Y003018D01*
X009181Y003033D01*
X009173Y003048D01*
X009164Y003063D01*
X009152Y003077D01*
X009151Y003078D01*
X009149Y003080D01*
X009145Y003084D01*
X009141Y003088D01*
X009135Y003094D01*
X009127Y003101D01*
X009118Y003107D01*
X009108Y003114D01*
X009097Y003121D01*
X009084Y003127D01*
X009071Y003134D01*
X009057Y003139D01*
X009042Y003144D01*
X009025Y003148D01*
X009008Y003150D01*
X008990Y003151D01*
D02*
G37*
G36*
X000748Y002048D02*
X000689Y001867D01*
X000807D01*
X000748Y002048D01*
D02*
G37*
G36*
X001783Y002118D02*
X001773D01*
X001759Y002117D01*
X001747Y002116D01*
X001735Y002114D01*
X001724Y002111D01*
X001704Y002103D01*
X001688Y002093D01*
X001673Y002081D01*
X001661Y002068D01*
X001651Y002053D01*
X001644Y002039D01*
X001637Y002024D01*
X001633Y002010D01*
X001630Y001996D01*
X001628Y001985D01*
X001626Y001974D01*
X001625Y001966D01*
Y001963D01*
Y001961D01*
Y001960D01*
Y001960D01*
X001626Y001944D01*
X001627Y001929D01*
X001629Y001915D01*
X001631Y001902D01*
X001634Y001890D01*
X001637Y001880D01*
X001640Y001870D01*
X001644Y001861D01*
X001648Y001852D01*
X001651Y001845D01*
X001654Y001839D01*
X001657Y001835D01*
X001660Y001831D01*
X001662Y001828D01*
X001663Y001826D01*
X001663Y001826D01*
X001671Y001817D01*
X001679Y001810D01*
X001687Y001804D01*
X001695Y001798D01*
X001704Y001794D01*
X001713Y001789D01*
X001729Y001784D01*
X001744Y001780D01*
X001750Y001779D01*
X001756Y001778D01*
X001761Y001778D01*
X001784D01*
X001792Y001778D01*
X001805D01*
X001809Y001779D01*
X001812D01*
Y002115D01*
X001803Y002116D01*
X001795Y002116D01*
X001789Y002117D01*
X001783Y002118D01*
D02*
G37*
G36*
X002955D02*
X002947D01*
X002926Y002117D01*
X002909Y002116D01*
X002893Y002113D01*
X002882Y002111D01*
X002872Y002108D01*
X002866Y002106D01*
X002862Y002104D01*
X002861Y002103D01*
X002851Y002097D01*
X002845Y002090D01*
X002840Y002080D01*
X002836Y002072D01*
X002835Y002065D01*
X002834Y002058D01*
X002833Y002054D01*
Y002053D01*
Y002052D01*
X002834Y002037D01*
X002837Y002024D01*
X002842Y002014D01*
X002846Y002006D01*
X002851Y002000D01*
X002855Y001996D01*
X002858Y001994D01*
X002859Y001993D01*
X002870Y001988D01*
X002882Y001984D01*
X002896Y001982D01*
X002909Y001980D01*
X002920Y001979D01*
X002925D01*
X002930Y001978D01*
X002950D01*
X002962Y001979D01*
X002967D01*
X002972Y001979D01*
X002976D01*
Y002116D01*
X002965Y002117D01*
X002955Y002118D01*
D02*
G37*
G36*
X004152Y003142D02*
X004056D01*
X003942Y002810D01*
X003822Y003142D01*
X003728D01*
X003920Y002643D01*
X003967D01*
X004152Y003142D01*
D02*
G37*
G36*
X011389Y002118D02*
X011381D01*
X011360Y002117D01*
X011342Y002116D01*
X011327Y002113D01*
X011316Y002111D01*
X011306Y002108D01*
X011300Y002106D01*
X011296Y002104D01*
X011295Y002103D01*
X011285Y002097D01*
X011279Y002090D01*
X011274Y002080D01*
X011270Y002072D01*
X011269Y002065D01*
X011268Y002058D01*
X011267Y002054D01*
Y002053D01*
Y002052D01*
X011268Y002037D01*
X011271Y002024D01*
X011276Y002014D01*
X011280Y002006D01*
X011285Y002000D01*
X011289Y001996D01*
X011292Y001994D01*
X011293Y001993D01*
X011304Y001988D01*
X011316Y001984D01*
X011330Y001982D01*
X011342Y001980D01*
X011354Y001979D01*
X011359D01*
X011364Y001978D01*
X011384D01*
X011396Y001979D01*
X011401D01*
X011406Y001979D01*
X011409D01*
Y002116D01*
X011399Y002117D01*
X011389Y002118D01*
D02*
G37*
G36*
X009190Y002123D02*
X009185D01*
X009174Y002122D01*
X009162Y002121D01*
X009152Y002119D01*
X009143Y002116D01*
X009134Y002112D01*
X009126Y002107D01*
X009111Y002096D01*
X009099Y002083D01*
X009088Y002068D01*
X009080Y002052D01*
X009073Y002036D01*
X009068Y002020D01*
X009064Y002004D01*
X009061Y001990D01*
X009059Y001977D01*
X009058Y001966D01*
Y001961D01*
X009057Y001957D01*
Y001954D01*
Y001952D01*
Y001950D01*
Y001950D01*
Y001934D01*
X009059Y001918D01*
X009060Y001905D01*
X009063Y001891D01*
X009066Y001880D01*
X009069Y001868D01*
X009072Y001858D01*
X009075Y001849D01*
X009078Y001842D01*
X009081Y001834D01*
X009084Y001829D01*
X009087Y001823D01*
X009089Y001819D01*
X009091Y001817D01*
X009091Y001816D01*
X009092Y001815D01*
X009099Y001807D01*
X009107Y001800D01*
X009114Y001794D01*
X009122Y001788D01*
X009130Y001784D01*
X009139Y001781D01*
X009155Y001775D01*
X009169Y001772D01*
X009176Y001771D01*
X009181Y001770D01*
X009186Y001769D01*
X009192D01*
X009202Y001770D01*
X009212Y001772D01*
X009221Y001774D01*
X009229Y001777D01*
X009244Y001784D01*
X009256Y001793D01*
X009265Y001801D01*
X009272Y001809D01*
X009274Y001812D01*
X009276Y001814D01*
X009277Y001816D01*
Y001816D01*
X009282Y001826D01*
X009287Y001835D01*
X009294Y001858D01*
X009299Y001880D01*
X009302Y001901D01*
X009304Y001911D01*
X009305Y001920D01*
X009305Y001928D01*
Y001935D01*
X009306Y001941D01*
Y001946D01*
Y001949D01*
Y001950D01*
Y001964D01*
X009305Y001978D01*
X009303Y001991D01*
X009301Y002003D01*
X009298Y002014D01*
X009296Y002024D01*
X009293Y002034D01*
X009290Y002042D01*
X009288Y002050D01*
X009285Y002057D01*
X009282Y002062D01*
X009279Y002068D01*
X009278Y002071D01*
X009276Y002074D01*
X009275Y002075D01*
Y002076D01*
X009269Y002084D01*
X009262Y002091D01*
X009255Y002098D01*
X009247Y002103D01*
X009240Y002108D01*
X009233Y002112D01*
X009219Y002117D01*
X009205Y002121D01*
X009200Y002122D01*
X009195Y002122D01*
X009190Y002123D01*
D02*
G37*
G36*
X008778Y002118D02*
X008770D01*
X008749Y002117D01*
X008731Y002116D01*
X008716Y002113D01*
X008705Y002111D01*
X008695Y002108D01*
X008689Y002106D01*
X008685Y002104D01*
X008684Y002103D01*
X008674Y002097D01*
X008668Y002090D01*
X008663Y002080D01*
X008659Y002072D01*
X008658Y002065D01*
X008657Y002058D01*
X008656Y002054D01*
Y002053D01*
Y002052D01*
X008657Y002037D01*
X008660Y002024D01*
X008665Y002014D01*
X008669Y002006D01*
X008674Y002000D01*
X008678Y001996D01*
X008681Y001994D01*
X008682Y001993D01*
X008693Y001988D01*
X008705Y001984D01*
X008719Y001982D01*
X008731Y001980D01*
X008743Y001979D01*
X008748D01*
X008753Y001978D01*
X008773D01*
X008785Y001979D01*
X008790D01*
X008795Y001979D01*
X008798D01*
Y002116D01*
X008788Y002117D01*
X008778Y002118D01*
D02*
G37*
G36*
X008771Y003142D02*
X008683D01*
Y002906D01*
X008517Y003142D01*
X008417D01*
X008572Y002927D01*
X008387Y002650D01*
X008492D01*
X008629Y002859D01*
X008683Y002785D01*
Y002650D01*
X008771D01*
Y003142D01*
D02*
G37*
G36*
X006857D02*
X006761D01*
X006647Y002810D01*
X006527Y003142D01*
X006433D01*
X006625Y002643D01*
X006673D01*
X006857Y003142D01*
D02*
G37*
G36*
X007173Y002123D02*
X007168D01*
X007156Y002122D01*
X007145Y002121D01*
X007135Y002119D01*
X007126Y002116D01*
X007117Y002112D01*
X007108Y002107D01*
X007094Y002096D01*
X007082Y002083D01*
X007071Y002068D01*
X007063Y002052D01*
X007056Y002036D01*
X007050Y002020D01*
X007047Y002004D01*
X007044Y001990D01*
X007042Y001977D01*
X007041Y001966D01*
Y001961D01*
X007040Y001957D01*
Y001954D01*
Y001952D01*
Y001950D01*
Y001950D01*
Y001934D01*
X007041Y001918D01*
X007043Y001905D01*
X007045Y001891D01*
X007048Y001880D01*
X007051Y001868D01*
X007054Y001858D01*
X007057Y001849D01*
X007060Y001842D01*
X007063Y001834D01*
X007066Y001829D01*
X007069Y001823D01*
X007072Y001819D01*
X007073Y001817D01*
X007074Y001816D01*
X007075Y001815D01*
X007082Y001807D01*
X007089Y001800D01*
X007097Y001794D01*
X007104Y001788D01*
X007113Y001784D01*
X007121Y001781D01*
X007137Y001775D01*
X007152Y001772D01*
X007158Y001771D01*
X007164Y001770D01*
X007168Y001769D01*
X007174D01*
X007184Y001770D01*
X007194Y001772D01*
X007203Y001774D01*
X007212Y001777D01*
X007226Y001784D01*
X007238Y001793D01*
X007248Y001801D01*
X007254Y001809D01*
X007257Y001812D01*
X007258Y001814D01*
X007260Y001816D01*
Y001816D01*
X007265Y001826D01*
X007270Y001835D01*
X007276Y001858D01*
X007282Y001880D01*
X007285Y001901D01*
X007286Y001911D01*
X007287Y001920D01*
X007288Y001928D01*
Y001935D01*
X007289Y001941D01*
Y001946D01*
Y001949D01*
Y001950D01*
Y001964D01*
X007287Y001978D01*
X007286Y001991D01*
X007284Y002003D01*
X007281Y002014D01*
X007279Y002024D01*
X007276Y002034D01*
X007273Y002042D01*
X007270Y002050D01*
X007267Y002057D01*
X007264Y002062D01*
X007262Y002068D01*
X007260Y002071D01*
X007259Y002074D01*
X007257Y002075D01*
Y002076D01*
X007251Y002084D01*
X007244Y002091D01*
X007238Y002098D01*
X007230Y002103D01*
X007222Y002108D01*
X007216Y002112D01*
X007201Y002117D01*
X007187Y002121D01*
X007182Y002122D01*
X007178Y002122D01*
X007173Y002123D01*
D02*
G37*
G36*
X004967Y003142D02*
X004876D01*
X004784Y002845D01*
X004684Y003142D01*
X004646D01*
X004545Y002845D01*
X004453Y003142D01*
X004362D01*
X004521Y002643D01*
X004557D01*
X004665Y002954D01*
X004770Y002643D01*
X004805D01*
X004967Y003142D01*
D02*
G37*
G36*
X001729Y003151D02*
X001721D01*
X001715Y003150D01*
X001708Y003149D01*
X001700Y003148D01*
X001691Y003147D01*
X001681Y003145D01*
X001659Y003139D01*
X001648Y003135D01*
X001637Y003130D01*
X001625Y003125D01*
X001613Y003118D01*
X001602Y003110D01*
X001591Y003102D01*
X001628Y003031D01*
X001629Y003032D01*
X001631Y003034D01*
X001635Y003037D01*
X001640Y003040D01*
X001646Y003044D01*
X001655Y003049D01*
X001665Y003053D01*
X001676Y003059D01*
X001678Y003059D01*
X001681Y003061D01*
X001688Y003063D01*
X001695Y003066D01*
X001703Y003069D01*
X001713Y003071D01*
X001722Y003072D01*
X001731Y003073D01*
X001738D01*
X001743Y003072D01*
X001749Y003072D01*
X001756Y003071D01*
X001764Y003069D01*
X001772Y003067D01*
X001790Y003061D01*
X001800Y003057D01*
X001809Y003053D01*
X001819Y003046D01*
X001828Y003040D01*
X001837Y003032D01*
X001845Y003024D01*
X001846Y003023D01*
X001847Y003021D01*
X001849Y003018D01*
X001852Y003015D01*
X001855Y003010D01*
X001858Y003004D01*
X001862Y002996D01*
X001866Y002989D01*
X001870Y002980D01*
X001874Y002970D01*
X001877Y002959D01*
X001880Y002947D01*
X001883Y002935D01*
X001885Y002921D01*
X001886Y002906D01*
X001887Y002891D01*
Y002890D01*
Y002887D01*
Y002884D01*
X001886Y002878D01*
X001885Y002871D01*
X001885Y002864D01*
X001883Y002855D01*
X001882Y002846D01*
X001877Y002826D01*
X001869Y002805D01*
X001865Y002795D01*
X001859Y002785D01*
X001853Y002775D01*
X001846Y002766D01*
X001845Y002765D01*
X001844Y002763D01*
X001841Y002761D01*
X001838Y002759D01*
X001834Y002755D01*
X001829Y002751D01*
X001823Y002747D01*
X001816Y002743D01*
X001808Y002738D01*
X001800Y002734D01*
X001791Y002730D01*
X001781Y002727D01*
X001770Y002724D01*
X001759Y002722D01*
X001747Y002720D01*
X001734Y002719D01*
X001729D01*
X001726Y002720D01*
X001718Y002721D01*
X001707Y002722D01*
X001695Y002725D01*
X001682Y002730D01*
X001669Y002736D01*
X001657Y002744D01*
Y002842D01*
X001726D01*
Y002916D01*
X001570D01*
Y002696D01*
X001571Y002695D01*
X001576Y002691D01*
X001582Y002687D01*
X001592Y002681D01*
X001604Y002674D01*
X001617Y002668D01*
X001633Y002661D01*
X001651Y002655D01*
X001652D01*
X001653Y002655D01*
X001656Y002654D01*
X001659Y002653D01*
X001664Y002652D01*
X001669Y002651D01*
X001681Y002648D01*
X001696Y002646D01*
X001713Y002644D01*
X001730Y002642D01*
X001748Y002642D01*
X001753D01*
X001758Y002642D01*
X001766D01*
X001775Y002644D01*
X001785Y002645D01*
X001796Y002648D01*
X001809Y002650D01*
X001822Y002654D01*
X001836Y002658D01*
X001850Y002664D01*
X001863Y002671D01*
X001878Y002679D01*
X001891Y002688D01*
X001904Y002699D01*
X001916Y002711D01*
X001917Y002712D01*
X001918Y002714D01*
X001921Y002718D01*
X001926Y002724D01*
X001930Y002731D01*
X001936Y002739D01*
X001941Y002749D01*
X001946Y002760D01*
X001952Y002773D01*
X001958Y002786D01*
X001963Y002801D01*
X001968Y002817D01*
X001971Y002835D01*
X001974Y002854D01*
X001977Y002874D01*
X001977Y002894D01*
Y002896D01*
Y002900D01*
X001977Y002905D01*
Y002913D01*
X001975Y002922D01*
X001974Y002934D01*
X001972Y002947D01*
X001969Y002960D01*
X001965Y002974D01*
X001961Y002989D01*
X001955Y003005D01*
X001949Y003020D01*
X001942Y003036D01*
X001933Y003051D01*
X001922Y003066D01*
X001910Y003079D01*
X001910Y003080D01*
X001907Y003082D01*
X001904Y003086D01*
X001898Y003091D01*
X001891Y003096D01*
X001883Y003102D01*
X001873Y003108D01*
X001863Y003115D01*
X001850Y003122D01*
X001837Y003128D01*
X001821Y003134D01*
X001805Y003139D01*
X001788Y003144D01*
X001769Y003148D01*
X001749Y003150D01*
X001729Y003151D01*
D02*
G37*
G36*
X001492Y003142D02*
X001181D01*
Y003065D01*
X001404D01*
Y002950D01*
X001245D01*
Y002875D01*
X001404D01*
Y002728D01*
X001181D01*
Y002650D01*
X001492D01*
Y003142D01*
D02*
G37*
G36*
X002242Y003148D02*
X002204D01*
X002006Y002650D01*
X002103D01*
X002140Y002750D01*
X002308D01*
X002341Y002650D01*
X002439D01*
X002242Y003148D01*
D02*
G37*
G36*
X002854Y003142D02*
X002446D01*
Y003065D01*
X002610D01*
Y002650D01*
X002697D01*
Y003065D01*
X002854D01*
Y003142D01*
D02*
G37*
G36*
X010548Y003151D02*
X010543D01*
X010538Y003150D01*
X010530D01*
X010521Y003148D01*
X010511Y003147D01*
X010500Y003145D01*
X010488Y003142D01*
X010475Y003139D01*
X010462Y003135D01*
X010448Y003129D01*
X010434Y003123D01*
X010422Y003115D01*
X010409Y003107D01*
X010397Y003096D01*
X010386Y003085D01*
X010385Y003084D01*
X010383Y003081D01*
X010380Y003078D01*
X010377Y003072D01*
X010373Y003066D01*
X010368Y003058D01*
X010363Y003048D01*
X010358Y003037D01*
X010352Y003024D01*
X010347Y003011D01*
X010342Y002995D01*
X010339Y002979D01*
X010335Y002961D01*
X010332Y002942D01*
X010330Y002922D01*
X010329Y002900D01*
Y002898D01*
Y002894D01*
Y002888D01*
X010330Y002880D01*
X010331Y002870D01*
X010332Y002859D01*
X010335Y002846D01*
X010337Y002832D01*
X010340Y002817D01*
X010344Y002801D01*
X010348Y002785D01*
X010355Y002770D01*
X010361Y002754D01*
X010369Y002739D01*
X010378Y002725D01*
X010389Y002711D01*
X010390Y002710D01*
X010392Y002708D01*
X010395Y002705D01*
X010399Y002700D01*
X010406Y002695D01*
X010413Y002689D01*
X010422Y002683D01*
X010431Y002677D01*
X010443Y002670D01*
X010455Y002664D01*
X010469Y002658D01*
X010483Y002652D01*
X010499Y002648D01*
X010517Y002645D01*
X010535Y002642D01*
X010555Y002642D01*
X010559D01*
X010564Y002642D01*
X010571D01*
X010579Y002644D01*
X010589Y002645D01*
X010600Y002648D01*
X010611Y002650D01*
X010623Y002654D01*
X010635Y002658D01*
X010648Y002664D01*
X010660Y002671D01*
X010673Y002678D01*
X010685Y002687D01*
X010696Y002698D01*
X010707Y002710D01*
X010708Y002711D01*
X010709Y002713D01*
X010711Y002717D01*
X010715Y002723D01*
X010719Y002730D01*
X010724Y002738D01*
X010728Y002748D01*
X010733Y002760D01*
X010738Y002773D01*
X010743Y002787D01*
X010747Y002802D01*
X010751Y002819D01*
X010755Y002837D01*
X010757Y002857D01*
X010759Y002878D01*
X010759Y002900D01*
Y002901D01*
Y002904D01*
X010759Y002910D01*
Y002917D01*
X010758Y002926D01*
X010756Y002937D01*
X010755Y002948D01*
X010753Y002961D01*
X010749Y002975D01*
X010746Y002989D01*
X010741Y003004D01*
X010735Y003019D01*
X010729Y003034D01*
X010721Y003049D01*
X010712Y003064D01*
X010702Y003078D01*
X010702Y003078D01*
X010699Y003081D01*
X010696Y003085D01*
X010692Y003089D01*
X010686Y003094D01*
X010679Y003101D01*
X010670Y003107D01*
X010661Y003114D01*
X010651Y003121D01*
X010639Y003128D01*
X010626Y003134D01*
X010613Y003139D01*
X010598Y003144D01*
X010582Y003148D01*
X010565Y003150D01*
X010548Y003151D01*
D02*
G37*
G36*
X003487D02*
X003483D01*
X003477Y003150D01*
X003470D01*
X003461Y003148D01*
X003451Y003147D01*
X003439Y003145D01*
X003427Y003142D01*
X003414Y003139D01*
X003401Y003135D01*
X003388Y003129D01*
X003374Y003123D01*
X003361Y003115D01*
X003348Y003107D01*
X003337Y003096D01*
X003325Y003085D01*
X003324Y003084D01*
X003323Y003081D01*
X003320Y003078D01*
X003316Y003072D01*
X003312Y003066D01*
X003308Y003058D01*
X003302Y003048D01*
X003297Y003037D01*
X003292Y003024D01*
X003286Y003011D01*
X003282Y002995D01*
X003278Y002979D01*
X003274Y002961D01*
X003271Y002942D01*
X003270Y002922D01*
X003269Y002900D01*
Y002898D01*
Y002894D01*
Y002888D01*
X003270Y002880D01*
X003270Y002870D01*
X003272Y002859D01*
X003274Y002846D01*
X003276Y002832D01*
X003280Y002817D01*
X003283Y002801D01*
X003288Y002785D01*
X003294Y002770D01*
X003301Y002754D01*
X003308Y002739D01*
X003318Y002725D01*
X003328Y002711D01*
X003329Y002710D01*
X003331Y002708D01*
X003334Y002705D01*
X003339Y002700D01*
X003345Y002695D01*
X003353Y002689D01*
X003361Y002683D01*
X003371Y002677D01*
X003382Y002670D01*
X003394Y002664D01*
X003408Y002658D01*
X003423Y002652D01*
X003439Y002648D01*
X003456Y002645D01*
X003474Y002642D01*
X003494Y002642D01*
X003499D01*
X003503Y002642D01*
X003510D01*
X003518Y002644D01*
X003528Y002645D01*
X003539Y002648D01*
X003550Y002650D01*
X003563Y002654D01*
X003575Y002658D01*
X003588Y002664D01*
X003600Y002671D01*
X003613Y002678D01*
X003624Y002687D01*
X003636Y002698D01*
X003646Y002710D01*
X003647Y002711D01*
X003649Y002713D01*
X003651Y002717D01*
X003655Y002723D01*
X003658Y002730D01*
X003663Y002738D01*
X003668Y002748D01*
X003672Y002760D01*
X003678Y002773D01*
X003682Y002787D01*
X003687Y002802D01*
X003690Y002819D01*
X003694Y002837D01*
X003697Y002857D01*
X003698Y002878D01*
X003699Y002900D01*
Y002901D01*
Y002904D01*
X003698Y002910D01*
Y002917D01*
X003697Y002926D01*
X003696Y002937D01*
X003694Y002948D01*
X003692Y002961D01*
X003689Y002975D01*
X003685Y002989D01*
X003681Y003004D01*
X003674Y003019D01*
X003668Y003034D01*
X003661Y003049D01*
X003652Y003064D01*
X003642Y003078D01*
X003641Y003078D01*
X003639Y003081D01*
X003636Y003085D01*
X003631Y003089D01*
X003625Y003094D01*
X003618Y003101D01*
X003610Y003107D01*
X003601Y003114D01*
X003590Y003121D01*
X003579Y003128D01*
X003566Y003134D01*
X003552Y003139D01*
X003537Y003144D01*
X003522Y003148D01*
X003505Y003150D01*
X003487Y003151D01*
D02*
G37*
G36*
X005214D02*
X005209D01*
X005204Y003150D01*
X005196D01*
X005187Y003148D01*
X005177Y003147D01*
X005166Y003145D01*
X005154Y003142D01*
X005141Y003139D01*
X005128Y003135D01*
X005114Y003129D01*
X005101Y003123D01*
X005088Y003115D01*
X005075Y003107D01*
X005063Y003096D01*
X005052Y003085D01*
X005051Y003084D01*
X005050Y003081D01*
X005047Y003078D01*
X005043Y003072D01*
X005039Y003066D01*
X005034Y003058D01*
X005029Y003048D01*
X005024Y003037D01*
X005018Y003024D01*
X005013Y003011D01*
X005009Y002995D01*
X005005Y002979D01*
X005001Y002961D01*
X004998Y002942D01*
X004996Y002922D01*
X004996Y002900D01*
Y002898D01*
Y002894D01*
Y002888D01*
X004996Y002880D01*
X004997Y002870D01*
X004999Y002859D01*
X005001Y002846D01*
X005003Y002832D01*
X005006Y002817D01*
X005010Y002801D01*
X005015Y002785D01*
X005021Y002770D01*
X005028Y002754D01*
X005035Y002739D01*
X005044Y002725D01*
X005055Y002711D01*
X005056Y002710D01*
X005058Y002708D01*
X005061Y002705D01*
X005066Y002700D01*
X005072Y002695D01*
X005079Y002689D01*
X005088Y002683D01*
X005098Y002677D01*
X005109Y002670D01*
X005121Y002664D01*
X005135Y002658D01*
X005149Y002652D01*
X005165Y002648D01*
X005183Y002645D01*
X005201Y002642D01*
X005221Y002642D01*
X005225D01*
X005230Y002642D01*
X005237D01*
X005245Y002644D01*
X005255Y002645D01*
X005266Y002648D01*
X005277Y002650D01*
X005289Y002654D01*
X005301Y002658D01*
X005314Y002664D01*
X005327Y002671D01*
X005340Y002678D01*
X005351Y002687D01*
X005362Y002698D01*
X005373Y002710D01*
X005374Y002711D01*
X005375Y002713D01*
X005378Y002717D01*
X005381Y002723D01*
X005385Y002730D01*
X005390Y002738D01*
X005394Y002748D01*
X005399Y002760D01*
X005404Y002773D01*
X005409Y002787D01*
X005413Y002802D01*
X005417Y002819D01*
X005421Y002837D01*
X005423Y002857D01*
X005425Y002878D01*
X005426Y002900D01*
Y002901D01*
Y002904D01*
X005425Y002910D01*
Y002917D01*
X005424Y002926D01*
X005422Y002937D01*
X005421Y002948D01*
X005419Y002961D01*
X005416Y002975D01*
X005412Y002989D01*
X005407Y003004D01*
X005401Y003019D01*
X005395Y003034D01*
X005387Y003049D01*
X005378Y003064D01*
X005368Y003078D01*
X005368Y003078D01*
X005365Y003081D01*
X005362Y003085D01*
X005358Y003089D01*
X005352Y003094D01*
X005345Y003101D01*
X005336Y003107D01*
X005327Y003114D01*
X005317Y003121D01*
X005305Y003128D01*
X005292Y003134D01*
X005279Y003139D01*
X005264Y003144D01*
X005248Y003148D01*
X005231Y003150D01*
X005214Y003151D01*
D02*
G37*
G36*
X008158D02*
X008154D01*
X008148Y003150D01*
X008141D01*
X008132Y003148D01*
X008122Y003147D01*
X008110Y003145D01*
X008098Y003142D01*
X008085Y003139D01*
X008072Y003135D01*
X008059Y003129D01*
X008045Y003123D01*
X008032Y003115D01*
X008019Y003107D01*
X008008Y003096D01*
X007996Y003085D01*
X007995Y003084D01*
X007994Y003081D01*
X007991Y003078D01*
X007987Y003072D01*
X007983Y003066D01*
X007979Y003058D01*
X007973Y003048D01*
X007968Y003037D01*
X007963Y003024D01*
X007957Y003011D01*
X007953Y002995D01*
X007949Y002979D01*
X007945Y002961D01*
X007942Y002942D01*
X007941Y002922D01*
X007940Y002900D01*
Y002898D01*
Y002894D01*
Y002888D01*
X007941Y002880D01*
X007941Y002870D01*
X007943Y002859D01*
X007945Y002846D01*
X007947Y002832D01*
X007951Y002817D01*
X007954Y002801D01*
X007959Y002785D01*
X007965Y002770D01*
X007972Y002754D01*
X007979Y002739D01*
X007989Y002725D01*
X007999Y002711D01*
X008000Y002710D01*
X008002Y002708D01*
X008005Y002705D01*
X008010Y002700D01*
X008016Y002695D01*
X008024Y002689D01*
X008032Y002683D01*
X008042Y002677D01*
X008053Y002670D01*
X008065Y002664D01*
X008079Y002658D01*
X008094Y002652D01*
X008110Y002648D01*
X008127Y002645D01*
X008145Y002642D01*
X008165Y002642D01*
X008170D01*
X008174Y002642D01*
X008181D01*
X008189Y002644D01*
X008199Y002645D01*
X008210Y002648D01*
X008221Y002650D01*
X008234Y002654D01*
X008246Y002658D01*
X008259Y002664D01*
X008271Y002671D01*
X008284Y002678D01*
X008295Y002687D01*
X008307Y002698D01*
X008317Y002710D01*
X008318Y002711D01*
X008320Y002713D01*
X008322Y002717D01*
X008326Y002723D01*
X008330Y002730D01*
X008334Y002738D01*
X008339Y002748D01*
X008343Y002760D01*
X008349Y002773D01*
X008353Y002787D01*
X008358Y002802D01*
X008361Y002819D01*
X008365Y002837D01*
X008368Y002857D01*
X008369Y002878D01*
X008370Y002900D01*
Y002901D01*
Y002904D01*
X008369Y002910D01*
Y002917D01*
X008368Y002926D01*
X008367Y002937D01*
X008365Y002948D01*
X008363Y002961D01*
X008360Y002975D01*
X008356Y002989D01*
X008352Y003004D01*
X008345Y003019D01*
X008339Y003034D01*
X008332Y003049D01*
X008323Y003064D01*
X008313Y003078D01*
X008312Y003078D01*
X008310Y003081D01*
X008307Y003085D01*
X008302Y003089D01*
X008296Y003094D01*
X008289Y003101D01*
X008281Y003107D01*
X008272Y003114D01*
X008261Y003121D01*
X008250Y003128D01*
X008237Y003134D01*
X008223Y003139D01*
X008209Y003144D01*
X008193Y003148D01*
X008176Y003150D01*
X008158Y003151D01*
D02*
G37*
G36*
X003191Y003142D02*
X003104D01*
Y002728D01*
X002882D01*
Y002650D01*
X003191D01*
Y003142D01*
D02*
G37*
G36*
X007753Y003145D02*
X007727D01*
X007721Y003145D01*
X007713D01*
X007705Y003143D01*
X007694Y003142D01*
X007682Y003140D01*
X007670Y003138D01*
X007656Y003134D01*
X007642Y003130D01*
X007628Y003125D01*
X007613Y003119D01*
X007600Y003112D01*
X007585Y003103D01*
X007572Y003094D01*
X007560Y003082D01*
X007559Y003081D01*
X007557Y003079D01*
X007554Y003075D01*
X007550Y003071D01*
X007546Y003065D01*
X007540Y003057D01*
X007534Y003048D01*
X007528Y003037D01*
X007523Y003026D01*
X007517Y003014D01*
X007511Y003000D01*
X007507Y002985D01*
X007503Y002969D01*
X007500Y002952D01*
X007498Y002934D01*
X007497Y002915D01*
Y002914D01*
Y002912D01*
Y002908D01*
X007498Y002903D01*
Y002897D01*
X007498Y002890D01*
X007499Y002882D01*
X007501Y002874D01*
X007502Y002864D01*
X007505Y002853D01*
X007511Y002831D01*
X007518Y002807D01*
X007529Y002782D01*
X007535Y002770D01*
X007543Y002758D01*
X007551Y002746D01*
X007559Y002734D01*
X007569Y002722D01*
X007580Y002712D01*
X007592Y002701D01*
X007605Y002691D01*
X007619Y002683D01*
X007635Y002674D01*
X007651Y002668D01*
X007669Y002661D01*
X007688Y002657D01*
X007709Y002653D01*
X007730Y002651D01*
X007753Y002650D01*
X007862D01*
Y003142D01*
X007852D01*
X007846Y003142D01*
X007837D01*
X007828Y003143D01*
X007817D01*
X007807Y003144D01*
X007785D01*
X007763Y003145D01*
X007753Y003145D01*
D02*
G37*
G36*
X009583Y003142D02*
X009272D01*
Y003065D01*
X009495D01*
Y002950D01*
X009336D01*
Y002875D01*
X009495D01*
Y002728D01*
X009272D01*
Y002650D01*
X009583D01*
Y003142D01*
D02*
G37*
G36*
X011200D02*
X010792D01*
Y003065D01*
X010956D01*
Y002650D01*
X011043D01*
Y003065D01*
X011200D01*
Y003142D01*
D02*
G37*
G36*
X007296Y003147D02*
X007276D01*
X007272Y003146D01*
X007266D01*
X007255Y003145D01*
X007241Y003142D01*
X007225Y003139D01*
X007208Y003135D01*
X007190Y003129D01*
X007173Y003121D01*
X007156Y003111D01*
X007140Y003100D01*
X007126Y003085D01*
X007114Y003069D01*
X007109Y003059D01*
X007105Y003050D01*
X007101Y003039D01*
X007099Y003027D01*
X007097Y003015D01*
X007097Y003002D01*
Y003001D01*
Y002999D01*
Y002997D01*
Y002994D01*
X007098Y002986D01*
X007100Y002976D01*
X007103Y002963D01*
X007107Y002950D01*
X007114Y002935D01*
X007123Y002922D01*
Y002921D01*
X007124Y002920D01*
X007127Y002916D01*
X007132Y002910D01*
X007140Y002902D01*
X007150Y002894D01*
X007161Y002885D01*
X007174Y002878D01*
X007188Y002871D01*
X007042Y002650D01*
X007142D01*
X007275Y002853D01*
X007289D01*
X007297Y002854D01*
X007306D01*
X007317Y002855D01*
X007330Y002855D01*
Y002650D01*
X007420D01*
Y003142D01*
X007410D01*
X007403Y003142D01*
X007393D01*
X007387Y003143D01*
X007381D01*
X007373Y003144D01*
X007359D01*
X007355Y003145D01*
X007346D01*
X007335Y003145D01*
X007323Y003146D01*
X007309D01*
X007296Y003147D01*
D02*
G37*
G36*
X005782Y003142D02*
X005695D01*
Y002728D01*
X005473D01*
Y002650D01*
X005782D01*
Y003142D01*
D02*
G37*
G36*
X006381D02*
X006070D01*
Y003065D01*
X006293D01*
Y002950D01*
X006134D01*
Y002875D01*
X006293D01*
Y002728D01*
X006070D01*
Y002650D01*
X006381D01*
Y003142D01*
D02*
G37*
G36*
X006999D02*
X006911D01*
Y002650D01*
X006999D01*
Y003142D01*
D02*
G37*
%LPD*%
G36*
X008168Y003072D02*
X008173Y003072D01*
X008178Y003071D01*
X008192Y003067D01*
X008206Y003062D01*
X008213Y003058D01*
X008221Y003053D01*
X008228Y003048D01*
X008235Y003041D01*
X008242Y003034D01*
X008248Y003026D01*
Y003025D01*
X008250Y003024D01*
X008251Y003021D01*
X008253Y003018D01*
X008255Y003012D01*
X008258Y003007D01*
X008261Y003000D01*
X008263Y002992D01*
X008266Y002984D01*
X008269Y002974D01*
X008272Y002964D01*
X008275Y002953D01*
X008276Y002941D01*
X008278Y002928D01*
X008279Y002914D01*
Y002900D01*
Y002899D01*
Y002896D01*
Y002891D01*
X008279Y002885D01*
Y002878D01*
X008278Y002870D01*
X008277Y002861D01*
X008275Y002851D01*
X008272Y002830D01*
X008267Y002808D01*
X008260Y002785D01*
X008256Y002776D01*
X008250Y002766D01*
Y002766D01*
X008249Y002764D01*
X008247Y002762D01*
X008245Y002759D01*
X008238Y002751D01*
X008229Y002743D01*
X008217Y002734D01*
X008202Y002727D01*
X008194Y002724D01*
X008185Y002722D01*
X008175Y002720D01*
X008165Y002719D01*
X008159D01*
X008154Y002720D01*
X008149Y002721D01*
X008142Y002722D01*
X008128Y002725D01*
X008112Y002731D01*
X008103Y002734D01*
X008095Y002738D01*
X008088Y002744D01*
X008080Y002750D01*
X008072Y002757D01*
X008065Y002765D01*
X008065Y002766D01*
X008064Y002767D01*
X008062Y002769D01*
X008060Y002773D01*
X008057Y002779D01*
X008054Y002784D01*
X008051Y002792D01*
X008048Y002799D01*
X008045Y002808D01*
X008042Y002818D01*
X008039Y002830D01*
X008036Y002841D01*
X008033Y002855D01*
X008032Y002868D01*
X008030Y002884D01*
Y002900D01*
Y002900D01*
Y002902D01*
Y002904D01*
Y002907D01*
X008031Y002911D01*
Y002916D01*
X008033Y002927D01*
X008034Y002940D01*
X008037Y002954D01*
X008041Y002970D01*
X008046Y002986D01*
X008053Y003002D01*
X008062Y003018D01*
X008072Y003033D01*
X008084Y003046D01*
X008099Y003057D01*
X008107Y003062D01*
X008116Y003066D01*
X008126Y003069D01*
X008135Y003071D01*
X008147Y003072D01*
X008158Y003073D01*
X008164D01*
X008168Y003072D01*
D02*
G37*
G36*
X005224D02*
X005228Y003072D01*
X005234Y003071D01*
X005247Y003067D01*
X005262Y003062D01*
X005269Y003058D01*
X005276Y003053D01*
X005284Y003048D01*
X005291Y003041D01*
X005298Y003034D01*
X005304Y003026D01*
Y003025D01*
X005305Y003024D01*
X005307Y003021D01*
X005308Y003018D01*
X005311Y003012D01*
X005314Y003007D01*
X005317Y003000D01*
X005319Y002992D01*
X005322Y002984D01*
X005325Y002974D01*
X005327Y002964D01*
X005330Y002953D01*
X005332Y002941D01*
X005333Y002928D01*
X005335Y002914D01*
Y002900D01*
Y002899D01*
Y002896D01*
Y002891D01*
X005334Y002885D01*
Y002878D01*
X005333Y002870D01*
X005333Y002861D01*
X005331Y002851D01*
X005328Y002830D01*
X005323Y002808D01*
X005316Y002785D01*
X005311Y002776D01*
X005306Y002766D01*
Y002766D01*
X005305Y002764D01*
X005303Y002762D01*
X005301Y002759D01*
X005294Y002751D01*
X005285Y002743D01*
X005273Y002734D01*
X005258Y002727D01*
X005250Y002724D01*
X005241Y002722D01*
X005231Y002720D01*
X005221Y002719D01*
X005215D01*
X005210Y002720D01*
X005205Y002721D01*
X005198Y002722D01*
X005184Y002725D01*
X005168Y002731D01*
X005159Y002734D01*
X005151Y002738D01*
X005143Y002744D01*
X005136Y002750D01*
X005128Y002757D01*
X005121Y002765D01*
X005120Y002766D01*
X005120Y002767D01*
X005118Y002769D01*
X005116Y002773D01*
X005113Y002779D01*
X005110Y002784D01*
X005107Y002792D01*
X005104Y002799D01*
X005101Y002808D01*
X005098Y002818D01*
X005095Y002830D01*
X005091Y002841D01*
X005089Y002855D01*
X005088Y002868D01*
X005086Y002884D01*
Y002900D01*
Y002900D01*
Y002902D01*
Y002904D01*
Y002907D01*
X005087Y002911D01*
Y002916D01*
X005088Y002927D01*
X005090Y002940D01*
X005093Y002954D01*
X005097Y002970D01*
X005102Y002986D01*
X005109Y003002D01*
X005117Y003018D01*
X005128Y003033D01*
X005140Y003046D01*
X005155Y003057D01*
X005163Y003062D01*
X005172Y003066D01*
X005181Y003069D01*
X005191Y003071D01*
X005203Y003072D01*
X005214Y003073D01*
X005219D01*
X005224Y003072D01*
D02*
G37*
G36*
X003497D02*
X003502Y003072D01*
X003507Y003071D01*
X003521Y003067D01*
X003535Y003062D01*
X003542Y003058D01*
X003550Y003053D01*
X003557Y003048D01*
X003564Y003041D01*
X003571Y003034D01*
X003577Y003026D01*
Y003025D01*
X003579Y003024D01*
X003580Y003021D01*
X003582Y003018D01*
X003584Y003012D01*
X003587Y003007D01*
X003590Y003000D01*
X003592Y002992D01*
X003595Y002984D01*
X003598Y002974D01*
X003601Y002964D01*
X003604Y002953D01*
X003605Y002941D01*
X003607Y002928D01*
X003608Y002914D01*
Y002900D01*
Y002899D01*
Y002896D01*
Y002891D01*
X003607Y002885D01*
Y002878D01*
X003607Y002870D01*
X003606Y002861D01*
X003604Y002851D01*
X003601Y002830D01*
X003596Y002808D01*
X003589Y002785D01*
X003585Y002776D01*
X003579Y002766D01*
Y002766D01*
X003578Y002764D01*
X003576Y002762D01*
X003574Y002759D01*
X003567Y002751D01*
X003558Y002743D01*
X003546Y002734D01*
X003531Y002727D01*
X003523Y002724D01*
X003514Y002722D01*
X003504Y002720D01*
X003494Y002719D01*
X003488D01*
X003483Y002720D01*
X003478Y002721D01*
X003471Y002722D01*
X003457Y002725D01*
X003441Y002731D01*
X003432Y002734D01*
X003424Y002738D01*
X003416Y002744D01*
X003409Y002750D01*
X003401Y002757D01*
X003394Y002765D01*
X003394Y002766D01*
X003393Y002767D01*
X003391Y002769D01*
X003389Y002773D01*
X003386Y002779D01*
X003383Y002784D01*
X003380Y002792D01*
X003377Y002799D01*
X003374Y002808D01*
X003371Y002818D01*
X003368Y002830D01*
X003365Y002841D01*
X003362Y002855D01*
X003361Y002868D01*
X003359Y002884D01*
Y002900D01*
Y002900D01*
Y002902D01*
Y002904D01*
Y002907D01*
X003360Y002911D01*
Y002916D01*
X003362Y002927D01*
X003363Y002940D01*
X003366Y002954D01*
X003370Y002970D01*
X003375Y002986D01*
X003382Y003002D01*
X003391Y003018D01*
X003401Y003033D01*
X003413Y003046D01*
X003428Y003057D01*
X003436Y003062D01*
X003445Y003066D01*
X003455Y003069D01*
X003464Y003071D01*
X003476Y003072D01*
X003487Y003073D01*
X003493D01*
X003497Y003072D01*
D02*
G37*
G36*
X010558D02*
X010562Y003072D01*
X010568Y003071D01*
X010581Y003067D01*
X010596Y003062D01*
X010603Y003058D01*
X010610Y003053D01*
X010618Y003048D01*
X010625Y003041D01*
X010632Y003034D01*
X010638Y003026D01*
Y003025D01*
X010639Y003024D01*
X010641Y003021D01*
X010642Y003018D01*
X010644Y003012D01*
X010648Y003007D01*
X010651Y003000D01*
X010653Y002992D01*
X010656Y002984D01*
X010659Y002974D01*
X010661Y002964D01*
X010664Y002953D01*
X010666Y002941D01*
X010667Y002928D01*
X010669Y002914D01*
Y002900D01*
Y002899D01*
Y002896D01*
Y002891D01*
X010668Y002885D01*
Y002878D01*
X010667Y002870D01*
X010667Y002861D01*
X010665Y002851D01*
X010662Y002830D01*
X010657Y002808D01*
X010650Y002785D01*
X010645Y002776D01*
X010640Y002766D01*
Y002766D01*
X010638Y002764D01*
X010637Y002762D01*
X010635Y002759D01*
X010628Y002751D01*
X010619Y002743D01*
X010606Y002734D01*
X010592Y002727D01*
X010584Y002724D01*
X010574Y002722D01*
X010565Y002720D01*
X010555Y002719D01*
X010549D01*
X010544Y002720D01*
X010539Y002721D01*
X010532Y002722D01*
X010517Y002725D01*
X010501Y002731D01*
X010493Y002734D01*
X010485Y002738D01*
X010477Y002744D01*
X010469Y002750D01*
X010462Y002757D01*
X010455Y002765D01*
X010454Y002766D01*
X010453Y002767D01*
X010452Y002769D01*
X010450Y002773D01*
X010447Y002779D01*
X010444Y002784D01*
X010441Y002792D01*
X010437Y002799D01*
X010434Y002808D01*
X010431Y002818D01*
X010428Y002830D01*
X010425Y002841D01*
X010423Y002855D01*
X010422Y002868D01*
X010420Y002884D01*
Y002900D01*
Y002900D01*
Y002902D01*
Y002904D01*
Y002907D01*
X010421Y002911D01*
Y002916D01*
X010422Y002927D01*
X010424Y002940D01*
X010427Y002954D01*
X010431Y002970D01*
X010436Y002986D01*
X010443Y003002D01*
X010451Y003018D01*
X010462Y003033D01*
X010474Y003046D01*
X010488Y003057D01*
X010497Y003062D01*
X010506Y003066D01*
X010515Y003069D01*
X010525Y003071D01*
X010536Y003072D01*
X010548Y003073D01*
X010553D01*
X010558Y003072D01*
D02*
G37*
G36*
X007319Y003067D02*
X007330Y003066D01*
Y002929D01*
X007326D01*
X007321Y002929D01*
X007316D01*
X007304Y002928D01*
X007284D01*
X007279Y002929D01*
X007274D01*
X007263Y002930D01*
X007250Y002932D01*
X007236Y002934D01*
X007224Y002938D01*
X007213Y002943D01*
X007212Y002944D01*
X007209Y002946D01*
X007205Y002950D01*
X007200Y002956D01*
X007196Y002964D01*
X007191Y002974D01*
X007188Y002987D01*
X007187Y003002D01*
Y003003D01*
Y003004D01*
X007188Y003008D01*
X007189Y003015D01*
X007190Y003022D01*
X007194Y003031D01*
X007199Y003040D01*
X007206Y003047D01*
X007215Y003053D01*
X007216Y003054D01*
X007220Y003056D01*
X007226Y003058D01*
X007236Y003061D01*
X007247Y003063D01*
X007263Y003066D01*
X007280Y003067D01*
X007301Y003068D01*
X007309D01*
X007319Y003067D01*
D02*
G37*
G36*
X002283Y002817D02*
X002165D01*
X002223Y002998D01*
X002283Y002817D01*
D02*
G37*
G36*
X007751Y003067D02*
X007757Y003066D01*
X007766Y003066D01*
X007775Y003065D01*
Y002729D01*
X007771D01*
X007767Y002728D01*
X007754D01*
X007747Y002728D01*
X007723D01*
X007718Y002728D01*
X007712Y002729D01*
X007706Y002730D01*
X007691Y002734D01*
X007675Y002739D01*
X007666Y002744D01*
X007658Y002748D01*
X007649Y002754D01*
X007641Y002760D01*
X007633Y002767D01*
X007626Y002776D01*
X007625Y002776D01*
X007624Y002778D01*
X007622Y002781D01*
X007619Y002785D01*
X007616Y002789D01*
X007613Y002795D01*
X007610Y002802D01*
X007607Y002811D01*
X007603Y002820D01*
X007600Y002830D01*
X007597Y002840D01*
X007594Y002852D01*
X007591Y002865D01*
X007589Y002879D01*
X007588Y002894D01*
X007588Y002910D01*
Y002910D01*
Y002911D01*
Y002913D01*
Y002916D01*
X007588Y002924D01*
X007590Y002935D01*
X007592Y002946D01*
X007595Y002960D01*
X007600Y002974D01*
X007606Y002989D01*
X007613Y003003D01*
X007623Y003018D01*
X007635Y003031D01*
X007650Y003043D01*
X007667Y003053D01*
X007686Y003061D01*
X007697Y003064D01*
X007709Y003066D01*
X007721Y003067D01*
X007735Y003068D01*
X007745D01*
X007751Y003067D01*
D02*
G37*
D11*
X000216Y001551D02*
X012027D01*
X000216Y000449D02*
X012027D01*
Y001000D02*
Y001551D01*
Y000449D02*
Y001000D01*
X000216D02*
Y001551D01*
Y000449D02*
Y001000D01*
Y001551D02*
Y002884D01*
X000984D01*
X012027Y001551D02*
Y002923D01*
X011423D02*
X012027D01*
X013150Y000500D02*
Y001000D01*
X012900D01*
X012817Y000917D01*
Y000750D01*
X012900Y000667D01*
X013150D01*
X012317Y000500D02*
X012650D01*
X012317Y000833D01*
Y000917D01*
X012400Y001000D01*
X012567D01*
X012650Y000917D01*
M02*
