%FSAX24Y24*%
%MOIN*%
G70*
G01*
G75*
%ADD10O,0.0236X0.0866*%
%ADD11R,0.0866X0.0335*%
%ADD12R,0.1800X0.0900*%
%ADD13R,0.0433X0.0394*%
%ADD14R,0.0394X0.0433*%
%ADD15O,0.0177X0.0709*%
%ADD16O,0.0866X0.0236*%
%ADD17R,0.0512X0.0591*%
%ADD18R,0.0650X0.0236*%
%ADD19R,0.0236X0.0650*%
%ADD20R,0.0400X0.0600*%
%ADD21O,0.0709X0.0177*%
%ADD22C,0.0120*%
%ADD23C,0.0080*%
%ADD24C,0.0200*%
%ADD25C,0.0100*%
%ADD26C,0.0250*%
%ADD27C,0.0600*%
%ADD28R,0.0600X0.0600*%
%ADD29R,0.0650X0.0650*%
%ADD30C,0.0650*%
%ADD31R,0.0600X0.0600*%
%ADD32R,0.0650X0.0650*%
%ADD33C,0.2500*%
%ADD34C,0.0300*%
%ADD35C,0.0098*%
%ADD36C,0.0236*%
%ADD37C,0.0079*%
%ADD38C,0.0150*%
%ADD39C,0.0059*%
%ADD40R,0.2500X0.1600*%
%ADD41R,0.0748X0.1614*%
%ADD42R,0.1614X0.0748*%
%ADD43O,0.0316X0.0946*%
%ADD44R,0.0946X0.0415*%
%ADD45R,0.1880X0.0980*%
%ADD46R,0.0513X0.0474*%
%ADD47R,0.0474X0.0513*%
%ADD48O,0.0257X0.0789*%
%ADD49O,0.0946X0.0316*%
%ADD50R,0.0592X0.0671*%
%ADD51R,0.0730X0.0316*%
%ADD52R,0.0316X0.0730*%
%ADD53R,0.0480X0.0680*%
%ADD54O,0.0789X0.0257*%
%ADD55C,0.0680*%
%ADD56R,0.0680X0.0680*%
%ADD57R,0.0730X0.0730*%
%ADD58C,0.0730*%
%ADD59R,0.0680X0.0680*%
%ADD60R,0.0730X0.0730*%
%ADD61C,0.2580*%
%ADD62C,0.0380*%
%ADD63C,0.0067*%
D39*
X033800Y011620D02*
X034200D01*
X034000Y011420D02*
Y011820D01*
X030800Y011620D02*
X031200D01*
X031000Y011420D02*
Y011820D01*
X043850Y011600D02*
X044250D01*
X044050Y011400D02*
Y011800D01*
X042850Y011600D02*
X043250D01*
X043050Y011400D02*
Y011800D01*
X041850Y011600D02*
X042250D01*
X042050Y011400D02*
Y011800D01*
X040200Y011600D02*
X040600D01*
X040400Y011400D02*
Y011800D01*
X039200Y011600D02*
X039600D01*
X039400Y011400D02*
Y011800D01*
X038200Y011600D02*
X038600D01*
X038400Y011400D02*
Y011800D01*
X028803Y043500D02*
X029197D01*
X029000Y043303D02*
Y043697D01*
X028803Y047500D02*
X029197D01*
X029000Y047303D02*
Y047697D01*
X020603Y043500D02*
X020997D01*
X020800Y043303D02*
Y043697D01*
X020603Y047500D02*
X020997D01*
X020800Y047303D02*
Y047697D01*
X011503Y028200D02*
X011897D01*
X011700Y028003D02*
Y028397D01*
X049400Y038800D02*
X049800D01*
X049600Y038600D02*
Y039000D01*
X049400Y037800D02*
X049800D01*
X049600Y037600D02*
Y038000D01*
X031800Y011620D02*
X032200D01*
X032000Y011420D02*
Y011820D01*
X032800Y011620D02*
X033200D01*
X033000Y011420D02*
Y011820D01*
X049303Y027700D02*
X049697D01*
X049500Y027503D02*
Y027897D01*
X048303Y027700D02*
X048697D01*
X048500Y027503D02*
Y027897D01*
X049303Y028700D02*
X049697D01*
X049500Y028503D02*
Y028897D01*
X048303Y028700D02*
X048697D01*
X048500Y028503D02*
Y028897D01*
X049303Y029700D02*
X049697D01*
X049500Y029503D02*
Y029897D01*
X048303Y029700D02*
X048697D01*
X048500Y029503D02*
Y029897D01*
X049303Y030700D02*
X049697D01*
X049500Y030503D02*
Y030897D01*
X048303Y030700D02*
X048697D01*
X048500Y030503D02*
Y030897D01*
X049303Y031700D02*
X049697D01*
X049500Y031503D02*
Y031897D01*
X048303Y031700D02*
X048697D01*
X048500Y031503D02*
Y031897D01*
X049303Y032700D02*
X049697D01*
X049500Y032503D02*
Y032897D01*
X048303Y032700D02*
X048697D01*
X048500Y032503D02*
Y032897D01*
X049303Y033700D02*
X049697D01*
X049500Y033503D02*
Y033897D01*
X048303Y033700D02*
X048697D01*
X048500Y033503D02*
Y033897D01*
X049303Y034700D02*
X049697D01*
X049500Y034503D02*
Y034897D01*
X048303Y034700D02*
X048697D01*
X048500Y034503D02*
Y034897D01*
X015303Y011500D02*
X015697D01*
X015500Y011303D02*
Y011697D01*
X015303Y012500D02*
X015697D01*
X015500Y012303D02*
Y012697D01*
X016303Y011500D02*
X016697D01*
X016500Y011303D02*
Y011697D01*
X016303Y012500D02*
X016697D01*
X016500Y012303D02*
Y012697D01*
X017303Y011500D02*
X017697D01*
X017500Y011303D02*
Y011697D01*
X017303Y012500D02*
X017697D01*
X017500Y012303D02*
Y012697D01*
X018303Y011500D02*
X018697D01*
X018500Y011303D02*
Y011697D01*
X018303Y012500D02*
X018697D01*
X018500Y012303D02*
Y012697D01*
X019303Y011500D02*
X019697D01*
X019500Y011303D02*
Y011697D01*
X019303Y012500D02*
X019697D01*
X019500Y012303D02*
Y012697D01*
X020303Y011500D02*
X020697D01*
X020500Y011303D02*
Y011697D01*
X021303Y011500D02*
X021697D01*
X021500Y011303D02*
Y011697D01*
X021303Y012500D02*
X021697D01*
X021500Y012303D02*
Y012697D01*
X022303Y011500D02*
X022697D01*
X022500Y011303D02*
Y011697D01*
X022303Y012500D02*
X022697D01*
X022500Y012303D02*
Y012697D01*
X023303Y011500D02*
X023697D01*
X023500Y011303D02*
Y011697D01*
X023303Y012500D02*
X023697D01*
X023500Y012303D02*
Y012697D01*
X024303Y011500D02*
X024697D01*
X024500Y011303D02*
Y011697D01*
X024303Y012500D02*
X024697D01*
X024500Y012303D02*
Y012697D01*
X049400Y046000D02*
X049800D01*
X049600Y045800D02*
Y046200D01*
X049400Y045000D02*
X049800D01*
X049600Y044800D02*
Y045200D01*
X049400Y043600D02*
X049800D01*
X049600Y043400D02*
Y043800D01*
X049400Y042600D02*
X049800D01*
X049600Y042400D02*
Y042800D01*
X049400Y041200D02*
X049800D01*
X049600Y041000D02*
Y041400D01*
X049400Y040200D02*
X049800D01*
X049600Y040000D02*
Y040400D01*
X011503Y042200D02*
X011897D01*
X011700Y042003D02*
Y042397D01*
X012503Y042200D02*
X012897D01*
X012700Y042003D02*
Y042397D01*
X011503Y041200D02*
X011897D01*
X011700Y041003D02*
Y041397D01*
X012503Y041200D02*
X012897D01*
X012700Y041003D02*
Y041397D01*
X011503Y040200D02*
X011897D01*
X011700Y040003D02*
Y040397D01*
X012503Y040200D02*
X012897D01*
X012700Y040003D02*
Y040397D01*
X011503Y039200D02*
X011897D01*
X011700Y039003D02*
Y039397D01*
X012503Y039200D02*
X012897D01*
X012700Y039003D02*
Y039397D01*
X011503Y038200D02*
X011897D01*
X011700Y038003D02*
Y038397D01*
X012503Y038200D02*
X012897D01*
X012700Y038003D02*
Y038397D01*
X011503Y037200D02*
X011897D01*
X011700Y037003D02*
Y037397D01*
X012503Y037200D02*
X012897D01*
X012700Y037003D02*
Y037397D01*
X011503Y036200D02*
X011897D01*
X011700Y036003D02*
Y036397D01*
X012503Y036200D02*
X012897D01*
X012700Y036003D02*
Y036397D01*
X011503Y035200D02*
X011897D01*
X011700Y035003D02*
Y035397D01*
X012503Y035200D02*
X012897D01*
X012700Y035003D02*
Y035397D01*
X011503Y034200D02*
X011897D01*
X011700Y034003D02*
Y034397D01*
X012503Y034200D02*
X012897D01*
X012700Y034003D02*
Y034397D01*
X011503Y033200D02*
X011897D01*
X011700Y033003D02*
Y033397D01*
X012503Y033200D02*
X012897D01*
X012700Y033003D02*
Y033397D01*
X011503Y032200D02*
X011897D01*
X011700Y032003D02*
Y032397D01*
X012503Y032200D02*
X012897D01*
X012700Y032003D02*
Y032397D01*
X011503Y031200D02*
X011897D01*
X011700Y031003D02*
Y031397D01*
X012503Y031200D02*
X012897D01*
X012700Y031003D02*
Y031397D01*
X011503Y030200D02*
X011897D01*
X011700Y030003D02*
Y030397D01*
X012503Y030200D02*
X012897D01*
X012700Y030003D02*
Y030397D01*
X011503Y029200D02*
X011897D01*
X011700Y029003D02*
Y029397D01*
X012503Y029200D02*
X012897D01*
X012700Y029003D02*
Y029397D01*
X012503Y028200D02*
X012897D01*
X012700Y028003D02*
Y028397D01*
X012503Y027200D02*
X012897D01*
X012700Y027003D02*
Y027397D01*
X011503Y026200D02*
X011897D01*
X011700Y026003D02*
Y026397D01*
X012503Y026200D02*
X012897D01*
X012700Y026003D02*
Y026397D01*
X011503Y025200D02*
X011897D01*
X011700Y025003D02*
Y025397D01*
X012503Y025200D02*
X012897D01*
X012700Y025003D02*
Y025397D01*
X011503Y024200D02*
X011897D01*
X011700Y024003D02*
Y024397D01*
X012503Y024200D02*
X012897D01*
X012700Y024003D02*
Y024397D01*
X011503Y023200D02*
X011897D01*
X011700Y023003D02*
Y023397D01*
X012503Y023200D02*
X012897D01*
X012700Y023003D02*
Y023397D01*
X011503Y022200D02*
X011897D01*
X011700Y022003D02*
Y022397D01*
X012503Y022200D02*
X012897D01*
X012700Y022003D02*
Y022397D01*
X011503Y021200D02*
X011897D01*
X011700Y021003D02*
Y021397D01*
X012503Y021200D02*
X012897D01*
X012700Y021003D02*
Y021397D01*
X011503Y020200D02*
X011897D01*
X011700Y020003D02*
Y020397D01*
X012503Y020200D02*
X012897D01*
X012700Y020003D02*
Y020397D01*
X011503Y019200D02*
X011897D01*
X011700Y019003D02*
Y019397D01*
X012503Y019200D02*
X012897D01*
X012700Y019003D02*
Y019397D01*
X011503Y018200D02*
X011897D01*
X011700Y018003D02*
Y018397D01*
X012503Y018200D02*
X012897D01*
X012700Y018003D02*
Y018397D01*
X024603Y044500D02*
X024997D01*
X024800Y044303D02*
Y044697D01*
X024603Y043500D02*
X024997D01*
X024800Y043303D02*
Y043697D01*
X023603Y044500D02*
X023997D01*
X023800Y044303D02*
Y044697D01*
X023603Y043500D02*
X023997D01*
X023800Y043303D02*
Y043697D01*
X022603Y044500D02*
X022997D01*
X022800Y044303D02*
Y044697D01*
X022603Y043500D02*
X022997D01*
X022800Y043303D02*
Y043697D01*
X021603Y044500D02*
X021997D01*
X021800Y044303D02*
Y044697D01*
X021603Y043500D02*
X021997D01*
X021800Y043303D02*
Y043697D01*
X020603Y044500D02*
X020997D01*
X020800Y044303D02*
Y044697D01*
X032803Y044500D02*
X033197D01*
X033000Y044303D02*
Y044697D01*
X032803Y043500D02*
X033197D01*
X033000Y043303D02*
Y043697D01*
X031803Y044500D02*
X032197D01*
X032000Y044303D02*
Y044697D01*
X031803Y043500D02*
X032197D01*
X032000Y043303D02*
Y043697D01*
X030803Y044500D02*
X031197D01*
X031000Y044303D02*
Y044697D01*
X030803Y043500D02*
X031197D01*
X031000Y043303D02*
Y043697D01*
X029803Y044500D02*
X030197D01*
X030000Y044303D02*
Y044697D01*
X029803Y043500D02*
X030197D01*
X030000Y043303D02*
Y043697D01*
X028803Y044500D02*
X029197D01*
X029000Y044303D02*
Y044697D01*
X037503Y047500D02*
X037897D01*
X037700Y047303D02*
Y047697D01*
X037503Y048500D02*
X037897D01*
X037700Y048303D02*
Y048697D01*
X038503Y047500D02*
X038897D01*
X038700Y047303D02*
Y047697D01*
X038503Y048500D02*
X038897D01*
X038700Y048303D02*
Y048697D01*
X039503Y047500D02*
X039897D01*
X039700Y047303D02*
Y047697D01*
X039503Y048500D02*
X039897D01*
X039700Y048303D02*
Y048697D01*
X040503Y047500D02*
X040897D01*
X040700Y047303D02*
Y047697D01*
X040503Y048500D02*
X040897D01*
X040700Y048303D02*
Y048697D01*
X041503Y048500D02*
X041897D01*
X041700Y048303D02*
Y048697D01*
X042503Y048500D02*
X042897D01*
X042700Y048303D02*
Y048697D01*
X043503Y048500D02*
X043897D01*
X043700Y048303D02*
Y048697D01*
X044503Y048500D02*
X044897D01*
X044700Y048303D02*
Y048697D01*
X037503Y043500D02*
X037897D01*
X037700Y043303D02*
Y043697D01*
X037503Y044500D02*
X037897D01*
X037700Y044303D02*
Y044697D01*
X038503Y043500D02*
X038897D01*
X038700Y043303D02*
Y043697D01*
X038503Y044500D02*
X038897D01*
X038700Y044303D02*
Y044697D01*
X039503Y044500D02*
X039897D01*
X039700Y044303D02*
Y044697D01*
X040503Y044500D02*
X040897D01*
X040700Y044303D02*
Y044697D01*
X041503Y044500D02*
X041897D01*
X041700Y044303D02*
Y044697D01*
X044503Y044500D02*
X044897D01*
X044700Y044303D02*
Y044697D01*
X042503Y044500D02*
X042897D01*
X042700Y044303D02*
Y044697D01*
X039503Y043500D02*
X039897D01*
X039700Y043303D02*
Y043697D01*
X043503Y044500D02*
X043897D01*
X043700Y044303D02*
Y044697D01*
X040503Y043500D02*
X040897D01*
X040700Y043303D02*
Y043697D01*
X032803Y048500D02*
X033197D01*
X033000Y048303D02*
Y048697D01*
X032803Y047500D02*
X033197D01*
X033000Y047303D02*
Y047697D01*
X031803Y048500D02*
X032197D01*
X032000Y048303D02*
Y048697D01*
X031803Y047500D02*
X032197D01*
X032000Y047303D02*
Y047697D01*
X030803Y048500D02*
X031197D01*
X031000Y048303D02*
Y048697D01*
X030803Y047500D02*
X031197D01*
X031000Y047303D02*
Y047697D01*
X029803Y048500D02*
X030197D01*
X030000Y048303D02*
Y048697D01*
X029803Y047500D02*
X030197D01*
X030000Y047303D02*
Y047697D01*
X028803Y048500D02*
X029197D01*
X029000Y048303D02*
Y048697D01*
X024603Y048500D02*
X024997D01*
X024800Y048303D02*
Y048697D01*
X024603Y047500D02*
X024997D01*
X024800Y047303D02*
Y047697D01*
X023603Y048500D02*
X023997D01*
X023800Y048303D02*
Y048697D01*
X023603Y047500D02*
X023997D01*
X023800Y047303D02*
Y047697D01*
X022603Y048500D02*
X022997D01*
X022800Y048303D02*
Y048697D01*
X022603Y047500D02*
X022997D01*
X022800Y047303D02*
Y047697D01*
X021603Y048500D02*
X021997D01*
X021800Y048303D02*
Y048697D01*
X021603Y047500D02*
X021997D01*
X021800Y047303D02*
Y047697D01*
X020603Y048500D02*
X020997D01*
X020800Y048303D02*
Y048697D01*
X011375Y012000D02*
X012625D01*
X012000Y011375D02*
Y012625D01*
X048375Y012000D02*
X049625D01*
X049000Y011375D02*
Y012625D01*
X048375Y048000D02*
X049625D01*
X049000Y047375D02*
Y048625D01*
X011375Y048000D02*
X012625D01*
X012000Y047375D02*
Y048625D01*
X044503Y047500D02*
X044897D01*
X044700Y047303D02*
Y047697D01*
X041503Y047500D02*
X041897D01*
X041700Y047303D02*
Y047697D01*
X042503Y047500D02*
X042897D01*
X042700Y047303D02*
Y047697D01*
X043503Y047500D02*
X043897D01*
X043700Y047303D02*
Y047697D01*
X044503Y043500D02*
X044897D01*
X044700Y043303D02*
Y043697D01*
X041503Y043500D02*
X041897D01*
X041700Y043303D02*
Y043697D01*
X042503Y043500D02*
X042897D01*
X042700Y043303D02*
Y043697D01*
X043503Y043500D02*
X043897D01*
X043700Y043303D02*
Y043697D01*
X011503Y027200D02*
X011897D01*
X011700Y027003D02*
Y027397D01*
X020303Y012500D02*
X020697D01*
X020500Y012303D02*
Y012697D01*
X016503Y018200D02*
X016897D01*
X016700Y018003D02*
Y018397D01*
X015503Y018200D02*
X015897D01*
X015700Y018003D02*
Y018397D01*
X016503Y019200D02*
X016897D01*
X016700Y019003D02*
Y019397D01*
X015503Y019200D02*
X015897D01*
X015700Y019003D02*
Y019397D01*
X016503Y020200D02*
X016897D01*
X016700Y020003D02*
Y020397D01*
X015503Y020200D02*
X015897D01*
X015700Y020003D02*
Y020397D01*
X016503Y021200D02*
X016897D01*
X016700Y021003D02*
Y021397D01*
X015503Y021200D02*
X015897D01*
X015700Y021003D02*
Y021397D01*
X016503Y022200D02*
X016897D01*
X016700Y022003D02*
Y022397D01*
X015503Y022200D02*
X015897D01*
X015700Y022003D02*
Y022397D01*
X016503Y023200D02*
X016897D01*
X016700Y023003D02*
Y023397D01*
X015503Y023200D02*
X015897D01*
X015700Y023003D02*
Y023397D01*
X016503Y024200D02*
X016897D01*
X016700Y024003D02*
Y024397D01*
X015503Y024200D02*
X015897D01*
X015700Y024003D02*
Y024397D01*
X016503Y025200D02*
X016897D01*
X016700Y025003D02*
Y025397D01*
X015503Y025200D02*
X015897D01*
X015700Y025003D02*
Y025397D01*
X016503Y026200D02*
X016897D01*
X016700Y026003D02*
Y026397D01*
X015503Y026200D02*
X015897D01*
X015700Y026003D02*
Y026397D01*
X016503Y027200D02*
X016897D01*
X016700Y027003D02*
Y027397D01*
X015503Y027200D02*
X015897D01*
X015700Y027003D02*
Y027397D01*
X016503Y028200D02*
X016897D01*
X016700Y028003D02*
Y028397D01*
X015503Y028200D02*
X015897D01*
X015700Y028003D02*
Y028397D01*
X016503Y029200D02*
X016897D01*
X016700Y029003D02*
Y029397D01*
X015503Y029200D02*
X015897D01*
X015700Y029003D02*
Y029397D01*
X016503Y030200D02*
X016897D01*
X016700Y030003D02*
Y030397D01*
X015503Y030200D02*
X015897D01*
X015700Y030003D02*
Y030397D01*
X016503Y031200D02*
X016897D01*
X016700Y031003D02*
Y031397D01*
X015503Y031200D02*
X015897D01*
X015700Y031003D02*
Y031397D01*
X016503Y032200D02*
X016897D01*
X016700Y032003D02*
Y032397D01*
X015503Y032200D02*
X015897D01*
X015700Y032003D02*
Y032397D01*
X016503Y033200D02*
X016897D01*
X016700Y033003D02*
Y033397D01*
X015503Y033200D02*
X015897D01*
X015700Y033003D02*
Y033397D01*
X016503Y034200D02*
X016897D01*
X016700Y034003D02*
Y034397D01*
X015503Y034200D02*
X015897D01*
X015700Y034003D02*
Y034397D01*
X016503Y035200D02*
X016897D01*
X016700Y035003D02*
Y035397D01*
X015503Y035200D02*
X015897D01*
X015700Y035003D02*
Y035397D01*
X016503Y036200D02*
X016897D01*
X016700Y036003D02*
Y036397D01*
X015503Y036200D02*
X015897D01*
X015700Y036003D02*
Y036397D01*
X016503Y037200D02*
X016897D01*
X016700Y037003D02*
Y037397D01*
X015503Y037200D02*
X015897D01*
X015700Y037003D02*
Y037397D01*
X016503Y038200D02*
X016897D01*
X016700Y038003D02*
Y038397D01*
X015503Y038200D02*
X015897D01*
X015700Y038003D02*
Y038397D01*
X016503Y039200D02*
X016897D01*
X016700Y039003D02*
Y039397D01*
X015503Y039200D02*
X015897D01*
X015700Y039003D02*
Y039397D01*
X016503Y040200D02*
X016897D01*
X016700Y040003D02*
Y040397D01*
X015503Y040200D02*
X015897D01*
X015700Y040003D02*
Y040397D01*
X016503Y041200D02*
X016897D01*
X016700Y041003D02*
Y041397D01*
X015503Y041200D02*
X015897D01*
X015700Y041003D02*
Y041397D01*
X016503Y042200D02*
X016897D01*
X016700Y042003D02*
Y042397D01*
X015503Y042200D02*
X015897D01*
X015700Y042003D02*
Y042397D01*
X048303Y020700D02*
X048697D01*
X048500Y020503D02*
Y020897D01*
X049303Y020700D02*
X049697D01*
X049500Y020503D02*
Y020897D01*
X048303Y019700D02*
X048697D01*
X048500Y019503D02*
Y019897D01*
X049303Y019700D02*
X049697D01*
X049500Y019503D02*
Y019897D01*
X048303Y018700D02*
X048697D01*
X048500Y018503D02*
Y018897D01*
X049303Y018700D02*
X049697D01*
X049500Y018503D02*
Y018897D01*
X048303Y017700D02*
X048697D01*
X048500Y017503D02*
Y017897D01*
X049303Y017700D02*
X049697D01*
X049500Y017503D02*
Y017897D01*
X048303Y016700D02*
X048697D01*
X048500Y016503D02*
Y016897D01*
X049303Y016700D02*
X049697D01*
X049500Y016503D02*
Y016897D01*
X048303Y015700D02*
X048697D01*
X048500Y015503D02*
Y015897D01*
X049303Y015700D02*
X049697D01*
X049500Y015503D02*
Y015897D01*
X048303Y026700D02*
X048697D01*
X048500Y026503D02*
Y026897D01*
X049303Y026700D02*
X049697D01*
X049500Y026503D02*
Y026897D01*
X048303Y025700D02*
X048697D01*
X048500Y025503D02*
Y025897D01*
X049303Y025700D02*
X049697D01*
X049500Y025503D02*
Y025897D01*
X048303Y024700D02*
X048697D01*
X048500Y024503D02*
Y024897D01*
X049303Y024700D02*
X049697D01*
X049500Y024503D02*
Y024897D01*
X048303Y023700D02*
X048697D01*
X048500Y023503D02*
Y023897D01*
X049303Y023700D02*
X049697D01*
X049500Y023503D02*
Y023897D01*
X048303Y022700D02*
X048697D01*
X048500Y022503D02*
Y022897D01*
X049303Y022700D02*
X049697D01*
X049500Y022503D02*
Y022897D01*
X048303Y021700D02*
X048697D01*
X048500Y021503D02*
Y021897D01*
X049303Y021700D02*
X049697D01*
X049500Y021503D02*
Y021897D01*
X014955Y036960D02*
X015105D01*
X015030Y036885D02*
Y037035D01*
X014165Y036960D02*
X014315D01*
X014240Y036885D02*
Y037035D01*
X048725Y042400D02*
X048875D01*
X048800Y042325D02*
Y042475D01*
X045525Y042200D02*
X045675D01*
X045600Y042125D02*
Y042275D01*
X032945Y042780D02*
X033095D01*
X033020Y042705D02*
Y042855D01*
X034425Y038200D02*
X034575D01*
X034500Y038125D02*
Y038275D01*
X035005Y038190D02*
X035155D01*
X035080Y038115D02*
Y038265D01*
X032225Y038470D02*
X032375D01*
X032300Y038395D02*
Y038545D01*
X030705Y014530D02*
X030855D01*
X030780Y014455D02*
Y014605D01*
X031145Y016920D02*
X031295D01*
X031220Y016845D02*
Y016995D01*
X041425Y039110D02*
X041575D01*
X041500Y039035D02*
Y039185D01*
X036905Y038620D02*
X037055D01*
X036980Y038545D02*
Y038695D01*
X037715Y026870D02*
X037865D01*
X037790Y026795D02*
Y026945D01*
X041775Y026870D02*
X041925D01*
X041850Y026795D02*
Y026945D01*
X039775Y026870D02*
X039925D01*
X039850Y026795D02*
Y026945D01*
X034665Y016940D02*
X034815D01*
X034740Y016865D02*
Y017015D01*
X030085Y015640D02*
X030235D01*
X030160Y015565D02*
Y015715D01*
X028255Y046000D02*
X028405D01*
X028330Y045925D02*
Y046075D01*
X029765Y018450D02*
X029915D01*
X029840Y018375D02*
Y018525D01*
X029795Y026090D02*
X029945D01*
X029870Y026015D02*
Y026165D01*
X027845Y042020D02*
X027995D01*
X027920Y041945D02*
Y042095D01*
X032005Y019260D02*
X032155D01*
X032080Y019185D02*
Y019335D01*
X031725Y023630D02*
X031875D01*
X031800Y023555D02*
Y023705D01*
X030125Y023620D02*
X030275D01*
X030200Y023545D02*
Y023695D01*
X050355Y036090D02*
X050505D01*
X050430Y036015D02*
Y036165D01*
X049835Y026220D02*
X049985D01*
X049910Y026145D02*
Y026295D01*
X049865Y036540D02*
X050015D01*
X049940Y036465D02*
Y036615D01*
X035625Y018420D02*
X035775D01*
X035700Y018345D02*
Y018495D01*
X035605Y024340D02*
X035755D01*
X035680Y024265D02*
Y024415D01*
X034685Y028080D02*
X034835D01*
X034760Y028005D02*
Y028155D01*
X033975Y026790D02*
X034125D01*
X034050Y026715D02*
Y026865D01*
X031945Y028100D02*
X032095D01*
X032020Y028025D02*
Y028175D01*
X028365Y028080D02*
X028515D01*
X028440Y028005D02*
Y028155D01*
X023875Y028100D02*
X024025D01*
X023950Y028025D02*
Y028175D01*
X019355Y041330D02*
X019505D01*
X019430Y041255D02*
Y041405D01*
X019235Y035030D02*
X019385D01*
X019310Y034955D02*
Y035105D01*
X019875Y032430D02*
X020025D01*
X019950Y032355D02*
Y032505D01*
X022395Y034820D02*
X022545D01*
X022470Y034745D02*
Y034895D01*
X018363Y038048D02*
X018513D01*
X018438Y037973D02*
Y038123D01*
X019375Y040650D02*
X019525D01*
X019450Y040575D02*
Y040725D01*
X020825Y040300D02*
X020975D01*
X020900Y040225D02*
Y040375D01*
X037875Y041400D02*
X038025D01*
X037950Y041325D02*
Y041475D01*
X033125Y037450D02*
X033275D01*
X033200Y037375D02*
Y037525D01*
X038725Y036350D02*
X038875D01*
X038800Y036275D02*
Y036425D01*
X042325Y036400D02*
X042475D01*
X042400Y036325D02*
Y036475D01*
X046275Y042000D02*
X046425D01*
X046350Y041925D02*
Y042075D01*
X041925Y037450D02*
X042075D01*
X042000Y037375D02*
Y037525D01*
X042275Y022350D02*
X042425D01*
X042350Y022275D02*
Y022425D01*
X039575Y017950D02*
X039725D01*
X039650Y017875D02*
Y018025D01*
X043275Y018800D02*
X043425D01*
X043350Y018725D02*
Y018875D01*
X042475Y018600D02*
X042625D01*
X042550Y018525D02*
Y018675D01*
X045134Y016241D02*
X045284D01*
X045209Y016166D02*
Y016316D01*
X045134Y014859D02*
X045284D01*
X045209Y014784D02*
Y014934D01*
X045075Y014050D02*
X045225D01*
X045150Y013975D02*
Y014125D01*
X045075Y013100D02*
X045225D01*
X045150Y013025D02*
Y013175D01*
X044425Y013600D02*
X044575D01*
X044500Y013525D02*
Y013675D01*
X043275Y014100D02*
X043425D01*
X043350Y014025D02*
Y014175D01*
X033025Y014660D02*
X033175D01*
X033100Y014585D02*
Y014735D01*
X031825Y014660D02*
X031975D01*
X031900Y014585D02*
Y014735D01*
X023725Y021200D02*
X023875D01*
X023800Y021125D02*
Y021275D01*
X025025Y023950D02*
X025175D01*
X025100Y023875D02*
Y024025D01*
X027075Y020150D02*
X027225D01*
X027150Y020075D02*
Y020225D01*
X024675Y020150D02*
X024825D01*
X024750Y020075D02*
Y020225D01*
X021425Y020154D02*
X021575D01*
X021500Y020079D02*
Y020229D01*
X019025Y023350D02*
X019175D01*
X019100Y023275D02*
Y023425D01*
X021675Y023900D02*
X021825D01*
X021750Y023825D02*
Y023975D01*
X022975Y022350D02*
X023125D01*
X023050Y022275D02*
Y022425D01*
X040235Y029110D02*
X040385D01*
X040310Y029035D02*
Y029185D01*
X043845Y029110D02*
X043995D01*
X043920Y029035D02*
Y029185D01*
X038565Y015810D02*
X038715D01*
X038640Y015735D02*
Y015885D01*
X030955Y028750D02*
X031105D01*
X031030Y028675D02*
Y028825D01*
X042345Y028750D02*
X042495D01*
X042420Y028675D02*
Y028825D01*
X034655Y028750D02*
X034805D01*
X034730Y028675D02*
Y028825D01*
X040225Y036370D02*
X040375D01*
X040300Y036295D02*
Y036445D01*
X049505Y035460D02*
X049655D01*
X049580Y035385D02*
Y035535D01*
X040250Y027460D02*
X040399D01*
X040325Y027385D02*
Y027535D01*
X046815Y027190D02*
X046965D01*
X046890Y027115D02*
Y027265D01*
X047615Y022850D02*
X047765D01*
X047690Y022775D02*
Y022925D01*
X044335Y036670D02*
X044485D01*
X044410Y036595D02*
Y036745D01*
X046525Y036510D02*
X046675D01*
X046600Y036435D02*
Y036585D01*
X044975Y034460D02*
X045125D01*
X045050Y034385D02*
Y034535D01*
X041635Y046630D02*
X041785D01*
X041710Y046555D02*
Y046705D01*
X046455Y046630D02*
X046605D01*
X046530Y046555D02*
Y046705D01*
X046895Y040170D02*
X047045D01*
X046970Y040095D02*
Y040245D01*
X045155Y040430D02*
X045305D01*
X045230Y040355D02*
Y040505D01*
X041685Y041600D02*
X041835D01*
X041760Y041525D02*
Y041675D01*
X046260Y040795D02*
X046410D01*
X046335Y040720D02*
Y040870D01*
X013385Y037350D02*
X013535D01*
X013460Y037275D02*
Y037425D01*
X015005Y037350D02*
X015155D01*
X015080Y037275D02*
Y037425D01*
X018185Y035290D02*
X018335D01*
X018260Y035215D02*
Y035365D01*
X037475Y035210D02*
X037625D01*
X037550Y035135D02*
Y035285D01*
X020525Y035140D02*
X020675D01*
X020600Y035065D02*
Y035215D01*
X020795Y033780D02*
X020945D01*
X020870Y033705D02*
Y033855D01*
X013525Y036150D02*
X013675D01*
X013600Y036075D02*
Y036225D01*
X014955Y036150D02*
X015105D01*
X015030Y036075D02*
Y036225D01*
X017495Y037270D02*
X017645D01*
X017570Y037195D02*
Y037345D01*
X031365Y037470D02*
X031515D01*
X031440Y037395D02*
Y037545D01*
X031545Y039670D02*
X031695D01*
X031620Y039595D02*
Y039745D01*
X037455Y039210D02*
X037605D01*
X037530Y039135D02*
Y039285D01*
X040665Y042130D02*
X040815D01*
X040740Y042055D02*
Y042205D01*
X031555Y041970D02*
X031705D01*
X031630Y041895D02*
Y042045D01*
X039685Y042380D02*
X039835D01*
X039760Y042305D02*
Y042455D01*
X031805Y042380D02*
X031955D01*
X031880Y042305D02*
Y042455D01*
X034495Y040710D02*
X034645D01*
X034570Y040635D02*
Y040785D01*
X034355Y043080D02*
X034505D01*
X034430Y043005D02*
Y043155D01*
X035745Y044940D02*
X035895D01*
X035820Y044865D02*
Y045015D01*
X034425Y043990D02*
X034575D01*
X034500Y043915D02*
Y044065D01*
X018145Y019630D02*
X018295D01*
X018220Y019555D02*
Y019705D01*
X043985Y019900D02*
X044135D01*
X044060Y019825D02*
Y019975D01*
X041245Y018260D02*
X041395D01*
X041320Y018185D02*
Y018335D01*
X018405Y020630D02*
X018555D01*
X018480Y020555D02*
Y020705D01*
X045385Y020900D02*
X045535D01*
X045460Y020825D02*
Y020975D01*
X019575Y021630D02*
X019725D01*
X019650Y021555D02*
Y021705D01*
X038175Y021880D02*
X038325D01*
X038250Y021805D02*
Y021955D01*
X020435Y022190D02*
X020585D01*
X020510Y022115D02*
Y022265D01*
X021095Y022450D02*
X021245D01*
X021170Y022375D02*
Y022525D01*
X021435Y022750D02*
X021585D01*
X021510Y022675D02*
Y022825D01*
X026485Y025060D02*
X026635D01*
X026560Y024985D02*
Y025135D01*
X026125Y025940D02*
X026275D01*
X026200Y025865D02*
Y026015D01*
X032145Y026630D02*
X032295D01*
X032220Y026555D02*
Y026705D01*
X025825Y026910D02*
X025975D01*
X025900Y026835D02*
Y026985D01*
X036065Y027640D02*
X036215D01*
X036140Y027565D02*
Y027715D01*
X025125Y027900D02*
X025275D01*
X025200Y027825D02*
Y027975D01*
X024835Y028690D02*
X024985D01*
X024910Y028615D02*
Y028765D01*
X023415Y029720D02*
X023565D01*
X023490Y029645D02*
Y029795D01*
X011075Y038630D02*
X011225D01*
X011150Y038555D02*
Y038705D01*
X020245Y038630D02*
X020395D01*
X020320Y038555D02*
Y038705D01*
X010775Y037740D02*
X010925D01*
X010850Y037665D02*
Y037815D01*
X020275Y037630D02*
X020425D01*
X020350Y037555D02*
Y037705D01*
X010505Y036690D02*
X010655D01*
X010580Y036615D02*
Y036765D01*
X020005Y036650D02*
X020155D01*
X020080Y036575D02*
Y036725D01*
X013535Y035680D02*
X013685D01*
X013610Y035605D02*
Y035755D01*
X019375Y035650D02*
X019525D01*
X019450Y035575D02*
Y035725D01*
X014455Y033680D02*
X014605D01*
X014530Y033605D02*
Y033755D01*
X019885Y033640D02*
X020035D01*
X019960Y033565D02*
Y033715D01*
X020285Y033680D02*
X020435D01*
X020360Y033605D02*
Y033755D01*
X019985Y034200D02*
X020135D01*
X020060Y034125D02*
Y034275D01*
X019755Y034770D02*
X019905D01*
X019830Y034695D02*
Y034845D01*
X018475Y035960D02*
X018625D01*
X018550Y035885D02*
Y036035D01*
X013255Y032730D02*
X013405D01*
X013330Y032655D02*
Y032805D01*
X014705Y031830D02*
X014855D01*
X014780Y031755D02*
Y031905D01*
X018325Y031770D02*
X018475D01*
X018400Y031695D02*
Y031845D01*
X020195Y039770D02*
X020345D01*
X020270Y039695D02*
Y039845D01*
X018295Y040760D02*
X018445D01*
X018370Y040685D02*
Y040835D01*
X042855Y036680D02*
X043005D01*
X042930Y036605D02*
Y036755D01*
X044335Y020620D02*
X044485D01*
X044410Y020545D02*
Y020695D01*
X042265Y020650D02*
X042415D01*
X042340Y020575D02*
Y020725D01*
X040255Y038920D02*
X040405D01*
X040330Y038845D02*
Y038995D01*
X040515Y040020D02*
X040665D01*
X040590Y039945D02*
Y040095D01*
X039495Y041050D02*
X039645D01*
X039570Y040975D02*
Y041125D01*
X039205Y041700D02*
X039355D01*
X039280Y041625D02*
Y041775D01*
X039315Y020170D02*
X039465D01*
X039390Y020095D02*
Y020245D01*
X041755Y020170D02*
X041905D01*
X041830Y020095D02*
Y020245D01*
X026615Y039230D02*
X026765D01*
X026690Y039155D02*
Y039305D01*
X031295Y039250D02*
X031445D01*
X031370Y039175D02*
Y039325D01*
X026505Y038230D02*
X026655D01*
X026580Y038155D02*
Y038305D01*
X031015Y038230D02*
X031165D01*
X031090Y038155D02*
Y038305D01*
X026585Y040320D02*
X026735D01*
X026660Y040245D02*
Y040395D01*
X021835Y040740D02*
X021985D01*
X021910Y040665D02*
Y040815D01*
X026735Y041370D02*
X026885D01*
X026810Y041295D02*
Y041445D01*
X021825Y041370D02*
X021975D01*
X021900Y041295D02*
Y041445D01*
X029075Y036610D02*
X029225D01*
X029150Y036535D02*
Y036685D01*
X033045Y036620D02*
X033195D01*
X033120Y036545D02*
Y036695D01*
X036275Y036280D02*
X036425D01*
X036350Y036205D02*
Y036355D01*
X026505Y040720D02*
X026655D01*
X026580Y040645D02*
Y040795D01*
X029425Y040710D02*
X029575D01*
X029500Y040635D02*
Y040785D01*
X026825Y038550D02*
X026975D01*
X026900Y038475D02*
Y038625D01*
X030635Y038550D02*
X030785D01*
X030710Y038475D02*
Y038625D01*
X030635Y036270D02*
X030785D01*
X030710Y036195D02*
Y036345D01*
X025315Y042180D02*
X025465D01*
X025390Y042105D02*
Y042255D01*
X033025Y034660D02*
X033175D01*
X033100Y034585D02*
Y034735D01*
X030315Y034660D02*
X030465D01*
X030390Y034585D02*
Y034735D01*
X030445Y046910D02*
X030595D01*
X030520Y046835D02*
Y046985D01*
X036625Y034970D02*
X036775D01*
X036700Y034895D02*
Y035045D01*
X030025Y034970D02*
X030175D01*
X030100Y034895D02*
Y035045D01*
X030025Y042690D02*
X030175D01*
X030100Y042615D02*
Y042765D01*
X018565Y047020D02*
X018715D01*
X018640Y046945D02*
Y047095D01*
X018895Y046740D02*
X019045D01*
X018970Y046665D02*
Y046815D01*
X027075Y049140D02*
X027225D01*
X027150Y049065D02*
Y049215D01*
X028555Y020210D02*
X028705D01*
X028630Y020135D02*
Y020285D01*
X033115Y020210D02*
X033265D01*
X033190Y020135D02*
Y020285D01*
X027365Y048340D02*
X027515D01*
X027440Y048265D02*
Y048415D01*
X028865Y020480D02*
X029015D01*
X028940Y020405D02*
Y020555D01*
X034035Y020480D02*
X034185D01*
X034110Y020405D02*
Y020555D01*
X027645Y048020D02*
X027795D01*
X027720Y047945D02*
Y048095D01*
X028995Y022200D02*
X029145D01*
X029070Y022125D02*
Y022275D01*
X035615Y022240D02*
X035765D01*
X035690Y022165D02*
Y022315D01*
X027815Y043660D02*
X027965D01*
X027890Y043585D02*
Y043735D01*
X029275Y022460D02*
X029425D01*
X029350Y022385D02*
Y022535D01*
X034625Y022460D02*
X034775D01*
X034700Y022385D02*
Y022535D01*
X016705Y049140D02*
X016855D01*
X016780Y049065D02*
Y049215D01*
X016685Y048340D02*
X016835D01*
X016760Y048265D02*
Y048415D01*
X016705Y047540D02*
X016855D01*
X016780Y047465D02*
Y047615D01*
X016725Y046730D02*
X016875D01*
X016800Y046655D02*
Y046805D01*
X026505Y039700D02*
X026655D01*
X026580Y039625D02*
Y039775D01*
X029085Y039700D02*
X029235D01*
X029160Y039625D02*
Y039775D01*
X023785Y035800D02*
X023935D01*
X023860Y035725D02*
Y035875D01*
X027945Y036360D02*
X028095D01*
X028020Y036285D02*
Y036435D01*
X031045Y035840D02*
X031195D01*
X031120Y035765D02*
Y035915D01*
X034655Y035850D02*
X034805D01*
X034730Y035775D02*
Y035925D01*
X043155Y032670D02*
X043305D01*
X043230Y032595D02*
Y032745D01*
X043405Y032230D02*
X043555D01*
X043480Y032155D02*
Y032305D01*
X040675Y031700D02*
X040825D01*
X040750Y031625D02*
Y031775D01*
X040495Y031290D02*
X040645D01*
X040570Y031215D02*
Y031365D01*
X039775Y034290D02*
X039925D01*
X039850Y034215D02*
Y034365D01*
X039055Y030230D02*
X039205D01*
X039130Y030155D02*
Y030305D01*
X040275Y024790D02*
X040425D01*
X040350Y024715D02*
Y024865D01*
X041945Y024950D02*
X042095D01*
X042020Y024875D02*
Y025025D01*
X041595Y034710D02*
X041745D01*
X041670Y034635D02*
Y034785D01*
X043845Y033680D02*
X043995D01*
X043920Y033605D02*
Y033755D01*
X044055Y033160D02*
X044205D01*
X044130Y033085D02*
Y033235D01*
X040275Y023110D02*
X040425D01*
X040350Y023035D02*
Y023185D01*
X040775Y022830D02*
X040925D01*
X040850Y022755D02*
Y022905D01*
X044655Y022960D02*
X044805D01*
X044730Y022885D02*
Y023035D01*
X044655Y027660D02*
X044805D01*
X044730Y027585D02*
Y027735D01*
X041245Y020550D02*
X041395D01*
X041320Y020475D02*
Y020625D01*
X038715Y020450D02*
X038865D01*
X038790Y020375D02*
Y020525D01*
X043085Y022550D02*
X043235D01*
X043160Y022475D02*
Y022625D01*
X044975Y022550D02*
X045125D01*
X045050Y022475D02*
Y022625D01*
X044975Y028680D02*
X045125D01*
X045050Y028605D02*
Y028755D01*
X043285Y022110D02*
X043435D01*
X043360Y022035D02*
Y022185D01*
X045265Y022110D02*
X045415D01*
X045340Y022035D02*
Y022185D01*
X045265Y028130D02*
X045415D01*
X045340Y028055D02*
Y028205D01*
X038965Y019570D02*
X039115D01*
X039040Y019495D02*
Y019645D01*
X045685Y019610D02*
X045835D01*
X045760Y019535D02*
Y019685D01*
X045495Y030700D02*
X045645D01*
X045570Y030625D02*
Y030775D01*
X043995Y023880D02*
X044145D01*
X044070Y023805D02*
Y023955D01*
X045785Y023880D02*
X045935D01*
X045860Y023805D02*
Y023955D01*
X045785Y029670D02*
X045935D01*
X045860Y029595D02*
Y029745D01*
X043985Y021210D02*
X044135D01*
X044060Y021135D02*
Y021285D01*
X045965Y021210D02*
X046115D01*
X046040Y021135D02*
Y021285D01*
X046055Y029160D02*
X046205D01*
X046130Y029085D02*
Y029235D01*
X040265Y017940D02*
X040415D01*
X040340Y017865D02*
Y018015D01*
X046075Y017940D02*
X046225D01*
X046150Y017865D02*
Y018015D01*
X046315Y024190D02*
X046465D01*
X046390Y024115D02*
Y024265D01*
X040765Y017690D02*
X040915D01*
X040840Y017615D02*
Y017765D01*
X046415Y017690D02*
X046565D01*
X046490Y017615D02*
Y017765D01*
X046565Y024480D02*
X046715D01*
X046640Y024405D02*
Y024555D01*
X044375Y019240D02*
X044525D01*
X044450Y019165D02*
Y019315D01*
X046845Y019260D02*
X046995D01*
X046920Y019185D02*
Y019335D01*
X046835Y023710D02*
X046985D01*
X046910Y023635D02*
Y023785D01*
X043735Y017400D02*
X043885D01*
X043810Y017325D02*
Y017475D01*
X046905Y017810D02*
X047055D01*
X046980Y017735D02*
Y017885D01*
X047275Y023230D02*
X047425D01*
X047350Y023155D02*
Y023305D01*
X039125Y015950D02*
X039275D01*
X039200Y015875D02*
Y016025D01*
X046905Y017330D02*
X047055D01*
X046980Y017255D02*
Y017405D01*
X047435Y021210D02*
X047585D01*
X047510Y021135D02*
Y021285D01*
X040155Y015530D02*
X040305D01*
X040230Y015455D02*
Y015605D01*
X047395Y017360D02*
X047545D01*
X047470Y017285D02*
Y017435D01*
X045975Y020700D02*
X046125D01*
X046050Y020625D02*
Y020775D01*
X045975Y018790D02*
X046125D01*
X046050Y018715D02*
Y018865D01*
X047125Y038330D02*
X047275D01*
X047200Y038255D02*
Y038405D01*
X036405Y038330D02*
X036555D01*
X036480Y038255D02*
Y038405D01*
X047445Y037560D02*
X047595D01*
X047520Y037485D02*
Y037635D01*
X047745Y039510D02*
X047895D01*
X047820Y039435D02*
Y039585D01*
X036395Y039510D02*
X036545D01*
X036470Y039435D02*
Y039585D01*
X048075Y039980D02*
X048225D01*
X048150Y039905D02*
Y040055D01*
X034805Y039540D02*
X034955D01*
X034880Y039465D02*
Y039615D01*
X034595Y020340D02*
X034745D01*
X034670Y020265D02*
Y020415D01*
X035675Y020210D02*
X035825D01*
X035750Y020135D02*
Y020285D01*
X035385Y022930D02*
X035535D01*
X035460Y022855D02*
Y023005D01*
X037725Y022930D02*
X037875D01*
X037800Y022855D02*
Y023005D01*
X027655Y024650D02*
X027805D01*
X027730Y024575D02*
Y024725D01*
X038725Y023400D02*
X038875D01*
X038800Y023325D02*
Y023475D01*
X027725Y025630D02*
X027875D01*
X027800Y025555D02*
Y025705D01*
X038695Y025630D02*
X038845D01*
X038770Y025555D02*
Y025705D01*
X038355Y026370D02*
X038505D01*
X038430Y026295D02*
Y026445D01*
X041275Y026370D02*
X041425D01*
X041350Y026295D02*
Y026445D01*
X035035Y022580D02*
X035185D01*
X035110Y022505D02*
Y022655D01*
X036395Y022570D02*
X036545D01*
X036470Y022495D02*
Y022645D01*
X033865Y022900D02*
X034015D01*
X033940Y022825D02*
Y022975D01*
X036755Y023260D02*
X036905D01*
X036830Y023185D02*
Y023335D01*
X023195Y018220D02*
X023345D01*
X023270Y018145D02*
Y018295D01*
X034135Y026190D02*
X034285D01*
X034210Y026115D02*
Y026265D01*
X035725Y035460D02*
X035875D01*
X035800Y035385D02*
Y035535D01*
X022785Y032970D02*
X022935D01*
X022860Y032895D02*
Y033045D01*
X046015Y033940D02*
X046165D01*
X046090Y033865D02*
Y034015D01*
X022865Y033520D02*
X023015D01*
X022940Y033445D02*
Y033595D01*
X023675Y033340D02*
X023825D01*
X023750Y033265D02*
Y033415D01*
X040215Y033340D02*
X040365D01*
X040290Y033265D02*
Y033415D01*
X039895Y040610D02*
X040045D01*
X039970Y040535D02*
Y040685D01*
X041925Y040960D02*
X042075D01*
X042000Y040885D02*
Y041035D01*
X023985Y033650D02*
X024135D01*
X024060Y033575D02*
Y033725D01*
X029785Y033650D02*
X029935D01*
X029860Y033575D02*
Y033725D01*
X029705Y040390D02*
X029855D01*
X029780Y040315D02*
Y040465D01*
X032365Y040540D02*
X032515D01*
X032440Y040465D02*
Y040615D01*
X025185Y032990D02*
X025335D01*
X025260Y032915D02*
Y033065D01*
X032595Y033010D02*
X032745D01*
X032670Y032935D02*
Y033085D01*
X024325Y034550D02*
X024475D01*
X024400Y034475D02*
Y034625D01*
X041815Y035120D02*
X041965D01*
X041890Y035045D02*
Y035195D01*
X043305Y038960D02*
X043455D01*
X043380Y038885D02*
Y039035D01*
X047155Y039250D02*
X047305D01*
X047230Y039175D02*
Y039325D01*
X043565Y038640D02*
X043715D01*
X043640Y038565D02*
Y038715D01*
X047375Y038840D02*
X047525D01*
X047450Y038765D02*
Y038915D01*
X047465Y046780D02*
X047615D01*
X047540Y046705D02*
Y046855D01*
X045175Y037940D02*
X045325D01*
X045250Y037865D02*
Y038015D01*
X048355Y037990D02*
X048505D01*
X048430Y037915D02*
Y038065D01*
X047025Y047620D02*
X047175D01*
X047100Y047545D02*
Y047695D01*
X044015Y036940D02*
X044165D01*
X044090Y036865D02*
Y037015D01*
X048235Y036980D02*
X048385D01*
X048310Y036905D02*
Y037055D01*
X048045Y046270D02*
X048195D01*
X048120Y046195D02*
Y046345D01*
X045285Y046270D02*
X045435D01*
X045360Y046195D02*
Y046345D01*
M02*
