%FSAX24Y24*%
%MOIN*%
G70*
G01*
G75*
G04 Layer_Color=16711935*
%ADD10O,0.0236X0.0866*%
%ADD11R,0.0866X0.0335*%
%ADD12R,0.1800X0.0900*%
%ADD13R,0.0433X0.0394*%
%ADD14R,0.0394X0.0433*%
%ADD15O,0.0177X0.0709*%
%ADD16O,0.0866X0.0236*%
%ADD17R,0.0512X0.0591*%
%ADD18R,0.0650X0.0236*%
%ADD19R,0.0236X0.0650*%
%ADD20R,0.0400X0.0600*%
%ADD21O,0.0709X0.0177*%
%ADD22C,0.0120*%
%ADD23C,0.0080*%
%ADD24C,0.0200*%
%ADD25C,0.0100*%
%ADD26C,0.0250*%
%ADD27C,0.0600*%
%ADD28R,0.0600X0.0600*%
%ADD29R,0.0650X0.0650*%
%ADD30C,0.0650*%
%ADD31R,0.0600X0.0600*%
%ADD32R,0.0650X0.0650*%
%ADD33C,0.2500*%
%ADD34C,0.0300*%
%ADD35C,0.0098*%
%ADD36C,0.0236*%
%ADD37C,0.0079*%
%ADD38C,0.0150*%
%ADD39C,0.0059*%
%ADD40R,0.2500X0.1600*%
%ADD41R,0.0748X0.1614*%
%ADD42R,0.1614X0.0748*%
%ADD43O,0.0316X0.0946*%
%ADD44R,0.0946X0.0415*%
%ADD45R,0.1880X0.0980*%
%ADD46R,0.0513X0.0474*%
%ADD47R,0.0474X0.0513*%
%ADD48O,0.0257X0.0789*%
%ADD49O,0.0946X0.0316*%
%ADD50R,0.0592X0.0671*%
%ADD51R,0.0730X0.0316*%
%ADD52R,0.0316X0.0730*%
%ADD53R,0.0480X0.0680*%
%ADD54O,0.0789X0.0257*%
%ADD55C,0.0680*%
%ADD56R,0.0680X0.0680*%
%ADD57R,0.0730X0.0730*%
%ADD58C,0.0730*%
%ADD59R,0.0680X0.0680*%
%ADD60R,0.0730X0.0730*%
%ADD61C,0.2580*%
%ADD62C,0.0380*%
D55*
X034000Y011620D02*
D03*
X044050Y011600D02*
D03*
X043050D02*
D03*
X040400D02*
D03*
X039400D02*
D03*
X049600Y038800D02*
D03*
X032000Y011620D02*
D03*
X033000D02*
D03*
X049600Y046000D02*
D03*
Y043600D02*
D03*
Y041200D02*
D03*
D56*
X031000Y011620D02*
D03*
X042050Y011600D02*
D03*
X038400D02*
D03*
D57*
X029000Y043500D02*
D03*
Y047500D02*
D03*
X020800Y043500D02*
D03*
Y047500D02*
D03*
X015500Y011500D02*
D03*
X037700Y047500D02*
D03*
Y043500D02*
D03*
D58*
X011700Y028200D02*
D03*
X049500Y027700D02*
D03*
X048500D02*
D03*
X049500Y028700D02*
D03*
X048500D02*
D03*
X049500Y029700D02*
D03*
X048500D02*
D03*
X049500Y030700D02*
D03*
X048500D02*
D03*
X049500Y031700D02*
D03*
X048500D02*
D03*
X049500Y032700D02*
D03*
X048500D02*
D03*
X049500Y033700D02*
D03*
X048500D02*
D03*
X049500Y034700D02*
D03*
X015500Y012500D02*
D03*
X016500Y011500D02*
D03*
Y012500D02*
D03*
X017500Y011500D02*
D03*
Y012500D02*
D03*
X018500Y011500D02*
D03*
Y012500D02*
D03*
X019500Y011500D02*
D03*
Y012500D02*
D03*
X020500Y011500D02*
D03*
X021500D02*
D03*
Y012500D02*
D03*
X022500Y011500D02*
D03*
Y012500D02*
D03*
X023500Y011500D02*
D03*
Y012500D02*
D03*
X024500Y011500D02*
D03*
Y012500D02*
D03*
X012700Y042200D02*
D03*
X011700Y041200D02*
D03*
X012700D02*
D03*
X011700Y040200D02*
D03*
X012700D02*
D03*
X011700Y039200D02*
D03*
X012700D02*
D03*
X011700Y038200D02*
D03*
X012700D02*
D03*
X011700Y037200D02*
D03*
X012700D02*
D03*
X011700Y036200D02*
D03*
X012700D02*
D03*
X011700Y035200D02*
D03*
X012700D02*
D03*
X011700Y034200D02*
D03*
X012700D02*
D03*
X011700Y033200D02*
D03*
X012700D02*
D03*
X011700Y032200D02*
D03*
X012700D02*
D03*
X011700Y031200D02*
D03*
X012700D02*
D03*
X011700Y030200D02*
D03*
X012700D02*
D03*
X011700Y029200D02*
D03*
X012700D02*
D03*
Y028200D02*
D03*
Y027200D02*
D03*
X011700Y026200D02*
D03*
X012700D02*
D03*
X011700Y025200D02*
D03*
X012700D02*
D03*
X011700Y024200D02*
D03*
X012700D02*
D03*
X011700Y023200D02*
D03*
X012700D02*
D03*
X011700Y022200D02*
D03*
X012700D02*
D03*
X011700Y021200D02*
D03*
X012700D02*
D03*
X011700Y020200D02*
D03*
X012700D02*
D03*
X011700Y019200D02*
D03*
X012700D02*
D03*
X011700Y018200D02*
D03*
X012700D02*
D03*
X024800Y044500D02*
D03*
Y043500D02*
D03*
X023800Y044500D02*
D03*
Y043500D02*
D03*
X022800Y044500D02*
D03*
Y043500D02*
D03*
X021800Y044500D02*
D03*
Y043500D02*
D03*
X020800Y044500D02*
D03*
X033000Y044500D02*
D03*
Y043500D02*
D03*
X032000Y044500D02*
D03*
Y043500D02*
D03*
X031000Y044500D02*
D03*
Y043500D02*
D03*
X030000Y044500D02*
D03*
Y043500D02*
D03*
X029000Y044500D02*
D03*
X037700Y048500D02*
D03*
X038700Y047500D02*
D03*
Y048500D02*
D03*
X039700Y047500D02*
D03*
Y048500D02*
D03*
X040700Y047500D02*
D03*
Y048500D02*
D03*
X041700D02*
D03*
X042700D02*
D03*
X043700D02*
D03*
X044700D02*
D03*
X037700Y044500D02*
D03*
X038700Y043500D02*
D03*
Y044500D02*
D03*
X039700D02*
D03*
X040700D02*
D03*
X041700D02*
D03*
X044700D02*
D03*
X042700D02*
D03*
X039700Y043500D02*
D03*
X043700Y044500D02*
D03*
X040700Y043500D02*
D03*
X033000Y048500D02*
D03*
Y047500D02*
D03*
X032000Y048500D02*
D03*
Y047500D02*
D03*
X031000Y048500D02*
D03*
Y047500D02*
D03*
X030000Y048500D02*
D03*
Y047500D02*
D03*
X029000Y048500D02*
D03*
X024800Y048500D02*
D03*
Y047500D02*
D03*
X023800Y048500D02*
D03*
Y047500D02*
D03*
X022800Y048500D02*
D03*
Y047500D02*
D03*
X021800Y048500D02*
D03*
Y047500D02*
D03*
X020800Y048500D02*
D03*
X044700Y047500D02*
D03*
X041700D02*
D03*
X042700D02*
D03*
X043700D02*
D03*
X044700Y043500D02*
D03*
X041700D02*
D03*
X042700D02*
D03*
X043700D02*
D03*
X011700Y027200D02*
D03*
X020500Y012500D02*
D03*
X016700Y018200D02*
D03*
X015700D02*
D03*
X016700Y019200D02*
D03*
X015700D02*
D03*
X016700Y020200D02*
D03*
X015700D02*
D03*
X016700Y021200D02*
D03*
X015700D02*
D03*
X016700Y022200D02*
D03*
X015700D02*
D03*
X016700Y023200D02*
D03*
X015700D02*
D03*
X016700Y024200D02*
D03*
X015700D02*
D03*
X016700Y025200D02*
D03*
X015700D02*
D03*
X016700Y026200D02*
D03*
X015700D02*
D03*
X016700Y027200D02*
D03*
X015700D02*
D03*
X016700Y028200D02*
D03*
X015700D02*
D03*
X016700Y029200D02*
D03*
X015700D02*
D03*
X016700Y030200D02*
D03*
X015700D02*
D03*
X016700Y031200D02*
D03*
X015700D02*
D03*
X016700Y032200D02*
D03*
X015700D02*
D03*
X016700Y033200D02*
D03*
X015700D02*
D03*
X016700Y034200D02*
D03*
X015700D02*
D03*
X016700Y035200D02*
D03*
X015700D02*
D03*
X016700Y036200D02*
D03*
X015700D02*
D03*
X016700Y037200D02*
D03*
X015700D02*
D03*
X016700Y038200D02*
D03*
X015700D02*
D03*
X016700Y039200D02*
D03*
X015700D02*
D03*
X016700Y040200D02*
D03*
X015700D02*
D03*
X016700Y041200D02*
D03*
X015700D02*
D03*
X016700Y042200D02*
D03*
X048500Y020700D02*
D03*
X049500D02*
D03*
X048500Y019700D02*
D03*
X049500D02*
D03*
X048500Y018700D02*
D03*
X049500D02*
D03*
X048500Y017700D02*
D03*
X049500D02*
D03*
X048500Y016700D02*
D03*
X049500D02*
D03*
X048500Y015700D02*
D03*
X049500D02*
D03*
X048500Y026700D02*
D03*
X049500D02*
D03*
X048500Y025700D02*
D03*
X049500D02*
D03*
X048500Y024700D02*
D03*
X049500D02*
D03*
X048500Y023700D02*
D03*
X049500D02*
D03*
X048500Y022700D02*
D03*
X049500D02*
D03*
X048500Y021700D02*
D03*
X049500D02*
D03*
D59*
X049600Y037800D02*
D03*
Y045000D02*
D03*
Y042600D02*
D03*
Y040200D02*
D03*
D60*
X048500Y034700D02*
D03*
X011700Y042200D02*
D03*
X015700D02*
D03*
D61*
X012000Y012000D02*
D03*
X049000D02*
D03*
Y048000D02*
D03*
X012000D02*
D03*
D62*
X048800Y042400D02*
D03*
X045600Y042200D02*
D03*
X034500Y038200D02*
D03*
X035080Y038190D02*
D03*
X032300Y038470D02*
D03*
X030780Y014530D02*
D03*
X031220Y016920D02*
D03*
X041500Y039110D02*
D03*
X036980Y038620D02*
D03*
X037790Y026870D02*
D03*
X041850D02*
D03*
X039850D02*
D03*
X034740Y016940D02*
D03*
X030160Y015640D02*
D03*
X029840Y018450D02*
D03*
X029870Y026090D02*
D03*
X027920Y042020D02*
D03*
X032080Y019260D02*
D03*
X031800Y023630D02*
D03*
X030200Y023620D02*
D03*
X035700Y018420D02*
D03*
X035680Y024340D02*
D03*
X034760Y028080D02*
D03*
X034050Y026790D02*
D03*
X032020Y028100D02*
D03*
X028440Y028080D02*
D03*
X023950Y028100D02*
D03*
X019430Y041330D02*
D03*
X019310Y035030D02*
D03*
X019950Y032430D02*
D03*
X022470Y034820D02*
D03*
X018438Y038048D02*
D03*
X019450Y040650D02*
D03*
X020900Y040300D02*
D03*
X037950Y041400D02*
D03*
X033200Y037450D02*
D03*
X038800Y036350D02*
D03*
X042400Y036400D02*
D03*
X046350Y042000D02*
D03*
X042000Y037450D02*
D03*
X042350Y022350D02*
D03*
X039650Y017950D02*
D03*
X043350Y018800D02*
D03*
X042550Y018600D02*
D03*
X045209Y016241D02*
D03*
Y014859D02*
D03*
X045150Y014050D02*
D03*
Y013100D02*
D03*
X044500Y013600D02*
D03*
X043350Y014100D02*
D03*
X033100Y014660D02*
D03*
X031900D02*
D03*
X023800Y021200D02*
D03*
X025100Y023950D02*
D03*
X027150Y020150D02*
D03*
X024750D02*
D03*
X021500Y020154D02*
D03*
X019100Y023350D02*
D03*
X021750Y023900D02*
D03*
X023050Y022350D02*
D03*
X040310Y029110D02*
D03*
X043920D02*
D03*
X038640Y015810D02*
D03*
X031030Y028750D02*
D03*
X042420D02*
D03*
X034730D02*
D03*
X040300Y036370D02*
D03*
X040325Y027460D02*
D03*
X046890Y027190D02*
D03*
X044410Y036670D02*
D03*
X046600Y036510D02*
D03*
X045050Y034460D02*
D03*
X046970Y040170D02*
D03*
X045230Y040430D02*
D03*
X041760Y041600D02*
D03*
X046335Y040795D02*
D03*
X018260Y035290D02*
D03*
X037550Y035210D02*
D03*
X020600Y035140D02*
D03*
X020870Y033780D02*
D03*
X031440Y037470D02*
D03*
X031620Y039670D02*
D03*
X037530Y039210D02*
D03*
X031630Y041970D02*
D03*
X034570Y040710D02*
D03*
X018220Y019630D02*
D03*
X044060Y019900D02*
D03*
X041320Y018260D02*
D03*
X018480Y020630D02*
D03*
X045460Y020900D02*
D03*
X019650Y021630D02*
D03*
X038250Y021880D02*
D03*
X020510Y022190D02*
D03*
X021170Y022450D02*
D03*
X021510Y022750D02*
D03*
X026560Y025060D02*
D03*
X026200Y025940D02*
D03*
X032220Y026630D02*
D03*
X025900Y026910D02*
D03*
X036140Y027640D02*
D03*
X025200Y027900D02*
D03*
X024910Y028690D02*
D03*
X023490Y029720D02*
D03*
X020320Y038630D02*
D03*
X020350Y037630D02*
D03*
X020080Y036650D02*
D03*
X019450Y035650D02*
D03*
X019960Y033640D02*
D03*
X020360Y033680D02*
D03*
X020060Y034200D02*
D03*
X019830Y034770D02*
D03*
X018550Y035960D02*
D03*
X018400Y031770D02*
D03*
X020270Y039770D02*
D03*
X018370Y040760D02*
D03*
X042930Y036680D02*
D03*
X044410Y020620D02*
D03*
X042340Y020650D02*
D03*
X040330Y038920D02*
D03*
X040590Y040020D02*
D03*
X039570Y041050D02*
D03*
X039280Y041700D02*
D03*
X039390Y020170D02*
D03*
X041830D02*
D03*
X026690Y039230D02*
D03*
X031370Y039250D02*
D03*
X026580Y038230D02*
D03*
X031090D02*
D03*
X026660Y040320D02*
D03*
X021910Y040740D02*
D03*
X026810Y041370D02*
D03*
X021900D02*
D03*
X029150Y036610D02*
D03*
X033120Y036620D02*
D03*
X036350Y036280D02*
D03*
X026580Y040720D02*
D03*
X029500Y040710D02*
D03*
X026900Y038550D02*
D03*
X030710D02*
D03*
Y036270D02*
D03*
X033100Y034660D02*
D03*
X030390D02*
D03*
X036700Y034970D02*
D03*
X030100D02*
D03*
X028630Y020210D02*
D03*
X033190D02*
D03*
X028940Y020480D02*
D03*
X034110D02*
D03*
X029070Y022200D02*
D03*
X035690Y022240D02*
D03*
X029350Y022460D02*
D03*
X034700D02*
D03*
X016780Y049140D02*
D03*
X016760Y048340D02*
D03*
X016780Y047540D02*
D03*
X016800Y046730D02*
D03*
X026580Y039700D02*
D03*
X029160D02*
D03*
X023860Y035800D02*
D03*
X028020Y036360D02*
D03*
X031120Y035840D02*
D03*
X034730Y035850D02*
D03*
X043230Y032670D02*
D03*
X043480Y032230D02*
D03*
X040750Y031700D02*
D03*
X040570Y031290D02*
D03*
X039850Y034290D02*
D03*
X039130Y030230D02*
D03*
X040350Y024790D02*
D03*
X042020Y024950D02*
D03*
X041670Y034710D02*
D03*
X043920Y033680D02*
D03*
X044130Y033160D02*
D03*
X040350Y023110D02*
D03*
X040850Y022830D02*
D03*
X044730Y022960D02*
D03*
Y027660D02*
D03*
X041320Y020550D02*
D03*
X038790Y020450D02*
D03*
X043160Y022550D02*
D03*
X045050D02*
D03*
Y028680D02*
D03*
X043360Y022110D02*
D03*
X045340D02*
D03*
Y028130D02*
D03*
X039040Y019570D02*
D03*
X045760Y019610D02*
D03*
X045570Y030700D02*
D03*
X044070Y023880D02*
D03*
X045860D02*
D03*
Y029670D02*
D03*
X044060Y021210D02*
D03*
X046040D02*
D03*
X046130Y029160D02*
D03*
X040340Y017940D02*
D03*
X046150D02*
D03*
X046390Y024190D02*
D03*
X040840Y017690D02*
D03*
X046490D02*
D03*
X046640Y024480D02*
D03*
X044450Y019240D02*
D03*
X046920Y019260D02*
D03*
X046910Y023710D02*
D03*
X043810Y017400D02*
D03*
X046980Y017810D02*
D03*
X039200Y015950D02*
D03*
X046980Y017330D02*
D03*
X040230Y015530D02*
D03*
X046050Y020700D02*
D03*
Y018790D02*
D03*
X047200Y038330D02*
D03*
X036480D02*
D03*
X047520Y037560D02*
D03*
X047820Y039510D02*
D03*
X036470D02*
D03*
X048150Y039980D02*
D03*
X034880Y039540D02*
D03*
X034670Y020340D02*
D03*
X035750Y020210D02*
D03*
X035460Y022930D02*
D03*
X037800D02*
D03*
X027730Y024650D02*
D03*
X038800Y023400D02*
D03*
X027800Y025630D02*
D03*
X038770D02*
D03*
X038430Y026370D02*
D03*
X041350D02*
D03*
X035110Y022580D02*
D03*
X036470Y022570D02*
D03*
X033940Y022900D02*
D03*
X036830Y023260D02*
D03*
X023270Y018220D02*
D03*
X034210Y026190D02*
D03*
X035800Y035460D02*
D03*
X022860Y032970D02*
D03*
X046090Y033940D02*
D03*
X022940Y033520D02*
D03*
X023750Y033340D02*
D03*
X040290D02*
D03*
X039970Y040610D02*
D03*
X042000Y040960D02*
D03*
X024060Y033650D02*
D03*
X029860D02*
D03*
X029780Y040390D02*
D03*
X032440Y040540D02*
D03*
X025260Y032990D02*
D03*
X032670Y033010D02*
D03*
X024400Y034550D02*
D03*
X041890Y035120D02*
D03*
X043380Y038960D02*
D03*
X047230Y039250D02*
D03*
X043640Y038640D02*
D03*
X047450Y038840D02*
D03*
X047540Y046780D02*
D03*
X045250Y037940D02*
D03*
X048430Y037990D02*
D03*
X047100Y047620D02*
D03*
X044090Y036940D02*
D03*
X048310Y036980D02*
D03*
X048120Y046270D02*
D03*
M02*
