M48
;Layer_Color=9474304
;FILE_FORMAT=2:4
INCH
;TYPE=PLATED
T1F00S00C0.0150
T2F00S00C0.0394
T3F00S00C0.0400
T4F00S00C0.1250
%
T01
X030780Y014530
X031900Y014660
X033100
X040230Y015530
X043350Y014100
X044500Y013600
X045150Y014050
X045209Y014859
X045150Y013100
X046980Y017330
Y017810
X047470Y017360
X046920Y019260
X047510Y021210
X047690Y022850
X047350Y023230
X046910Y023710
X046890Y027190
X049910Y026220
X046640Y024480
X046390Y024190
X045860Y023880
X044070
X044730Y022960
X045050Y022550
X045340Y022110
X045460Y020900
X046050Y020700
X046040Y021210
X045760Y019610
X046050Y018790
X046150Y017940
X046490Y017690
X045209Y016241
X043810Y017400
X043350Y018800
X042550Y018600
X041320Y018260
X040840Y017690
X040340Y017940
X039650Y017950
X039040Y019570
X039390Y020170
X038790Y020450
X038250Y021880
X037800Y022930
X036830Y023260
X036470Y022570
X035690Y022240
X035460Y022930
X035110Y022580
X034700Y022460
X033940Y022900
X034110Y020480
X034670Y020340
X035750Y020210
X035700Y018420
X034740Y016940
X033190Y020210
X032080Y019260
X031800Y023630
X032220Y026630
X032020Y028100
X034760Y028080
X034730Y028750
X036140Y027640
X037790Y026870
X038430Y026370
X038770Y025630
X038800Y023400
X040350Y023110
X040850Y022830
X042350Y022350
X043160Y022550
X043360Y022110
X044060Y021210
X044410Y020620
X044060Y019900
X044450Y019240
X042340Y020650
X041830Y020170
X041320Y020550
X042020Y024950
X040350Y024790
X039850Y026870
X040325Y027460
X040310Y029110
X039130Y030230
X042420Y028750
X043920Y029110
X045050Y028680
X045340Y028130
X044730Y027660
X046130Y029160
X045860Y029670
X045570Y030700
X041850Y026870
X041350Y026370
X034210Y026190
X034050Y026790
X035680Y024340
X038640Y015810
X039200Y015950
X031220Y016920
X030160Y015640
X029840Y018450
X028940Y020480
X028630Y020210
X027150Y020150
X024750
X023800Y021200
X023050Y022350
X021510Y022750
X021170Y022450
X020510Y022190
X019650Y021630
X018480Y020630
X018220Y019630
X021500Y020154
X023270Y018220
X021750Y023900
X019100Y023350
X025100Y023950
X026560Y025060
X026200Y025940
X025900Y026910
X025200Y027900
X024910Y028690
X023950Y028100
X023490Y029720
X028440Y028080
X027800Y025630
X027730Y024650
X030200Y023620
X029350Y022460
X029070Y022200
X029870Y026090
X031030Y028750
X014780Y031830
X014530Y033680
X013330Y032730
X013610Y035680
X013600Y036150
X013460Y037350
X014240Y036960
X015030
X015080Y037350
X015030Y036150
X010580Y036690
X010850Y037740
X011150Y038630
X017570Y037270
X018438Y038048
X018550Y035960
X018260Y035290
X019310Y035030
X019450Y035650
X019830Y034770
X020060Y034200
X019960Y033640
X020360Y033680
X020870Y033780
X020600Y035140
X020080Y036650
X020350Y037630
X020320Y038630
X020270Y039770
X020900Y040300
X021910Y040740
X021900Y041370
X019430Y041330
X019450Y040650
X018370Y040760
X018970Y046740
X016800Y046730
X028330Y046000
X027890Y043660
X027920Y042020
X026810Y041370
X026580Y040720
X026660Y040320
X026580Y039700
X026690Y039230
X026900Y038550
X026580Y038230
X028020Y036360
X029150Y036610
X030710Y036270
X031120Y035840
X030100Y034970
X030390Y034660
X029860Y033650
X025260Y032990
X023750Y033340
X024060Y033650
X024400Y034550
X023860Y035800
X022470Y034820
X022940Y033520
X022860Y032970
X019950Y032430
X018400Y031770
X025390Y042180
X030100Y042690
X029500Y040710
X029780Y040390
X029160Y039700
X030710Y038550
X031090Y038230
X031440Y037470
X033200Y037450
X033120Y036620
X033100Y034660
X032670Y033010
X034730Y035850
X035800Y035460
X036350Y036280
X036700Y034970
X037550Y035210
X038800Y036350
X040300Y036370
X042400Y036400
X042930Y036680
X044090Y036940
X044410Y036670
X045250Y037940
X043640Y038640
X043380Y038960
X041500Y039110
X040330Y038920
X040590Y040020
X039970Y040610
X039570Y041050
X039280Y041700
X039760Y042380
X040740Y042130
X041760Y041600
X042000Y040960
Y037450
X041890Y035120
X041670Y034710
X039850Y034290
X040290Y033340
X040750Y031700
X040570Y031290
X043480Y032230
X043230Y032670
X044130Y033160
X043920Y033680
X045050Y034460
X046090Y033940
X046600Y036510
X046335Y040795
X046350Y042000
X045600Y042200
X045230Y040430
X045360Y046270
X046530Y046630
X041710
X035820Y044940
X034500Y043990
X034430Y043080
X033020Y042780
X031880Y042380
X031630Y041970
X032440Y040540
X031620Y039670
X031370Y039250
X032300Y038470
X034500Y038200
X035080Y038190
X036480Y038330
X036980Y038620
X037530Y039210
X036470Y039510
X034880Y039540
X034570Y040710
X037950Y041400
X046970Y040170
X047230Y039250
X047450Y038840
X047200Y038330
X047520Y037560
X048430Y037990
X048310Y036980
X049940Y036540
X050430Y036090
X049580Y035460
X047820Y039510
X048150Y039980
X048800Y042400
X048120Y046270
X047540Y046780
X047100Y047620
X030520Y046910
X027720Y048020
X027440Y048340
X027150Y049140
X016780
X016760Y048340
X016780Y047540
X018640Y047020
T02
X015500Y011500
Y012500
X016500
Y011500
X017500
Y012500
X018500
Y011500
X019500
Y012500
X020500
Y011500
X021500
Y012500
X022500
Y011500
X023500
Y012500
X024500
Y011500
X048500Y015700
Y016700
Y017700
Y018700
Y019700
Y020700
X049500
Y019700
Y018700
Y017700
Y016700
Y015700
Y021700
Y022700
Y023700
Y024700
Y025700
Y026700
Y027700
X048500
Y028700
X049500
Y029700
X048500
Y030700
X049500
X048500Y026700
Y025700
Y024700
Y023700
Y022700
Y021700
X016700Y021200
Y020200
Y019200
Y018200
X015700
Y019200
Y020200
Y021200
Y022200
X016700
Y023200
X015700
Y024200
X016700
Y025200
X015700
Y026200
X016700
Y027200
X015700
Y028200
X016700
Y029200
X015700
Y030200
X016700
Y031200
X015700
X012700
X011700
Y030200
X012700
Y029200
X011700
Y028200
X012700
Y027200
Y026200
X011700
Y025200
X012700
Y024200
X011700
Y023200
X012700
Y022200
X011700
Y021200
X012700
Y020200
X011700
Y019200
X012700
Y018200
X011700
Y027200
Y032200
Y033200
Y034200
Y035200
Y036200
Y037200
Y038200
Y039200
Y040200
Y041200
Y042200
X012700
Y041200
Y040200
Y039200
Y038200
Y037200
Y036200
Y035200
Y034200
Y033200
Y032200
X015700
X016700
Y033200
X015700
Y034200
X016700
Y035200
X015700
Y036200
X016700
Y037200
X015700
Y038200
X016700
Y039200
X015700
Y040200
X016700
Y041200
X015700
Y042200
X016700
X020800Y043500
Y044500
X021800Y044500
X022800
X023800
X024800
Y043500
X023800
X022800
X021800
X029000
Y044500
X030000Y044500
X031000
Y043500
X030000
X032000
X033000
Y044500
X032000
X037700Y044500
Y043500
X038700
Y044500
X039700
X040700
X041700
X042700
X043700
X044700
Y043500
X043700
X042700
X041700
X040700
X039700
X048500Y034700
Y033700
Y032700
Y031700
X049500
Y032700
Y033700
Y034700
X044700Y047500
Y048500
X043700
X042700
X041700
X040700
X039700
X038700
X037700
Y047500
X038700
X039700
X040700
X041700
X042700
X043700
X033000Y047500
Y048500
X032000
Y047500
X031000
Y048500
X030000
Y047500
X029000
Y048500
X024800Y048500
Y047500
X023800
Y048500
X022800
Y047500
X021800
X020800
Y048500
X021800Y048500
T03
X031000Y011620
X032000
X033000
X034000
X038400Y011600
X039400
X040400
X042050
X043050
X044050
X049600Y037800
Y038800
Y040200
Y041200
Y042600
Y043600
Y045000
Y046000
T04
X012000Y012000
X049000
Y048000
X012000
M30
