%FSAX24Y24*%
%MOIN*%
G70*
G01*
G75*
G04 Layer_Color=16711935*
%ADD10R,0.0433X0.0394*%
%ADD11R,0.0787X0.0630*%
%ADD12R,0.0787X0.0787*%
%ADD13C,0.0200*%
%ADD14C,0.0080*%
%ADD15C,0.0100*%
%ADD16O,0.1181X0.0866*%
%ADD17C,0.0650*%
%ADD18R,0.0650X0.0650*%
%ADD19C,0.1000*%
%ADD20C,0.0250*%
%ADD21R,0.0394X0.0433*%
%ADD22R,0.0335X0.0866*%
%ADD23R,0.0700X0.0600*%
G04:AMPARAMS|DCode=24|XSize=60mil|YSize=70mil|CornerRadius=15mil|HoleSize=0mil|Usage=FLASHONLY|Rotation=90.000|XOffset=0mil|YOffset=0mil|HoleType=Round|Shape=RoundedRectangle|*
%AMROUNDEDRECTD24*
21,1,0.0600,0.0400,0,0,90.0*
21,1,0.0300,0.0700,0,0,90.0*
1,1,0.0300,0.0200,0.0150*
1,1,0.0300,0.0200,-0.0150*
1,1,0.0300,-0.0200,-0.0150*
1,1,0.0300,-0.0200,0.0150*
%
%ADD24ROUNDEDRECTD24*%
%ADD25O,0.0236X0.0866*%
%ADD26O,0.0236X0.0748*%
%ADD27O,0.0236X0.0591*%
%ADD28C,0.0098*%
%ADD29C,0.0079*%
%ADD30C,0.0059*%
%ADD31R,0.0748X0.1614*%
%ADD32C,0.0236*%
%ADD33R,0.3400X0.0800*%
%ADD34R,0.0513X0.0474*%
%ADD35R,0.0867X0.0710*%
%ADD36R,0.0867X0.0867*%
%ADD37O,0.1261X0.0946*%
%ADD38C,0.0730*%
%ADD39R,0.0730X0.0730*%
%ADD40C,0.1080*%
%ADD41C,0.0330*%
%ADD42R,0.0474X0.0513*%
%ADD43R,0.0415X0.0946*%
%ADD44R,0.0780X0.0680*%
G04:AMPARAMS|DCode=45|XSize=68mil|YSize=78mil|CornerRadius=19mil|HoleSize=0mil|Usage=FLASHONLY|Rotation=90.000|XOffset=0mil|YOffset=0mil|HoleType=Round|Shape=RoundedRectangle|*
%AMROUNDEDRECTD45*
21,1,0.0680,0.0400,0,0,90.0*
21,1,0.0300,0.0780,0,0,90.0*
1,1,0.0380,0.0200,0.0150*
1,1,0.0380,0.0200,-0.0150*
1,1,0.0380,-0.0200,-0.0150*
1,1,0.0380,-0.0200,0.0150*
%
%ADD45ROUNDEDRECTD45*%
%ADD46O,0.0316X0.0946*%
%ADD47O,0.0316X0.0828*%
%ADD48O,0.0316X0.0671*%
D34*
X016665Y014400D02*
D03*
X017335D02*
D03*
X017535Y018400D02*
D03*
X016865D02*
D03*
Y021000D02*
D03*
X017535D02*
D03*
D37*
X018000Y022000D02*
D03*
X019969D02*
D03*
X021937D02*
D03*
X023906D02*
D03*
X025874D02*
D03*
X027843D02*
D03*
D38*
X033300Y012900D02*
D03*
X032300D02*
D03*
X033300Y013900D02*
D03*
X032300D02*
D03*
X033300Y014900D02*
D03*
X032300D02*
D03*
X033300Y015900D02*
D03*
X032300D02*
D03*
X033300Y016900D02*
D03*
X032300D02*
D03*
X033300Y017900D02*
D03*
X032300D02*
D03*
X033300Y018900D02*
D03*
X032300D02*
D03*
X033300Y019900D02*
D03*
D39*
X032300D02*
D03*
D40*
X025400Y014400D02*
D03*
Y016400D02*
D03*
X017400Y011400D02*
D03*
Y015400D02*
D03*
Y019400D02*
D03*
D41*
X032900Y021600D02*
D03*
X030150Y010450D02*
D03*
X031400Y010600D02*
D03*
X015600Y022200D02*
D03*
X012009Y019609D02*
D03*
X015991D02*
D03*
X030800Y020600D02*
D03*
X030000Y020800D02*
D03*
X030600Y022400D02*
D03*
X029600Y022000D02*
D03*
X020600Y019800D02*
D03*
X024200D02*
D03*
X028800D02*
D03*
X012400Y015588D02*
D03*
X016600Y017200D02*
D03*
X013000D02*
D03*
X012063Y021137D02*
D03*
X012025Y020175D02*
D03*
X011200Y020400D02*
D03*
X012800D02*
D03*
X010600Y021600D02*
D03*
X014400Y021000D02*
D03*
X010600Y015200D02*
D03*
X014400D02*
D03*
X015800Y016800D02*
D03*
X012800D02*
D03*
X013600Y015600D02*
D03*
X014800D02*
D03*
X012200Y014600D02*
D03*
X016600Y020000D02*
D03*
X014800Y020400D02*
D03*
X021450Y020450D02*
D03*
X014200Y013200D02*
D03*
X013800Y022600D02*
D03*
X019800Y014800D02*
D03*
X025600Y012200D02*
D03*
X021800Y015200D02*
D03*
X025000Y015600D02*
D03*
X023600Y014600D02*
D03*
X029150Y012350D02*
D03*
X030200Y012400D02*
D03*
X034000Y012200D02*
D03*
X027200Y011000D02*
D03*
X031000Y011200D02*
D03*
Y013400D02*
D03*
X027900Y010700D02*
D03*
X030700D02*
D03*
Y013900D02*
D03*
X026800Y012800D02*
D03*
X027300Y012900D02*
D03*
X029400Y015000D02*
D03*
D42*
X032400Y021735D02*
D03*
Y021065D02*
D03*
X028000Y015065D02*
D03*
Y015735D02*
D03*
X012800Y013865D02*
D03*
Y014535D02*
D03*
X023600Y015735D02*
D03*
X020400Y015065D02*
D03*
Y015735D02*
D03*
X023600Y015065D02*
D03*
X024400Y012265D02*
D03*
Y012935D02*
D03*
Y011535D02*
D03*
Y010865D02*
D03*
X013800Y020065D02*
D03*
Y020735D02*
D03*
X011600Y020735D02*
D03*
Y020065D02*
D03*
X013200Y020735D02*
D03*
Y020065D02*
D03*
X011000Y014535D02*
D03*
Y013865D02*
D03*
X011800Y013865D02*
D03*
Y014535D02*
D03*
X013400Y014535D02*
D03*
Y013865D02*
D03*
X010800Y020735D02*
D03*
Y020065D02*
D03*
X014200Y013865D02*
D03*
Y014535D02*
D03*
X015000Y014535D02*
D03*
Y013865D02*
D03*
X021200Y015065D02*
D03*
Y015735D02*
D03*
X028800Y015065D02*
D03*
Y015735D02*
D03*
X024400Y015065D02*
D03*
Y015735D02*
D03*
X030000Y021265D02*
D03*
Y021935D02*
D03*
X030800Y021265D02*
D03*
Y021935D02*
D03*
D43*
X015400Y016809D02*
D03*
Y017991D02*
D03*
Y020391D02*
D03*
Y019209D02*
D03*
D44*
X024200Y016800D02*
D03*
X028800D02*
D03*
X020600D02*
D03*
D45*
X023200D02*
D03*
X022200D02*
D03*
X024200Y020450D02*
D03*
X023200D02*
D03*
X022200D02*
D03*
X026800D02*
D03*
X027800D02*
D03*
X028800D02*
D03*
X026800Y016800D02*
D03*
X027800D02*
D03*
X019600D02*
D03*
X018600D02*
D03*
X020600Y020450D02*
D03*
X019600D02*
D03*
X018600D02*
D03*
D46*
X026650Y013545D02*
D03*
X027150D02*
D03*
X027650D02*
D03*
X028150D02*
D03*
X028650D02*
D03*
X029150D02*
D03*
X029650D02*
D03*
X030150D02*
D03*
X026650Y011655D02*
D03*
X027150D02*
D03*
X027650D02*
D03*
X028150D02*
D03*
X028650D02*
D03*
X029150D02*
D03*
X029650D02*
D03*
X030150D02*
D03*
D47*
X022050Y013525D02*
D03*
X022550D02*
D03*
X023050D02*
D03*
X023550D02*
D03*
X022050Y011675D02*
D03*
X022550D02*
D03*
X023050D02*
D03*
X023550D02*
D03*
D48*
X013900Y016317D02*
D03*
X013400D02*
D03*
X012900D02*
D03*
X012400D02*
D03*
X011900D02*
D03*
X011400D02*
D03*
X010900D02*
D03*
X013900Y018483D02*
D03*
X013400D02*
D03*
X012900D02*
D03*
X012400D02*
D03*
X011900D02*
D03*
X011400D02*
D03*
X010900D02*
D03*
M02*
